M48
; DRILL file {KiCad (5.1.5-0)} date Sunday, April 26, 2020 at 10:39:27 PM
; FORMAT={-:-/ absolute / inch / decimal}
; #@! TF.CreationDate,2020-04-26T22:39:27-07:00
; #@! TF.GenerationSoftware,Kicad,Pcbnew,(5.1.5-0)
FMAT,2
INCH
T1C0.0157
T2C0.0236
T3C0.0394
T4C0.0550
%
G90
G05
T1
X7.438Y-3.9
X7.438Y-4.006
X7.466Y-4.464
X7.4698Y-4.6302
X7.568Y-4.676
X7.592Y-4.278
X7.612Y-3.9
X7.628Y-4.366
X7.64Y-3.622
X7.646Y-4.26
X7.656Y-3.888
X7.656Y-4.144
X7.682Y-3.776
X7.714Y-4.06
X7.714Y-4.332
X7.746Y-4.028
X7.746Y-4.368
X7.802Y-3.934
X7.804Y-4.228
X7.874Y-4.502
X7.892Y-3.624
X7.98Y-4.274
X7.982Y-4.148
X8.024Y-4.242
X8.026Y-4.15
X8.038Y-3.768
X8.044Y-4.02
X8.046Y-3.978
X8.06Y-3.814
X8.0655Y-4.152
X8.082Y-4.02
X8.084Y-3.98
X8.094Y-4.204
X8.094Y-4.352
X8.114Y-4.678
X8.138Y-4.146
X8.16Y-4.354
X8.18Y-3.956
X8.18Y-4.044
X8.214Y-3.99
X8.214Y-4.076
X8.244Y-3.9275
X8.252Y-4.462
X8.2785Y-3.724
X8.29Y-3.926
X8.29Y-4.146
X8.312Y-4.368
X8.324Y-3.862
X8.3435Y-4.444
X8.368Y-4.17
X8.368Y-4.332
X8.372Y-4.374
X8.38Y-4.126
X8.404Y-4.304
X8.47Y-3.67
X8.472Y-4.026
X8.522Y-3.872
X8.574Y-4.482
X8.646Y-3.886
X8.726Y-3.886
X8.764Y-4.366
X8.764Y-4.692
X8.788Y-4.274
X8.892Y-3.856
X8.938Y-3.886
X8.944Y-4.46
X9.134Y-3.658
X9.138Y-4.268
T2
X7.474Y-4.694
X7.526Y-4.57
T3
X8.284Y-4.572
X9.046Y-3.946
X8.478Y-4.568
X9.044Y-3.75
X8.478Y-4.37
X8.67Y-4.57
X8.832Y-3.742
X7.21Y-4.322
X7.21Y-4.422
X8.858Y-4.568
X8.62Y-3.75
X8.664Y-4.364
X9.05Y-4.576
X7.54Y-3.676
X7.54Y-3.776
X9.046Y-4.366
X8.858Y-4.366
X9.044Y-4.154
T4
X7.098Y-3.59
X7.098Y-3.79
X7.088Y-4.602
X7.288Y-4.602
X7.806Y-4.614
X8.006Y-4.614
X7.098Y-3.948
X7.098Y-4.148
T0
M30
