G04 #@! TF.GenerationSoftware,KiCad,Pcbnew,(5.1.5-0)*
G04 #@! TF.CreationDate,2020-04-26T22:39:22-07:00*
G04 #@! TF.ProjectId,Solar-Battery-Charger,536f6c61-722d-4426-9174-746572792d43,rev?*
G04 #@! TF.SameCoordinates,Original*
G04 #@! TF.FileFunction,Copper,L1,Top*
G04 #@! TF.FilePolarity,Positive*
%FSLAX46Y46*%
G04 Gerber Fmt 4.6, Leading zero omitted, Abs format (unit mm)*
G04 Created by KiCad (PCBNEW (5.1.5-0)) date 2020-04-26 22:39:22*
%MOMM*%
%LPD*%
G04 APERTURE LIST*
%ADD10C,0.152400*%
%ADD11C,1.905000*%
%ADD12R,3.632200X2.717800*%
%ADD13R,2.717800X3.632200*%
%ADD14R,0.800000X0.900000*%
%ADD15C,0.100000*%
%ADD16R,2.184400X1.549400*%
%ADD17O,1.700000X1.700000*%
%ADD18R,1.700000X1.700000*%
%ADD19R,0.900000X0.800000*%
%ADD20C,2.000000*%
%ADD21R,0.304800X0.812800*%
%ADD22R,0.812800X0.304800*%
%ADD23R,2.032000X2.032000*%
%ADD24C,0.800000*%
%ADD25C,1.200000*%
%ADD26C,0.250000*%
%ADD27C,0.254000*%
G04 APERTURE END LIST*
D10*
X205536800Y-94094300D02*
X204419200Y-94094300D01*
X204419200Y-94094300D02*
X204419200Y-92341700D01*
X204419200Y-92341700D02*
X205536800Y-92341700D01*
X205536800Y-92341700D02*
X205536800Y-94094300D01*
X207568800Y-94564200D02*
X202387200Y-94564200D01*
X202387200Y-94564200D02*
X202387200Y-94094300D01*
X202387200Y-94094300D02*
X207568800Y-94094300D01*
X207568800Y-94094300D02*
X207568800Y-94564200D01*
X207568800Y-92341700D02*
X202387200Y-92341700D01*
X202387200Y-92341700D02*
X202387200Y-91871800D01*
X202387200Y-91871800D02*
X207568800Y-91871800D01*
X207568800Y-91871800D02*
X207568800Y-92341700D01*
D11*
X180289200Y-100279200D03*
X180289200Y-105359200D03*
D12*
X180289200Y-102819200D03*
D11*
X180289200Y-91186000D03*
X180289200Y-96266000D03*
D12*
X180289200Y-93726000D03*
D11*
X203352400Y-117195600D03*
X198272400Y-117195600D03*
D13*
X200812400Y-117195600D03*
D11*
X185115200Y-116890800D03*
X180035200Y-116890800D03*
D13*
X182575200Y-116890800D03*
D14*
X206349600Y-113979200D03*
X205399600Y-111979200D03*
X207299600Y-111979200D03*
G04 #@! TA.AperFunction,SMDPad,CuDef*
D15*
G36*
X186782142Y-95160774D02*
G01*
X186805803Y-95164284D01*
X186829007Y-95170096D01*
X186851529Y-95178154D01*
X186873153Y-95188382D01*
X186893670Y-95200679D01*
X186912883Y-95214929D01*
X186930607Y-95230993D01*
X186946671Y-95248717D01*
X186960921Y-95267930D01*
X186973218Y-95288447D01*
X186983446Y-95310071D01*
X186991504Y-95332593D01*
X186997316Y-95355797D01*
X187000826Y-95379458D01*
X187002000Y-95403350D01*
X187002000Y-96315850D01*
X187000826Y-96339742D01*
X186997316Y-96363403D01*
X186991504Y-96386607D01*
X186983446Y-96409129D01*
X186973218Y-96430753D01*
X186960921Y-96451270D01*
X186946671Y-96470483D01*
X186930607Y-96488207D01*
X186912883Y-96504271D01*
X186893670Y-96518521D01*
X186873153Y-96530818D01*
X186851529Y-96541046D01*
X186829007Y-96549104D01*
X186805803Y-96554916D01*
X186782142Y-96558426D01*
X186758250Y-96559600D01*
X186270750Y-96559600D01*
X186246858Y-96558426D01*
X186223197Y-96554916D01*
X186199993Y-96549104D01*
X186177471Y-96541046D01*
X186155847Y-96530818D01*
X186135330Y-96518521D01*
X186116117Y-96504271D01*
X186098393Y-96488207D01*
X186082329Y-96470483D01*
X186068079Y-96451270D01*
X186055782Y-96430753D01*
X186045554Y-96409129D01*
X186037496Y-96386607D01*
X186031684Y-96363403D01*
X186028174Y-96339742D01*
X186027000Y-96315850D01*
X186027000Y-95403350D01*
X186028174Y-95379458D01*
X186031684Y-95355797D01*
X186037496Y-95332593D01*
X186045554Y-95310071D01*
X186055782Y-95288447D01*
X186068079Y-95267930D01*
X186082329Y-95248717D01*
X186098393Y-95230993D01*
X186116117Y-95214929D01*
X186135330Y-95200679D01*
X186155847Y-95188382D01*
X186177471Y-95178154D01*
X186199993Y-95170096D01*
X186223197Y-95164284D01*
X186246858Y-95160774D01*
X186270750Y-95159600D01*
X186758250Y-95159600D01*
X186782142Y-95160774D01*
G37*
G04 #@! TD.AperFunction*
G04 #@! TA.AperFunction,SMDPad,CuDef*
G36*
X188657142Y-95160774D02*
G01*
X188680803Y-95164284D01*
X188704007Y-95170096D01*
X188726529Y-95178154D01*
X188748153Y-95188382D01*
X188768670Y-95200679D01*
X188787883Y-95214929D01*
X188805607Y-95230993D01*
X188821671Y-95248717D01*
X188835921Y-95267930D01*
X188848218Y-95288447D01*
X188858446Y-95310071D01*
X188866504Y-95332593D01*
X188872316Y-95355797D01*
X188875826Y-95379458D01*
X188877000Y-95403350D01*
X188877000Y-96315850D01*
X188875826Y-96339742D01*
X188872316Y-96363403D01*
X188866504Y-96386607D01*
X188858446Y-96409129D01*
X188848218Y-96430753D01*
X188835921Y-96451270D01*
X188821671Y-96470483D01*
X188805607Y-96488207D01*
X188787883Y-96504271D01*
X188768670Y-96518521D01*
X188748153Y-96530818D01*
X188726529Y-96541046D01*
X188704007Y-96549104D01*
X188680803Y-96554916D01*
X188657142Y-96558426D01*
X188633250Y-96559600D01*
X188145750Y-96559600D01*
X188121858Y-96558426D01*
X188098197Y-96554916D01*
X188074993Y-96549104D01*
X188052471Y-96541046D01*
X188030847Y-96530818D01*
X188010330Y-96518521D01*
X187991117Y-96504271D01*
X187973393Y-96488207D01*
X187957329Y-96470483D01*
X187943079Y-96451270D01*
X187930782Y-96430753D01*
X187920554Y-96409129D01*
X187912496Y-96386607D01*
X187906684Y-96363403D01*
X187903174Y-96339742D01*
X187902000Y-96315850D01*
X187902000Y-95403350D01*
X187903174Y-95379458D01*
X187906684Y-95355797D01*
X187912496Y-95332593D01*
X187920554Y-95310071D01*
X187930782Y-95288447D01*
X187943079Y-95267930D01*
X187957329Y-95248717D01*
X187973393Y-95230993D01*
X187991117Y-95214929D01*
X188010330Y-95200679D01*
X188030847Y-95188382D01*
X188052471Y-95178154D01*
X188074993Y-95170096D01*
X188098197Y-95164284D01*
X188121858Y-95160774D01*
X188145750Y-95159600D01*
X188633250Y-95159600D01*
X188657142Y-95160774D01*
G37*
G04 #@! TD.AperFunction*
G04 #@! TA.AperFunction,SMDPad,CuDef*
G36*
X196669742Y-93973974D02*
G01*
X196693403Y-93977484D01*
X196716607Y-93983296D01*
X196739129Y-93991354D01*
X196760753Y-94001582D01*
X196781270Y-94013879D01*
X196800483Y-94028129D01*
X196818207Y-94044193D01*
X196834271Y-94061917D01*
X196848521Y-94081130D01*
X196860818Y-94101647D01*
X196871046Y-94123271D01*
X196879104Y-94145793D01*
X196884916Y-94168997D01*
X196888426Y-94192658D01*
X196889600Y-94216550D01*
X196889600Y-94704050D01*
X196888426Y-94727942D01*
X196884916Y-94751603D01*
X196879104Y-94774807D01*
X196871046Y-94797329D01*
X196860818Y-94818953D01*
X196848521Y-94839470D01*
X196834271Y-94858683D01*
X196818207Y-94876407D01*
X196800483Y-94892471D01*
X196781270Y-94906721D01*
X196760753Y-94919018D01*
X196739129Y-94929246D01*
X196716607Y-94937304D01*
X196693403Y-94943116D01*
X196669742Y-94946626D01*
X196645850Y-94947800D01*
X195733350Y-94947800D01*
X195709458Y-94946626D01*
X195685797Y-94943116D01*
X195662593Y-94937304D01*
X195640071Y-94929246D01*
X195618447Y-94919018D01*
X195597930Y-94906721D01*
X195578717Y-94892471D01*
X195560993Y-94876407D01*
X195544929Y-94858683D01*
X195530679Y-94839470D01*
X195518382Y-94818953D01*
X195508154Y-94797329D01*
X195500096Y-94774807D01*
X195494284Y-94751603D01*
X195490774Y-94727942D01*
X195489600Y-94704050D01*
X195489600Y-94216550D01*
X195490774Y-94192658D01*
X195494284Y-94168997D01*
X195500096Y-94145793D01*
X195508154Y-94123271D01*
X195518382Y-94101647D01*
X195530679Y-94081130D01*
X195544929Y-94061917D01*
X195560993Y-94044193D01*
X195578717Y-94028129D01*
X195597930Y-94013879D01*
X195618447Y-94001582D01*
X195640071Y-93991354D01*
X195662593Y-93983296D01*
X195685797Y-93977484D01*
X195709458Y-93973974D01*
X195733350Y-93972800D01*
X196645850Y-93972800D01*
X196669742Y-93973974D01*
G37*
G04 #@! TD.AperFunction*
G04 #@! TA.AperFunction,SMDPad,CuDef*
G36*
X196669742Y-92098974D02*
G01*
X196693403Y-92102484D01*
X196716607Y-92108296D01*
X196739129Y-92116354D01*
X196760753Y-92126582D01*
X196781270Y-92138879D01*
X196800483Y-92153129D01*
X196818207Y-92169193D01*
X196834271Y-92186917D01*
X196848521Y-92206130D01*
X196860818Y-92226647D01*
X196871046Y-92248271D01*
X196879104Y-92270793D01*
X196884916Y-92293997D01*
X196888426Y-92317658D01*
X196889600Y-92341550D01*
X196889600Y-92829050D01*
X196888426Y-92852942D01*
X196884916Y-92876603D01*
X196879104Y-92899807D01*
X196871046Y-92922329D01*
X196860818Y-92943953D01*
X196848521Y-92964470D01*
X196834271Y-92983683D01*
X196818207Y-93001407D01*
X196800483Y-93017471D01*
X196781270Y-93031721D01*
X196760753Y-93044018D01*
X196739129Y-93054246D01*
X196716607Y-93062304D01*
X196693403Y-93068116D01*
X196669742Y-93071626D01*
X196645850Y-93072800D01*
X195733350Y-93072800D01*
X195709458Y-93071626D01*
X195685797Y-93068116D01*
X195662593Y-93062304D01*
X195640071Y-93054246D01*
X195618447Y-93044018D01*
X195597930Y-93031721D01*
X195578717Y-93017471D01*
X195560993Y-93001407D01*
X195544929Y-92983683D01*
X195530679Y-92964470D01*
X195518382Y-92943953D01*
X195508154Y-92922329D01*
X195500096Y-92899807D01*
X195494284Y-92876603D01*
X195490774Y-92852942D01*
X195489600Y-92829050D01*
X195489600Y-92341550D01*
X195490774Y-92317658D01*
X195494284Y-92293997D01*
X195500096Y-92270793D01*
X195508154Y-92248271D01*
X195518382Y-92226647D01*
X195530679Y-92206130D01*
X195544929Y-92186917D01*
X195560993Y-92169193D01*
X195578717Y-92153129D01*
X195597930Y-92138879D01*
X195618447Y-92126582D01*
X195640071Y-92116354D01*
X195662593Y-92108296D01*
X195685797Y-92102484D01*
X195709458Y-92098974D01*
X195733350Y-92097800D01*
X196645850Y-92097800D01*
X196669742Y-92098974D01*
G37*
G04 #@! TD.AperFunction*
G04 #@! TA.AperFunction,SMDPad,CuDef*
G36*
X191132542Y-110077574D02*
G01*
X191156203Y-110081084D01*
X191179407Y-110086896D01*
X191201929Y-110094954D01*
X191223553Y-110105182D01*
X191244070Y-110117479D01*
X191263283Y-110131729D01*
X191281007Y-110147793D01*
X191297071Y-110165517D01*
X191311321Y-110184730D01*
X191323618Y-110205247D01*
X191333846Y-110226871D01*
X191341904Y-110249393D01*
X191347716Y-110272597D01*
X191351226Y-110296258D01*
X191352400Y-110320150D01*
X191352400Y-110807650D01*
X191351226Y-110831542D01*
X191347716Y-110855203D01*
X191341904Y-110878407D01*
X191333846Y-110900929D01*
X191323618Y-110922553D01*
X191311321Y-110943070D01*
X191297071Y-110962283D01*
X191281007Y-110980007D01*
X191263283Y-110996071D01*
X191244070Y-111010321D01*
X191223553Y-111022618D01*
X191201929Y-111032846D01*
X191179407Y-111040904D01*
X191156203Y-111046716D01*
X191132542Y-111050226D01*
X191108650Y-111051400D01*
X190196150Y-111051400D01*
X190172258Y-111050226D01*
X190148597Y-111046716D01*
X190125393Y-111040904D01*
X190102871Y-111032846D01*
X190081247Y-111022618D01*
X190060730Y-111010321D01*
X190041517Y-110996071D01*
X190023793Y-110980007D01*
X190007729Y-110962283D01*
X189993479Y-110943070D01*
X189981182Y-110922553D01*
X189970954Y-110900929D01*
X189962896Y-110878407D01*
X189957084Y-110855203D01*
X189953574Y-110831542D01*
X189952400Y-110807650D01*
X189952400Y-110320150D01*
X189953574Y-110296258D01*
X189957084Y-110272597D01*
X189962896Y-110249393D01*
X189970954Y-110226871D01*
X189981182Y-110205247D01*
X189993479Y-110184730D01*
X190007729Y-110165517D01*
X190023793Y-110147793D01*
X190041517Y-110131729D01*
X190060730Y-110117479D01*
X190081247Y-110105182D01*
X190102871Y-110094954D01*
X190125393Y-110086896D01*
X190148597Y-110081084D01*
X190172258Y-110077574D01*
X190196150Y-110076400D01*
X191108650Y-110076400D01*
X191132542Y-110077574D01*
G37*
G04 #@! TD.AperFunction*
G04 #@! TA.AperFunction,SMDPad,CuDef*
G36*
X191132542Y-108202574D02*
G01*
X191156203Y-108206084D01*
X191179407Y-108211896D01*
X191201929Y-108219954D01*
X191223553Y-108230182D01*
X191244070Y-108242479D01*
X191263283Y-108256729D01*
X191281007Y-108272793D01*
X191297071Y-108290517D01*
X191311321Y-108309730D01*
X191323618Y-108330247D01*
X191333846Y-108351871D01*
X191341904Y-108374393D01*
X191347716Y-108397597D01*
X191351226Y-108421258D01*
X191352400Y-108445150D01*
X191352400Y-108932650D01*
X191351226Y-108956542D01*
X191347716Y-108980203D01*
X191341904Y-109003407D01*
X191333846Y-109025929D01*
X191323618Y-109047553D01*
X191311321Y-109068070D01*
X191297071Y-109087283D01*
X191281007Y-109105007D01*
X191263283Y-109121071D01*
X191244070Y-109135321D01*
X191223553Y-109147618D01*
X191201929Y-109157846D01*
X191179407Y-109165904D01*
X191156203Y-109171716D01*
X191132542Y-109175226D01*
X191108650Y-109176400D01*
X190196150Y-109176400D01*
X190172258Y-109175226D01*
X190148597Y-109171716D01*
X190125393Y-109165904D01*
X190102871Y-109157846D01*
X190081247Y-109147618D01*
X190060730Y-109135321D01*
X190041517Y-109121071D01*
X190023793Y-109105007D01*
X190007729Y-109087283D01*
X189993479Y-109068070D01*
X189981182Y-109047553D01*
X189970954Y-109025929D01*
X189962896Y-109003407D01*
X189957084Y-108980203D01*
X189953574Y-108956542D01*
X189952400Y-108932650D01*
X189952400Y-108445150D01*
X189953574Y-108421258D01*
X189957084Y-108397597D01*
X189962896Y-108374393D01*
X189970954Y-108351871D01*
X189981182Y-108330247D01*
X189993479Y-108309730D01*
X190007729Y-108290517D01*
X190023793Y-108272793D01*
X190041517Y-108256729D01*
X190060730Y-108242479D01*
X190081247Y-108230182D01*
X190102871Y-108219954D01*
X190125393Y-108211896D01*
X190148597Y-108206084D01*
X190172258Y-108202574D01*
X190196150Y-108201400D01*
X191108650Y-108201400D01*
X191132542Y-108202574D01*
G37*
G04 #@! TD.AperFunction*
G04 #@! TA.AperFunction,SMDPad,CuDef*
G36*
X207642542Y-97834774D02*
G01*
X207666203Y-97838284D01*
X207689407Y-97844096D01*
X207711929Y-97852154D01*
X207733553Y-97862382D01*
X207754070Y-97874679D01*
X207773283Y-97888929D01*
X207791007Y-97904993D01*
X207807071Y-97922717D01*
X207821321Y-97941930D01*
X207833618Y-97962447D01*
X207843846Y-97984071D01*
X207851904Y-98006593D01*
X207857716Y-98029797D01*
X207861226Y-98053458D01*
X207862400Y-98077350D01*
X207862400Y-98564850D01*
X207861226Y-98588742D01*
X207857716Y-98612403D01*
X207851904Y-98635607D01*
X207843846Y-98658129D01*
X207833618Y-98679753D01*
X207821321Y-98700270D01*
X207807071Y-98719483D01*
X207791007Y-98737207D01*
X207773283Y-98753271D01*
X207754070Y-98767521D01*
X207733553Y-98779818D01*
X207711929Y-98790046D01*
X207689407Y-98798104D01*
X207666203Y-98803916D01*
X207642542Y-98807426D01*
X207618650Y-98808600D01*
X206706150Y-98808600D01*
X206682258Y-98807426D01*
X206658597Y-98803916D01*
X206635393Y-98798104D01*
X206612871Y-98790046D01*
X206591247Y-98779818D01*
X206570730Y-98767521D01*
X206551517Y-98753271D01*
X206533793Y-98737207D01*
X206517729Y-98719483D01*
X206503479Y-98700270D01*
X206491182Y-98679753D01*
X206480954Y-98658129D01*
X206472896Y-98635607D01*
X206467084Y-98612403D01*
X206463574Y-98588742D01*
X206462400Y-98564850D01*
X206462400Y-98077350D01*
X206463574Y-98053458D01*
X206467084Y-98029797D01*
X206472896Y-98006593D01*
X206480954Y-97984071D01*
X206491182Y-97962447D01*
X206503479Y-97941930D01*
X206517729Y-97922717D01*
X206533793Y-97904993D01*
X206551517Y-97888929D01*
X206570730Y-97874679D01*
X206591247Y-97862382D01*
X206612871Y-97852154D01*
X206635393Y-97844096D01*
X206658597Y-97838284D01*
X206682258Y-97834774D01*
X206706150Y-97833600D01*
X207618650Y-97833600D01*
X207642542Y-97834774D01*
G37*
G04 #@! TD.AperFunction*
G04 #@! TA.AperFunction,SMDPad,CuDef*
G36*
X207642542Y-95959774D02*
G01*
X207666203Y-95963284D01*
X207689407Y-95969096D01*
X207711929Y-95977154D01*
X207733553Y-95987382D01*
X207754070Y-95999679D01*
X207773283Y-96013929D01*
X207791007Y-96029993D01*
X207807071Y-96047717D01*
X207821321Y-96066930D01*
X207833618Y-96087447D01*
X207843846Y-96109071D01*
X207851904Y-96131593D01*
X207857716Y-96154797D01*
X207861226Y-96178458D01*
X207862400Y-96202350D01*
X207862400Y-96689850D01*
X207861226Y-96713742D01*
X207857716Y-96737403D01*
X207851904Y-96760607D01*
X207843846Y-96783129D01*
X207833618Y-96804753D01*
X207821321Y-96825270D01*
X207807071Y-96844483D01*
X207791007Y-96862207D01*
X207773283Y-96878271D01*
X207754070Y-96892521D01*
X207733553Y-96904818D01*
X207711929Y-96915046D01*
X207689407Y-96923104D01*
X207666203Y-96928916D01*
X207642542Y-96932426D01*
X207618650Y-96933600D01*
X206706150Y-96933600D01*
X206682258Y-96932426D01*
X206658597Y-96928916D01*
X206635393Y-96923104D01*
X206612871Y-96915046D01*
X206591247Y-96904818D01*
X206570730Y-96892521D01*
X206551517Y-96878271D01*
X206533793Y-96862207D01*
X206517729Y-96844483D01*
X206503479Y-96825270D01*
X206491182Y-96804753D01*
X206480954Y-96783129D01*
X206472896Y-96760607D01*
X206467084Y-96737403D01*
X206463574Y-96713742D01*
X206462400Y-96689850D01*
X206462400Y-96202350D01*
X206463574Y-96178458D01*
X206467084Y-96154797D01*
X206472896Y-96131593D01*
X206480954Y-96109071D01*
X206491182Y-96087447D01*
X206503479Y-96066930D01*
X206517729Y-96047717D01*
X206533793Y-96029993D01*
X206551517Y-96013929D01*
X206570730Y-95999679D01*
X206591247Y-95987382D01*
X206612871Y-95977154D01*
X206635393Y-95969096D01*
X206658597Y-95963284D01*
X206682258Y-95959774D01*
X206706150Y-95958600D01*
X207618650Y-95958600D01*
X207642542Y-95959774D01*
G37*
G04 #@! TD.AperFunction*
G04 #@! TA.AperFunction,SMDPad,CuDef*
G36*
X203629342Y-109601874D02*
G01*
X203653003Y-109605384D01*
X203676207Y-109611196D01*
X203698729Y-109619254D01*
X203720353Y-109629482D01*
X203740870Y-109641779D01*
X203760083Y-109656029D01*
X203777807Y-109672093D01*
X203793871Y-109689817D01*
X203808121Y-109709030D01*
X203820418Y-109729547D01*
X203830646Y-109751171D01*
X203838704Y-109773693D01*
X203844516Y-109796897D01*
X203848026Y-109820558D01*
X203849200Y-109844450D01*
X203849200Y-110331950D01*
X203848026Y-110355842D01*
X203844516Y-110379503D01*
X203838704Y-110402707D01*
X203830646Y-110425229D01*
X203820418Y-110446853D01*
X203808121Y-110467370D01*
X203793871Y-110486583D01*
X203777807Y-110504307D01*
X203760083Y-110520371D01*
X203740870Y-110534621D01*
X203720353Y-110546918D01*
X203698729Y-110557146D01*
X203676207Y-110565204D01*
X203653003Y-110571016D01*
X203629342Y-110574526D01*
X203605450Y-110575700D01*
X202692950Y-110575700D01*
X202669058Y-110574526D01*
X202645397Y-110571016D01*
X202622193Y-110565204D01*
X202599671Y-110557146D01*
X202578047Y-110546918D01*
X202557530Y-110534621D01*
X202538317Y-110520371D01*
X202520593Y-110504307D01*
X202504529Y-110486583D01*
X202490279Y-110467370D01*
X202477982Y-110446853D01*
X202467754Y-110425229D01*
X202459696Y-110402707D01*
X202453884Y-110379503D01*
X202450374Y-110355842D01*
X202449200Y-110331950D01*
X202449200Y-109844450D01*
X202450374Y-109820558D01*
X202453884Y-109796897D01*
X202459696Y-109773693D01*
X202467754Y-109751171D01*
X202477982Y-109729547D01*
X202490279Y-109709030D01*
X202504529Y-109689817D01*
X202520593Y-109672093D01*
X202538317Y-109656029D01*
X202557530Y-109641779D01*
X202578047Y-109629482D01*
X202599671Y-109619254D01*
X202622193Y-109611196D01*
X202645397Y-109605384D01*
X202669058Y-109601874D01*
X202692950Y-109600700D01*
X203605450Y-109600700D01*
X203629342Y-109601874D01*
G37*
G04 #@! TD.AperFunction*
G04 #@! TA.AperFunction,SMDPad,CuDef*
G36*
X203629342Y-111476874D02*
G01*
X203653003Y-111480384D01*
X203676207Y-111486196D01*
X203698729Y-111494254D01*
X203720353Y-111504482D01*
X203740870Y-111516779D01*
X203760083Y-111531029D01*
X203777807Y-111547093D01*
X203793871Y-111564817D01*
X203808121Y-111584030D01*
X203820418Y-111604547D01*
X203830646Y-111626171D01*
X203838704Y-111648693D01*
X203844516Y-111671897D01*
X203848026Y-111695558D01*
X203849200Y-111719450D01*
X203849200Y-112206950D01*
X203848026Y-112230842D01*
X203844516Y-112254503D01*
X203838704Y-112277707D01*
X203830646Y-112300229D01*
X203820418Y-112321853D01*
X203808121Y-112342370D01*
X203793871Y-112361583D01*
X203777807Y-112379307D01*
X203760083Y-112395371D01*
X203740870Y-112409621D01*
X203720353Y-112421918D01*
X203698729Y-112432146D01*
X203676207Y-112440204D01*
X203653003Y-112446016D01*
X203629342Y-112449526D01*
X203605450Y-112450700D01*
X202692950Y-112450700D01*
X202669058Y-112449526D01*
X202645397Y-112446016D01*
X202622193Y-112440204D01*
X202599671Y-112432146D01*
X202578047Y-112421918D01*
X202557530Y-112409621D01*
X202538317Y-112395371D01*
X202520593Y-112379307D01*
X202504529Y-112361583D01*
X202490279Y-112342370D01*
X202477982Y-112321853D01*
X202467754Y-112300229D01*
X202459696Y-112277707D01*
X202453884Y-112254503D01*
X202450374Y-112230842D01*
X202449200Y-112206950D01*
X202449200Y-111719450D01*
X202450374Y-111695558D01*
X202453884Y-111671897D01*
X202459696Y-111648693D01*
X202467754Y-111626171D01*
X202477982Y-111604547D01*
X202490279Y-111584030D01*
X202504529Y-111564817D01*
X202520593Y-111547093D01*
X202538317Y-111531029D01*
X202557530Y-111516779D01*
X202578047Y-111504482D01*
X202599671Y-111494254D01*
X202622193Y-111486196D01*
X202645397Y-111480384D01*
X202669058Y-111476874D01*
X202692950Y-111475700D01*
X203605450Y-111475700D01*
X203629342Y-111476874D01*
G37*
G04 #@! TD.AperFunction*
G04 #@! TA.AperFunction,SMDPad,CuDef*
G36*
X209979342Y-111449174D02*
G01*
X210003003Y-111452684D01*
X210026207Y-111458496D01*
X210048729Y-111466554D01*
X210070353Y-111476782D01*
X210090870Y-111489079D01*
X210110083Y-111503329D01*
X210127807Y-111519393D01*
X210143871Y-111537117D01*
X210158121Y-111556330D01*
X210170418Y-111576847D01*
X210180646Y-111598471D01*
X210188704Y-111620993D01*
X210194516Y-111644197D01*
X210198026Y-111667858D01*
X210199200Y-111691750D01*
X210199200Y-112179250D01*
X210198026Y-112203142D01*
X210194516Y-112226803D01*
X210188704Y-112250007D01*
X210180646Y-112272529D01*
X210170418Y-112294153D01*
X210158121Y-112314670D01*
X210143871Y-112333883D01*
X210127807Y-112351607D01*
X210110083Y-112367671D01*
X210090870Y-112381921D01*
X210070353Y-112394218D01*
X210048729Y-112404446D01*
X210026207Y-112412504D01*
X210003003Y-112418316D01*
X209979342Y-112421826D01*
X209955450Y-112423000D01*
X209042950Y-112423000D01*
X209019058Y-112421826D01*
X208995397Y-112418316D01*
X208972193Y-112412504D01*
X208949671Y-112404446D01*
X208928047Y-112394218D01*
X208907530Y-112381921D01*
X208888317Y-112367671D01*
X208870593Y-112351607D01*
X208854529Y-112333883D01*
X208840279Y-112314670D01*
X208827982Y-112294153D01*
X208817754Y-112272529D01*
X208809696Y-112250007D01*
X208803884Y-112226803D01*
X208800374Y-112203142D01*
X208799200Y-112179250D01*
X208799200Y-111691750D01*
X208800374Y-111667858D01*
X208803884Y-111644197D01*
X208809696Y-111620993D01*
X208817754Y-111598471D01*
X208827982Y-111576847D01*
X208840279Y-111556330D01*
X208854529Y-111537117D01*
X208870593Y-111519393D01*
X208888317Y-111503329D01*
X208907530Y-111489079D01*
X208928047Y-111476782D01*
X208949671Y-111466554D01*
X208972193Y-111458496D01*
X208995397Y-111452684D01*
X209019058Y-111449174D01*
X209042950Y-111448000D01*
X209955450Y-111448000D01*
X209979342Y-111449174D01*
G37*
G04 #@! TD.AperFunction*
G04 #@! TA.AperFunction,SMDPad,CuDef*
G36*
X209979342Y-109574174D02*
G01*
X210003003Y-109577684D01*
X210026207Y-109583496D01*
X210048729Y-109591554D01*
X210070353Y-109601782D01*
X210090870Y-109614079D01*
X210110083Y-109628329D01*
X210127807Y-109644393D01*
X210143871Y-109662117D01*
X210158121Y-109681330D01*
X210170418Y-109701847D01*
X210180646Y-109723471D01*
X210188704Y-109745993D01*
X210194516Y-109769197D01*
X210198026Y-109792858D01*
X210199200Y-109816750D01*
X210199200Y-110304250D01*
X210198026Y-110328142D01*
X210194516Y-110351803D01*
X210188704Y-110375007D01*
X210180646Y-110397529D01*
X210170418Y-110419153D01*
X210158121Y-110439670D01*
X210143871Y-110458883D01*
X210127807Y-110476607D01*
X210110083Y-110492671D01*
X210090870Y-110506921D01*
X210070353Y-110519218D01*
X210048729Y-110529446D01*
X210026207Y-110537504D01*
X210003003Y-110543316D01*
X209979342Y-110546826D01*
X209955450Y-110548000D01*
X209042950Y-110548000D01*
X209019058Y-110546826D01*
X208995397Y-110543316D01*
X208972193Y-110537504D01*
X208949671Y-110529446D01*
X208928047Y-110519218D01*
X208907530Y-110506921D01*
X208888317Y-110492671D01*
X208870593Y-110476607D01*
X208854529Y-110458883D01*
X208840279Y-110439670D01*
X208827982Y-110419153D01*
X208817754Y-110397529D01*
X208809696Y-110375007D01*
X208803884Y-110351803D01*
X208800374Y-110328142D01*
X208799200Y-110304250D01*
X208799200Y-109816750D01*
X208800374Y-109792858D01*
X208803884Y-109769197D01*
X208809696Y-109745993D01*
X208817754Y-109723471D01*
X208827982Y-109701847D01*
X208840279Y-109681330D01*
X208854529Y-109662117D01*
X208870593Y-109644393D01*
X208888317Y-109628329D01*
X208907530Y-109614079D01*
X208928047Y-109601782D01*
X208949671Y-109591554D01*
X208972193Y-109583496D01*
X208995397Y-109577684D01*
X209019058Y-109574174D01*
X209042950Y-109573000D01*
X209955450Y-109573000D01*
X209979342Y-109574174D01*
G37*
G04 #@! TD.AperFunction*
G04 #@! TA.AperFunction,SMDPad,CuDef*
G36*
X201394142Y-107459074D02*
G01*
X201417803Y-107462584D01*
X201441007Y-107468396D01*
X201463529Y-107476454D01*
X201485153Y-107486682D01*
X201505670Y-107498979D01*
X201524883Y-107513229D01*
X201542607Y-107529293D01*
X201558671Y-107547017D01*
X201572921Y-107566230D01*
X201585218Y-107586747D01*
X201595446Y-107608371D01*
X201603504Y-107630893D01*
X201609316Y-107654097D01*
X201612826Y-107677758D01*
X201614000Y-107701650D01*
X201614000Y-108189150D01*
X201612826Y-108213042D01*
X201609316Y-108236703D01*
X201603504Y-108259907D01*
X201595446Y-108282429D01*
X201585218Y-108304053D01*
X201572921Y-108324570D01*
X201558671Y-108343783D01*
X201542607Y-108361507D01*
X201524883Y-108377571D01*
X201505670Y-108391821D01*
X201485153Y-108404118D01*
X201463529Y-108414346D01*
X201441007Y-108422404D01*
X201417803Y-108428216D01*
X201394142Y-108431726D01*
X201370250Y-108432900D01*
X200457750Y-108432900D01*
X200433858Y-108431726D01*
X200410197Y-108428216D01*
X200386993Y-108422404D01*
X200364471Y-108414346D01*
X200342847Y-108404118D01*
X200322330Y-108391821D01*
X200303117Y-108377571D01*
X200285393Y-108361507D01*
X200269329Y-108343783D01*
X200255079Y-108324570D01*
X200242782Y-108304053D01*
X200232554Y-108282429D01*
X200224496Y-108259907D01*
X200218684Y-108236703D01*
X200215174Y-108213042D01*
X200214000Y-108189150D01*
X200214000Y-107701650D01*
X200215174Y-107677758D01*
X200218684Y-107654097D01*
X200224496Y-107630893D01*
X200232554Y-107608371D01*
X200242782Y-107586747D01*
X200255079Y-107566230D01*
X200269329Y-107547017D01*
X200285393Y-107529293D01*
X200303117Y-107513229D01*
X200322330Y-107498979D01*
X200342847Y-107486682D01*
X200364471Y-107476454D01*
X200386993Y-107468396D01*
X200410197Y-107462584D01*
X200433858Y-107459074D01*
X200457750Y-107457900D01*
X201370250Y-107457900D01*
X201394142Y-107459074D01*
G37*
G04 #@! TD.AperFunction*
G04 #@! TA.AperFunction,SMDPad,CuDef*
G36*
X201394142Y-105584074D02*
G01*
X201417803Y-105587584D01*
X201441007Y-105593396D01*
X201463529Y-105601454D01*
X201485153Y-105611682D01*
X201505670Y-105623979D01*
X201524883Y-105638229D01*
X201542607Y-105654293D01*
X201558671Y-105672017D01*
X201572921Y-105691230D01*
X201585218Y-105711747D01*
X201595446Y-105733371D01*
X201603504Y-105755893D01*
X201609316Y-105779097D01*
X201612826Y-105802758D01*
X201614000Y-105826650D01*
X201614000Y-106314150D01*
X201612826Y-106338042D01*
X201609316Y-106361703D01*
X201603504Y-106384907D01*
X201595446Y-106407429D01*
X201585218Y-106429053D01*
X201572921Y-106449570D01*
X201558671Y-106468783D01*
X201542607Y-106486507D01*
X201524883Y-106502571D01*
X201505670Y-106516821D01*
X201485153Y-106529118D01*
X201463529Y-106539346D01*
X201441007Y-106547404D01*
X201417803Y-106553216D01*
X201394142Y-106556726D01*
X201370250Y-106557900D01*
X200457750Y-106557900D01*
X200433858Y-106556726D01*
X200410197Y-106553216D01*
X200386993Y-106547404D01*
X200364471Y-106539346D01*
X200342847Y-106529118D01*
X200322330Y-106516821D01*
X200303117Y-106502571D01*
X200285393Y-106486507D01*
X200269329Y-106468783D01*
X200255079Y-106449570D01*
X200242782Y-106429053D01*
X200232554Y-106407429D01*
X200224496Y-106384907D01*
X200218684Y-106361703D01*
X200215174Y-106338042D01*
X200214000Y-106314150D01*
X200214000Y-105826650D01*
X200215174Y-105802758D01*
X200218684Y-105779097D01*
X200224496Y-105755893D01*
X200232554Y-105733371D01*
X200242782Y-105711747D01*
X200255079Y-105691230D01*
X200269329Y-105672017D01*
X200285393Y-105654293D01*
X200303117Y-105638229D01*
X200322330Y-105623979D01*
X200342847Y-105611682D01*
X200364471Y-105601454D01*
X200386993Y-105593396D01*
X200410197Y-105587584D01*
X200433858Y-105584074D01*
X200457750Y-105582900D01*
X201370250Y-105582900D01*
X201394142Y-105584074D01*
G37*
G04 #@! TD.AperFunction*
G04 #@! TA.AperFunction,SMDPad,CuDef*
G36*
X221053742Y-99871374D02*
G01*
X221077403Y-99874884D01*
X221100607Y-99880696D01*
X221123129Y-99888754D01*
X221144753Y-99898982D01*
X221165270Y-99911279D01*
X221184483Y-99925529D01*
X221202207Y-99941593D01*
X221218271Y-99959317D01*
X221232521Y-99978530D01*
X221244818Y-99999047D01*
X221255046Y-100020671D01*
X221263104Y-100043193D01*
X221268916Y-100066397D01*
X221272426Y-100090058D01*
X221273600Y-100113950D01*
X221273600Y-100601450D01*
X221272426Y-100625342D01*
X221268916Y-100649003D01*
X221263104Y-100672207D01*
X221255046Y-100694729D01*
X221244818Y-100716353D01*
X221232521Y-100736870D01*
X221218271Y-100756083D01*
X221202207Y-100773807D01*
X221184483Y-100789871D01*
X221165270Y-100804121D01*
X221144753Y-100816418D01*
X221123129Y-100826646D01*
X221100607Y-100834704D01*
X221077403Y-100840516D01*
X221053742Y-100844026D01*
X221029850Y-100845200D01*
X220117350Y-100845200D01*
X220093458Y-100844026D01*
X220069797Y-100840516D01*
X220046593Y-100834704D01*
X220024071Y-100826646D01*
X220002447Y-100816418D01*
X219981930Y-100804121D01*
X219962717Y-100789871D01*
X219944993Y-100773807D01*
X219928929Y-100756083D01*
X219914679Y-100736870D01*
X219902382Y-100716353D01*
X219892154Y-100694729D01*
X219884096Y-100672207D01*
X219878284Y-100649003D01*
X219874774Y-100625342D01*
X219873600Y-100601450D01*
X219873600Y-100113950D01*
X219874774Y-100090058D01*
X219878284Y-100066397D01*
X219884096Y-100043193D01*
X219892154Y-100020671D01*
X219902382Y-99999047D01*
X219914679Y-99978530D01*
X219928929Y-99959317D01*
X219944993Y-99941593D01*
X219962717Y-99925529D01*
X219981930Y-99911279D01*
X220002447Y-99898982D01*
X220024071Y-99888754D01*
X220046593Y-99880696D01*
X220069797Y-99874884D01*
X220093458Y-99871374D01*
X220117350Y-99870200D01*
X221029850Y-99870200D01*
X221053742Y-99871374D01*
G37*
G04 #@! TD.AperFunction*
G04 #@! TA.AperFunction,SMDPad,CuDef*
G36*
X221053742Y-101746374D02*
G01*
X221077403Y-101749884D01*
X221100607Y-101755696D01*
X221123129Y-101763754D01*
X221144753Y-101773982D01*
X221165270Y-101786279D01*
X221184483Y-101800529D01*
X221202207Y-101816593D01*
X221218271Y-101834317D01*
X221232521Y-101853530D01*
X221244818Y-101874047D01*
X221255046Y-101895671D01*
X221263104Y-101918193D01*
X221268916Y-101941397D01*
X221272426Y-101965058D01*
X221273600Y-101988950D01*
X221273600Y-102476450D01*
X221272426Y-102500342D01*
X221268916Y-102524003D01*
X221263104Y-102547207D01*
X221255046Y-102569729D01*
X221244818Y-102591353D01*
X221232521Y-102611870D01*
X221218271Y-102631083D01*
X221202207Y-102648807D01*
X221184483Y-102664871D01*
X221165270Y-102679121D01*
X221144753Y-102691418D01*
X221123129Y-102701646D01*
X221100607Y-102709704D01*
X221077403Y-102715516D01*
X221053742Y-102719026D01*
X221029850Y-102720200D01*
X220117350Y-102720200D01*
X220093458Y-102719026D01*
X220069797Y-102715516D01*
X220046593Y-102709704D01*
X220024071Y-102701646D01*
X220002447Y-102691418D01*
X219981930Y-102679121D01*
X219962717Y-102664871D01*
X219944993Y-102648807D01*
X219928929Y-102631083D01*
X219914679Y-102611870D01*
X219902382Y-102591353D01*
X219892154Y-102569729D01*
X219884096Y-102547207D01*
X219878284Y-102524003D01*
X219874774Y-102500342D01*
X219873600Y-102476450D01*
X219873600Y-101988950D01*
X219874774Y-101965058D01*
X219878284Y-101941397D01*
X219884096Y-101918193D01*
X219892154Y-101895671D01*
X219902382Y-101874047D01*
X219914679Y-101853530D01*
X219928929Y-101834317D01*
X219944993Y-101816593D01*
X219962717Y-101800529D01*
X219981930Y-101786279D01*
X220002447Y-101773982D01*
X220024071Y-101763754D01*
X220046593Y-101755696D01*
X220069797Y-101749884D01*
X220093458Y-101746374D01*
X220117350Y-101745200D01*
X221029850Y-101745200D01*
X221053742Y-101746374D01*
G37*
G04 #@! TD.AperFunction*
G04 #@! TA.AperFunction,SMDPad,CuDef*
G36*
X224526542Y-101307574D02*
G01*
X224550203Y-101311084D01*
X224573407Y-101316896D01*
X224595929Y-101324954D01*
X224617553Y-101335182D01*
X224638070Y-101347479D01*
X224657283Y-101361729D01*
X224675007Y-101377793D01*
X224691071Y-101395517D01*
X224705321Y-101414730D01*
X224717618Y-101435247D01*
X224727846Y-101456871D01*
X224735904Y-101479393D01*
X224741716Y-101502597D01*
X224745226Y-101526258D01*
X224746400Y-101550150D01*
X224746400Y-102462650D01*
X224745226Y-102486542D01*
X224741716Y-102510203D01*
X224735904Y-102533407D01*
X224727846Y-102555929D01*
X224717618Y-102577553D01*
X224705321Y-102598070D01*
X224691071Y-102617283D01*
X224675007Y-102635007D01*
X224657283Y-102651071D01*
X224638070Y-102665321D01*
X224617553Y-102677618D01*
X224595929Y-102687846D01*
X224573407Y-102695904D01*
X224550203Y-102701716D01*
X224526542Y-102705226D01*
X224502650Y-102706400D01*
X224015150Y-102706400D01*
X223991258Y-102705226D01*
X223967597Y-102701716D01*
X223944393Y-102695904D01*
X223921871Y-102687846D01*
X223900247Y-102677618D01*
X223879730Y-102665321D01*
X223860517Y-102651071D01*
X223842793Y-102635007D01*
X223826729Y-102617283D01*
X223812479Y-102598070D01*
X223800182Y-102577553D01*
X223789954Y-102555929D01*
X223781896Y-102533407D01*
X223776084Y-102510203D01*
X223772574Y-102486542D01*
X223771400Y-102462650D01*
X223771400Y-101550150D01*
X223772574Y-101526258D01*
X223776084Y-101502597D01*
X223781896Y-101479393D01*
X223789954Y-101456871D01*
X223800182Y-101435247D01*
X223812479Y-101414730D01*
X223826729Y-101395517D01*
X223842793Y-101377793D01*
X223860517Y-101361729D01*
X223879730Y-101347479D01*
X223900247Y-101335182D01*
X223921871Y-101324954D01*
X223944393Y-101316896D01*
X223967597Y-101311084D01*
X223991258Y-101307574D01*
X224015150Y-101306400D01*
X224502650Y-101306400D01*
X224526542Y-101307574D01*
G37*
G04 #@! TD.AperFunction*
G04 #@! TA.AperFunction,SMDPad,CuDef*
G36*
X226401542Y-101307574D02*
G01*
X226425203Y-101311084D01*
X226448407Y-101316896D01*
X226470929Y-101324954D01*
X226492553Y-101335182D01*
X226513070Y-101347479D01*
X226532283Y-101361729D01*
X226550007Y-101377793D01*
X226566071Y-101395517D01*
X226580321Y-101414730D01*
X226592618Y-101435247D01*
X226602846Y-101456871D01*
X226610904Y-101479393D01*
X226616716Y-101502597D01*
X226620226Y-101526258D01*
X226621400Y-101550150D01*
X226621400Y-102462650D01*
X226620226Y-102486542D01*
X226616716Y-102510203D01*
X226610904Y-102533407D01*
X226602846Y-102555929D01*
X226592618Y-102577553D01*
X226580321Y-102598070D01*
X226566071Y-102617283D01*
X226550007Y-102635007D01*
X226532283Y-102651071D01*
X226513070Y-102665321D01*
X226492553Y-102677618D01*
X226470929Y-102687846D01*
X226448407Y-102695904D01*
X226425203Y-102701716D01*
X226401542Y-102705226D01*
X226377650Y-102706400D01*
X225890150Y-102706400D01*
X225866258Y-102705226D01*
X225842597Y-102701716D01*
X225819393Y-102695904D01*
X225796871Y-102687846D01*
X225775247Y-102677618D01*
X225754730Y-102665321D01*
X225735517Y-102651071D01*
X225717793Y-102635007D01*
X225701729Y-102617283D01*
X225687479Y-102598070D01*
X225675182Y-102577553D01*
X225664954Y-102555929D01*
X225656896Y-102533407D01*
X225651084Y-102510203D01*
X225647574Y-102486542D01*
X225646400Y-102462650D01*
X225646400Y-101550150D01*
X225647574Y-101526258D01*
X225651084Y-101502597D01*
X225656896Y-101479393D01*
X225664954Y-101456871D01*
X225675182Y-101435247D01*
X225687479Y-101414730D01*
X225701729Y-101395517D01*
X225717793Y-101377793D01*
X225735517Y-101361729D01*
X225754730Y-101347479D01*
X225775247Y-101335182D01*
X225796871Y-101324954D01*
X225819393Y-101316896D01*
X225842597Y-101311084D01*
X225866258Y-101307574D01*
X225890150Y-101306400D01*
X226377650Y-101306400D01*
X226401542Y-101307574D01*
G37*
G04 #@! TD.AperFunction*
G04 #@! TA.AperFunction,SMDPad,CuDef*
G36*
X226401542Y-105269974D02*
G01*
X226425203Y-105273484D01*
X226448407Y-105279296D01*
X226470929Y-105287354D01*
X226492553Y-105297582D01*
X226513070Y-105309879D01*
X226532283Y-105324129D01*
X226550007Y-105340193D01*
X226566071Y-105357917D01*
X226580321Y-105377130D01*
X226592618Y-105397647D01*
X226602846Y-105419271D01*
X226610904Y-105441793D01*
X226616716Y-105464997D01*
X226620226Y-105488658D01*
X226621400Y-105512550D01*
X226621400Y-106425050D01*
X226620226Y-106448942D01*
X226616716Y-106472603D01*
X226610904Y-106495807D01*
X226602846Y-106518329D01*
X226592618Y-106539953D01*
X226580321Y-106560470D01*
X226566071Y-106579683D01*
X226550007Y-106597407D01*
X226532283Y-106613471D01*
X226513070Y-106627721D01*
X226492553Y-106640018D01*
X226470929Y-106650246D01*
X226448407Y-106658304D01*
X226425203Y-106664116D01*
X226401542Y-106667626D01*
X226377650Y-106668800D01*
X225890150Y-106668800D01*
X225866258Y-106667626D01*
X225842597Y-106664116D01*
X225819393Y-106658304D01*
X225796871Y-106650246D01*
X225775247Y-106640018D01*
X225754730Y-106627721D01*
X225735517Y-106613471D01*
X225717793Y-106597407D01*
X225701729Y-106579683D01*
X225687479Y-106560470D01*
X225675182Y-106539953D01*
X225664954Y-106518329D01*
X225656896Y-106495807D01*
X225651084Y-106472603D01*
X225647574Y-106448942D01*
X225646400Y-106425050D01*
X225646400Y-105512550D01*
X225647574Y-105488658D01*
X225651084Y-105464997D01*
X225656896Y-105441793D01*
X225664954Y-105419271D01*
X225675182Y-105397647D01*
X225687479Y-105377130D01*
X225701729Y-105357917D01*
X225717793Y-105340193D01*
X225735517Y-105324129D01*
X225754730Y-105309879D01*
X225775247Y-105297582D01*
X225796871Y-105287354D01*
X225819393Y-105279296D01*
X225842597Y-105273484D01*
X225866258Y-105269974D01*
X225890150Y-105268800D01*
X226377650Y-105268800D01*
X226401542Y-105269974D01*
G37*
G04 #@! TD.AperFunction*
G04 #@! TA.AperFunction,SMDPad,CuDef*
G36*
X224526542Y-105269974D02*
G01*
X224550203Y-105273484D01*
X224573407Y-105279296D01*
X224595929Y-105287354D01*
X224617553Y-105297582D01*
X224638070Y-105309879D01*
X224657283Y-105324129D01*
X224675007Y-105340193D01*
X224691071Y-105357917D01*
X224705321Y-105377130D01*
X224717618Y-105397647D01*
X224727846Y-105419271D01*
X224735904Y-105441793D01*
X224741716Y-105464997D01*
X224745226Y-105488658D01*
X224746400Y-105512550D01*
X224746400Y-106425050D01*
X224745226Y-106448942D01*
X224741716Y-106472603D01*
X224735904Y-106495807D01*
X224727846Y-106518329D01*
X224717618Y-106539953D01*
X224705321Y-106560470D01*
X224691071Y-106579683D01*
X224675007Y-106597407D01*
X224657283Y-106613471D01*
X224638070Y-106627721D01*
X224617553Y-106640018D01*
X224595929Y-106650246D01*
X224573407Y-106658304D01*
X224550203Y-106664116D01*
X224526542Y-106667626D01*
X224502650Y-106668800D01*
X224015150Y-106668800D01*
X223991258Y-106667626D01*
X223967597Y-106664116D01*
X223944393Y-106658304D01*
X223921871Y-106650246D01*
X223900247Y-106640018D01*
X223879730Y-106627721D01*
X223860517Y-106613471D01*
X223842793Y-106597407D01*
X223826729Y-106579683D01*
X223812479Y-106560470D01*
X223800182Y-106539953D01*
X223789954Y-106518329D01*
X223781896Y-106495807D01*
X223776084Y-106472603D01*
X223772574Y-106448942D01*
X223771400Y-106425050D01*
X223771400Y-105512550D01*
X223772574Y-105488658D01*
X223776084Y-105464997D01*
X223781896Y-105441793D01*
X223789954Y-105419271D01*
X223800182Y-105397647D01*
X223812479Y-105377130D01*
X223826729Y-105357917D01*
X223842793Y-105340193D01*
X223860517Y-105324129D01*
X223879730Y-105309879D01*
X223900247Y-105297582D01*
X223921871Y-105287354D01*
X223944393Y-105279296D01*
X223967597Y-105273484D01*
X223991258Y-105269974D01*
X224015150Y-105268800D01*
X224502650Y-105268800D01*
X224526542Y-105269974D01*
G37*
G04 #@! TD.AperFunction*
G04 #@! TA.AperFunction,SMDPad,CuDef*
G36*
X193233742Y-115582374D02*
G01*
X193257403Y-115585884D01*
X193280607Y-115591696D01*
X193303129Y-115599754D01*
X193324753Y-115609982D01*
X193345270Y-115622279D01*
X193364483Y-115636529D01*
X193382207Y-115652593D01*
X193398271Y-115670317D01*
X193412521Y-115689530D01*
X193424818Y-115710047D01*
X193435046Y-115731671D01*
X193443104Y-115754193D01*
X193448916Y-115777397D01*
X193452426Y-115801058D01*
X193453600Y-115824950D01*
X193453600Y-116737450D01*
X193452426Y-116761342D01*
X193448916Y-116785003D01*
X193443104Y-116808207D01*
X193435046Y-116830729D01*
X193424818Y-116852353D01*
X193412521Y-116872870D01*
X193398271Y-116892083D01*
X193382207Y-116909807D01*
X193364483Y-116925871D01*
X193345270Y-116940121D01*
X193324753Y-116952418D01*
X193303129Y-116962646D01*
X193280607Y-116970704D01*
X193257403Y-116976516D01*
X193233742Y-116980026D01*
X193209850Y-116981200D01*
X192722350Y-116981200D01*
X192698458Y-116980026D01*
X192674797Y-116976516D01*
X192651593Y-116970704D01*
X192629071Y-116962646D01*
X192607447Y-116952418D01*
X192586930Y-116940121D01*
X192567717Y-116925871D01*
X192549993Y-116909807D01*
X192533929Y-116892083D01*
X192519679Y-116872870D01*
X192507382Y-116852353D01*
X192497154Y-116830729D01*
X192489096Y-116808207D01*
X192483284Y-116785003D01*
X192479774Y-116761342D01*
X192478600Y-116737450D01*
X192478600Y-115824950D01*
X192479774Y-115801058D01*
X192483284Y-115777397D01*
X192489096Y-115754193D01*
X192497154Y-115731671D01*
X192507382Y-115710047D01*
X192519679Y-115689530D01*
X192533929Y-115670317D01*
X192549993Y-115652593D01*
X192567717Y-115636529D01*
X192586930Y-115622279D01*
X192607447Y-115609982D01*
X192629071Y-115599754D01*
X192651593Y-115591696D01*
X192674797Y-115585884D01*
X192698458Y-115582374D01*
X192722350Y-115581200D01*
X193209850Y-115581200D01*
X193233742Y-115582374D01*
G37*
G04 #@! TD.AperFunction*
G04 #@! TA.AperFunction,SMDPad,CuDef*
G36*
X195108742Y-115582374D02*
G01*
X195132403Y-115585884D01*
X195155607Y-115591696D01*
X195178129Y-115599754D01*
X195199753Y-115609982D01*
X195220270Y-115622279D01*
X195239483Y-115636529D01*
X195257207Y-115652593D01*
X195273271Y-115670317D01*
X195287521Y-115689530D01*
X195299818Y-115710047D01*
X195310046Y-115731671D01*
X195318104Y-115754193D01*
X195323916Y-115777397D01*
X195327426Y-115801058D01*
X195328600Y-115824950D01*
X195328600Y-116737450D01*
X195327426Y-116761342D01*
X195323916Y-116785003D01*
X195318104Y-116808207D01*
X195310046Y-116830729D01*
X195299818Y-116852353D01*
X195287521Y-116872870D01*
X195273271Y-116892083D01*
X195257207Y-116909807D01*
X195239483Y-116925871D01*
X195220270Y-116940121D01*
X195199753Y-116952418D01*
X195178129Y-116962646D01*
X195155607Y-116970704D01*
X195132403Y-116976516D01*
X195108742Y-116980026D01*
X195084850Y-116981200D01*
X194597350Y-116981200D01*
X194573458Y-116980026D01*
X194549797Y-116976516D01*
X194526593Y-116970704D01*
X194504071Y-116962646D01*
X194482447Y-116952418D01*
X194461930Y-116940121D01*
X194442717Y-116925871D01*
X194424993Y-116909807D01*
X194408929Y-116892083D01*
X194394679Y-116872870D01*
X194382382Y-116852353D01*
X194372154Y-116830729D01*
X194364096Y-116808207D01*
X194358284Y-116785003D01*
X194354774Y-116761342D01*
X194353600Y-116737450D01*
X194353600Y-115824950D01*
X194354774Y-115801058D01*
X194358284Y-115777397D01*
X194364096Y-115754193D01*
X194372154Y-115731671D01*
X194382382Y-115710047D01*
X194394679Y-115689530D01*
X194408929Y-115670317D01*
X194424993Y-115652593D01*
X194442717Y-115636529D01*
X194461930Y-115622279D01*
X194482447Y-115609982D01*
X194504071Y-115599754D01*
X194526593Y-115591696D01*
X194549797Y-115585884D01*
X194573458Y-115582374D01*
X194597350Y-115581200D01*
X195084850Y-115581200D01*
X195108742Y-115582374D01*
G37*
G04 #@! TD.AperFunction*
G04 #@! TA.AperFunction,SMDPad,CuDef*
G36*
X192568742Y-101053574D02*
G01*
X192592403Y-101057084D01*
X192615607Y-101062896D01*
X192638129Y-101070954D01*
X192659753Y-101081182D01*
X192680270Y-101093479D01*
X192699483Y-101107729D01*
X192717207Y-101123793D01*
X192733271Y-101141517D01*
X192747521Y-101160730D01*
X192759818Y-101181247D01*
X192770046Y-101202871D01*
X192778104Y-101225393D01*
X192783916Y-101248597D01*
X192787426Y-101272258D01*
X192788600Y-101296150D01*
X192788600Y-102208650D01*
X192787426Y-102232542D01*
X192783916Y-102256203D01*
X192778104Y-102279407D01*
X192770046Y-102301929D01*
X192759818Y-102323553D01*
X192747521Y-102344070D01*
X192733271Y-102363283D01*
X192717207Y-102381007D01*
X192699483Y-102397071D01*
X192680270Y-102411321D01*
X192659753Y-102423618D01*
X192638129Y-102433846D01*
X192615607Y-102441904D01*
X192592403Y-102447716D01*
X192568742Y-102451226D01*
X192544850Y-102452400D01*
X192057350Y-102452400D01*
X192033458Y-102451226D01*
X192009797Y-102447716D01*
X191986593Y-102441904D01*
X191964071Y-102433846D01*
X191942447Y-102423618D01*
X191921930Y-102411321D01*
X191902717Y-102397071D01*
X191884993Y-102381007D01*
X191868929Y-102363283D01*
X191854679Y-102344070D01*
X191842382Y-102323553D01*
X191832154Y-102301929D01*
X191824096Y-102279407D01*
X191818284Y-102256203D01*
X191814774Y-102232542D01*
X191813600Y-102208650D01*
X191813600Y-101296150D01*
X191814774Y-101272258D01*
X191818284Y-101248597D01*
X191824096Y-101225393D01*
X191832154Y-101202871D01*
X191842382Y-101181247D01*
X191854679Y-101160730D01*
X191868929Y-101141517D01*
X191884993Y-101123793D01*
X191902717Y-101107729D01*
X191921930Y-101093479D01*
X191942447Y-101081182D01*
X191964071Y-101070954D01*
X191986593Y-101062896D01*
X192009797Y-101057084D01*
X192033458Y-101053574D01*
X192057350Y-101052400D01*
X192544850Y-101052400D01*
X192568742Y-101053574D01*
G37*
G04 #@! TD.AperFunction*
G04 #@! TA.AperFunction,SMDPad,CuDef*
G36*
X190693742Y-101053574D02*
G01*
X190717403Y-101057084D01*
X190740607Y-101062896D01*
X190763129Y-101070954D01*
X190784753Y-101081182D01*
X190805270Y-101093479D01*
X190824483Y-101107729D01*
X190842207Y-101123793D01*
X190858271Y-101141517D01*
X190872521Y-101160730D01*
X190884818Y-101181247D01*
X190895046Y-101202871D01*
X190903104Y-101225393D01*
X190908916Y-101248597D01*
X190912426Y-101272258D01*
X190913600Y-101296150D01*
X190913600Y-102208650D01*
X190912426Y-102232542D01*
X190908916Y-102256203D01*
X190903104Y-102279407D01*
X190895046Y-102301929D01*
X190884818Y-102323553D01*
X190872521Y-102344070D01*
X190858271Y-102363283D01*
X190842207Y-102381007D01*
X190824483Y-102397071D01*
X190805270Y-102411321D01*
X190784753Y-102423618D01*
X190763129Y-102433846D01*
X190740607Y-102441904D01*
X190717403Y-102447716D01*
X190693742Y-102451226D01*
X190669850Y-102452400D01*
X190182350Y-102452400D01*
X190158458Y-102451226D01*
X190134797Y-102447716D01*
X190111593Y-102441904D01*
X190089071Y-102433846D01*
X190067447Y-102423618D01*
X190046930Y-102411321D01*
X190027717Y-102397071D01*
X190009993Y-102381007D01*
X189993929Y-102363283D01*
X189979679Y-102344070D01*
X189967382Y-102323553D01*
X189957154Y-102301929D01*
X189949096Y-102279407D01*
X189943284Y-102256203D01*
X189939774Y-102232542D01*
X189938600Y-102208650D01*
X189938600Y-101296150D01*
X189939774Y-101272258D01*
X189943284Y-101248597D01*
X189949096Y-101225393D01*
X189957154Y-101202871D01*
X189967382Y-101181247D01*
X189979679Y-101160730D01*
X189993929Y-101141517D01*
X190009993Y-101123793D01*
X190027717Y-101107729D01*
X190046930Y-101093479D01*
X190067447Y-101081182D01*
X190089071Y-101070954D01*
X190111593Y-101062896D01*
X190134797Y-101057084D01*
X190158458Y-101053574D01*
X190182350Y-101052400D01*
X190669850Y-101052400D01*
X190693742Y-101053574D01*
G37*
G04 #@! TD.AperFunction*
G04 #@! TA.AperFunction,SMDPad,CuDef*
G36*
X190642942Y-104558774D02*
G01*
X190666603Y-104562284D01*
X190689807Y-104568096D01*
X190712329Y-104576154D01*
X190733953Y-104586382D01*
X190754470Y-104598679D01*
X190773683Y-104612929D01*
X190791407Y-104628993D01*
X190807471Y-104646717D01*
X190821721Y-104665930D01*
X190834018Y-104686447D01*
X190844246Y-104708071D01*
X190852304Y-104730593D01*
X190858116Y-104753797D01*
X190861626Y-104777458D01*
X190862800Y-104801350D01*
X190862800Y-105713850D01*
X190861626Y-105737742D01*
X190858116Y-105761403D01*
X190852304Y-105784607D01*
X190844246Y-105807129D01*
X190834018Y-105828753D01*
X190821721Y-105849270D01*
X190807471Y-105868483D01*
X190791407Y-105886207D01*
X190773683Y-105902271D01*
X190754470Y-105916521D01*
X190733953Y-105928818D01*
X190712329Y-105939046D01*
X190689807Y-105947104D01*
X190666603Y-105952916D01*
X190642942Y-105956426D01*
X190619050Y-105957600D01*
X190131550Y-105957600D01*
X190107658Y-105956426D01*
X190083997Y-105952916D01*
X190060793Y-105947104D01*
X190038271Y-105939046D01*
X190016647Y-105928818D01*
X189996130Y-105916521D01*
X189976917Y-105902271D01*
X189959193Y-105886207D01*
X189943129Y-105868483D01*
X189928879Y-105849270D01*
X189916582Y-105828753D01*
X189906354Y-105807129D01*
X189898296Y-105784607D01*
X189892484Y-105761403D01*
X189888974Y-105737742D01*
X189887800Y-105713850D01*
X189887800Y-104801350D01*
X189888974Y-104777458D01*
X189892484Y-104753797D01*
X189898296Y-104730593D01*
X189906354Y-104708071D01*
X189916582Y-104686447D01*
X189928879Y-104665930D01*
X189943129Y-104646717D01*
X189959193Y-104628993D01*
X189976917Y-104612929D01*
X189996130Y-104598679D01*
X190016647Y-104586382D01*
X190038271Y-104576154D01*
X190060793Y-104568096D01*
X190083997Y-104562284D01*
X190107658Y-104558774D01*
X190131550Y-104557600D01*
X190619050Y-104557600D01*
X190642942Y-104558774D01*
G37*
G04 #@! TD.AperFunction*
G04 #@! TA.AperFunction,SMDPad,CuDef*
G36*
X192517942Y-104558774D02*
G01*
X192541603Y-104562284D01*
X192564807Y-104568096D01*
X192587329Y-104576154D01*
X192608953Y-104586382D01*
X192629470Y-104598679D01*
X192648683Y-104612929D01*
X192666407Y-104628993D01*
X192682471Y-104646717D01*
X192696721Y-104665930D01*
X192709018Y-104686447D01*
X192719246Y-104708071D01*
X192727304Y-104730593D01*
X192733116Y-104753797D01*
X192736626Y-104777458D01*
X192737800Y-104801350D01*
X192737800Y-105713850D01*
X192736626Y-105737742D01*
X192733116Y-105761403D01*
X192727304Y-105784607D01*
X192719246Y-105807129D01*
X192709018Y-105828753D01*
X192696721Y-105849270D01*
X192682471Y-105868483D01*
X192666407Y-105886207D01*
X192648683Y-105902271D01*
X192629470Y-105916521D01*
X192608953Y-105928818D01*
X192587329Y-105939046D01*
X192564807Y-105947104D01*
X192541603Y-105952916D01*
X192517942Y-105956426D01*
X192494050Y-105957600D01*
X192006550Y-105957600D01*
X191982658Y-105956426D01*
X191958997Y-105952916D01*
X191935793Y-105947104D01*
X191913271Y-105939046D01*
X191891647Y-105928818D01*
X191871130Y-105916521D01*
X191851917Y-105902271D01*
X191834193Y-105886207D01*
X191818129Y-105868483D01*
X191803879Y-105849270D01*
X191791582Y-105828753D01*
X191781354Y-105807129D01*
X191773296Y-105784607D01*
X191767484Y-105761403D01*
X191763974Y-105737742D01*
X191762800Y-105713850D01*
X191762800Y-104801350D01*
X191763974Y-104777458D01*
X191767484Y-104753797D01*
X191773296Y-104730593D01*
X191781354Y-104708071D01*
X191791582Y-104686447D01*
X191803879Y-104665930D01*
X191818129Y-104646717D01*
X191834193Y-104628993D01*
X191851917Y-104612929D01*
X191871130Y-104598679D01*
X191891647Y-104586382D01*
X191913271Y-104576154D01*
X191935793Y-104568096D01*
X191958997Y-104562284D01*
X191982658Y-104558774D01*
X192006550Y-104557600D01*
X192494050Y-104557600D01*
X192517942Y-104558774D01*
G37*
G04 #@! TD.AperFunction*
D16*
X206679800Y-93218000D03*
X203276200Y-93218000D03*
D17*
X183134000Y-112318800D03*
D18*
X183134000Y-109778800D03*
X191516000Y-95910400D03*
D17*
X191516000Y-93370400D03*
G04 #@! TA.AperFunction,SMDPad,CuDef*
D15*
G36*
X214569742Y-105219174D02*
G01*
X214593403Y-105222684D01*
X214616607Y-105228496D01*
X214639129Y-105236554D01*
X214660753Y-105246782D01*
X214681270Y-105259079D01*
X214700483Y-105273329D01*
X214718207Y-105289393D01*
X214734271Y-105307117D01*
X214748521Y-105326330D01*
X214760818Y-105346847D01*
X214771046Y-105368471D01*
X214779104Y-105390993D01*
X214784916Y-105414197D01*
X214788426Y-105437858D01*
X214789600Y-105461750D01*
X214789600Y-106374250D01*
X214788426Y-106398142D01*
X214784916Y-106421803D01*
X214779104Y-106445007D01*
X214771046Y-106467529D01*
X214760818Y-106489153D01*
X214748521Y-106509670D01*
X214734271Y-106528883D01*
X214718207Y-106546607D01*
X214700483Y-106562671D01*
X214681270Y-106576921D01*
X214660753Y-106589218D01*
X214639129Y-106599446D01*
X214616607Y-106607504D01*
X214593403Y-106613316D01*
X214569742Y-106616826D01*
X214545850Y-106618000D01*
X214058350Y-106618000D01*
X214034458Y-106616826D01*
X214010797Y-106613316D01*
X213987593Y-106607504D01*
X213965071Y-106599446D01*
X213943447Y-106589218D01*
X213922930Y-106576921D01*
X213903717Y-106562671D01*
X213885993Y-106546607D01*
X213869929Y-106528883D01*
X213855679Y-106509670D01*
X213843382Y-106489153D01*
X213833154Y-106467529D01*
X213825096Y-106445007D01*
X213819284Y-106421803D01*
X213815774Y-106398142D01*
X213814600Y-106374250D01*
X213814600Y-105461750D01*
X213815774Y-105437858D01*
X213819284Y-105414197D01*
X213825096Y-105390993D01*
X213833154Y-105368471D01*
X213843382Y-105346847D01*
X213855679Y-105326330D01*
X213869929Y-105307117D01*
X213885993Y-105289393D01*
X213903717Y-105273329D01*
X213922930Y-105259079D01*
X213943447Y-105246782D01*
X213965071Y-105236554D01*
X213987593Y-105228496D01*
X214010797Y-105222684D01*
X214034458Y-105219174D01*
X214058350Y-105218000D01*
X214545850Y-105218000D01*
X214569742Y-105219174D01*
G37*
G04 #@! TD.AperFunction*
G04 #@! TA.AperFunction,SMDPad,CuDef*
G36*
X216444742Y-105219174D02*
G01*
X216468403Y-105222684D01*
X216491607Y-105228496D01*
X216514129Y-105236554D01*
X216535753Y-105246782D01*
X216556270Y-105259079D01*
X216575483Y-105273329D01*
X216593207Y-105289393D01*
X216609271Y-105307117D01*
X216623521Y-105326330D01*
X216635818Y-105346847D01*
X216646046Y-105368471D01*
X216654104Y-105390993D01*
X216659916Y-105414197D01*
X216663426Y-105437858D01*
X216664600Y-105461750D01*
X216664600Y-106374250D01*
X216663426Y-106398142D01*
X216659916Y-106421803D01*
X216654104Y-106445007D01*
X216646046Y-106467529D01*
X216635818Y-106489153D01*
X216623521Y-106509670D01*
X216609271Y-106528883D01*
X216593207Y-106546607D01*
X216575483Y-106562671D01*
X216556270Y-106576921D01*
X216535753Y-106589218D01*
X216514129Y-106599446D01*
X216491607Y-106607504D01*
X216468403Y-106613316D01*
X216444742Y-106616826D01*
X216420850Y-106618000D01*
X215933350Y-106618000D01*
X215909458Y-106616826D01*
X215885797Y-106613316D01*
X215862593Y-106607504D01*
X215840071Y-106599446D01*
X215818447Y-106589218D01*
X215797930Y-106576921D01*
X215778717Y-106562671D01*
X215760993Y-106546607D01*
X215744929Y-106528883D01*
X215730679Y-106509670D01*
X215718382Y-106489153D01*
X215708154Y-106467529D01*
X215700096Y-106445007D01*
X215694284Y-106421803D01*
X215690774Y-106398142D01*
X215689600Y-106374250D01*
X215689600Y-105461750D01*
X215690774Y-105437858D01*
X215694284Y-105414197D01*
X215700096Y-105390993D01*
X215708154Y-105368471D01*
X215718382Y-105346847D01*
X215730679Y-105326330D01*
X215744929Y-105307117D01*
X215760993Y-105289393D01*
X215778717Y-105273329D01*
X215797930Y-105259079D01*
X215818447Y-105246782D01*
X215840071Y-105236554D01*
X215862593Y-105228496D01*
X215885797Y-105222684D01*
X215909458Y-105219174D01*
X215933350Y-105218000D01*
X216420850Y-105218000D01*
X216444742Y-105219174D01*
G37*
G04 #@! TD.AperFunction*
D19*
X198339200Y-92674400D03*
X198339200Y-94574400D03*
X200339200Y-93624400D03*
G04 #@! TA.AperFunction,SMDPad,CuDef*
D15*
G36*
X213502703Y-99395722D02*
G01*
X213517264Y-99397882D01*
X213531543Y-99401459D01*
X213545403Y-99406418D01*
X213558710Y-99412712D01*
X213571336Y-99420280D01*
X213583159Y-99429048D01*
X213594066Y-99438934D01*
X213603952Y-99449841D01*
X213612720Y-99461664D01*
X213620288Y-99474290D01*
X213626582Y-99487597D01*
X213631541Y-99501457D01*
X213635118Y-99515736D01*
X213637278Y-99530297D01*
X213638000Y-99545000D01*
X213638000Y-99845000D01*
X213637278Y-99859703D01*
X213635118Y-99874264D01*
X213631541Y-99888543D01*
X213626582Y-99902403D01*
X213620288Y-99915710D01*
X213612720Y-99928336D01*
X213603952Y-99940159D01*
X213594066Y-99951066D01*
X213583159Y-99960952D01*
X213571336Y-99969720D01*
X213558710Y-99977288D01*
X213545403Y-99983582D01*
X213531543Y-99988541D01*
X213517264Y-99992118D01*
X213502703Y-99994278D01*
X213488000Y-99995000D01*
X211838000Y-99995000D01*
X211823297Y-99994278D01*
X211808736Y-99992118D01*
X211794457Y-99988541D01*
X211780597Y-99983582D01*
X211767290Y-99977288D01*
X211754664Y-99969720D01*
X211742841Y-99960952D01*
X211731934Y-99951066D01*
X211722048Y-99940159D01*
X211713280Y-99928336D01*
X211705712Y-99915710D01*
X211699418Y-99902403D01*
X211694459Y-99888543D01*
X211690882Y-99874264D01*
X211688722Y-99859703D01*
X211688000Y-99845000D01*
X211688000Y-99545000D01*
X211688722Y-99530297D01*
X211690882Y-99515736D01*
X211694459Y-99501457D01*
X211699418Y-99487597D01*
X211705712Y-99474290D01*
X211713280Y-99461664D01*
X211722048Y-99449841D01*
X211731934Y-99438934D01*
X211742841Y-99429048D01*
X211754664Y-99420280D01*
X211767290Y-99412712D01*
X211780597Y-99406418D01*
X211794457Y-99401459D01*
X211808736Y-99397882D01*
X211823297Y-99395722D01*
X211838000Y-99395000D01*
X213488000Y-99395000D01*
X213502703Y-99395722D01*
G37*
G04 #@! TD.AperFunction*
G04 #@! TA.AperFunction,SMDPad,CuDef*
G36*
X213502703Y-100665722D02*
G01*
X213517264Y-100667882D01*
X213531543Y-100671459D01*
X213545403Y-100676418D01*
X213558710Y-100682712D01*
X213571336Y-100690280D01*
X213583159Y-100699048D01*
X213594066Y-100708934D01*
X213603952Y-100719841D01*
X213612720Y-100731664D01*
X213620288Y-100744290D01*
X213626582Y-100757597D01*
X213631541Y-100771457D01*
X213635118Y-100785736D01*
X213637278Y-100800297D01*
X213638000Y-100815000D01*
X213638000Y-101115000D01*
X213637278Y-101129703D01*
X213635118Y-101144264D01*
X213631541Y-101158543D01*
X213626582Y-101172403D01*
X213620288Y-101185710D01*
X213612720Y-101198336D01*
X213603952Y-101210159D01*
X213594066Y-101221066D01*
X213583159Y-101230952D01*
X213571336Y-101239720D01*
X213558710Y-101247288D01*
X213545403Y-101253582D01*
X213531543Y-101258541D01*
X213517264Y-101262118D01*
X213502703Y-101264278D01*
X213488000Y-101265000D01*
X211838000Y-101265000D01*
X211823297Y-101264278D01*
X211808736Y-101262118D01*
X211794457Y-101258541D01*
X211780597Y-101253582D01*
X211767290Y-101247288D01*
X211754664Y-101239720D01*
X211742841Y-101230952D01*
X211731934Y-101221066D01*
X211722048Y-101210159D01*
X211713280Y-101198336D01*
X211705712Y-101185710D01*
X211699418Y-101172403D01*
X211694459Y-101158543D01*
X211690882Y-101144264D01*
X211688722Y-101129703D01*
X211688000Y-101115000D01*
X211688000Y-100815000D01*
X211688722Y-100800297D01*
X211690882Y-100785736D01*
X211694459Y-100771457D01*
X211699418Y-100757597D01*
X211705712Y-100744290D01*
X211713280Y-100731664D01*
X211722048Y-100719841D01*
X211731934Y-100708934D01*
X211742841Y-100699048D01*
X211754664Y-100690280D01*
X211767290Y-100682712D01*
X211780597Y-100676418D01*
X211794457Y-100671459D01*
X211808736Y-100667882D01*
X211823297Y-100665722D01*
X211838000Y-100665000D01*
X213488000Y-100665000D01*
X213502703Y-100665722D01*
G37*
G04 #@! TD.AperFunction*
G04 #@! TA.AperFunction,SMDPad,CuDef*
G36*
X213502703Y-101935722D02*
G01*
X213517264Y-101937882D01*
X213531543Y-101941459D01*
X213545403Y-101946418D01*
X213558710Y-101952712D01*
X213571336Y-101960280D01*
X213583159Y-101969048D01*
X213594066Y-101978934D01*
X213603952Y-101989841D01*
X213612720Y-102001664D01*
X213620288Y-102014290D01*
X213626582Y-102027597D01*
X213631541Y-102041457D01*
X213635118Y-102055736D01*
X213637278Y-102070297D01*
X213638000Y-102085000D01*
X213638000Y-102385000D01*
X213637278Y-102399703D01*
X213635118Y-102414264D01*
X213631541Y-102428543D01*
X213626582Y-102442403D01*
X213620288Y-102455710D01*
X213612720Y-102468336D01*
X213603952Y-102480159D01*
X213594066Y-102491066D01*
X213583159Y-102500952D01*
X213571336Y-102509720D01*
X213558710Y-102517288D01*
X213545403Y-102523582D01*
X213531543Y-102528541D01*
X213517264Y-102532118D01*
X213502703Y-102534278D01*
X213488000Y-102535000D01*
X211838000Y-102535000D01*
X211823297Y-102534278D01*
X211808736Y-102532118D01*
X211794457Y-102528541D01*
X211780597Y-102523582D01*
X211767290Y-102517288D01*
X211754664Y-102509720D01*
X211742841Y-102500952D01*
X211731934Y-102491066D01*
X211722048Y-102480159D01*
X211713280Y-102468336D01*
X211705712Y-102455710D01*
X211699418Y-102442403D01*
X211694459Y-102428543D01*
X211690882Y-102414264D01*
X211688722Y-102399703D01*
X211688000Y-102385000D01*
X211688000Y-102085000D01*
X211688722Y-102070297D01*
X211690882Y-102055736D01*
X211694459Y-102041457D01*
X211699418Y-102027597D01*
X211705712Y-102014290D01*
X211713280Y-102001664D01*
X211722048Y-101989841D01*
X211731934Y-101978934D01*
X211742841Y-101969048D01*
X211754664Y-101960280D01*
X211767290Y-101952712D01*
X211780597Y-101946418D01*
X211794457Y-101941459D01*
X211808736Y-101937882D01*
X211823297Y-101935722D01*
X211838000Y-101935000D01*
X213488000Y-101935000D01*
X213502703Y-101935722D01*
G37*
G04 #@! TD.AperFunction*
G04 #@! TA.AperFunction,SMDPad,CuDef*
G36*
X213502703Y-103205722D02*
G01*
X213517264Y-103207882D01*
X213531543Y-103211459D01*
X213545403Y-103216418D01*
X213558710Y-103222712D01*
X213571336Y-103230280D01*
X213583159Y-103239048D01*
X213594066Y-103248934D01*
X213603952Y-103259841D01*
X213612720Y-103271664D01*
X213620288Y-103284290D01*
X213626582Y-103297597D01*
X213631541Y-103311457D01*
X213635118Y-103325736D01*
X213637278Y-103340297D01*
X213638000Y-103355000D01*
X213638000Y-103655000D01*
X213637278Y-103669703D01*
X213635118Y-103684264D01*
X213631541Y-103698543D01*
X213626582Y-103712403D01*
X213620288Y-103725710D01*
X213612720Y-103738336D01*
X213603952Y-103750159D01*
X213594066Y-103761066D01*
X213583159Y-103770952D01*
X213571336Y-103779720D01*
X213558710Y-103787288D01*
X213545403Y-103793582D01*
X213531543Y-103798541D01*
X213517264Y-103802118D01*
X213502703Y-103804278D01*
X213488000Y-103805000D01*
X211838000Y-103805000D01*
X211823297Y-103804278D01*
X211808736Y-103802118D01*
X211794457Y-103798541D01*
X211780597Y-103793582D01*
X211767290Y-103787288D01*
X211754664Y-103779720D01*
X211742841Y-103770952D01*
X211731934Y-103761066D01*
X211722048Y-103750159D01*
X211713280Y-103738336D01*
X211705712Y-103725710D01*
X211699418Y-103712403D01*
X211694459Y-103698543D01*
X211690882Y-103684264D01*
X211688722Y-103669703D01*
X211688000Y-103655000D01*
X211688000Y-103355000D01*
X211688722Y-103340297D01*
X211690882Y-103325736D01*
X211694459Y-103311457D01*
X211699418Y-103297597D01*
X211705712Y-103284290D01*
X211713280Y-103271664D01*
X211722048Y-103259841D01*
X211731934Y-103248934D01*
X211742841Y-103239048D01*
X211754664Y-103230280D01*
X211767290Y-103222712D01*
X211780597Y-103216418D01*
X211794457Y-103211459D01*
X211808736Y-103207882D01*
X211823297Y-103205722D01*
X211838000Y-103205000D01*
X213488000Y-103205000D01*
X213502703Y-103205722D01*
G37*
G04 #@! TD.AperFunction*
G04 #@! TA.AperFunction,SMDPad,CuDef*
G36*
X218452703Y-103205722D02*
G01*
X218467264Y-103207882D01*
X218481543Y-103211459D01*
X218495403Y-103216418D01*
X218508710Y-103222712D01*
X218521336Y-103230280D01*
X218533159Y-103239048D01*
X218544066Y-103248934D01*
X218553952Y-103259841D01*
X218562720Y-103271664D01*
X218570288Y-103284290D01*
X218576582Y-103297597D01*
X218581541Y-103311457D01*
X218585118Y-103325736D01*
X218587278Y-103340297D01*
X218588000Y-103355000D01*
X218588000Y-103655000D01*
X218587278Y-103669703D01*
X218585118Y-103684264D01*
X218581541Y-103698543D01*
X218576582Y-103712403D01*
X218570288Y-103725710D01*
X218562720Y-103738336D01*
X218553952Y-103750159D01*
X218544066Y-103761066D01*
X218533159Y-103770952D01*
X218521336Y-103779720D01*
X218508710Y-103787288D01*
X218495403Y-103793582D01*
X218481543Y-103798541D01*
X218467264Y-103802118D01*
X218452703Y-103804278D01*
X218438000Y-103805000D01*
X216788000Y-103805000D01*
X216773297Y-103804278D01*
X216758736Y-103802118D01*
X216744457Y-103798541D01*
X216730597Y-103793582D01*
X216717290Y-103787288D01*
X216704664Y-103779720D01*
X216692841Y-103770952D01*
X216681934Y-103761066D01*
X216672048Y-103750159D01*
X216663280Y-103738336D01*
X216655712Y-103725710D01*
X216649418Y-103712403D01*
X216644459Y-103698543D01*
X216640882Y-103684264D01*
X216638722Y-103669703D01*
X216638000Y-103655000D01*
X216638000Y-103355000D01*
X216638722Y-103340297D01*
X216640882Y-103325736D01*
X216644459Y-103311457D01*
X216649418Y-103297597D01*
X216655712Y-103284290D01*
X216663280Y-103271664D01*
X216672048Y-103259841D01*
X216681934Y-103248934D01*
X216692841Y-103239048D01*
X216704664Y-103230280D01*
X216717290Y-103222712D01*
X216730597Y-103216418D01*
X216744457Y-103211459D01*
X216758736Y-103207882D01*
X216773297Y-103205722D01*
X216788000Y-103205000D01*
X218438000Y-103205000D01*
X218452703Y-103205722D01*
G37*
G04 #@! TD.AperFunction*
G04 #@! TA.AperFunction,SMDPad,CuDef*
G36*
X218452703Y-101935722D02*
G01*
X218467264Y-101937882D01*
X218481543Y-101941459D01*
X218495403Y-101946418D01*
X218508710Y-101952712D01*
X218521336Y-101960280D01*
X218533159Y-101969048D01*
X218544066Y-101978934D01*
X218553952Y-101989841D01*
X218562720Y-102001664D01*
X218570288Y-102014290D01*
X218576582Y-102027597D01*
X218581541Y-102041457D01*
X218585118Y-102055736D01*
X218587278Y-102070297D01*
X218588000Y-102085000D01*
X218588000Y-102385000D01*
X218587278Y-102399703D01*
X218585118Y-102414264D01*
X218581541Y-102428543D01*
X218576582Y-102442403D01*
X218570288Y-102455710D01*
X218562720Y-102468336D01*
X218553952Y-102480159D01*
X218544066Y-102491066D01*
X218533159Y-102500952D01*
X218521336Y-102509720D01*
X218508710Y-102517288D01*
X218495403Y-102523582D01*
X218481543Y-102528541D01*
X218467264Y-102532118D01*
X218452703Y-102534278D01*
X218438000Y-102535000D01*
X216788000Y-102535000D01*
X216773297Y-102534278D01*
X216758736Y-102532118D01*
X216744457Y-102528541D01*
X216730597Y-102523582D01*
X216717290Y-102517288D01*
X216704664Y-102509720D01*
X216692841Y-102500952D01*
X216681934Y-102491066D01*
X216672048Y-102480159D01*
X216663280Y-102468336D01*
X216655712Y-102455710D01*
X216649418Y-102442403D01*
X216644459Y-102428543D01*
X216640882Y-102414264D01*
X216638722Y-102399703D01*
X216638000Y-102385000D01*
X216638000Y-102085000D01*
X216638722Y-102070297D01*
X216640882Y-102055736D01*
X216644459Y-102041457D01*
X216649418Y-102027597D01*
X216655712Y-102014290D01*
X216663280Y-102001664D01*
X216672048Y-101989841D01*
X216681934Y-101978934D01*
X216692841Y-101969048D01*
X216704664Y-101960280D01*
X216717290Y-101952712D01*
X216730597Y-101946418D01*
X216744457Y-101941459D01*
X216758736Y-101937882D01*
X216773297Y-101935722D01*
X216788000Y-101935000D01*
X218438000Y-101935000D01*
X218452703Y-101935722D01*
G37*
G04 #@! TD.AperFunction*
G04 #@! TA.AperFunction,SMDPad,CuDef*
G36*
X218452703Y-100665722D02*
G01*
X218467264Y-100667882D01*
X218481543Y-100671459D01*
X218495403Y-100676418D01*
X218508710Y-100682712D01*
X218521336Y-100690280D01*
X218533159Y-100699048D01*
X218544066Y-100708934D01*
X218553952Y-100719841D01*
X218562720Y-100731664D01*
X218570288Y-100744290D01*
X218576582Y-100757597D01*
X218581541Y-100771457D01*
X218585118Y-100785736D01*
X218587278Y-100800297D01*
X218588000Y-100815000D01*
X218588000Y-101115000D01*
X218587278Y-101129703D01*
X218585118Y-101144264D01*
X218581541Y-101158543D01*
X218576582Y-101172403D01*
X218570288Y-101185710D01*
X218562720Y-101198336D01*
X218553952Y-101210159D01*
X218544066Y-101221066D01*
X218533159Y-101230952D01*
X218521336Y-101239720D01*
X218508710Y-101247288D01*
X218495403Y-101253582D01*
X218481543Y-101258541D01*
X218467264Y-101262118D01*
X218452703Y-101264278D01*
X218438000Y-101265000D01*
X216788000Y-101265000D01*
X216773297Y-101264278D01*
X216758736Y-101262118D01*
X216744457Y-101258541D01*
X216730597Y-101253582D01*
X216717290Y-101247288D01*
X216704664Y-101239720D01*
X216692841Y-101230952D01*
X216681934Y-101221066D01*
X216672048Y-101210159D01*
X216663280Y-101198336D01*
X216655712Y-101185710D01*
X216649418Y-101172403D01*
X216644459Y-101158543D01*
X216640882Y-101144264D01*
X216638722Y-101129703D01*
X216638000Y-101115000D01*
X216638000Y-100815000D01*
X216638722Y-100800297D01*
X216640882Y-100785736D01*
X216644459Y-100771457D01*
X216649418Y-100757597D01*
X216655712Y-100744290D01*
X216663280Y-100731664D01*
X216672048Y-100719841D01*
X216681934Y-100708934D01*
X216692841Y-100699048D01*
X216704664Y-100690280D01*
X216717290Y-100682712D01*
X216730597Y-100676418D01*
X216744457Y-100671459D01*
X216758736Y-100667882D01*
X216773297Y-100665722D01*
X216788000Y-100665000D01*
X218438000Y-100665000D01*
X218452703Y-100665722D01*
G37*
G04 #@! TD.AperFunction*
G04 #@! TA.AperFunction,SMDPad,CuDef*
G36*
X218452703Y-99395722D02*
G01*
X218467264Y-99397882D01*
X218481543Y-99401459D01*
X218495403Y-99406418D01*
X218508710Y-99412712D01*
X218521336Y-99420280D01*
X218533159Y-99429048D01*
X218544066Y-99438934D01*
X218553952Y-99449841D01*
X218562720Y-99461664D01*
X218570288Y-99474290D01*
X218576582Y-99487597D01*
X218581541Y-99501457D01*
X218585118Y-99515736D01*
X218587278Y-99530297D01*
X218588000Y-99545000D01*
X218588000Y-99845000D01*
X218587278Y-99859703D01*
X218585118Y-99874264D01*
X218581541Y-99888543D01*
X218576582Y-99902403D01*
X218570288Y-99915710D01*
X218562720Y-99928336D01*
X218553952Y-99940159D01*
X218544066Y-99951066D01*
X218533159Y-99960952D01*
X218521336Y-99969720D01*
X218508710Y-99977288D01*
X218495403Y-99983582D01*
X218481543Y-99988541D01*
X218467264Y-99992118D01*
X218452703Y-99994278D01*
X218438000Y-99995000D01*
X216788000Y-99995000D01*
X216773297Y-99994278D01*
X216758736Y-99992118D01*
X216744457Y-99988541D01*
X216730597Y-99983582D01*
X216717290Y-99977288D01*
X216704664Y-99969720D01*
X216692841Y-99960952D01*
X216681934Y-99951066D01*
X216672048Y-99940159D01*
X216663280Y-99928336D01*
X216655712Y-99915710D01*
X216649418Y-99902403D01*
X216644459Y-99888543D01*
X216640882Y-99874264D01*
X216638722Y-99859703D01*
X216638000Y-99845000D01*
X216638000Y-99545000D01*
X216638722Y-99530297D01*
X216640882Y-99515736D01*
X216644459Y-99501457D01*
X216649418Y-99487597D01*
X216655712Y-99474290D01*
X216663280Y-99461664D01*
X216672048Y-99449841D01*
X216681934Y-99438934D01*
X216692841Y-99429048D01*
X216704664Y-99420280D01*
X216717290Y-99412712D01*
X216730597Y-99406418D01*
X216744457Y-99401459D01*
X216758736Y-99397882D01*
X216773297Y-99395722D01*
X216788000Y-99395000D01*
X218438000Y-99395000D01*
X218452703Y-99395722D01*
G37*
G04 #@! TD.AperFunction*
G04 #@! TA.AperFunction,SMDPad,CuDef*
G36*
X187945942Y-101053574D02*
G01*
X187969603Y-101057084D01*
X187992807Y-101062896D01*
X188015329Y-101070954D01*
X188036953Y-101081182D01*
X188057470Y-101093479D01*
X188076683Y-101107729D01*
X188094407Y-101123793D01*
X188110471Y-101141517D01*
X188124721Y-101160730D01*
X188137018Y-101181247D01*
X188147246Y-101202871D01*
X188155304Y-101225393D01*
X188161116Y-101248597D01*
X188164626Y-101272258D01*
X188165800Y-101296150D01*
X188165800Y-102208650D01*
X188164626Y-102232542D01*
X188161116Y-102256203D01*
X188155304Y-102279407D01*
X188147246Y-102301929D01*
X188137018Y-102323553D01*
X188124721Y-102344070D01*
X188110471Y-102363283D01*
X188094407Y-102381007D01*
X188076683Y-102397071D01*
X188057470Y-102411321D01*
X188036953Y-102423618D01*
X188015329Y-102433846D01*
X187992807Y-102441904D01*
X187969603Y-102447716D01*
X187945942Y-102451226D01*
X187922050Y-102452400D01*
X187434550Y-102452400D01*
X187410658Y-102451226D01*
X187386997Y-102447716D01*
X187363793Y-102441904D01*
X187341271Y-102433846D01*
X187319647Y-102423618D01*
X187299130Y-102411321D01*
X187279917Y-102397071D01*
X187262193Y-102381007D01*
X187246129Y-102363283D01*
X187231879Y-102344070D01*
X187219582Y-102323553D01*
X187209354Y-102301929D01*
X187201296Y-102279407D01*
X187195484Y-102256203D01*
X187191974Y-102232542D01*
X187190800Y-102208650D01*
X187190800Y-101296150D01*
X187191974Y-101272258D01*
X187195484Y-101248597D01*
X187201296Y-101225393D01*
X187209354Y-101202871D01*
X187219582Y-101181247D01*
X187231879Y-101160730D01*
X187246129Y-101141517D01*
X187262193Y-101123793D01*
X187279917Y-101107729D01*
X187299130Y-101093479D01*
X187319647Y-101081182D01*
X187341271Y-101070954D01*
X187363793Y-101062896D01*
X187386997Y-101057084D01*
X187410658Y-101053574D01*
X187434550Y-101052400D01*
X187922050Y-101052400D01*
X187945942Y-101053574D01*
G37*
G04 #@! TD.AperFunction*
G04 #@! TA.AperFunction,SMDPad,CuDef*
G36*
X186070942Y-101053574D02*
G01*
X186094603Y-101057084D01*
X186117807Y-101062896D01*
X186140329Y-101070954D01*
X186161953Y-101081182D01*
X186182470Y-101093479D01*
X186201683Y-101107729D01*
X186219407Y-101123793D01*
X186235471Y-101141517D01*
X186249721Y-101160730D01*
X186262018Y-101181247D01*
X186272246Y-101202871D01*
X186280304Y-101225393D01*
X186286116Y-101248597D01*
X186289626Y-101272258D01*
X186290800Y-101296150D01*
X186290800Y-102208650D01*
X186289626Y-102232542D01*
X186286116Y-102256203D01*
X186280304Y-102279407D01*
X186272246Y-102301929D01*
X186262018Y-102323553D01*
X186249721Y-102344070D01*
X186235471Y-102363283D01*
X186219407Y-102381007D01*
X186201683Y-102397071D01*
X186182470Y-102411321D01*
X186161953Y-102423618D01*
X186140329Y-102433846D01*
X186117807Y-102441904D01*
X186094603Y-102447716D01*
X186070942Y-102451226D01*
X186047050Y-102452400D01*
X185559550Y-102452400D01*
X185535658Y-102451226D01*
X185511997Y-102447716D01*
X185488793Y-102441904D01*
X185466271Y-102433846D01*
X185444647Y-102423618D01*
X185424130Y-102411321D01*
X185404917Y-102397071D01*
X185387193Y-102381007D01*
X185371129Y-102363283D01*
X185356879Y-102344070D01*
X185344582Y-102323553D01*
X185334354Y-102301929D01*
X185326296Y-102279407D01*
X185320484Y-102256203D01*
X185316974Y-102232542D01*
X185315800Y-102208650D01*
X185315800Y-101296150D01*
X185316974Y-101272258D01*
X185320484Y-101248597D01*
X185326296Y-101225393D01*
X185334354Y-101202871D01*
X185344582Y-101181247D01*
X185356879Y-101160730D01*
X185371129Y-101141517D01*
X185387193Y-101123793D01*
X185404917Y-101107729D01*
X185424130Y-101093479D01*
X185444647Y-101081182D01*
X185466271Y-101070954D01*
X185488793Y-101062896D01*
X185511997Y-101057084D01*
X185535658Y-101053574D01*
X185559550Y-101052400D01*
X186047050Y-101052400D01*
X186070942Y-101053574D01*
G37*
G04 #@! TD.AperFunction*
G04 #@! TA.AperFunction,SMDPad,CuDef*
G36*
X186070942Y-104507974D02*
G01*
X186094603Y-104511484D01*
X186117807Y-104517296D01*
X186140329Y-104525354D01*
X186161953Y-104535582D01*
X186182470Y-104547879D01*
X186201683Y-104562129D01*
X186219407Y-104578193D01*
X186235471Y-104595917D01*
X186249721Y-104615130D01*
X186262018Y-104635647D01*
X186272246Y-104657271D01*
X186280304Y-104679793D01*
X186286116Y-104702997D01*
X186289626Y-104726658D01*
X186290800Y-104750550D01*
X186290800Y-105663050D01*
X186289626Y-105686942D01*
X186286116Y-105710603D01*
X186280304Y-105733807D01*
X186272246Y-105756329D01*
X186262018Y-105777953D01*
X186249721Y-105798470D01*
X186235471Y-105817683D01*
X186219407Y-105835407D01*
X186201683Y-105851471D01*
X186182470Y-105865721D01*
X186161953Y-105878018D01*
X186140329Y-105888246D01*
X186117807Y-105896304D01*
X186094603Y-105902116D01*
X186070942Y-105905626D01*
X186047050Y-105906800D01*
X185559550Y-105906800D01*
X185535658Y-105905626D01*
X185511997Y-105902116D01*
X185488793Y-105896304D01*
X185466271Y-105888246D01*
X185444647Y-105878018D01*
X185424130Y-105865721D01*
X185404917Y-105851471D01*
X185387193Y-105835407D01*
X185371129Y-105817683D01*
X185356879Y-105798470D01*
X185344582Y-105777953D01*
X185334354Y-105756329D01*
X185326296Y-105733807D01*
X185320484Y-105710603D01*
X185316974Y-105686942D01*
X185315800Y-105663050D01*
X185315800Y-104750550D01*
X185316974Y-104726658D01*
X185320484Y-104702997D01*
X185326296Y-104679793D01*
X185334354Y-104657271D01*
X185344582Y-104635647D01*
X185356879Y-104615130D01*
X185371129Y-104595917D01*
X185387193Y-104578193D01*
X185404917Y-104562129D01*
X185424130Y-104547879D01*
X185444647Y-104535582D01*
X185466271Y-104525354D01*
X185488793Y-104517296D01*
X185511997Y-104511484D01*
X185535658Y-104507974D01*
X185559550Y-104506800D01*
X186047050Y-104506800D01*
X186070942Y-104507974D01*
G37*
G04 #@! TD.AperFunction*
G04 #@! TA.AperFunction,SMDPad,CuDef*
G36*
X187945942Y-104507974D02*
G01*
X187969603Y-104511484D01*
X187992807Y-104517296D01*
X188015329Y-104525354D01*
X188036953Y-104535582D01*
X188057470Y-104547879D01*
X188076683Y-104562129D01*
X188094407Y-104578193D01*
X188110471Y-104595917D01*
X188124721Y-104615130D01*
X188137018Y-104635647D01*
X188147246Y-104657271D01*
X188155304Y-104679793D01*
X188161116Y-104702997D01*
X188164626Y-104726658D01*
X188165800Y-104750550D01*
X188165800Y-105663050D01*
X188164626Y-105686942D01*
X188161116Y-105710603D01*
X188155304Y-105733807D01*
X188147246Y-105756329D01*
X188137018Y-105777953D01*
X188124721Y-105798470D01*
X188110471Y-105817683D01*
X188094407Y-105835407D01*
X188076683Y-105851471D01*
X188057470Y-105865721D01*
X188036953Y-105878018D01*
X188015329Y-105888246D01*
X187992807Y-105896304D01*
X187969603Y-105902116D01*
X187945942Y-105905626D01*
X187922050Y-105906800D01*
X187434550Y-105906800D01*
X187410658Y-105905626D01*
X187386997Y-105902116D01*
X187363793Y-105896304D01*
X187341271Y-105888246D01*
X187319647Y-105878018D01*
X187299130Y-105865721D01*
X187279917Y-105851471D01*
X187262193Y-105835407D01*
X187246129Y-105817683D01*
X187231879Y-105798470D01*
X187219582Y-105777953D01*
X187209354Y-105756329D01*
X187201296Y-105733807D01*
X187195484Y-105710603D01*
X187191974Y-105686942D01*
X187190800Y-105663050D01*
X187190800Y-104750550D01*
X187191974Y-104726658D01*
X187195484Y-104702997D01*
X187201296Y-104679793D01*
X187209354Y-104657271D01*
X187219582Y-104635647D01*
X187231879Y-104615130D01*
X187246129Y-104595917D01*
X187262193Y-104578193D01*
X187279917Y-104562129D01*
X187299130Y-104547879D01*
X187319647Y-104535582D01*
X187341271Y-104525354D01*
X187363793Y-104517296D01*
X187386997Y-104511484D01*
X187410658Y-104507974D01*
X187434550Y-104506800D01*
X187922050Y-104506800D01*
X187945942Y-104507974D01*
G37*
G04 #@! TD.AperFunction*
G04 #@! TA.AperFunction,SMDPad,CuDef*
G36*
X188555542Y-91807974D02*
G01*
X188579203Y-91811484D01*
X188602407Y-91817296D01*
X188624929Y-91825354D01*
X188646553Y-91835582D01*
X188667070Y-91847879D01*
X188686283Y-91862129D01*
X188704007Y-91878193D01*
X188720071Y-91895917D01*
X188734321Y-91915130D01*
X188746618Y-91935647D01*
X188756846Y-91957271D01*
X188764904Y-91979793D01*
X188770716Y-92002997D01*
X188774226Y-92026658D01*
X188775400Y-92050550D01*
X188775400Y-92963050D01*
X188774226Y-92986942D01*
X188770716Y-93010603D01*
X188764904Y-93033807D01*
X188756846Y-93056329D01*
X188746618Y-93077953D01*
X188734321Y-93098470D01*
X188720071Y-93117683D01*
X188704007Y-93135407D01*
X188686283Y-93151471D01*
X188667070Y-93165721D01*
X188646553Y-93178018D01*
X188624929Y-93188246D01*
X188602407Y-93196304D01*
X188579203Y-93202116D01*
X188555542Y-93205626D01*
X188531650Y-93206800D01*
X188044150Y-93206800D01*
X188020258Y-93205626D01*
X187996597Y-93202116D01*
X187973393Y-93196304D01*
X187950871Y-93188246D01*
X187929247Y-93178018D01*
X187908730Y-93165721D01*
X187889517Y-93151471D01*
X187871793Y-93135407D01*
X187855729Y-93117683D01*
X187841479Y-93098470D01*
X187829182Y-93077953D01*
X187818954Y-93056329D01*
X187810896Y-93033807D01*
X187805084Y-93010603D01*
X187801574Y-92986942D01*
X187800400Y-92963050D01*
X187800400Y-92050550D01*
X187801574Y-92026658D01*
X187805084Y-92002997D01*
X187810896Y-91979793D01*
X187818954Y-91957271D01*
X187829182Y-91935647D01*
X187841479Y-91915130D01*
X187855729Y-91895917D01*
X187871793Y-91878193D01*
X187889517Y-91862129D01*
X187908730Y-91847879D01*
X187929247Y-91835582D01*
X187950871Y-91825354D01*
X187973393Y-91817296D01*
X187996597Y-91811484D01*
X188020258Y-91807974D01*
X188044150Y-91806800D01*
X188531650Y-91806800D01*
X188555542Y-91807974D01*
G37*
G04 #@! TD.AperFunction*
G04 #@! TA.AperFunction,SMDPad,CuDef*
G36*
X186680542Y-91807974D02*
G01*
X186704203Y-91811484D01*
X186727407Y-91817296D01*
X186749929Y-91825354D01*
X186771553Y-91835582D01*
X186792070Y-91847879D01*
X186811283Y-91862129D01*
X186829007Y-91878193D01*
X186845071Y-91895917D01*
X186859321Y-91915130D01*
X186871618Y-91935647D01*
X186881846Y-91957271D01*
X186889904Y-91979793D01*
X186895716Y-92002997D01*
X186899226Y-92026658D01*
X186900400Y-92050550D01*
X186900400Y-92963050D01*
X186899226Y-92986942D01*
X186895716Y-93010603D01*
X186889904Y-93033807D01*
X186881846Y-93056329D01*
X186871618Y-93077953D01*
X186859321Y-93098470D01*
X186845071Y-93117683D01*
X186829007Y-93135407D01*
X186811283Y-93151471D01*
X186792070Y-93165721D01*
X186771553Y-93178018D01*
X186749929Y-93188246D01*
X186727407Y-93196304D01*
X186704203Y-93202116D01*
X186680542Y-93205626D01*
X186656650Y-93206800D01*
X186169150Y-93206800D01*
X186145258Y-93205626D01*
X186121597Y-93202116D01*
X186098393Y-93196304D01*
X186075871Y-93188246D01*
X186054247Y-93178018D01*
X186033730Y-93165721D01*
X186014517Y-93151471D01*
X185996793Y-93135407D01*
X185980729Y-93117683D01*
X185966479Y-93098470D01*
X185954182Y-93077953D01*
X185943954Y-93056329D01*
X185935896Y-93033807D01*
X185930084Y-93010603D01*
X185926574Y-92986942D01*
X185925400Y-92963050D01*
X185925400Y-92050550D01*
X185926574Y-92026658D01*
X185930084Y-92002997D01*
X185935896Y-91979793D01*
X185943954Y-91957271D01*
X185954182Y-91935647D01*
X185966479Y-91915130D01*
X185980729Y-91895917D01*
X185996793Y-91878193D01*
X186014517Y-91862129D01*
X186033730Y-91847879D01*
X186054247Y-91835582D01*
X186075871Y-91825354D01*
X186098393Y-91817296D01*
X186121597Y-91811484D01*
X186145258Y-91807974D01*
X186169150Y-91806800D01*
X186656650Y-91806800D01*
X186680542Y-91807974D01*
G37*
G04 #@! TD.AperFunction*
G04 #@! TA.AperFunction,SMDPad,CuDef*
G36*
X202474742Y-96075174D02*
G01*
X202498403Y-96078684D01*
X202521607Y-96084496D01*
X202544129Y-96092554D01*
X202565753Y-96102782D01*
X202586270Y-96115079D01*
X202605483Y-96129329D01*
X202623207Y-96145393D01*
X202639271Y-96163117D01*
X202653521Y-96182330D01*
X202665818Y-96202847D01*
X202676046Y-96224471D01*
X202684104Y-96246993D01*
X202689916Y-96270197D01*
X202693426Y-96293858D01*
X202694600Y-96317750D01*
X202694600Y-97230250D01*
X202693426Y-97254142D01*
X202689916Y-97277803D01*
X202684104Y-97301007D01*
X202676046Y-97323529D01*
X202665818Y-97345153D01*
X202653521Y-97365670D01*
X202639271Y-97384883D01*
X202623207Y-97402607D01*
X202605483Y-97418671D01*
X202586270Y-97432921D01*
X202565753Y-97445218D01*
X202544129Y-97455446D01*
X202521607Y-97463504D01*
X202498403Y-97469316D01*
X202474742Y-97472826D01*
X202450850Y-97474000D01*
X201963350Y-97474000D01*
X201939458Y-97472826D01*
X201915797Y-97469316D01*
X201892593Y-97463504D01*
X201870071Y-97455446D01*
X201848447Y-97445218D01*
X201827930Y-97432921D01*
X201808717Y-97418671D01*
X201790993Y-97402607D01*
X201774929Y-97384883D01*
X201760679Y-97365670D01*
X201748382Y-97345153D01*
X201738154Y-97323529D01*
X201730096Y-97301007D01*
X201724284Y-97277803D01*
X201720774Y-97254142D01*
X201719600Y-97230250D01*
X201719600Y-96317750D01*
X201720774Y-96293858D01*
X201724284Y-96270197D01*
X201730096Y-96246993D01*
X201738154Y-96224471D01*
X201748382Y-96202847D01*
X201760679Y-96182330D01*
X201774929Y-96163117D01*
X201790993Y-96145393D01*
X201808717Y-96129329D01*
X201827930Y-96115079D01*
X201848447Y-96102782D01*
X201870071Y-96092554D01*
X201892593Y-96084496D01*
X201915797Y-96078684D01*
X201939458Y-96075174D01*
X201963350Y-96074000D01*
X202450850Y-96074000D01*
X202474742Y-96075174D01*
G37*
G04 #@! TD.AperFunction*
G04 #@! TA.AperFunction,SMDPad,CuDef*
G36*
X200599742Y-96075174D02*
G01*
X200623403Y-96078684D01*
X200646607Y-96084496D01*
X200669129Y-96092554D01*
X200690753Y-96102782D01*
X200711270Y-96115079D01*
X200730483Y-96129329D01*
X200748207Y-96145393D01*
X200764271Y-96163117D01*
X200778521Y-96182330D01*
X200790818Y-96202847D01*
X200801046Y-96224471D01*
X200809104Y-96246993D01*
X200814916Y-96270197D01*
X200818426Y-96293858D01*
X200819600Y-96317750D01*
X200819600Y-97230250D01*
X200818426Y-97254142D01*
X200814916Y-97277803D01*
X200809104Y-97301007D01*
X200801046Y-97323529D01*
X200790818Y-97345153D01*
X200778521Y-97365670D01*
X200764271Y-97384883D01*
X200748207Y-97402607D01*
X200730483Y-97418671D01*
X200711270Y-97432921D01*
X200690753Y-97445218D01*
X200669129Y-97455446D01*
X200646607Y-97463504D01*
X200623403Y-97469316D01*
X200599742Y-97472826D01*
X200575850Y-97474000D01*
X200088350Y-97474000D01*
X200064458Y-97472826D01*
X200040797Y-97469316D01*
X200017593Y-97463504D01*
X199995071Y-97455446D01*
X199973447Y-97445218D01*
X199952930Y-97432921D01*
X199933717Y-97418671D01*
X199915993Y-97402607D01*
X199899929Y-97384883D01*
X199885679Y-97365670D01*
X199873382Y-97345153D01*
X199863154Y-97323529D01*
X199855096Y-97301007D01*
X199849284Y-97277803D01*
X199845774Y-97254142D01*
X199844600Y-97230250D01*
X199844600Y-96317750D01*
X199845774Y-96293858D01*
X199849284Y-96270197D01*
X199855096Y-96246993D01*
X199863154Y-96224471D01*
X199873382Y-96202847D01*
X199885679Y-96182330D01*
X199899929Y-96163117D01*
X199915993Y-96145393D01*
X199933717Y-96129329D01*
X199952930Y-96115079D01*
X199973447Y-96102782D01*
X199995071Y-96092554D01*
X200017593Y-96084496D01*
X200040797Y-96078684D01*
X200064458Y-96075174D01*
X200088350Y-96074000D01*
X200575850Y-96074000D01*
X200599742Y-96075174D01*
G37*
G04 #@! TD.AperFunction*
G04 #@! TA.AperFunction,SMDPad,CuDef*
G36*
X198766342Y-96024374D02*
G01*
X198790003Y-96027884D01*
X198813207Y-96033696D01*
X198835729Y-96041754D01*
X198857353Y-96051982D01*
X198877870Y-96064279D01*
X198897083Y-96078529D01*
X198914807Y-96094593D01*
X198930871Y-96112317D01*
X198945121Y-96131530D01*
X198957418Y-96152047D01*
X198967646Y-96173671D01*
X198975704Y-96196193D01*
X198981516Y-96219397D01*
X198985026Y-96243058D01*
X198986200Y-96266950D01*
X198986200Y-97179450D01*
X198985026Y-97203342D01*
X198981516Y-97227003D01*
X198975704Y-97250207D01*
X198967646Y-97272729D01*
X198957418Y-97294353D01*
X198945121Y-97314870D01*
X198930871Y-97334083D01*
X198914807Y-97351807D01*
X198897083Y-97367871D01*
X198877870Y-97382121D01*
X198857353Y-97394418D01*
X198835729Y-97404646D01*
X198813207Y-97412704D01*
X198790003Y-97418516D01*
X198766342Y-97422026D01*
X198742450Y-97423200D01*
X198254950Y-97423200D01*
X198231058Y-97422026D01*
X198207397Y-97418516D01*
X198184193Y-97412704D01*
X198161671Y-97404646D01*
X198140047Y-97394418D01*
X198119530Y-97382121D01*
X198100317Y-97367871D01*
X198082593Y-97351807D01*
X198066529Y-97334083D01*
X198052279Y-97314870D01*
X198039982Y-97294353D01*
X198029754Y-97272729D01*
X198021696Y-97250207D01*
X198015884Y-97227003D01*
X198012374Y-97203342D01*
X198011200Y-97179450D01*
X198011200Y-96266950D01*
X198012374Y-96243058D01*
X198015884Y-96219397D01*
X198021696Y-96196193D01*
X198029754Y-96173671D01*
X198039982Y-96152047D01*
X198052279Y-96131530D01*
X198066529Y-96112317D01*
X198082593Y-96094593D01*
X198100317Y-96078529D01*
X198119530Y-96064279D01*
X198140047Y-96051982D01*
X198161671Y-96041754D01*
X198184193Y-96033696D01*
X198207397Y-96027884D01*
X198231058Y-96024374D01*
X198254950Y-96023200D01*
X198742450Y-96023200D01*
X198766342Y-96024374D01*
G37*
G04 #@! TD.AperFunction*
G04 #@! TA.AperFunction,SMDPad,CuDef*
G36*
X196891342Y-96024374D02*
G01*
X196915003Y-96027884D01*
X196938207Y-96033696D01*
X196960729Y-96041754D01*
X196982353Y-96051982D01*
X197002870Y-96064279D01*
X197022083Y-96078529D01*
X197039807Y-96094593D01*
X197055871Y-96112317D01*
X197070121Y-96131530D01*
X197082418Y-96152047D01*
X197092646Y-96173671D01*
X197100704Y-96196193D01*
X197106516Y-96219397D01*
X197110026Y-96243058D01*
X197111200Y-96266950D01*
X197111200Y-97179450D01*
X197110026Y-97203342D01*
X197106516Y-97227003D01*
X197100704Y-97250207D01*
X197092646Y-97272729D01*
X197082418Y-97294353D01*
X197070121Y-97314870D01*
X197055871Y-97334083D01*
X197039807Y-97351807D01*
X197022083Y-97367871D01*
X197002870Y-97382121D01*
X196982353Y-97394418D01*
X196960729Y-97404646D01*
X196938207Y-97412704D01*
X196915003Y-97418516D01*
X196891342Y-97422026D01*
X196867450Y-97423200D01*
X196379950Y-97423200D01*
X196356058Y-97422026D01*
X196332397Y-97418516D01*
X196309193Y-97412704D01*
X196286671Y-97404646D01*
X196265047Y-97394418D01*
X196244530Y-97382121D01*
X196225317Y-97367871D01*
X196207593Y-97351807D01*
X196191529Y-97334083D01*
X196177279Y-97314870D01*
X196164982Y-97294353D01*
X196154754Y-97272729D01*
X196146696Y-97250207D01*
X196140884Y-97227003D01*
X196137374Y-97203342D01*
X196136200Y-97179450D01*
X196136200Y-96266950D01*
X196137374Y-96243058D01*
X196140884Y-96219397D01*
X196146696Y-96196193D01*
X196154754Y-96173671D01*
X196164982Y-96152047D01*
X196177279Y-96131530D01*
X196191529Y-96112317D01*
X196207593Y-96094593D01*
X196225317Y-96078529D01*
X196244530Y-96064279D01*
X196265047Y-96051982D01*
X196286671Y-96041754D01*
X196309193Y-96033696D01*
X196332397Y-96027884D01*
X196356058Y-96024374D01*
X196379950Y-96023200D01*
X196867450Y-96023200D01*
X196891342Y-96024374D01*
G37*
G04 #@! TD.AperFunction*
G04 #@! TA.AperFunction,SMDPad,CuDef*
G36*
X186657442Y-111670774D02*
G01*
X186681103Y-111674284D01*
X186704307Y-111680096D01*
X186726829Y-111688154D01*
X186748453Y-111698382D01*
X186768970Y-111710679D01*
X186788183Y-111724929D01*
X186805907Y-111740993D01*
X186821971Y-111758717D01*
X186836221Y-111777930D01*
X186848518Y-111798447D01*
X186858746Y-111820071D01*
X186866804Y-111842593D01*
X186872616Y-111865797D01*
X186876126Y-111889458D01*
X186877300Y-111913350D01*
X186877300Y-112825850D01*
X186876126Y-112849742D01*
X186872616Y-112873403D01*
X186866804Y-112896607D01*
X186858746Y-112919129D01*
X186848518Y-112940753D01*
X186836221Y-112961270D01*
X186821971Y-112980483D01*
X186805907Y-112998207D01*
X186788183Y-113014271D01*
X186768970Y-113028521D01*
X186748453Y-113040818D01*
X186726829Y-113051046D01*
X186704307Y-113059104D01*
X186681103Y-113064916D01*
X186657442Y-113068426D01*
X186633550Y-113069600D01*
X186146050Y-113069600D01*
X186122158Y-113068426D01*
X186098497Y-113064916D01*
X186075293Y-113059104D01*
X186052771Y-113051046D01*
X186031147Y-113040818D01*
X186010630Y-113028521D01*
X185991417Y-113014271D01*
X185973693Y-112998207D01*
X185957629Y-112980483D01*
X185943379Y-112961270D01*
X185931082Y-112940753D01*
X185920854Y-112919129D01*
X185912796Y-112896607D01*
X185906984Y-112873403D01*
X185903474Y-112849742D01*
X185902300Y-112825850D01*
X185902300Y-111913350D01*
X185903474Y-111889458D01*
X185906984Y-111865797D01*
X185912796Y-111842593D01*
X185920854Y-111820071D01*
X185931082Y-111798447D01*
X185943379Y-111777930D01*
X185957629Y-111758717D01*
X185973693Y-111740993D01*
X185991417Y-111724929D01*
X186010630Y-111710679D01*
X186031147Y-111698382D01*
X186052771Y-111688154D01*
X186075293Y-111680096D01*
X186098497Y-111674284D01*
X186122158Y-111670774D01*
X186146050Y-111669600D01*
X186633550Y-111669600D01*
X186657442Y-111670774D01*
G37*
G04 #@! TD.AperFunction*
G04 #@! TA.AperFunction,SMDPad,CuDef*
G36*
X188532442Y-111670774D02*
G01*
X188556103Y-111674284D01*
X188579307Y-111680096D01*
X188601829Y-111688154D01*
X188623453Y-111698382D01*
X188643970Y-111710679D01*
X188663183Y-111724929D01*
X188680907Y-111740993D01*
X188696971Y-111758717D01*
X188711221Y-111777930D01*
X188723518Y-111798447D01*
X188733746Y-111820071D01*
X188741804Y-111842593D01*
X188747616Y-111865797D01*
X188751126Y-111889458D01*
X188752300Y-111913350D01*
X188752300Y-112825850D01*
X188751126Y-112849742D01*
X188747616Y-112873403D01*
X188741804Y-112896607D01*
X188733746Y-112919129D01*
X188723518Y-112940753D01*
X188711221Y-112961270D01*
X188696971Y-112980483D01*
X188680907Y-112998207D01*
X188663183Y-113014271D01*
X188643970Y-113028521D01*
X188623453Y-113040818D01*
X188601829Y-113051046D01*
X188579307Y-113059104D01*
X188556103Y-113064916D01*
X188532442Y-113068426D01*
X188508550Y-113069600D01*
X188021050Y-113069600D01*
X187997158Y-113068426D01*
X187973497Y-113064916D01*
X187950293Y-113059104D01*
X187927771Y-113051046D01*
X187906147Y-113040818D01*
X187885630Y-113028521D01*
X187866417Y-113014271D01*
X187848693Y-112998207D01*
X187832629Y-112980483D01*
X187818379Y-112961270D01*
X187806082Y-112940753D01*
X187795854Y-112919129D01*
X187787796Y-112896607D01*
X187781984Y-112873403D01*
X187778474Y-112849742D01*
X187777300Y-112825850D01*
X187777300Y-111913350D01*
X187778474Y-111889458D01*
X187781984Y-111865797D01*
X187787796Y-111842593D01*
X187795854Y-111820071D01*
X187806082Y-111798447D01*
X187818379Y-111777930D01*
X187832629Y-111758717D01*
X187848693Y-111740993D01*
X187866417Y-111724929D01*
X187885630Y-111710679D01*
X187906147Y-111698382D01*
X187927771Y-111688154D01*
X187950293Y-111680096D01*
X187973497Y-111674284D01*
X187997158Y-111670774D01*
X188021050Y-111669600D01*
X188508550Y-111669600D01*
X188532442Y-111670774D01*
G37*
G04 #@! TD.AperFunction*
G04 #@! TA.AperFunction,SMDPad,CuDef*
G36*
X186606642Y-108216374D02*
G01*
X186630303Y-108219884D01*
X186653507Y-108225696D01*
X186676029Y-108233754D01*
X186697653Y-108243982D01*
X186718170Y-108256279D01*
X186737383Y-108270529D01*
X186755107Y-108286593D01*
X186771171Y-108304317D01*
X186785421Y-108323530D01*
X186797718Y-108344047D01*
X186807946Y-108365671D01*
X186816004Y-108388193D01*
X186821816Y-108411397D01*
X186825326Y-108435058D01*
X186826500Y-108458950D01*
X186826500Y-109371450D01*
X186825326Y-109395342D01*
X186821816Y-109419003D01*
X186816004Y-109442207D01*
X186807946Y-109464729D01*
X186797718Y-109486353D01*
X186785421Y-109506870D01*
X186771171Y-109526083D01*
X186755107Y-109543807D01*
X186737383Y-109559871D01*
X186718170Y-109574121D01*
X186697653Y-109586418D01*
X186676029Y-109596646D01*
X186653507Y-109604704D01*
X186630303Y-109610516D01*
X186606642Y-109614026D01*
X186582750Y-109615200D01*
X186095250Y-109615200D01*
X186071358Y-109614026D01*
X186047697Y-109610516D01*
X186024493Y-109604704D01*
X186001971Y-109596646D01*
X185980347Y-109586418D01*
X185959830Y-109574121D01*
X185940617Y-109559871D01*
X185922893Y-109543807D01*
X185906829Y-109526083D01*
X185892579Y-109506870D01*
X185880282Y-109486353D01*
X185870054Y-109464729D01*
X185861996Y-109442207D01*
X185856184Y-109419003D01*
X185852674Y-109395342D01*
X185851500Y-109371450D01*
X185851500Y-108458950D01*
X185852674Y-108435058D01*
X185856184Y-108411397D01*
X185861996Y-108388193D01*
X185870054Y-108365671D01*
X185880282Y-108344047D01*
X185892579Y-108323530D01*
X185906829Y-108304317D01*
X185922893Y-108286593D01*
X185940617Y-108270529D01*
X185959830Y-108256279D01*
X185980347Y-108243982D01*
X186001971Y-108233754D01*
X186024493Y-108225696D01*
X186047697Y-108219884D01*
X186071358Y-108216374D01*
X186095250Y-108215200D01*
X186582750Y-108215200D01*
X186606642Y-108216374D01*
G37*
G04 #@! TD.AperFunction*
G04 #@! TA.AperFunction,SMDPad,CuDef*
G36*
X188481642Y-108216374D02*
G01*
X188505303Y-108219884D01*
X188528507Y-108225696D01*
X188551029Y-108233754D01*
X188572653Y-108243982D01*
X188593170Y-108256279D01*
X188612383Y-108270529D01*
X188630107Y-108286593D01*
X188646171Y-108304317D01*
X188660421Y-108323530D01*
X188672718Y-108344047D01*
X188682946Y-108365671D01*
X188691004Y-108388193D01*
X188696816Y-108411397D01*
X188700326Y-108435058D01*
X188701500Y-108458950D01*
X188701500Y-109371450D01*
X188700326Y-109395342D01*
X188696816Y-109419003D01*
X188691004Y-109442207D01*
X188682946Y-109464729D01*
X188672718Y-109486353D01*
X188660421Y-109506870D01*
X188646171Y-109526083D01*
X188630107Y-109543807D01*
X188612383Y-109559871D01*
X188593170Y-109574121D01*
X188572653Y-109586418D01*
X188551029Y-109596646D01*
X188528507Y-109604704D01*
X188505303Y-109610516D01*
X188481642Y-109614026D01*
X188457750Y-109615200D01*
X187970250Y-109615200D01*
X187946358Y-109614026D01*
X187922697Y-109610516D01*
X187899493Y-109604704D01*
X187876971Y-109596646D01*
X187855347Y-109586418D01*
X187834830Y-109574121D01*
X187815617Y-109559871D01*
X187797893Y-109543807D01*
X187781829Y-109526083D01*
X187767579Y-109506870D01*
X187755282Y-109486353D01*
X187745054Y-109464729D01*
X187736996Y-109442207D01*
X187731184Y-109419003D01*
X187727674Y-109395342D01*
X187726500Y-109371450D01*
X187726500Y-108458950D01*
X187727674Y-108435058D01*
X187731184Y-108411397D01*
X187736996Y-108388193D01*
X187745054Y-108365671D01*
X187755282Y-108344047D01*
X187767579Y-108323530D01*
X187781829Y-108304317D01*
X187797893Y-108286593D01*
X187815617Y-108270529D01*
X187834830Y-108256279D01*
X187855347Y-108243982D01*
X187876971Y-108233754D01*
X187899493Y-108225696D01*
X187922697Y-108219884D01*
X187946358Y-108216374D01*
X187970250Y-108215200D01*
X188457750Y-108215200D01*
X188481642Y-108216374D01*
G37*
G04 #@! TD.AperFunction*
G04 #@! TA.AperFunction,SMDPad,CuDef*
G36*
X210030142Y-97834774D02*
G01*
X210053803Y-97838284D01*
X210077007Y-97844096D01*
X210099529Y-97852154D01*
X210121153Y-97862382D01*
X210141670Y-97874679D01*
X210160883Y-97888929D01*
X210178607Y-97904993D01*
X210194671Y-97922717D01*
X210208921Y-97941930D01*
X210221218Y-97962447D01*
X210231446Y-97984071D01*
X210239504Y-98006593D01*
X210245316Y-98029797D01*
X210248826Y-98053458D01*
X210250000Y-98077350D01*
X210250000Y-98564850D01*
X210248826Y-98588742D01*
X210245316Y-98612403D01*
X210239504Y-98635607D01*
X210231446Y-98658129D01*
X210221218Y-98679753D01*
X210208921Y-98700270D01*
X210194671Y-98719483D01*
X210178607Y-98737207D01*
X210160883Y-98753271D01*
X210141670Y-98767521D01*
X210121153Y-98779818D01*
X210099529Y-98790046D01*
X210077007Y-98798104D01*
X210053803Y-98803916D01*
X210030142Y-98807426D01*
X210006250Y-98808600D01*
X209093750Y-98808600D01*
X209069858Y-98807426D01*
X209046197Y-98803916D01*
X209022993Y-98798104D01*
X209000471Y-98790046D01*
X208978847Y-98779818D01*
X208958330Y-98767521D01*
X208939117Y-98753271D01*
X208921393Y-98737207D01*
X208905329Y-98719483D01*
X208891079Y-98700270D01*
X208878782Y-98679753D01*
X208868554Y-98658129D01*
X208860496Y-98635607D01*
X208854684Y-98612403D01*
X208851174Y-98588742D01*
X208850000Y-98564850D01*
X208850000Y-98077350D01*
X208851174Y-98053458D01*
X208854684Y-98029797D01*
X208860496Y-98006593D01*
X208868554Y-97984071D01*
X208878782Y-97962447D01*
X208891079Y-97941930D01*
X208905329Y-97922717D01*
X208921393Y-97904993D01*
X208939117Y-97888929D01*
X208958330Y-97874679D01*
X208978847Y-97862382D01*
X209000471Y-97852154D01*
X209022993Y-97844096D01*
X209046197Y-97838284D01*
X209069858Y-97834774D01*
X209093750Y-97833600D01*
X210006250Y-97833600D01*
X210030142Y-97834774D01*
G37*
G04 #@! TD.AperFunction*
G04 #@! TA.AperFunction,SMDPad,CuDef*
G36*
X210030142Y-95959774D02*
G01*
X210053803Y-95963284D01*
X210077007Y-95969096D01*
X210099529Y-95977154D01*
X210121153Y-95987382D01*
X210141670Y-95999679D01*
X210160883Y-96013929D01*
X210178607Y-96029993D01*
X210194671Y-96047717D01*
X210208921Y-96066930D01*
X210221218Y-96087447D01*
X210231446Y-96109071D01*
X210239504Y-96131593D01*
X210245316Y-96154797D01*
X210248826Y-96178458D01*
X210250000Y-96202350D01*
X210250000Y-96689850D01*
X210248826Y-96713742D01*
X210245316Y-96737403D01*
X210239504Y-96760607D01*
X210231446Y-96783129D01*
X210221218Y-96804753D01*
X210208921Y-96825270D01*
X210194671Y-96844483D01*
X210178607Y-96862207D01*
X210160883Y-96878271D01*
X210141670Y-96892521D01*
X210121153Y-96904818D01*
X210099529Y-96915046D01*
X210077007Y-96923104D01*
X210053803Y-96928916D01*
X210030142Y-96932426D01*
X210006250Y-96933600D01*
X209093750Y-96933600D01*
X209069858Y-96932426D01*
X209046197Y-96928916D01*
X209022993Y-96923104D01*
X209000471Y-96915046D01*
X208978847Y-96904818D01*
X208958330Y-96892521D01*
X208939117Y-96878271D01*
X208921393Y-96862207D01*
X208905329Y-96844483D01*
X208891079Y-96825270D01*
X208878782Y-96804753D01*
X208868554Y-96783129D01*
X208860496Y-96760607D01*
X208854684Y-96737403D01*
X208851174Y-96713742D01*
X208850000Y-96689850D01*
X208850000Y-96202350D01*
X208851174Y-96178458D01*
X208854684Y-96154797D01*
X208860496Y-96131593D01*
X208868554Y-96109071D01*
X208878782Y-96087447D01*
X208891079Y-96066930D01*
X208905329Y-96047717D01*
X208921393Y-96029993D01*
X208939117Y-96013929D01*
X208958330Y-95999679D01*
X208978847Y-95987382D01*
X209000471Y-95977154D01*
X209022993Y-95969096D01*
X209046197Y-95963284D01*
X209069858Y-95959774D01*
X209093750Y-95958600D01*
X210006250Y-95958600D01*
X210030142Y-95959774D01*
G37*
G04 #@! TD.AperFunction*
G04 #@! TA.AperFunction,SMDPad,CuDef*
G36*
X219217504Y-105145804D02*
G01*
X219241773Y-105149404D01*
X219265571Y-105155365D01*
X219288671Y-105163630D01*
X219310849Y-105174120D01*
X219331893Y-105186733D01*
X219351598Y-105201347D01*
X219369777Y-105217823D01*
X219386253Y-105236002D01*
X219400867Y-105255707D01*
X219413480Y-105276751D01*
X219423970Y-105298929D01*
X219432235Y-105322029D01*
X219438196Y-105345827D01*
X219441796Y-105370096D01*
X219443000Y-105394600D01*
X219443000Y-106644600D01*
X219441796Y-106669104D01*
X219438196Y-106693373D01*
X219432235Y-106717171D01*
X219423970Y-106740271D01*
X219413480Y-106762449D01*
X219400867Y-106783493D01*
X219386253Y-106803198D01*
X219369777Y-106821377D01*
X219351598Y-106837853D01*
X219331893Y-106852467D01*
X219310849Y-106865080D01*
X219288671Y-106875570D01*
X219265571Y-106883835D01*
X219241773Y-106889796D01*
X219217504Y-106893396D01*
X219193000Y-106894600D01*
X218443000Y-106894600D01*
X218418496Y-106893396D01*
X218394227Y-106889796D01*
X218370429Y-106883835D01*
X218347329Y-106875570D01*
X218325151Y-106865080D01*
X218304107Y-106852467D01*
X218284402Y-106837853D01*
X218266223Y-106821377D01*
X218249747Y-106803198D01*
X218235133Y-106783493D01*
X218222520Y-106762449D01*
X218212030Y-106740271D01*
X218203765Y-106717171D01*
X218197804Y-106693373D01*
X218194204Y-106669104D01*
X218193000Y-106644600D01*
X218193000Y-105394600D01*
X218194204Y-105370096D01*
X218197804Y-105345827D01*
X218203765Y-105322029D01*
X218212030Y-105298929D01*
X218222520Y-105276751D01*
X218235133Y-105255707D01*
X218249747Y-105236002D01*
X218266223Y-105217823D01*
X218284402Y-105201347D01*
X218304107Y-105186733D01*
X218325151Y-105174120D01*
X218347329Y-105163630D01*
X218370429Y-105155365D01*
X218394227Y-105149404D01*
X218418496Y-105145804D01*
X218443000Y-105144600D01*
X219193000Y-105144600D01*
X219217504Y-105145804D01*
G37*
G04 #@! TD.AperFunction*
G04 #@! TA.AperFunction,SMDPad,CuDef*
G36*
X222017504Y-105145804D02*
G01*
X222041773Y-105149404D01*
X222065571Y-105155365D01*
X222088671Y-105163630D01*
X222110849Y-105174120D01*
X222131893Y-105186733D01*
X222151598Y-105201347D01*
X222169777Y-105217823D01*
X222186253Y-105236002D01*
X222200867Y-105255707D01*
X222213480Y-105276751D01*
X222223970Y-105298929D01*
X222232235Y-105322029D01*
X222238196Y-105345827D01*
X222241796Y-105370096D01*
X222243000Y-105394600D01*
X222243000Y-106644600D01*
X222241796Y-106669104D01*
X222238196Y-106693373D01*
X222232235Y-106717171D01*
X222223970Y-106740271D01*
X222213480Y-106762449D01*
X222200867Y-106783493D01*
X222186253Y-106803198D01*
X222169777Y-106821377D01*
X222151598Y-106837853D01*
X222131893Y-106852467D01*
X222110849Y-106865080D01*
X222088671Y-106875570D01*
X222065571Y-106883835D01*
X222041773Y-106889796D01*
X222017504Y-106893396D01*
X221993000Y-106894600D01*
X221243000Y-106894600D01*
X221218496Y-106893396D01*
X221194227Y-106889796D01*
X221170429Y-106883835D01*
X221147329Y-106875570D01*
X221125151Y-106865080D01*
X221104107Y-106852467D01*
X221084402Y-106837853D01*
X221066223Y-106821377D01*
X221049747Y-106803198D01*
X221035133Y-106783493D01*
X221022520Y-106762449D01*
X221012030Y-106740271D01*
X221003765Y-106717171D01*
X220997804Y-106693373D01*
X220994204Y-106669104D01*
X220993000Y-106644600D01*
X220993000Y-105394600D01*
X220994204Y-105370096D01*
X220997804Y-105345827D01*
X221003765Y-105322029D01*
X221012030Y-105298929D01*
X221022520Y-105276751D01*
X221035133Y-105255707D01*
X221049747Y-105236002D01*
X221066223Y-105217823D01*
X221084402Y-105201347D01*
X221104107Y-105186733D01*
X221125151Y-105174120D01*
X221147329Y-105163630D01*
X221170429Y-105155365D01*
X221194227Y-105149404D01*
X221218496Y-105145804D01*
X221243000Y-105144600D01*
X221993000Y-105144600D01*
X222017504Y-105145804D01*
G37*
G04 #@! TD.AperFunction*
G04 #@! TA.AperFunction,SMDPad,CuDef*
G36*
X193159842Y-112127974D02*
G01*
X193183503Y-112131484D01*
X193206707Y-112137296D01*
X193229229Y-112145354D01*
X193250853Y-112155582D01*
X193271370Y-112167879D01*
X193290583Y-112182129D01*
X193308307Y-112198193D01*
X193324371Y-112215917D01*
X193338621Y-112235130D01*
X193350918Y-112255647D01*
X193361146Y-112277271D01*
X193369204Y-112299793D01*
X193375016Y-112322997D01*
X193378526Y-112346658D01*
X193379700Y-112370550D01*
X193379700Y-113283050D01*
X193378526Y-113306942D01*
X193375016Y-113330603D01*
X193369204Y-113353807D01*
X193361146Y-113376329D01*
X193350918Y-113397953D01*
X193338621Y-113418470D01*
X193324371Y-113437683D01*
X193308307Y-113455407D01*
X193290583Y-113471471D01*
X193271370Y-113485721D01*
X193250853Y-113498018D01*
X193229229Y-113508246D01*
X193206707Y-113516304D01*
X193183503Y-113522116D01*
X193159842Y-113525626D01*
X193135950Y-113526800D01*
X192648450Y-113526800D01*
X192624558Y-113525626D01*
X192600897Y-113522116D01*
X192577693Y-113516304D01*
X192555171Y-113508246D01*
X192533547Y-113498018D01*
X192513030Y-113485721D01*
X192493817Y-113471471D01*
X192476093Y-113455407D01*
X192460029Y-113437683D01*
X192445779Y-113418470D01*
X192433482Y-113397953D01*
X192423254Y-113376329D01*
X192415196Y-113353807D01*
X192409384Y-113330603D01*
X192405874Y-113306942D01*
X192404700Y-113283050D01*
X192404700Y-112370550D01*
X192405874Y-112346658D01*
X192409384Y-112322997D01*
X192415196Y-112299793D01*
X192423254Y-112277271D01*
X192433482Y-112255647D01*
X192445779Y-112235130D01*
X192460029Y-112215917D01*
X192476093Y-112198193D01*
X192493817Y-112182129D01*
X192513030Y-112167879D01*
X192533547Y-112155582D01*
X192555171Y-112145354D01*
X192577693Y-112137296D01*
X192600897Y-112131484D01*
X192624558Y-112127974D01*
X192648450Y-112126800D01*
X193135950Y-112126800D01*
X193159842Y-112127974D01*
G37*
G04 #@! TD.AperFunction*
G04 #@! TA.AperFunction,SMDPad,CuDef*
G36*
X195034842Y-112127974D02*
G01*
X195058503Y-112131484D01*
X195081707Y-112137296D01*
X195104229Y-112145354D01*
X195125853Y-112155582D01*
X195146370Y-112167879D01*
X195165583Y-112182129D01*
X195183307Y-112198193D01*
X195199371Y-112215917D01*
X195213621Y-112235130D01*
X195225918Y-112255647D01*
X195236146Y-112277271D01*
X195244204Y-112299793D01*
X195250016Y-112322997D01*
X195253526Y-112346658D01*
X195254700Y-112370550D01*
X195254700Y-113283050D01*
X195253526Y-113306942D01*
X195250016Y-113330603D01*
X195244204Y-113353807D01*
X195236146Y-113376329D01*
X195225918Y-113397953D01*
X195213621Y-113418470D01*
X195199371Y-113437683D01*
X195183307Y-113455407D01*
X195165583Y-113471471D01*
X195146370Y-113485721D01*
X195125853Y-113498018D01*
X195104229Y-113508246D01*
X195081707Y-113516304D01*
X195058503Y-113522116D01*
X195034842Y-113525626D01*
X195010950Y-113526800D01*
X194523450Y-113526800D01*
X194499558Y-113525626D01*
X194475897Y-113522116D01*
X194452693Y-113516304D01*
X194430171Y-113508246D01*
X194408547Y-113498018D01*
X194388030Y-113485721D01*
X194368817Y-113471471D01*
X194351093Y-113455407D01*
X194335029Y-113437683D01*
X194320779Y-113418470D01*
X194308482Y-113397953D01*
X194298254Y-113376329D01*
X194290196Y-113353807D01*
X194284384Y-113330603D01*
X194280874Y-113306942D01*
X194279700Y-113283050D01*
X194279700Y-112370550D01*
X194280874Y-112346658D01*
X194284384Y-112322997D01*
X194290196Y-112299793D01*
X194298254Y-112277271D01*
X194308482Y-112255647D01*
X194320779Y-112235130D01*
X194335029Y-112215917D01*
X194351093Y-112198193D01*
X194368817Y-112182129D01*
X194388030Y-112167879D01*
X194408547Y-112155582D01*
X194430171Y-112145354D01*
X194452693Y-112137296D01*
X194475897Y-112131484D01*
X194499558Y-112127974D01*
X194523450Y-112126800D01*
X195010950Y-112126800D01*
X195034842Y-112127974D01*
G37*
G04 #@! TD.AperFunction*
G04 #@! TA.AperFunction,SMDPad,CuDef*
G36*
X198844842Y-112077174D02*
G01*
X198868503Y-112080684D01*
X198891707Y-112086496D01*
X198914229Y-112094554D01*
X198935853Y-112104782D01*
X198956370Y-112117079D01*
X198975583Y-112131329D01*
X198993307Y-112147393D01*
X199009371Y-112165117D01*
X199023621Y-112184330D01*
X199035918Y-112204847D01*
X199046146Y-112226471D01*
X199054204Y-112248993D01*
X199060016Y-112272197D01*
X199063526Y-112295858D01*
X199064700Y-112319750D01*
X199064700Y-113232250D01*
X199063526Y-113256142D01*
X199060016Y-113279803D01*
X199054204Y-113303007D01*
X199046146Y-113325529D01*
X199035918Y-113347153D01*
X199023621Y-113367670D01*
X199009371Y-113386883D01*
X198993307Y-113404607D01*
X198975583Y-113420671D01*
X198956370Y-113434921D01*
X198935853Y-113447218D01*
X198914229Y-113457446D01*
X198891707Y-113465504D01*
X198868503Y-113471316D01*
X198844842Y-113474826D01*
X198820950Y-113476000D01*
X198333450Y-113476000D01*
X198309558Y-113474826D01*
X198285897Y-113471316D01*
X198262693Y-113465504D01*
X198240171Y-113457446D01*
X198218547Y-113447218D01*
X198198030Y-113434921D01*
X198178817Y-113420671D01*
X198161093Y-113404607D01*
X198145029Y-113386883D01*
X198130779Y-113367670D01*
X198118482Y-113347153D01*
X198108254Y-113325529D01*
X198100196Y-113303007D01*
X198094384Y-113279803D01*
X198090874Y-113256142D01*
X198089700Y-113232250D01*
X198089700Y-112319750D01*
X198090874Y-112295858D01*
X198094384Y-112272197D01*
X198100196Y-112248993D01*
X198108254Y-112226471D01*
X198118482Y-112204847D01*
X198130779Y-112184330D01*
X198145029Y-112165117D01*
X198161093Y-112147393D01*
X198178817Y-112131329D01*
X198198030Y-112117079D01*
X198218547Y-112104782D01*
X198240171Y-112094554D01*
X198262693Y-112086496D01*
X198285897Y-112080684D01*
X198309558Y-112077174D01*
X198333450Y-112076000D01*
X198820950Y-112076000D01*
X198844842Y-112077174D01*
G37*
G04 #@! TD.AperFunction*
G04 #@! TA.AperFunction,SMDPad,CuDef*
G36*
X196969842Y-112077174D02*
G01*
X196993503Y-112080684D01*
X197016707Y-112086496D01*
X197039229Y-112094554D01*
X197060853Y-112104782D01*
X197081370Y-112117079D01*
X197100583Y-112131329D01*
X197118307Y-112147393D01*
X197134371Y-112165117D01*
X197148621Y-112184330D01*
X197160918Y-112204847D01*
X197171146Y-112226471D01*
X197179204Y-112248993D01*
X197185016Y-112272197D01*
X197188526Y-112295858D01*
X197189700Y-112319750D01*
X197189700Y-113232250D01*
X197188526Y-113256142D01*
X197185016Y-113279803D01*
X197179204Y-113303007D01*
X197171146Y-113325529D01*
X197160918Y-113347153D01*
X197148621Y-113367670D01*
X197134371Y-113386883D01*
X197118307Y-113404607D01*
X197100583Y-113420671D01*
X197081370Y-113434921D01*
X197060853Y-113447218D01*
X197039229Y-113457446D01*
X197016707Y-113465504D01*
X196993503Y-113471316D01*
X196969842Y-113474826D01*
X196945950Y-113476000D01*
X196458450Y-113476000D01*
X196434558Y-113474826D01*
X196410897Y-113471316D01*
X196387693Y-113465504D01*
X196365171Y-113457446D01*
X196343547Y-113447218D01*
X196323030Y-113434921D01*
X196303817Y-113420671D01*
X196286093Y-113404607D01*
X196270029Y-113386883D01*
X196255779Y-113367670D01*
X196243482Y-113347153D01*
X196233254Y-113325529D01*
X196225196Y-113303007D01*
X196219384Y-113279803D01*
X196215874Y-113256142D01*
X196214700Y-113232250D01*
X196214700Y-112319750D01*
X196215874Y-112295858D01*
X196219384Y-112272197D01*
X196225196Y-112248993D01*
X196233254Y-112226471D01*
X196243482Y-112204847D01*
X196255779Y-112184330D01*
X196270029Y-112165117D01*
X196286093Y-112147393D01*
X196303817Y-112131329D01*
X196323030Y-112117079D01*
X196343547Y-112104782D01*
X196365171Y-112094554D01*
X196387693Y-112086496D01*
X196410897Y-112080684D01*
X196434558Y-112077174D01*
X196458450Y-112076000D01*
X196945950Y-112076000D01*
X196969842Y-112077174D01*
G37*
G04 #@! TD.AperFunction*
D20*
X215341200Y-110998000D03*
X220065600Y-110845600D03*
X224993200Y-110896400D03*
X210413600Y-116128800D03*
X215341200Y-116027200D03*
X220218000Y-116078000D03*
X224993200Y-116027200D03*
X229870000Y-116230400D03*
X229768400Y-110896400D03*
X229717600Y-105511600D03*
X229768400Y-100228400D03*
X229717600Y-95250000D03*
X224332800Y-95046800D03*
X218948000Y-95250000D03*
D21*
X205587600Y-99898200D03*
X205079600Y-99898200D03*
X204571600Y-99898200D03*
X204063600Y-99898200D03*
D22*
X203123800Y-100838000D03*
X203123800Y-101346000D03*
X203123800Y-101854000D03*
X203123800Y-102362000D03*
D21*
X204063600Y-103301800D03*
X204571600Y-103301800D03*
X205079600Y-103301800D03*
X205587600Y-103301800D03*
D22*
X206527400Y-102362000D03*
X206527400Y-101854000D03*
X206527400Y-101346000D03*
X206527400Y-100838000D03*
D23*
X204825600Y-101600000D03*
D24*
X223215200Y-108559600D03*
X232105200Y-108407200D03*
X232003600Y-92913200D03*
X210275000Y-94589600D03*
X204724000Y-96875600D03*
X188925200Y-101752400D03*
X188925200Y-99060000D03*
X193344800Y-99060000D03*
X194056000Y-91998800D03*
X195935600Y-103124000D03*
X195935600Y-110032800D03*
X222605600Y-110896400D03*
X222605600Y-119176800D03*
X189733347Y-117606653D03*
X189636400Y-113385600D03*
X211124800Y-110947200D03*
X211429600Y-98094800D03*
X205587600Y-106781600D03*
X205587600Y-110540800D03*
X212547200Y-110032800D03*
X212547200Y-105918000D03*
X219608400Y-98704400D03*
X221640400Y-98704400D03*
X227025200Y-98704400D03*
X209397600Y-99757400D03*
X207264000Y-110591600D03*
X227177600Y-113284000D03*
X211923800Y-112877600D03*
X209600800Y-113334800D03*
X202742800Y-105359200D03*
X202692000Y-108559600D03*
X194208400Y-108204000D03*
X193751200Y-110896400D03*
D25*
X189839600Y-119227600D03*
X191160400Y-116078000D03*
D24*
X203860400Y-105410000D03*
X203809600Y-107746800D03*
X215138000Y-93218000D03*
X215188800Y-102260400D03*
X217779600Y-113842800D03*
X196748400Y-102311200D03*
X196748400Y-110947200D03*
X212648800Y-111099600D03*
X199999600Y-114350800D03*
X194462400Y-105257600D03*
X194462400Y-98755200D03*
X198170800Y-99923600D03*
X198221600Y-107391200D03*
X206095600Y-118821200D03*
X192227200Y-118770400D03*
X208635600Y-101346000D03*
X208635600Y-103530400D03*
X213461600Y-109321600D03*
X212852000Y-104800400D03*
X207772000Y-102717600D03*
X207772000Y-100482400D03*
X216458800Y-98348800D03*
X225856800Y-97942400D03*
X192836800Y-108661200D03*
X205282800Y-102108000D03*
X204317600Y-102108000D03*
X205333600Y-101092000D03*
X204368400Y-101041200D03*
X210566000Y-99720400D03*
X210566000Y-105308400D03*
X206705200Y-105308400D03*
X204862600Y-105460800D03*
X200456800Y-92049600D03*
X204165200Y-95707200D03*
X195122800Y-95910400D03*
D26*
X186514500Y-94280200D02*
X186514500Y-95859600D01*
X188287900Y-92506800D02*
X186514500Y-94280200D01*
X200339200Y-96766900D02*
X200332100Y-96774000D01*
X200339200Y-93624400D02*
X200339200Y-96766900D01*
X200281300Y-96723200D02*
X200332100Y-96774000D01*
X198498700Y-96723200D02*
X200281300Y-96723200D01*
X200332100Y-96774000D02*
X200332100Y-98274900D01*
X200332100Y-98274900D02*
X200355200Y-98298000D01*
X200355200Y-98298000D02*
X205079600Y-98298000D01*
X205079600Y-99212400D02*
X205079600Y-99898200D01*
X205079600Y-98298000D02*
X205079600Y-99212400D01*
X198452500Y-96723200D02*
X198498700Y-96723200D01*
X196189600Y-94460300D02*
X198452500Y-96723200D01*
X231952800Y-108559600D02*
X232105200Y-108407200D01*
X223215200Y-108559600D02*
X231952800Y-108559600D01*
X217647398Y-94589600D02*
X210275000Y-94589600D01*
X219323798Y-92913200D02*
X217647398Y-94589600D01*
X232003600Y-92913200D02*
X219323798Y-92913200D01*
X205079600Y-97796885D02*
X205079600Y-98298000D01*
X204724000Y-97441285D02*
X205079600Y-97796885D01*
X204724000Y-96875600D02*
X204724000Y-97441285D01*
X187678300Y-101752400D02*
X187678300Y-105206800D01*
X186412900Y-92506800D02*
X185549300Y-93370400D01*
X187678300Y-101752400D02*
X188925200Y-101752400D01*
X188925200Y-99060000D02*
X185420000Y-99060000D01*
X185420000Y-93421200D02*
X185369200Y-93370400D01*
X185420000Y-99060000D02*
X185420000Y-93421200D01*
X185369200Y-93370400D02*
X183184800Y-93370400D01*
X185549300Y-93370400D02*
X185369200Y-93370400D01*
X196189600Y-92585300D02*
X196189600Y-91744800D01*
X196189600Y-91744800D02*
X196697600Y-91236800D01*
X196697600Y-91236800D02*
X201523600Y-91236800D01*
X188925200Y-99060000D02*
X193344800Y-99060000D01*
X195603100Y-91998800D02*
X196189600Y-92585300D01*
X194056000Y-91998800D02*
X195603100Y-91998800D01*
X183184800Y-97383600D02*
X180289200Y-100279200D01*
X183184800Y-93370400D02*
X183184800Y-97383600D01*
X202207100Y-96074000D02*
X202207100Y-96774000D01*
X202207100Y-95591920D02*
X202207100Y-96074000D01*
X201985990Y-95370810D02*
X202207100Y-95591920D01*
X201985990Y-93928114D02*
X201985990Y-95370810D01*
X202696104Y-93218000D02*
X201985990Y-93928114D01*
X203276200Y-93218000D02*
X202696104Y-93218000D01*
X201523600Y-92045496D02*
X202696104Y-93218000D01*
X201523600Y-91236800D02*
X201523600Y-92045496D01*
X188752300Y-112369600D02*
X188803100Y-112420400D01*
X188264800Y-112369600D02*
X188752300Y-112369600D01*
X188803100Y-112420400D02*
X190601600Y-112420400D01*
X190652400Y-112369600D02*
X190652400Y-110563900D01*
X190601600Y-112420400D02*
X190652400Y-112369600D01*
X196400399Y-101586199D02*
X195935600Y-102050998D01*
X202199599Y-101586199D02*
X196400399Y-101586199D01*
X195935600Y-102050998D02*
X195935600Y-103124000D01*
X202467400Y-101854000D02*
X202199599Y-101586199D01*
X203123800Y-101854000D02*
X202467400Y-101854000D01*
X191183500Y-110032800D02*
X190652400Y-110563900D01*
X195935600Y-110032800D02*
X191183500Y-110032800D01*
X203123800Y-101346000D02*
X203123800Y-101854000D01*
X224993200Y-110896400D02*
X222605600Y-110896400D01*
X191703493Y-119576799D02*
X189733347Y-117606653D01*
X222205601Y-119576799D02*
X191703493Y-119576799D01*
X222605600Y-119176800D02*
X222205601Y-119576799D01*
X189280800Y-113385600D02*
X188264800Y-112369600D01*
X189636400Y-113385600D02*
X189280800Y-113385600D01*
X207162400Y-98323400D02*
X205587600Y-99898200D01*
X207162400Y-98321100D02*
X207162400Y-98323400D01*
X207162400Y-98321100D02*
X209550000Y-98321100D01*
X211124800Y-113771802D02*
X211124800Y-110947200D01*
X214705199Y-117352201D02*
X211124800Y-113771802D01*
X218943799Y-117352201D02*
X214705199Y-117352201D01*
X220218000Y-116078000D02*
X218943799Y-117352201D01*
X209776300Y-98094800D02*
X209550000Y-98321100D01*
X211429600Y-98094800D02*
X209776300Y-98094800D01*
X203165200Y-111979200D02*
X203149200Y-111963200D01*
X205399600Y-111979200D02*
X203165200Y-111979200D01*
X205587600Y-103301800D02*
X205587600Y-106781600D01*
X205587600Y-111791200D02*
X205399600Y-111979200D01*
X205587600Y-110540800D02*
X205587600Y-111791200D01*
X217613000Y-99695000D02*
X217613000Y-100965000D01*
X212663000Y-102235000D02*
X213334600Y-102235000D01*
X213334600Y-102235000D02*
X213360000Y-102209600D01*
X213360000Y-102209600D02*
X214223600Y-102209600D01*
X214302100Y-102288100D02*
X214302100Y-105918000D01*
X214223600Y-102209600D02*
X214302100Y-102288100D01*
X217613000Y-100965000D02*
X214299800Y-100965000D01*
X214223600Y-101041200D02*
X214223600Y-102209600D01*
X214299800Y-100965000D02*
X214223600Y-101041200D01*
X211688000Y-102235000D02*
X212663000Y-102235000D01*
X208070598Y-101854000D02*
X208451598Y-102235000D01*
X208451598Y-102235000D02*
X211688000Y-102235000D01*
X206527400Y-101854000D02*
X208070598Y-101854000D01*
X212519500Y-110060500D02*
X212547200Y-110032800D01*
X209499200Y-110060500D02*
X212519500Y-110060500D01*
X212547200Y-105918000D02*
X214302100Y-105918000D01*
X218617800Y-99695000D02*
X219608400Y-98704400D01*
X217613000Y-99695000D02*
X218617800Y-99695000D01*
X221640400Y-98704400D02*
X227025200Y-98704400D01*
X209455500Y-111979200D02*
X209499200Y-111935500D01*
X207299600Y-111979200D02*
X209455500Y-111979200D01*
X207205600Y-99757400D02*
X209397600Y-99757400D01*
X206527400Y-100435600D02*
X207205600Y-99757400D01*
X206527400Y-100838000D02*
X206527400Y-100435600D01*
X207264000Y-111943600D02*
X207299600Y-111979200D01*
X207264000Y-110591600D02*
X207264000Y-111943600D01*
X226771200Y-112877600D02*
X211923800Y-112877600D01*
X227177600Y-113284000D02*
X226771200Y-112877600D01*
X209600800Y-112037100D02*
X209499200Y-111935500D01*
X209600800Y-113334800D02*
X209600800Y-112037100D01*
X226133900Y-102706400D02*
X226133900Y-105968800D01*
X226133900Y-102006400D02*
X226133900Y-102706400D01*
X226009200Y-107746800D02*
X226133900Y-107622100D01*
X223970200Y-107746800D02*
X226009200Y-107746800D01*
X222243000Y-106019600D02*
X223970200Y-107746800D01*
X226133900Y-107622100D02*
X226133900Y-105968800D01*
X221618000Y-106019600D02*
X222243000Y-106019600D01*
X204063600Y-104038400D02*
X202742800Y-105359200D01*
X204063600Y-103301800D02*
X204063600Y-104038400D01*
X202692000Y-108559600D02*
X221640400Y-108559600D01*
X221618000Y-108537200D02*
X221618000Y-106019600D01*
X221640400Y-108559600D02*
X221618000Y-108537200D01*
X202077800Y-107945400D02*
X202692000Y-108559600D01*
X200914000Y-107945400D02*
X202077800Y-107945400D01*
X192892200Y-116207300D02*
X192966100Y-116281200D01*
X192892200Y-112826800D02*
X192892200Y-116207300D01*
X194435327Y-108430927D02*
X194208400Y-108204000D01*
X200428473Y-108430927D02*
X194435327Y-108430927D01*
X200914000Y-107945400D02*
X200428473Y-108430927D01*
X193751200Y-111967800D02*
X192892200Y-112826800D01*
X193751200Y-110896400D02*
X193751200Y-111967800D01*
X192762900Y-116078000D02*
X192966100Y-116281200D01*
X191160400Y-116078000D02*
X192762900Y-116078000D01*
X218716400Y-105918000D02*
X218818000Y-106019600D01*
X216177100Y-105918000D02*
X218716400Y-105918000D01*
X204571600Y-104698800D02*
X203860400Y-105410000D01*
X204571600Y-103301800D02*
X204571600Y-104698800D01*
X203809600Y-107746800D02*
X216204800Y-107746800D01*
X216177100Y-107719100D02*
X216177100Y-105918000D01*
X216204800Y-107746800D02*
X216177100Y-107719100D01*
X202714473Y-106555927D02*
X203460401Y-105809999D01*
X201399527Y-106555927D02*
X202714473Y-106555927D01*
X203460401Y-105809999D02*
X203860400Y-105410000D01*
X200914000Y-106070400D02*
X201399527Y-106555927D01*
X217613000Y-103505000D02*
X217613000Y-102235000D01*
X220571300Y-102235000D02*
X220573600Y-102232700D01*
X217613000Y-102235000D02*
X220571300Y-102235000D01*
X209550000Y-96446100D02*
X209550000Y-93218000D01*
X209550000Y-93218000D02*
X206679800Y-93218000D01*
X209550000Y-93218000D02*
X215138000Y-93218000D01*
X217587600Y-102260400D02*
X217613000Y-102235000D01*
X215188800Y-102260400D02*
X217587600Y-102260400D01*
X217525600Y-113842800D02*
X217779600Y-113842800D01*
X215341200Y-116027200D02*
X217525600Y-113842800D01*
X196651400Y-112826800D02*
X196702200Y-112776000D01*
X194767200Y-112826800D02*
X196651400Y-112826800D01*
X194767200Y-116207300D02*
X194841100Y-116281200D01*
X196799200Y-102362000D02*
X196748400Y-102311200D01*
X203123800Y-102362000D02*
X196799200Y-102362000D01*
X196748400Y-112729800D02*
X196702200Y-112776000D01*
X196748400Y-110947200D02*
X196748400Y-112729800D01*
X212750400Y-110998000D02*
X212648800Y-111099600D01*
X215341200Y-110998000D02*
X212750400Y-110998000D01*
X194818000Y-114350800D02*
X194767200Y-114300000D01*
X194767200Y-114300000D02*
X194767200Y-116207300D01*
X199999600Y-114350800D02*
X194818000Y-114350800D01*
X194767200Y-112826800D02*
X194767200Y-114300000D01*
X193215500Y-100838000D02*
X203123800Y-100838000D01*
X192301100Y-101752400D02*
X193215500Y-100838000D01*
X185803300Y-101052400D02*
X186576500Y-100279200D01*
X185803300Y-101752400D02*
X185803300Y-101052400D01*
X186576500Y-100279200D02*
X188976000Y-100279200D01*
X188976000Y-100302300D02*
X190426100Y-101752400D01*
X188976000Y-100279200D02*
X188976000Y-100302300D01*
X190375300Y-106601500D02*
X190375300Y-105257600D01*
X190195200Y-106781600D02*
X190375300Y-106601500D01*
X186678100Y-106781600D02*
X190195200Y-106781600D01*
X185803300Y-105906800D02*
X186678100Y-106781600D01*
X185803300Y-105206800D02*
X185803300Y-105906800D01*
X192250300Y-105257600D02*
X194462400Y-105257600D01*
X204571600Y-99241800D02*
X204571600Y-99898200D01*
X204085000Y-98755200D02*
X204571600Y-99241800D01*
X194462400Y-98755200D02*
X204085000Y-98755200D01*
X186339000Y-109113800D02*
X186339000Y-108915200D01*
X183134000Y-112318800D02*
X186339000Y-109113800D01*
X186339000Y-112318800D02*
X186389800Y-112369600D01*
X186339000Y-108915200D02*
X186339000Y-112318800D01*
X198196200Y-99898200D02*
X198170800Y-99923600D01*
X204063600Y-99898200D02*
X198196200Y-99898200D01*
X187863000Y-107391200D02*
X186339000Y-108915200D01*
X198221600Y-107391200D02*
X187863000Y-107391200D01*
X208999387Y-116128800D02*
X206103787Y-119024400D01*
X210413600Y-116128800D02*
X208999387Y-116128800D01*
X206103787Y-118829387D02*
X206095600Y-118821200D01*
X206103787Y-119024400D02*
X206103787Y-118829387D01*
X190338452Y-116881652D02*
X191827201Y-118370401D01*
X191827201Y-118370401D02*
X192227200Y-118770400D01*
X189424052Y-116881652D02*
X190338452Y-116881652D01*
X186389800Y-113847400D02*
X189424052Y-116881652D01*
X186389800Y-112369600D02*
X186389800Y-113847400D01*
X192718081Y-93370400D02*
X191516000Y-93370400D01*
X192745491Y-93397810D02*
X192718081Y-93370400D01*
X198265790Y-93397810D02*
X192745491Y-93397810D01*
X198339200Y-93324400D02*
X198265790Y-93397810D01*
X198339200Y-92674400D02*
X198339200Y-93324400D01*
X206527400Y-101346000D02*
X208635600Y-101346000D01*
X212637600Y-103479600D02*
X212663000Y-103505000D01*
X208661000Y-103505000D02*
X208635600Y-103530400D01*
X212663000Y-103505000D02*
X208661000Y-103505000D01*
X228193600Y-109321600D02*
X213461600Y-109321600D01*
X229768400Y-110896400D02*
X228193600Y-109321600D01*
X212852000Y-103694000D02*
X212663000Y-103505000D01*
X212852000Y-104800400D02*
X212852000Y-103694000D01*
X207416400Y-102362000D02*
X207772000Y-102717600D01*
X206527400Y-102362000D02*
X207416400Y-102362000D01*
X212180400Y-100482400D02*
X212663000Y-100965000D01*
X207772000Y-100482400D02*
X212180400Y-100482400D01*
X214292610Y-100514990D02*
X216458800Y-98348800D01*
X213113010Y-100514990D02*
X214292610Y-100514990D01*
X212663000Y-100965000D02*
X213113010Y-100514990D01*
X225856800Y-97942400D02*
X229768400Y-97942400D01*
X229768400Y-97942400D02*
X229768400Y-100228400D01*
X190680100Y-108661200D02*
X190652400Y-108688900D01*
X192836800Y-108661200D02*
X190680100Y-108661200D01*
X190426100Y-108915200D02*
X190652400Y-108688900D01*
X188214000Y-108915200D02*
X190426100Y-108915200D01*
X200565000Y-110088200D02*
X203149200Y-110088200D01*
X198577200Y-112076000D02*
X200565000Y-110088200D01*
X195810900Y-95910400D02*
X196623700Y-96723200D01*
X191516000Y-95910400D02*
X195122800Y-95910400D01*
X224258900Y-102706400D02*
X224258900Y-105968800D01*
X224258900Y-102006400D02*
X224258900Y-102706400D01*
X222610200Y-100357700D02*
X224258900Y-102006400D01*
X220573600Y-100357700D02*
X222610200Y-100357700D01*
X212663000Y-99695000D02*
X212663000Y-97550200D01*
X212663000Y-97550200D02*
X212677200Y-97536000D01*
X212677200Y-97536000D02*
X220573600Y-97536000D01*
X220573600Y-97536000D02*
X220573600Y-100357700D01*
X210591400Y-99695000D02*
X210566000Y-99720400D01*
X212663000Y-99695000D02*
X210591400Y-99695000D01*
X210566000Y-105308400D02*
X206705200Y-105308400D01*
X205079600Y-105243800D02*
X205079600Y-103301800D01*
X204862600Y-105460800D02*
X205079600Y-105243800D01*
X205079600Y-102311200D02*
X205282800Y-102108000D01*
X205079600Y-103301800D02*
X205079600Y-102311200D01*
X203352400Y-115848562D02*
X203352400Y-117195600D01*
X200279838Y-112776000D02*
X203352400Y-115848562D01*
X198577200Y-112776000D02*
X200279838Y-112776000D01*
X229666800Y-116027200D02*
X229870000Y-116230400D01*
X198577200Y-112076000D02*
X198577200Y-112776000D01*
X198577200Y-111601398D02*
X198577200Y-112076000D01*
X196037001Y-109061199D02*
X198577200Y-111601398D01*
X193236799Y-109061199D02*
X196037001Y-109061199D01*
X192836800Y-108661200D02*
X193236799Y-109061199D01*
X199039200Y-94574400D02*
X198339200Y-94574400D01*
X199114201Y-94499399D02*
X199039200Y-94574400D01*
X200456800Y-92049600D02*
X199114201Y-93392199D01*
X207162400Y-96446100D02*
X206423500Y-95707200D01*
X206423500Y-95707200D02*
X204165200Y-95707200D01*
X199114201Y-93392199D02*
X199114201Y-94499399D01*
X195122800Y-95910400D02*
X195810900Y-95910400D01*
D27*
G36*
X235180492Y-119659011D02*
G01*
X223534520Y-119638775D01*
X223600826Y-119478698D01*
X223640600Y-119278739D01*
X223640600Y-119074861D01*
X223600826Y-118874902D01*
X223522805Y-118686544D01*
X223409537Y-118517026D01*
X223265374Y-118372863D01*
X223095856Y-118259595D01*
X222907498Y-118181574D01*
X222707539Y-118141800D01*
X222503661Y-118141800D01*
X222303702Y-118181574D01*
X222115344Y-118259595D01*
X221945826Y-118372863D01*
X221801663Y-118517026D01*
X221688395Y-118686544D01*
X221634441Y-118816799D01*
X207386189Y-118816799D01*
X209098882Y-117104107D01*
X209143613Y-117171052D01*
X209371348Y-117398787D01*
X209639137Y-117577718D01*
X209936688Y-117700968D01*
X210252567Y-117763800D01*
X210574633Y-117763800D01*
X210890512Y-117700968D01*
X211188063Y-117577718D01*
X211455852Y-117398787D01*
X211683587Y-117171052D01*
X211862518Y-116903263D01*
X211985768Y-116605712D01*
X212048600Y-116289833D01*
X212048600Y-115967767D01*
X211999594Y-115721398D01*
X214141400Y-117863204D01*
X214165198Y-117892202D01*
X214280923Y-117987175D01*
X214412952Y-118057747D01*
X214556213Y-118101204D01*
X214667866Y-118112201D01*
X214667876Y-118112201D01*
X214705199Y-118115877D01*
X214742522Y-118112201D01*
X218906477Y-118112201D01*
X218943799Y-118115877D01*
X218981121Y-118112201D01*
X218981132Y-118112201D01*
X219092785Y-118101204D01*
X219236046Y-118057747D01*
X219368075Y-117987175D01*
X219483800Y-117892202D01*
X219507603Y-117863198D01*
X219726624Y-117644177D01*
X219741088Y-117650168D01*
X220056967Y-117713000D01*
X220379033Y-117713000D01*
X220694912Y-117650168D01*
X220992463Y-117526918D01*
X221260252Y-117347987D01*
X221487987Y-117120252D01*
X221666918Y-116852463D01*
X221790168Y-116554912D01*
X221853000Y-116239033D01*
X221853000Y-115916967D01*
X221842896Y-115866167D01*
X223358200Y-115866167D01*
X223358200Y-116188233D01*
X223421032Y-116504112D01*
X223544282Y-116801663D01*
X223723213Y-117069452D01*
X223950948Y-117297187D01*
X224218737Y-117476118D01*
X224516288Y-117599368D01*
X224832167Y-117662200D01*
X225154233Y-117662200D01*
X225470112Y-117599368D01*
X225767663Y-117476118D01*
X226035452Y-117297187D01*
X226263187Y-117069452D01*
X226442118Y-116801663D01*
X226565368Y-116504112D01*
X226628200Y-116188233D01*
X226628200Y-116069367D01*
X228235000Y-116069367D01*
X228235000Y-116391433D01*
X228297832Y-116707312D01*
X228421082Y-117004863D01*
X228600013Y-117272652D01*
X228827748Y-117500387D01*
X229095537Y-117679318D01*
X229393088Y-117802568D01*
X229708967Y-117865400D01*
X230031033Y-117865400D01*
X230346912Y-117802568D01*
X230644463Y-117679318D01*
X230912252Y-117500387D01*
X231139987Y-117272652D01*
X231318918Y-117004863D01*
X231442168Y-116707312D01*
X231505000Y-116391433D01*
X231505000Y-116069367D01*
X231442168Y-115753488D01*
X231318918Y-115455937D01*
X231139987Y-115188148D01*
X230912252Y-114960413D01*
X230644463Y-114781482D01*
X230346912Y-114658232D01*
X230031033Y-114595400D01*
X229708967Y-114595400D01*
X229393088Y-114658232D01*
X229095537Y-114781482D01*
X228827748Y-114960413D01*
X228600013Y-115188148D01*
X228421082Y-115455937D01*
X228297832Y-115753488D01*
X228235000Y-116069367D01*
X226628200Y-116069367D01*
X226628200Y-115866167D01*
X226565368Y-115550288D01*
X226442118Y-115252737D01*
X226263187Y-114984948D01*
X226035452Y-114757213D01*
X225767663Y-114578282D01*
X225470112Y-114455032D01*
X225154233Y-114392200D01*
X224832167Y-114392200D01*
X224516288Y-114455032D01*
X224218737Y-114578282D01*
X223950948Y-114757213D01*
X223723213Y-114984948D01*
X223544282Y-115252737D01*
X223421032Y-115550288D01*
X223358200Y-115866167D01*
X221842896Y-115866167D01*
X221790168Y-115601088D01*
X221666918Y-115303537D01*
X221487987Y-115035748D01*
X221260252Y-114808013D01*
X220992463Y-114629082D01*
X220694912Y-114505832D01*
X220379033Y-114443000D01*
X220056967Y-114443000D01*
X219741088Y-114505832D01*
X219443537Y-114629082D01*
X219175748Y-114808013D01*
X218948013Y-115035748D01*
X218769082Y-115303537D01*
X218645832Y-115601088D01*
X218583000Y-115916967D01*
X218583000Y-116239033D01*
X218645832Y-116554912D01*
X218651823Y-116569376D01*
X218628998Y-116592201D01*
X216876880Y-116592201D01*
X216913368Y-116504112D01*
X216976200Y-116188233D01*
X216976200Y-115866167D01*
X216913368Y-115550288D01*
X216907377Y-115535824D01*
X217584027Y-114859175D01*
X217677661Y-114877800D01*
X217881539Y-114877800D01*
X218081498Y-114838026D01*
X218269856Y-114760005D01*
X218439374Y-114646737D01*
X218583537Y-114502574D01*
X218696805Y-114333056D01*
X218774826Y-114144698D01*
X218814600Y-113944739D01*
X218814600Y-113740861D01*
X218794060Y-113637600D01*
X226203790Y-113637600D01*
X226260395Y-113774256D01*
X226373663Y-113943774D01*
X226517826Y-114087937D01*
X226687344Y-114201205D01*
X226875702Y-114279226D01*
X227075661Y-114319000D01*
X227279539Y-114319000D01*
X227479498Y-114279226D01*
X227667856Y-114201205D01*
X227837374Y-114087937D01*
X227981537Y-113943774D01*
X228094805Y-113774256D01*
X228172826Y-113585898D01*
X228212600Y-113385939D01*
X228212600Y-113182061D01*
X228172826Y-112982102D01*
X228094805Y-112793744D01*
X227981537Y-112624226D01*
X227837374Y-112480063D01*
X227667856Y-112366795D01*
X227479498Y-112288774D01*
X227279539Y-112249000D01*
X227203243Y-112249000D01*
X227195476Y-112242626D01*
X227063447Y-112172054D01*
X226920186Y-112128597D01*
X226808533Y-112117600D01*
X226808522Y-112117600D01*
X226771200Y-112113924D01*
X226733878Y-112117600D01*
X226084239Y-112117600D01*
X226263187Y-111938652D01*
X226442118Y-111670863D01*
X226565368Y-111373312D01*
X226628200Y-111057433D01*
X226628200Y-110735367D01*
X226565368Y-110419488D01*
X226442118Y-110121937D01*
X226415166Y-110081600D01*
X227878799Y-110081600D01*
X228202223Y-110405024D01*
X228196232Y-110419488D01*
X228133400Y-110735367D01*
X228133400Y-111057433D01*
X228196232Y-111373312D01*
X228319482Y-111670863D01*
X228498413Y-111938652D01*
X228726148Y-112166387D01*
X228993937Y-112345318D01*
X229291488Y-112468568D01*
X229607367Y-112531400D01*
X229929433Y-112531400D01*
X230245312Y-112468568D01*
X230542863Y-112345318D01*
X230810652Y-112166387D01*
X231038387Y-111938652D01*
X231217318Y-111670863D01*
X231340568Y-111373312D01*
X231403400Y-111057433D01*
X231403400Y-110735367D01*
X231340568Y-110419488D01*
X231217318Y-110121937D01*
X231038387Y-109854148D01*
X230810652Y-109626413D01*
X230542863Y-109447482D01*
X230245312Y-109324232D01*
X230222025Y-109319600D01*
X231607753Y-109319600D01*
X231614944Y-109324405D01*
X231803302Y-109402426D01*
X232003261Y-109442200D01*
X232207139Y-109442200D01*
X232407098Y-109402426D01*
X232595456Y-109324405D01*
X232764974Y-109211137D01*
X232909137Y-109066974D01*
X233022405Y-108897456D01*
X233100426Y-108709098D01*
X233140200Y-108509139D01*
X233140200Y-108305261D01*
X233100426Y-108105302D01*
X233022405Y-107916944D01*
X232909137Y-107747426D01*
X232764974Y-107603263D01*
X232595456Y-107489995D01*
X232407098Y-107411974D01*
X232207139Y-107372200D01*
X232003261Y-107372200D01*
X231803302Y-107411974D01*
X231614944Y-107489995D01*
X231445426Y-107603263D01*
X231301263Y-107747426D01*
X231266402Y-107799600D01*
X226874254Y-107799600D01*
X226882903Y-107771086D01*
X226893900Y-107659433D01*
X226893900Y-107659423D01*
X226897576Y-107622101D01*
X226893900Y-107584778D01*
X226893900Y-107136645D01*
X227001192Y-107048592D01*
X227110858Y-106914964D01*
X227192347Y-106762509D01*
X227242528Y-106597085D01*
X227259472Y-106425050D01*
X227259472Y-105512550D01*
X227243519Y-105350567D01*
X228082600Y-105350567D01*
X228082600Y-105672633D01*
X228145432Y-105988512D01*
X228268682Y-106286063D01*
X228447613Y-106553852D01*
X228675348Y-106781587D01*
X228943137Y-106960518D01*
X229240688Y-107083768D01*
X229556567Y-107146600D01*
X229878633Y-107146600D01*
X230194512Y-107083768D01*
X230492063Y-106960518D01*
X230759852Y-106781587D01*
X230987587Y-106553852D01*
X231166518Y-106286063D01*
X231289768Y-105988512D01*
X231352600Y-105672633D01*
X231352600Y-105350567D01*
X231289768Y-105034688D01*
X231166518Y-104737137D01*
X230987587Y-104469348D01*
X230759852Y-104241613D01*
X230492063Y-104062682D01*
X230194512Y-103939432D01*
X229878633Y-103876600D01*
X229556567Y-103876600D01*
X229240688Y-103939432D01*
X228943137Y-104062682D01*
X228675348Y-104241613D01*
X228447613Y-104469348D01*
X228268682Y-104737137D01*
X228145432Y-105034688D01*
X228082600Y-105350567D01*
X227243519Y-105350567D01*
X227242528Y-105340515D01*
X227192347Y-105175091D01*
X227110858Y-105022636D01*
X227001192Y-104889008D01*
X226893900Y-104800955D01*
X226893900Y-103174245D01*
X227001192Y-103086192D01*
X227110858Y-102952564D01*
X227192347Y-102800109D01*
X227242528Y-102634685D01*
X227259472Y-102462650D01*
X227259472Y-101550150D01*
X227242528Y-101378115D01*
X227192347Y-101212691D01*
X227110858Y-101060236D01*
X227001192Y-100926608D01*
X226867564Y-100816942D01*
X226715109Y-100735453D01*
X226549685Y-100685272D01*
X226377650Y-100668328D01*
X225890150Y-100668328D01*
X225718115Y-100685272D01*
X225552691Y-100735453D01*
X225400236Y-100816942D01*
X225266608Y-100926608D01*
X225261392Y-100932964D01*
X225197585Y-100855215D01*
X225100894Y-100775863D01*
X224990580Y-100716898D01*
X224870882Y-100680588D01*
X224746400Y-100668328D01*
X224544650Y-100671400D01*
X224385900Y-100830150D01*
X224385900Y-101879400D01*
X224405900Y-101879400D01*
X224405900Y-102133400D01*
X224385900Y-102133400D01*
X224385900Y-103182650D01*
X224544650Y-103341400D01*
X224746400Y-103344472D01*
X224870882Y-103332212D01*
X224990580Y-103295902D01*
X225100894Y-103236937D01*
X225197585Y-103157585D01*
X225261392Y-103079836D01*
X225266608Y-103086192D01*
X225373900Y-103174245D01*
X225373901Y-104800955D01*
X225266608Y-104889008D01*
X225261392Y-104895364D01*
X225197585Y-104817615D01*
X225100894Y-104738263D01*
X224990580Y-104679298D01*
X224870882Y-104642988D01*
X224746400Y-104630728D01*
X224544650Y-104633800D01*
X224385900Y-104792550D01*
X224385900Y-105841800D01*
X224405900Y-105841800D01*
X224405900Y-106095800D01*
X224385900Y-106095800D01*
X224385900Y-106115800D01*
X224131900Y-106115800D01*
X224131900Y-106095800D01*
X224111900Y-106095800D01*
X224111900Y-105841800D01*
X224131900Y-105841800D01*
X224131900Y-104792550D01*
X223973150Y-104633800D01*
X223771400Y-104630728D01*
X223646918Y-104642988D01*
X223527220Y-104679298D01*
X223416906Y-104738263D01*
X223320215Y-104817615D01*
X223240863Y-104914306D01*
X223181898Y-105024620D01*
X223145588Y-105144318D01*
X223133328Y-105268800D01*
X223136400Y-105683050D01*
X223295148Y-105841798D01*
X223139999Y-105841798D01*
X222881072Y-105582871D01*
X222881072Y-105394600D01*
X222864008Y-105221346D01*
X222813472Y-105054750D01*
X222731405Y-104901214D01*
X222620962Y-104766638D01*
X222486386Y-104656195D01*
X222332850Y-104574128D01*
X222166254Y-104523592D01*
X221993000Y-104506528D01*
X221243000Y-104506528D01*
X221069746Y-104523592D01*
X220903150Y-104574128D01*
X220749614Y-104656195D01*
X220615038Y-104766638D01*
X220504595Y-104901214D01*
X220422528Y-105054750D01*
X220371992Y-105221346D01*
X220354928Y-105394600D01*
X220354928Y-106644600D01*
X220371992Y-106817854D01*
X220422528Y-106984450D01*
X220504595Y-107137986D01*
X220615038Y-107272562D01*
X220749614Y-107383005D01*
X220858000Y-107440939D01*
X220858000Y-107799600D01*
X216963277Y-107799600D01*
X216968477Y-107746800D01*
X216953803Y-107597814D01*
X216937100Y-107542751D01*
X216937100Y-107085845D01*
X217044392Y-106997792D01*
X217154058Y-106864164D01*
X217235547Y-106711709D01*
X217245773Y-106678000D01*
X217558218Y-106678000D01*
X217571992Y-106817854D01*
X217622528Y-106984450D01*
X217704595Y-107137986D01*
X217815038Y-107272562D01*
X217949614Y-107383005D01*
X218103150Y-107465072D01*
X218269746Y-107515608D01*
X218443000Y-107532672D01*
X219193000Y-107532672D01*
X219366254Y-107515608D01*
X219532850Y-107465072D01*
X219686386Y-107383005D01*
X219820962Y-107272562D01*
X219931405Y-107137986D01*
X220013472Y-106984450D01*
X220064008Y-106817854D01*
X220081072Y-106644600D01*
X220081072Y-105394600D01*
X220064008Y-105221346D01*
X220013472Y-105054750D01*
X219931405Y-104901214D01*
X219820962Y-104766638D01*
X219686386Y-104656195D01*
X219532850Y-104574128D01*
X219366254Y-104523592D01*
X219193000Y-104506528D01*
X218443000Y-104506528D01*
X218269746Y-104523592D01*
X218103150Y-104574128D01*
X217949614Y-104656195D01*
X217815038Y-104766638D01*
X217704595Y-104901214D01*
X217622528Y-105054750D01*
X217591208Y-105158000D01*
X217245773Y-105158000D01*
X217235547Y-105124291D01*
X217154058Y-104971836D01*
X217044392Y-104838208D01*
X216910764Y-104728542D01*
X216758309Y-104647053D01*
X216592885Y-104596872D01*
X216420850Y-104579928D01*
X215933350Y-104579928D01*
X215761315Y-104596872D01*
X215595891Y-104647053D01*
X215443436Y-104728542D01*
X215309808Y-104838208D01*
X215239600Y-104923756D01*
X215169392Y-104838208D01*
X215062100Y-104750155D01*
X215062100Y-103290475D01*
X215086861Y-103295400D01*
X215290739Y-103295400D01*
X215490698Y-103255626D01*
X215679056Y-103177605D01*
X215848574Y-103064337D01*
X215892511Y-103020400D01*
X216077565Y-103020400D01*
X216059916Y-103053418D01*
X216015071Y-103201255D01*
X215999928Y-103355000D01*
X215999928Y-103655000D01*
X216015071Y-103808745D01*
X216059916Y-103956582D01*
X216132742Y-104092829D01*
X216230749Y-104212251D01*
X216350171Y-104310258D01*
X216486418Y-104383084D01*
X216634255Y-104427929D01*
X216788000Y-104443072D01*
X218438000Y-104443072D01*
X218591745Y-104427929D01*
X218739582Y-104383084D01*
X218875829Y-104310258D01*
X218995251Y-104212251D01*
X219093258Y-104092829D01*
X219166084Y-103956582D01*
X219210929Y-103808745D01*
X219226072Y-103655000D01*
X219226072Y-103355000D01*
X219210929Y-103201255D01*
X219166084Y-103053418D01*
X219134859Y-102995000D01*
X219407643Y-102995000D01*
X219493808Y-103099992D01*
X219627436Y-103209658D01*
X219779891Y-103291147D01*
X219945315Y-103341328D01*
X220117350Y-103358272D01*
X221029850Y-103358272D01*
X221201885Y-103341328D01*
X221367309Y-103291147D01*
X221519764Y-103209658D01*
X221653392Y-103099992D01*
X221763058Y-102966364D01*
X221844547Y-102813909D01*
X221877159Y-102706400D01*
X223133328Y-102706400D01*
X223145588Y-102830882D01*
X223181898Y-102950580D01*
X223240863Y-103060894D01*
X223320215Y-103157585D01*
X223416906Y-103236937D01*
X223527220Y-103295902D01*
X223646918Y-103332212D01*
X223771400Y-103344472D01*
X223973150Y-103341400D01*
X224131900Y-103182650D01*
X224131900Y-102133400D01*
X223295150Y-102133400D01*
X223136400Y-102292150D01*
X223133328Y-102706400D01*
X221877159Y-102706400D01*
X221894728Y-102648485D01*
X221911672Y-102476450D01*
X221911672Y-101988950D01*
X221894728Y-101816915D01*
X221844547Y-101651491D01*
X221763058Y-101499036D01*
X221653392Y-101365408D01*
X221647036Y-101360192D01*
X221712581Y-101306400D01*
X223133328Y-101306400D01*
X223136400Y-101720650D01*
X223295150Y-101879400D01*
X224131900Y-101879400D01*
X224131900Y-100830150D01*
X223973150Y-100671400D01*
X223771400Y-100668328D01*
X223646918Y-100680588D01*
X223527220Y-100716898D01*
X223416906Y-100775863D01*
X223320215Y-100855215D01*
X223240863Y-100951906D01*
X223181898Y-101062220D01*
X223145588Y-101181918D01*
X223133328Y-101306400D01*
X221712581Y-101306400D01*
X221724785Y-101296385D01*
X221804137Y-101199694D01*
X221863102Y-101089380D01*
X221899412Y-100969682D01*
X221911672Y-100845200D01*
X221908600Y-100643450D01*
X221749850Y-100484700D01*
X220700600Y-100484700D01*
X220700600Y-100504700D01*
X220446600Y-100504700D01*
X220446600Y-100484700D01*
X219397350Y-100484700D01*
X219238600Y-100643450D01*
X219235528Y-100845200D01*
X219247788Y-100969682D01*
X219284098Y-101089380D01*
X219343063Y-101199694D01*
X219422415Y-101296385D01*
X219500164Y-101360192D01*
X219493808Y-101365408D01*
X219403868Y-101475000D01*
X219134859Y-101475000D01*
X219166084Y-101416582D01*
X219210929Y-101268745D01*
X219226072Y-101115000D01*
X219226072Y-100815000D01*
X219210929Y-100661255D01*
X219166084Y-100513418D01*
X219093258Y-100377171D01*
X219054546Y-100330000D01*
X219080335Y-100298576D01*
X219157801Y-100235001D01*
X219181604Y-100205998D01*
X219277126Y-100110476D01*
X219397350Y-100230700D01*
X220446600Y-100230700D01*
X220446600Y-99393950D01*
X220414134Y-99361484D01*
X220525605Y-99194656D01*
X220603626Y-99006298D01*
X220624400Y-98901859D01*
X220645174Y-99006298D01*
X220723195Y-99194656D01*
X220793971Y-99300579D01*
X220700600Y-99393950D01*
X220700600Y-100230700D01*
X221749850Y-100230700D01*
X221908600Y-100071950D01*
X221911672Y-99870200D01*
X221899412Y-99745718D01*
X221888666Y-99710294D01*
X221942298Y-99699626D01*
X222130656Y-99621605D01*
X222300174Y-99508337D01*
X222344111Y-99464400D01*
X226321489Y-99464400D01*
X226365426Y-99508337D01*
X226534944Y-99621605D01*
X226723302Y-99699626D01*
X226923261Y-99739400D01*
X227127139Y-99739400D01*
X227327098Y-99699626D01*
X227515456Y-99621605D01*
X227684974Y-99508337D01*
X227829137Y-99364174D01*
X227942405Y-99194656D01*
X228020426Y-99006298D01*
X228060200Y-98806339D01*
X228060200Y-98702400D01*
X229008400Y-98702400D01*
X229008400Y-98773491D01*
X228993937Y-98779482D01*
X228726148Y-98958413D01*
X228498413Y-99186148D01*
X228319482Y-99453937D01*
X228196232Y-99751488D01*
X228133400Y-100067367D01*
X228133400Y-100389433D01*
X228196232Y-100705312D01*
X228319482Y-101002863D01*
X228498413Y-101270652D01*
X228726148Y-101498387D01*
X228993937Y-101677318D01*
X229291488Y-101800568D01*
X229607367Y-101863400D01*
X229929433Y-101863400D01*
X230245312Y-101800568D01*
X230542863Y-101677318D01*
X230810652Y-101498387D01*
X231038387Y-101270652D01*
X231217318Y-101002863D01*
X231340568Y-100705312D01*
X231403400Y-100389433D01*
X231403400Y-100067367D01*
X231340568Y-99751488D01*
X231217318Y-99453937D01*
X231038387Y-99186148D01*
X230810652Y-98958413D01*
X230542863Y-98779482D01*
X230528400Y-98773491D01*
X230528400Y-97979733D01*
X230532077Y-97942400D01*
X230525028Y-97870826D01*
X230517403Y-97793414D01*
X230473946Y-97650153D01*
X230403374Y-97518124D01*
X230308401Y-97402399D01*
X230272103Y-97372610D01*
X230192676Y-97307426D01*
X230060647Y-97236854D01*
X229917386Y-97193397D01*
X229805733Y-97182400D01*
X229768400Y-97178723D01*
X229731067Y-97182400D01*
X226560511Y-97182400D01*
X226516574Y-97138463D01*
X226347056Y-97025195D01*
X226158698Y-96947174D01*
X225958739Y-96907400D01*
X225754861Y-96907400D01*
X225554902Y-96947174D01*
X225366544Y-97025195D01*
X225197026Y-97138463D01*
X225052863Y-97282626D01*
X224939595Y-97452144D01*
X224861574Y-97640502D01*
X224821800Y-97840461D01*
X224821800Y-97944400D01*
X222344111Y-97944400D01*
X222300174Y-97900463D01*
X222130656Y-97787195D01*
X221942298Y-97709174D01*
X221742339Y-97669400D01*
X221538461Y-97669400D01*
X221338502Y-97709174D01*
X221150144Y-97787195D01*
X220980626Y-97900463D01*
X220836463Y-98044626D01*
X220723195Y-98214144D01*
X220645174Y-98402502D01*
X220624400Y-98506941D01*
X220603626Y-98402502D01*
X220525605Y-98214144D01*
X220412337Y-98044626D01*
X220268174Y-97900463D01*
X220098656Y-97787195D01*
X219910298Y-97709174D01*
X219710339Y-97669400D01*
X219506461Y-97669400D01*
X219306502Y-97709174D01*
X219118144Y-97787195D01*
X218948626Y-97900463D01*
X218804463Y-98044626D01*
X218691195Y-98214144D01*
X218613174Y-98402502D01*
X218573400Y-98602461D01*
X218573400Y-98664599D01*
X218477209Y-98760790D01*
X218438000Y-98756928D01*
X217410024Y-98756928D01*
X217454026Y-98650698D01*
X217493800Y-98450739D01*
X217493800Y-98246861D01*
X217454026Y-98046902D01*
X217376005Y-97858544D01*
X217262737Y-97689026D01*
X217118574Y-97544863D01*
X216949056Y-97431595D01*
X216760698Y-97353574D01*
X216560739Y-97313800D01*
X216356861Y-97313800D01*
X216156902Y-97353574D01*
X215968544Y-97431595D01*
X215799026Y-97544863D01*
X215654863Y-97689026D01*
X215541595Y-97858544D01*
X215463574Y-98046902D01*
X215423800Y-98246861D01*
X215423800Y-98308998D01*
X214164801Y-99567998D01*
X214114252Y-99567998D01*
X214273000Y-99409250D01*
X214276072Y-99395000D01*
X214263812Y-99270518D01*
X214227502Y-99150820D01*
X214168537Y-99040506D01*
X214089185Y-98943815D01*
X213992494Y-98864463D01*
X213882180Y-98805498D01*
X213762482Y-98769188D01*
X213638000Y-98756928D01*
X212948750Y-98760000D01*
X212790000Y-98918750D01*
X212790000Y-99568000D01*
X212810000Y-99568000D01*
X212810000Y-99815197D01*
X212797273Y-99822000D01*
X212790000Y-99822000D01*
X212790000Y-99825887D01*
X212759855Y-99842000D01*
X212594525Y-99842000D01*
X212472647Y-99776854D01*
X212329386Y-99733397D01*
X212217733Y-99722400D01*
X212217722Y-99722400D01*
X212180400Y-99718724D01*
X212143078Y-99722400D01*
X210432600Y-99722400D01*
X210432600Y-99655461D01*
X210392826Y-99455502D01*
X210358164Y-99371821D01*
X210496164Y-99298058D01*
X210629792Y-99188392D01*
X210739458Y-99054764D01*
X210808901Y-98924846D01*
X210939344Y-99012005D01*
X211127702Y-99090026D01*
X211130677Y-99090618D01*
X211098498Y-99150820D01*
X211062188Y-99270518D01*
X211049928Y-99395000D01*
X211053000Y-99409250D01*
X211211750Y-99568000D01*
X212536000Y-99568000D01*
X212536000Y-98918750D01*
X212377250Y-98760000D01*
X212228773Y-98759338D01*
X212233537Y-98754574D01*
X212346805Y-98585056D01*
X212424826Y-98396698D01*
X212464600Y-98196739D01*
X212464600Y-97992861D01*
X212424826Y-97792902D01*
X212346805Y-97604544D01*
X212233537Y-97435026D01*
X212089374Y-97290863D01*
X211919856Y-97177595D01*
X211731498Y-97099574D01*
X211531539Y-97059800D01*
X211327661Y-97059800D01*
X211127702Y-97099574D01*
X210939344Y-97177595D01*
X210769826Y-97290863D01*
X210725889Y-97334800D01*
X210603706Y-97334800D01*
X210629792Y-97313392D01*
X210739458Y-97179764D01*
X210820947Y-97027309D01*
X210871128Y-96861885D01*
X210888072Y-96689850D01*
X210888072Y-96385413D01*
X217992192Y-96385413D01*
X218087956Y-96649814D01*
X218377571Y-96790704D01*
X218689108Y-96872384D01*
X219010595Y-96891718D01*
X219329675Y-96847961D01*
X219634088Y-96742795D01*
X219808044Y-96649814D01*
X219903808Y-96385413D01*
X218948000Y-95429605D01*
X217992192Y-96385413D01*
X210888072Y-96385413D01*
X210888072Y-96202350D01*
X210871128Y-96030315D01*
X210820947Y-95864891D01*
X210739458Y-95712436D01*
X210629792Y-95578808D01*
X210616923Y-95568247D01*
X210765256Y-95506805D01*
X210934774Y-95393537D01*
X210978711Y-95349600D01*
X217311357Y-95349600D01*
X217350039Y-95631675D01*
X217455205Y-95936088D01*
X217548186Y-96110044D01*
X217812587Y-96205808D01*
X218768395Y-95250000D01*
X219127605Y-95250000D01*
X220083413Y-96205808D01*
X220148557Y-96182213D01*
X223376992Y-96182213D01*
X223472756Y-96446614D01*
X223762371Y-96587504D01*
X224073908Y-96669184D01*
X224395395Y-96688518D01*
X224714475Y-96644761D01*
X225018888Y-96539595D01*
X225192844Y-96446614D01*
X225288608Y-96182213D01*
X224332800Y-95226405D01*
X223376992Y-96182213D01*
X220148557Y-96182213D01*
X220347814Y-96110044D01*
X220488704Y-95820429D01*
X220570384Y-95508892D01*
X220589718Y-95187405D01*
X220579021Y-95109395D01*
X222691082Y-95109395D01*
X222734839Y-95428475D01*
X222840005Y-95732888D01*
X222932986Y-95906844D01*
X223197387Y-96002608D01*
X224153195Y-95046800D01*
X224512405Y-95046800D01*
X225468213Y-96002608D01*
X225732614Y-95906844D01*
X225873504Y-95617229D01*
X225955184Y-95305692D01*
X225974518Y-94984205D01*
X225930761Y-94665125D01*
X225825595Y-94360712D01*
X225732614Y-94186756D01*
X225468213Y-94090992D01*
X224512405Y-95046800D01*
X224153195Y-95046800D01*
X223197387Y-94090992D01*
X222932986Y-94186756D01*
X222792096Y-94476371D01*
X222710416Y-94787908D01*
X222691082Y-95109395D01*
X220579021Y-95109395D01*
X220545961Y-94868325D01*
X220440795Y-94563912D01*
X220347814Y-94389956D01*
X220083413Y-94294192D01*
X219127605Y-95250000D01*
X218768395Y-95250000D01*
X218754253Y-95235858D01*
X218933858Y-95056253D01*
X218948000Y-95070395D01*
X219903808Y-94114587D01*
X219808044Y-93850186D01*
X219574989Y-93736811D01*
X219638600Y-93673200D01*
X223463261Y-93673200D01*
X223376992Y-93911387D01*
X224332800Y-94867195D01*
X225288608Y-93911387D01*
X225202339Y-93673200D01*
X229263975Y-93673200D01*
X229240688Y-93677832D01*
X228943137Y-93801082D01*
X228675348Y-93980013D01*
X228447613Y-94207748D01*
X228268682Y-94475537D01*
X228145432Y-94773088D01*
X228082600Y-95088967D01*
X228082600Y-95411033D01*
X228145432Y-95726912D01*
X228268682Y-96024463D01*
X228447613Y-96292252D01*
X228675348Y-96519987D01*
X228943137Y-96698918D01*
X229240688Y-96822168D01*
X229556567Y-96885000D01*
X229878633Y-96885000D01*
X230194512Y-96822168D01*
X230492063Y-96698918D01*
X230759852Y-96519987D01*
X230987587Y-96292252D01*
X231166518Y-96024463D01*
X231289768Y-95726912D01*
X231352600Y-95411033D01*
X231352600Y-95088967D01*
X231289768Y-94773088D01*
X231166518Y-94475537D01*
X230987587Y-94207748D01*
X230759852Y-93980013D01*
X230492063Y-93801082D01*
X230194512Y-93677832D01*
X230171225Y-93673200D01*
X231299889Y-93673200D01*
X231343826Y-93717137D01*
X231513344Y-93830405D01*
X231701702Y-93908426D01*
X231901661Y-93948200D01*
X232105539Y-93948200D01*
X232305498Y-93908426D01*
X232493856Y-93830405D01*
X232663374Y-93717137D01*
X232807537Y-93572974D01*
X232920805Y-93403456D01*
X232998826Y-93215098D01*
X233038600Y-93015139D01*
X233038600Y-92811261D01*
X232998826Y-92611302D01*
X232920805Y-92422944D01*
X232807537Y-92253426D01*
X232663374Y-92109263D01*
X232493856Y-91995995D01*
X232305498Y-91917974D01*
X232105539Y-91878200D01*
X231901661Y-91878200D01*
X231701702Y-91917974D01*
X231513344Y-91995995D01*
X231343826Y-92109263D01*
X231299889Y-92153200D01*
X219361131Y-92153200D01*
X219323798Y-92149523D01*
X219286465Y-92153200D01*
X219174812Y-92164197D01*
X219031551Y-92207654D01*
X218899522Y-92278226D01*
X218783797Y-92373199D01*
X218759999Y-92402197D01*
X217332597Y-93829600D01*
X215974126Y-93829600D01*
X216055205Y-93708256D01*
X216133226Y-93519898D01*
X216173000Y-93319939D01*
X216173000Y-93116061D01*
X216133226Y-92916102D01*
X216055205Y-92727744D01*
X215941937Y-92558226D01*
X215797774Y-92414063D01*
X215628256Y-92300795D01*
X215439898Y-92222774D01*
X215239939Y-92183000D01*
X215036061Y-92183000D01*
X214836102Y-92222774D01*
X214647744Y-92300795D01*
X214478226Y-92414063D01*
X214434289Y-92458000D01*
X209587333Y-92458000D01*
X209550000Y-92454323D01*
X209512667Y-92458000D01*
X208410072Y-92458000D01*
X208410072Y-92443300D01*
X208397812Y-92318818D01*
X208361502Y-92199120D01*
X208302537Y-92088806D01*
X208280000Y-92061344D01*
X208280000Y-91906736D01*
X208283441Y-91871800D01*
X208269709Y-91732380D01*
X208229042Y-91598319D01*
X208163002Y-91474767D01*
X208074127Y-91366473D01*
X207965833Y-91277598D01*
X207842281Y-91211558D01*
X207708220Y-91170891D01*
X207603736Y-91160600D01*
X207568800Y-91157159D01*
X207533864Y-91160600D01*
X202422136Y-91160600D01*
X202387200Y-91157159D01*
X202352264Y-91160600D01*
X202280468Y-91167671D01*
X202272603Y-91087814D01*
X202229146Y-90944553D01*
X202158574Y-90812524D01*
X202063601Y-90696799D01*
X201947876Y-90601826D01*
X201815847Y-90531254D01*
X201672586Y-90487797D01*
X201560933Y-90476800D01*
X201523600Y-90473123D01*
X201486267Y-90476800D01*
X196734922Y-90476800D01*
X196697599Y-90473124D01*
X196660276Y-90476800D01*
X196660267Y-90476800D01*
X196548614Y-90487797D01*
X196405353Y-90531254D01*
X196273324Y-90601826D01*
X196157599Y-90696799D01*
X196133800Y-90725798D01*
X195678598Y-91181001D01*
X195649600Y-91204799D01*
X195625802Y-91233797D01*
X195625801Y-91233798D01*
X195623096Y-91237094D01*
X195603100Y-91235124D01*
X195565778Y-91238800D01*
X194759711Y-91238800D01*
X194715774Y-91194863D01*
X194546256Y-91081595D01*
X194357898Y-91003574D01*
X194157939Y-90963800D01*
X193954061Y-90963800D01*
X193754102Y-91003574D01*
X193565744Y-91081595D01*
X193396226Y-91194863D01*
X193252063Y-91339026D01*
X193138795Y-91508544D01*
X193060774Y-91696902D01*
X193021000Y-91896861D01*
X193021000Y-92100739D01*
X193060774Y-92300698D01*
X193138795Y-92489056D01*
X193238189Y-92637810D01*
X192921174Y-92637810D01*
X192867067Y-92621397D01*
X192796909Y-92614487D01*
X192669475Y-92423768D01*
X192462632Y-92216925D01*
X192219411Y-92054410D01*
X191949158Y-91942468D01*
X191662260Y-91885400D01*
X191369740Y-91885400D01*
X191082842Y-91942468D01*
X190812589Y-92054410D01*
X190569368Y-92216925D01*
X190362525Y-92423768D01*
X190200010Y-92666989D01*
X190088068Y-92937242D01*
X190031000Y-93224140D01*
X190031000Y-93516660D01*
X190088068Y-93803558D01*
X190200010Y-94073811D01*
X190362525Y-94317032D01*
X190494380Y-94448887D01*
X190421820Y-94470898D01*
X190311506Y-94529863D01*
X190214815Y-94609215D01*
X190135463Y-94705906D01*
X190076498Y-94816220D01*
X190040188Y-94935918D01*
X190027928Y-95060400D01*
X190027928Y-96760400D01*
X190040188Y-96884882D01*
X190076498Y-97004580D01*
X190135463Y-97114894D01*
X190214815Y-97211585D01*
X190311506Y-97290937D01*
X190421820Y-97349902D01*
X190541518Y-97386212D01*
X190666000Y-97398472D01*
X192366000Y-97398472D01*
X192490482Y-97386212D01*
X192610180Y-97349902D01*
X192720494Y-97290937D01*
X192817185Y-97211585D01*
X192896537Y-97114894D01*
X192955502Y-97004580D01*
X192991812Y-96884882D01*
X193004072Y-96760400D01*
X193004072Y-96670400D01*
X195496099Y-96670400D01*
X195498128Y-96672429D01*
X195498128Y-97179450D01*
X195515072Y-97351485D01*
X195565253Y-97516909D01*
X195646742Y-97669364D01*
X195756408Y-97802992D01*
X195890036Y-97912658D01*
X196042491Y-97994147D01*
X196045962Y-97995200D01*
X195166111Y-97995200D01*
X195122174Y-97951263D01*
X194952656Y-97837995D01*
X194764298Y-97759974D01*
X194564339Y-97720200D01*
X194360461Y-97720200D01*
X194160502Y-97759974D01*
X193972144Y-97837995D01*
X193802626Y-97951263D01*
X193676691Y-98077198D01*
X193646698Y-98064774D01*
X193446739Y-98025000D01*
X193242861Y-98025000D01*
X193042902Y-98064774D01*
X192854544Y-98142795D01*
X192685026Y-98256063D01*
X192641089Y-98300000D01*
X189628911Y-98300000D01*
X189584974Y-98256063D01*
X189415456Y-98142795D01*
X189227098Y-98064774D01*
X189027139Y-98025000D01*
X188823261Y-98025000D01*
X188623302Y-98064774D01*
X188434944Y-98142795D01*
X188265426Y-98256063D01*
X188221489Y-98300000D01*
X186180000Y-98300000D01*
X186180000Y-97188734D01*
X186270750Y-97197672D01*
X186758250Y-97197672D01*
X186930285Y-97180728D01*
X187095709Y-97130547D01*
X187248164Y-97049058D01*
X187381792Y-96939392D01*
X187387008Y-96933036D01*
X187450815Y-97010785D01*
X187547506Y-97090137D01*
X187657820Y-97149102D01*
X187777518Y-97185412D01*
X187902000Y-97197672D01*
X188103750Y-97194600D01*
X188262500Y-97035850D01*
X188262500Y-95986600D01*
X188516500Y-95986600D01*
X188516500Y-97035850D01*
X188675250Y-97194600D01*
X188877000Y-97197672D01*
X189001482Y-97185412D01*
X189121180Y-97149102D01*
X189231494Y-97090137D01*
X189328185Y-97010785D01*
X189407537Y-96914094D01*
X189466502Y-96803780D01*
X189502812Y-96684082D01*
X189515072Y-96559600D01*
X189512000Y-96145350D01*
X189353250Y-95986600D01*
X188516500Y-95986600D01*
X188262500Y-95986600D01*
X188242500Y-95986600D01*
X188242500Y-95732600D01*
X188262500Y-95732600D01*
X188262500Y-94683350D01*
X188516500Y-94683350D01*
X188516500Y-95732600D01*
X189353250Y-95732600D01*
X189512000Y-95573850D01*
X189515072Y-95159600D01*
X189502812Y-95035118D01*
X189466502Y-94915420D01*
X189407537Y-94805106D01*
X189328185Y-94708415D01*
X189231494Y-94629063D01*
X189121180Y-94570098D01*
X189001482Y-94533788D01*
X188877000Y-94521528D01*
X188675250Y-94524600D01*
X188516500Y-94683350D01*
X188262500Y-94683350D01*
X188103750Y-94524600D01*
X187902000Y-94521528D01*
X187777518Y-94533788D01*
X187657820Y-94570098D01*
X187547506Y-94629063D01*
X187450815Y-94708415D01*
X187387008Y-94786164D01*
X187381792Y-94779808D01*
X187274500Y-94691755D01*
X187274500Y-94595001D01*
X188026380Y-93843122D01*
X188044150Y-93844872D01*
X188531650Y-93844872D01*
X188703685Y-93827928D01*
X188869109Y-93777747D01*
X189021564Y-93696258D01*
X189155192Y-93586592D01*
X189264858Y-93452964D01*
X189346347Y-93300509D01*
X189396528Y-93135085D01*
X189413472Y-92963050D01*
X189413472Y-92050550D01*
X189396528Y-91878515D01*
X189346347Y-91713091D01*
X189264858Y-91560636D01*
X189155192Y-91427008D01*
X189021564Y-91317342D01*
X188869109Y-91235853D01*
X188703685Y-91185672D01*
X188531650Y-91168728D01*
X188044150Y-91168728D01*
X187872115Y-91185672D01*
X187706691Y-91235853D01*
X187554236Y-91317342D01*
X187420608Y-91427008D01*
X187350400Y-91512556D01*
X187280192Y-91427008D01*
X187146564Y-91317342D01*
X186994109Y-91235853D01*
X186828685Y-91185672D01*
X186656650Y-91168728D01*
X186169150Y-91168728D01*
X185997115Y-91185672D01*
X185831691Y-91235853D01*
X185679236Y-91317342D01*
X185545608Y-91427008D01*
X185435942Y-91560636D01*
X185354453Y-91713091D01*
X185304272Y-91878515D01*
X185287328Y-92050550D01*
X185287328Y-92557571D01*
X185234499Y-92610400D01*
X183222133Y-92610400D01*
X183184800Y-92606723D01*
X183147467Y-92610400D01*
X183035814Y-92621397D01*
X182892553Y-92664854D01*
X182760524Y-92735426D01*
X182743372Y-92749502D01*
X182743372Y-92367100D01*
X182731112Y-92242618D01*
X182694802Y-92122920D01*
X182635837Y-92012606D01*
X182556485Y-91915915D01*
X182459794Y-91836563D01*
X182349480Y-91777598D01*
X182229782Y-91741288D01*
X182105300Y-91729028D01*
X181782568Y-91729028D01*
X181815693Y-91649057D01*
X181876700Y-91342355D01*
X181876700Y-91029645D01*
X181815693Y-90722943D01*
X181696024Y-90434037D01*
X181522292Y-90174028D01*
X181301172Y-89952908D01*
X181041163Y-89779176D01*
X180752257Y-89659507D01*
X180445555Y-89598500D01*
X180132845Y-89598500D01*
X179826143Y-89659507D01*
X179537237Y-89779176D01*
X179277228Y-89952908D01*
X179056108Y-90174028D01*
X178882376Y-90434037D01*
X178762707Y-90722943D01*
X178701700Y-91029645D01*
X178701700Y-91342355D01*
X178762707Y-91649057D01*
X178795832Y-91729028D01*
X178473100Y-91729028D01*
X178348618Y-91741288D01*
X178228920Y-91777598D01*
X178118606Y-91836563D01*
X178078600Y-91869395D01*
X178078600Y-89127800D01*
X235229109Y-89127800D01*
X235180492Y-119659011D01*
G37*
X235180492Y-119659011D02*
X223534520Y-119638775D01*
X223600826Y-119478698D01*
X223640600Y-119278739D01*
X223640600Y-119074861D01*
X223600826Y-118874902D01*
X223522805Y-118686544D01*
X223409537Y-118517026D01*
X223265374Y-118372863D01*
X223095856Y-118259595D01*
X222907498Y-118181574D01*
X222707539Y-118141800D01*
X222503661Y-118141800D01*
X222303702Y-118181574D01*
X222115344Y-118259595D01*
X221945826Y-118372863D01*
X221801663Y-118517026D01*
X221688395Y-118686544D01*
X221634441Y-118816799D01*
X207386189Y-118816799D01*
X209098882Y-117104107D01*
X209143613Y-117171052D01*
X209371348Y-117398787D01*
X209639137Y-117577718D01*
X209936688Y-117700968D01*
X210252567Y-117763800D01*
X210574633Y-117763800D01*
X210890512Y-117700968D01*
X211188063Y-117577718D01*
X211455852Y-117398787D01*
X211683587Y-117171052D01*
X211862518Y-116903263D01*
X211985768Y-116605712D01*
X212048600Y-116289833D01*
X212048600Y-115967767D01*
X211999594Y-115721398D01*
X214141400Y-117863204D01*
X214165198Y-117892202D01*
X214280923Y-117987175D01*
X214412952Y-118057747D01*
X214556213Y-118101204D01*
X214667866Y-118112201D01*
X214667876Y-118112201D01*
X214705199Y-118115877D01*
X214742522Y-118112201D01*
X218906477Y-118112201D01*
X218943799Y-118115877D01*
X218981121Y-118112201D01*
X218981132Y-118112201D01*
X219092785Y-118101204D01*
X219236046Y-118057747D01*
X219368075Y-117987175D01*
X219483800Y-117892202D01*
X219507603Y-117863198D01*
X219726624Y-117644177D01*
X219741088Y-117650168D01*
X220056967Y-117713000D01*
X220379033Y-117713000D01*
X220694912Y-117650168D01*
X220992463Y-117526918D01*
X221260252Y-117347987D01*
X221487987Y-117120252D01*
X221666918Y-116852463D01*
X221790168Y-116554912D01*
X221853000Y-116239033D01*
X221853000Y-115916967D01*
X221842896Y-115866167D01*
X223358200Y-115866167D01*
X223358200Y-116188233D01*
X223421032Y-116504112D01*
X223544282Y-116801663D01*
X223723213Y-117069452D01*
X223950948Y-117297187D01*
X224218737Y-117476118D01*
X224516288Y-117599368D01*
X224832167Y-117662200D01*
X225154233Y-117662200D01*
X225470112Y-117599368D01*
X225767663Y-117476118D01*
X226035452Y-117297187D01*
X226263187Y-117069452D01*
X226442118Y-116801663D01*
X226565368Y-116504112D01*
X226628200Y-116188233D01*
X226628200Y-116069367D01*
X228235000Y-116069367D01*
X228235000Y-116391433D01*
X228297832Y-116707312D01*
X228421082Y-117004863D01*
X228600013Y-117272652D01*
X228827748Y-117500387D01*
X229095537Y-117679318D01*
X229393088Y-117802568D01*
X229708967Y-117865400D01*
X230031033Y-117865400D01*
X230346912Y-117802568D01*
X230644463Y-117679318D01*
X230912252Y-117500387D01*
X231139987Y-117272652D01*
X231318918Y-117004863D01*
X231442168Y-116707312D01*
X231505000Y-116391433D01*
X231505000Y-116069367D01*
X231442168Y-115753488D01*
X231318918Y-115455937D01*
X231139987Y-115188148D01*
X230912252Y-114960413D01*
X230644463Y-114781482D01*
X230346912Y-114658232D01*
X230031033Y-114595400D01*
X229708967Y-114595400D01*
X229393088Y-114658232D01*
X229095537Y-114781482D01*
X228827748Y-114960413D01*
X228600013Y-115188148D01*
X228421082Y-115455937D01*
X228297832Y-115753488D01*
X228235000Y-116069367D01*
X226628200Y-116069367D01*
X226628200Y-115866167D01*
X226565368Y-115550288D01*
X226442118Y-115252737D01*
X226263187Y-114984948D01*
X226035452Y-114757213D01*
X225767663Y-114578282D01*
X225470112Y-114455032D01*
X225154233Y-114392200D01*
X224832167Y-114392200D01*
X224516288Y-114455032D01*
X224218737Y-114578282D01*
X223950948Y-114757213D01*
X223723213Y-114984948D01*
X223544282Y-115252737D01*
X223421032Y-115550288D01*
X223358200Y-115866167D01*
X221842896Y-115866167D01*
X221790168Y-115601088D01*
X221666918Y-115303537D01*
X221487987Y-115035748D01*
X221260252Y-114808013D01*
X220992463Y-114629082D01*
X220694912Y-114505832D01*
X220379033Y-114443000D01*
X220056967Y-114443000D01*
X219741088Y-114505832D01*
X219443537Y-114629082D01*
X219175748Y-114808013D01*
X218948013Y-115035748D01*
X218769082Y-115303537D01*
X218645832Y-115601088D01*
X218583000Y-115916967D01*
X218583000Y-116239033D01*
X218645832Y-116554912D01*
X218651823Y-116569376D01*
X218628998Y-116592201D01*
X216876880Y-116592201D01*
X216913368Y-116504112D01*
X216976200Y-116188233D01*
X216976200Y-115866167D01*
X216913368Y-115550288D01*
X216907377Y-115535824D01*
X217584027Y-114859175D01*
X217677661Y-114877800D01*
X217881539Y-114877800D01*
X218081498Y-114838026D01*
X218269856Y-114760005D01*
X218439374Y-114646737D01*
X218583537Y-114502574D01*
X218696805Y-114333056D01*
X218774826Y-114144698D01*
X218814600Y-113944739D01*
X218814600Y-113740861D01*
X218794060Y-113637600D01*
X226203790Y-113637600D01*
X226260395Y-113774256D01*
X226373663Y-113943774D01*
X226517826Y-114087937D01*
X226687344Y-114201205D01*
X226875702Y-114279226D01*
X227075661Y-114319000D01*
X227279539Y-114319000D01*
X227479498Y-114279226D01*
X227667856Y-114201205D01*
X227837374Y-114087937D01*
X227981537Y-113943774D01*
X228094805Y-113774256D01*
X228172826Y-113585898D01*
X228212600Y-113385939D01*
X228212600Y-113182061D01*
X228172826Y-112982102D01*
X228094805Y-112793744D01*
X227981537Y-112624226D01*
X227837374Y-112480063D01*
X227667856Y-112366795D01*
X227479498Y-112288774D01*
X227279539Y-112249000D01*
X227203243Y-112249000D01*
X227195476Y-112242626D01*
X227063447Y-112172054D01*
X226920186Y-112128597D01*
X226808533Y-112117600D01*
X226808522Y-112117600D01*
X226771200Y-112113924D01*
X226733878Y-112117600D01*
X226084239Y-112117600D01*
X226263187Y-111938652D01*
X226442118Y-111670863D01*
X226565368Y-111373312D01*
X226628200Y-111057433D01*
X226628200Y-110735367D01*
X226565368Y-110419488D01*
X226442118Y-110121937D01*
X226415166Y-110081600D01*
X227878799Y-110081600D01*
X228202223Y-110405024D01*
X228196232Y-110419488D01*
X228133400Y-110735367D01*
X228133400Y-111057433D01*
X228196232Y-111373312D01*
X228319482Y-111670863D01*
X228498413Y-111938652D01*
X228726148Y-112166387D01*
X228993937Y-112345318D01*
X229291488Y-112468568D01*
X229607367Y-112531400D01*
X229929433Y-112531400D01*
X230245312Y-112468568D01*
X230542863Y-112345318D01*
X230810652Y-112166387D01*
X231038387Y-111938652D01*
X231217318Y-111670863D01*
X231340568Y-111373312D01*
X231403400Y-111057433D01*
X231403400Y-110735367D01*
X231340568Y-110419488D01*
X231217318Y-110121937D01*
X231038387Y-109854148D01*
X230810652Y-109626413D01*
X230542863Y-109447482D01*
X230245312Y-109324232D01*
X230222025Y-109319600D01*
X231607753Y-109319600D01*
X231614944Y-109324405D01*
X231803302Y-109402426D01*
X232003261Y-109442200D01*
X232207139Y-109442200D01*
X232407098Y-109402426D01*
X232595456Y-109324405D01*
X232764974Y-109211137D01*
X232909137Y-109066974D01*
X233022405Y-108897456D01*
X233100426Y-108709098D01*
X233140200Y-108509139D01*
X233140200Y-108305261D01*
X233100426Y-108105302D01*
X233022405Y-107916944D01*
X232909137Y-107747426D01*
X232764974Y-107603263D01*
X232595456Y-107489995D01*
X232407098Y-107411974D01*
X232207139Y-107372200D01*
X232003261Y-107372200D01*
X231803302Y-107411974D01*
X231614944Y-107489995D01*
X231445426Y-107603263D01*
X231301263Y-107747426D01*
X231266402Y-107799600D01*
X226874254Y-107799600D01*
X226882903Y-107771086D01*
X226893900Y-107659433D01*
X226893900Y-107659423D01*
X226897576Y-107622101D01*
X226893900Y-107584778D01*
X226893900Y-107136645D01*
X227001192Y-107048592D01*
X227110858Y-106914964D01*
X227192347Y-106762509D01*
X227242528Y-106597085D01*
X227259472Y-106425050D01*
X227259472Y-105512550D01*
X227243519Y-105350567D01*
X228082600Y-105350567D01*
X228082600Y-105672633D01*
X228145432Y-105988512D01*
X228268682Y-106286063D01*
X228447613Y-106553852D01*
X228675348Y-106781587D01*
X228943137Y-106960518D01*
X229240688Y-107083768D01*
X229556567Y-107146600D01*
X229878633Y-107146600D01*
X230194512Y-107083768D01*
X230492063Y-106960518D01*
X230759852Y-106781587D01*
X230987587Y-106553852D01*
X231166518Y-106286063D01*
X231289768Y-105988512D01*
X231352600Y-105672633D01*
X231352600Y-105350567D01*
X231289768Y-105034688D01*
X231166518Y-104737137D01*
X230987587Y-104469348D01*
X230759852Y-104241613D01*
X230492063Y-104062682D01*
X230194512Y-103939432D01*
X229878633Y-103876600D01*
X229556567Y-103876600D01*
X229240688Y-103939432D01*
X228943137Y-104062682D01*
X228675348Y-104241613D01*
X228447613Y-104469348D01*
X228268682Y-104737137D01*
X228145432Y-105034688D01*
X228082600Y-105350567D01*
X227243519Y-105350567D01*
X227242528Y-105340515D01*
X227192347Y-105175091D01*
X227110858Y-105022636D01*
X227001192Y-104889008D01*
X226893900Y-104800955D01*
X226893900Y-103174245D01*
X227001192Y-103086192D01*
X227110858Y-102952564D01*
X227192347Y-102800109D01*
X227242528Y-102634685D01*
X227259472Y-102462650D01*
X227259472Y-101550150D01*
X227242528Y-101378115D01*
X227192347Y-101212691D01*
X227110858Y-101060236D01*
X227001192Y-100926608D01*
X226867564Y-100816942D01*
X226715109Y-100735453D01*
X226549685Y-100685272D01*
X226377650Y-100668328D01*
X225890150Y-100668328D01*
X225718115Y-100685272D01*
X225552691Y-100735453D01*
X225400236Y-100816942D01*
X225266608Y-100926608D01*
X225261392Y-100932964D01*
X225197585Y-100855215D01*
X225100894Y-100775863D01*
X224990580Y-100716898D01*
X224870882Y-100680588D01*
X224746400Y-100668328D01*
X224544650Y-100671400D01*
X224385900Y-100830150D01*
X224385900Y-101879400D01*
X224405900Y-101879400D01*
X224405900Y-102133400D01*
X224385900Y-102133400D01*
X224385900Y-103182650D01*
X224544650Y-103341400D01*
X224746400Y-103344472D01*
X224870882Y-103332212D01*
X224990580Y-103295902D01*
X225100894Y-103236937D01*
X225197585Y-103157585D01*
X225261392Y-103079836D01*
X225266608Y-103086192D01*
X225373900Y-103174245D01*
X225373901Y-104800955D01*
X225266608Y-104889008D01*
X225261392Y-104895364D01*
X225197585Y-104817615D01*
X225100894Y-104738263D01*
X224990580Y-104679298D01*
X224870882Y-104642988D01*
X224746400Y-104630728D01*
X224544650Y-104633800D01*
X224385900Y-104792550D01*
X224385900Y-105841800D01*
X224405900Y-105841800D01*
X224405900Y-106095800D01*
X224385900Y-106095800D01*
X224385900Y-106115800D01*
X224131900Y-106115800D01*
X224131900Y-106095800D01*
X224111900Y-106095800D01*
X224111900Y-105841800D01*
X224131900Y-105841800D01*
X224131900Y-104792550D01*
X223973150Y-104633800D01*
X223771400Y-104630728D01*
X223646918Y-104642988D01*
X223527220Y-104679298D01*
X223416906Y-104738263D01*
X223320215Y-104817615D01*
X223240863Y-104914306D01*
X223181898Y-105024620D01*
X223145588Y-105144318D01*
X223133328Y-105268800D01*
X223136400Y-105683050D01*
X223295148Y-105841798D01*
X223139999Y-105841798D01*
X222881072Y-105582871D01*
X222881072Y-105394600D01*
X222864008Y-105221346D01*
X222813472Y-105054750D01*
X222731405Y-104901214D01*
X222620962Y-104766638D01*
X222486386Y-104656195D01*
X222332850Y-104574128D01*
X222166254Y-104523592D01*
X221993000Y-104506528D01*
X221243000Y-104506528D01*
X221069746Y-104523592D01*
X220903150Y-104574128D01*
X220749614Y-104656195D01*
X220615038Y-104766638D01*
X220504595Y-104901214D01*
X220422528Y-105054750D01*
X220371992Y-105221346D01*
X220354928Y-105394600D01*
X220354928Y-106644600D01*
X220371992Y-106817854D01*
X220422528Y-106984450D01*
X220504595Y-107137986D01*
X220615038Y-107272562D01*
X220749614Y-107383005D01*
X220858000Y-107440939D01*
X220858000Y-107799600D01*
X216963277Y-107799600D01*
X216968477Y-107746800D01*
X216953803Y-107597814D01*
X216937100Y-107542751D01*
X216937100Y-107085845D01*
X217044392Y-106997792D01*
X217154058Y-106864164D01*
X217235547Y-106711709D01*
X217245773Y-106678000D01*
X217558218Y-106678000D01*
X217571992Y-106817854D01*
X217622528Y-106984450D01*
X217704595Y-107137986D01*
X217815038Y-107272562D01*
X217949614Y-107383005D01*
X218103150Y-107465072D01*
X218269746Y-107515608D01*
X218443000Y-107532672D01*
X219193000Y-107532672D01*
X219366254Y-107515608D01*
X219532850Y-107465072D01*
X219686386Y-107383005D01*
X219820962Y-107272562D01*
X219931405Y-107137986D01*
X220013472Y-106984450D01*
X220064008Y-106817854D01*
X220081072Y-106644600D01*
X220081072Y-105394600D01*
X220064008Y-105221346D01*
X220013472Y-105054750D01*
X219931405Y-104901214D01*
X219820962Y-104766638D01*
X219686386Y-104656195D01*
X219532850Y-104574128D01*
X219366254Y-104523592D01*
X219193000Y-104506528D01*
X218443000Y-104506528D01*
X218269746Y-104523592D01*
X218103150Y-104574128D01*
X217949614Y-104656195D01*
X217815038Y-104766638D01*
X217704595Y-104901214D01*
X217622528Y-105054750D01*
X217591208Y-105158000D01*
X217245773Y-105158000D01*
X217235547Y-105124291D01*
X217154058Y-104971836D01*
X217044392Y-104838208D01*
X216910764Y-104728542D01*
X216758309Y-104647053D01*
X216592885Y-104596872D01*
X216420850Y-104579928D01*
X215933350Y-104579928D01*
X215761315Y-104596872D01*
X215595891Y-104647053D01*
X215443436Y-104728542D01*
X215309808Y-104838208D01*
X215239600Y-104923756D01*
X215169392Y-104838208D01*
X215062100Y-104750155D01*
X215062100Y-103290475D01*
X215086861Y-103295400D01*
X215290739Y-103295400D01*
X215490698Y-103255626D01*
X215679056Y-103177605D01*
X215848574Y-103064337D01*
X215892511Y-103020400D01*
X216077565Y-103020400D01*
X216059916Y-103053418D01*
X216015071Y-103201255D01*
X215999928Y-103355000D01*
X215999928Y-103655000D01*
X216015071Y-103808745D01*
X216059916Y-103956582D01*
X216132742Y-104092829D01*
X216230749Y-104212251D01*
X216350171Y-104310258D01*
X216486418Y-104383084D01*
X216634255Y-104427929D01*
X216788000Y-104443072D01*
X218438000Y-104443072D01*
X218591745Y-104427929D01*
X218739582Y-104383084D01*
X218875829Y-104310258D01*
X218995251Y-104212251D01*
X219093258Y-104092829D01*
X219166084Y-103956582D01*
X219210929Y-103808745D01*
X219226072Y-103655000D01*
X219226072Y-103355000D01*
X219210929Y-103201255D01*
X219166084Y-103053418D01*
X219134859Y-102995000D01*
X219407643Y-102995000D01*
X219493808Y-103099992D01*
X219627436Y-103209658D01*
X219779891Y-103291147D01*
X219945315Y-103341328D01*
X220117350Y-103358272D01*
X221029850Y-103358272D01*
X221201885Y-103341328D01*
X221367309Y-103291147D01*
X221519764Y-103209658D01*
X221653392Y-103099992D01*
X221763058Y-102966364D01*
X221844547Y-102813909D01*
X221877159Y-102706400D01*
X223133328Y-102706400D01*
X223145588Y-102830882D01*
X223181898Y-102950580D01*
X223240863Y-103060894D01*
X223320215Y-103157585D01*
X223416906Y-103236937D01*
X223527220Y-103295902D01*
X223646918Y-103332212D01*
X223771400Y-103344472D01*
X223973150Y-103341400D01*
X224131900Y-103182650D01*
X224131900Y-102133400D01*
X223295150Y-102133400D01*
X223136400Y-102292150D01*
X223133328Y-102706400D01*
X221877159Y-102706400D01*
X221894728Y-102648485D01*
X221911672Y-102476450D01*
X221911672Y-101988950D01*
X221894728Y-101816915D01*
X221844547Y-101651491D01*
X221763058Y-101499036D01*
X221653392Y-101365408D01*
X221647036Y-101360192D01*
X221712581Y-101306400D01*
X223133328Y-101306400D01*
X223136400Y-101720650D01*
X223295150Y-101879400D01*
X224131900Y-101879400D01*
X224131900Y-100830150D01*
X223973150Y-100671400D01*
X223771400Y-100668328D01*
X223646918Y-100680588D01*
X223527220Y-100716898D01*
X223416906Y-100775863D01*
X223320215Y-100855215D01*
X223240863Y-100951906D01*
X223181898Y-101062220D01*
X223145588Y-101181918D01*
X223133328Y-101306400D01*
X221712581Y-101306400D01*
X221724785Y-101296385D01*
X221804137Y-101199694D01*
X221863102Y-101089380D01*
X221899412Y-100969682D01*
X221911672Y-100845200D01*
X221908600Y-100643450D01*
X221749850Y-100484700D01*
X220700600Y-100484700D01*
X220700600Y-100504700D01*
X220446600Y-100504700D01*
X220446600Y-100484700D01*
X219397350Y-100484700D01*
X219238600Y-100643450D01*
X219235528Y-100845200D01*
X219247788Y-100969682D01*
X219284098Y-101089380D01*
X219343063Y-101199694D01*
X219422415Y-101296385D01*
X219500164Y-101360192D01*
X219493808Y-101365408D01*
X219403868Y-101475000D01*
X219134859Y-101475000D01*
X219166084Y-101416582D01*
X219210929Y-101268745D01*
X219226072Y-101115000D01*
X219226072Y-100815000D01*
X219210929Y-100661255D01*
X219166084Y-100513418D01*
X219093258Y-100377171D01*
X219054546Y-100330000D01*
X219080335Y-100298576D01*
X219157801Y-100235001D01*
X219181604Y-100205998D01*
X219277126Y-100110476D01*
X219397350Y-100230700D01*
X220446600Y-100230700D01*
X220446600Y-99393950D01*
X220414134Y-99361484D01*
X220525605Y-99194656D01*
X220603626Y-99006298D01*
X220624400Y-98901859D01*
X220645174Y-99006298D01*
X220723195Y-99194656D01*
X220793971Y-99300579D01*
X220700600Y-99393950D01*
X220700600Y-100230700D01*
X221749850Y-100230700D01*
X221908600Y-100071950D01*
X221911672Y-99870200D01*
X221899412Y-99745718D01*
X221888666Y-99710294D01*
X221942298Y-99699626D01*
X222130656Y-99621605D01*
X222300174Y-99508337D01*
X222344111Y-99464400D01*
X226321489Y-99464400D01*
X226365426Y-99508337D01*
X226534944Y-99621605D01*
X226723302Y-99699626D01*
X226923261Y-99739400D01*
X227127139Y-99739400D01*
X227327098Y-99699626D01*
X227515456Y-99621605D01*
X227684974Y-99508337D01*
X227829137Y-99364174D01*
X227942405Y-99194656D01*
X228020426Y-99006298D01*
X228060200Y-98806339D01*
X228060200Y-98702400D01*
X229008400Y-98702400D01*
X229008400Y-98773491D01*
X228993937Y-98779482D01*
X228726148Y-98958413D01*
X228498413Y-99186148D01*
X228319482Y-99453937D01*
X228196232Y-99751488D01*
X228133400Y-100067367D01*
X228133400Y-100389433D01*
X228196232Y-100705312D01*
X228319482Y-101002863D01*
X228498413Y-101270652D01*
X228726148Y-101498387D01*
X228993937Y-101677318D01*
X229291488Y-101800568D01*
X229607367Y-101863400D01*
X229929433Y-101863400D01*
X230245312Y-101800568D01*
X230542863Y-101677318D01*
X230810652Y-101498387D01*
X231038387Y-101270652D01*
X231217318Y-101002863D01*
X231340568Y-100705312D01*
X231403400Y-100389433D01*
X231403400Y-100067367D01*
X231340568Y-99751488D01*
X231217318Y-99453937D01*
X231038387Y-99186148D01*
X230810652Y-98958413D01*
X230542863Y-98779482D01*
X230528400Y-98773491D01*
X230528400Y-97979733D01*
X230532077Y-97942400D01*
X230525028Y-97870826D01*
X230517403Y-97793414D01*
X230473946Y-97650153D01*
X230403374Y-97518124D01*
X230308401Y-97402399D01*
X230272103Y-97372610D01*
X230192676Y-97307426D01*
X230060647Y-97236854D01*
X229917386Y-97193397D01*
X229805733Y-97182400D01*
X229768400Y-97178723D01*
X229731067Y-97182400D01*
X226560511Y-97182400D01*
X226516574Y-97138463D01*
X226347056Y-97025195D01*
X226158698Y-96947174D01*
X225958739Y-96907400D01*
X225754861Y-96907400D01*
X225554902Y-96947174D01*
X225366544Y-97025195D01*
X225197026Y-97138463D01*
X225052863Y-97282626D01*
X224939595Y-97452144D01*
X224861574Y-97640502D01*
X224821800Y-97840461D01*
X224821800Y-97944400D01*
X222344111Y-97944400D01*
X222300174Y-97900463D01*
X222130656Y-97787195D01*
X221942298Y-97709174D01*
X221742339Y-97669400D01*
X221538461Y-97669400D01*
X221338502Y-97709174D01*
X221150144Y-97787195D01*
X220980626Y-97900463D01*
X220836463Y-98044626D01*
X220723195Y-98214144D01*
X220645174Y-98402502D01*
X220624400Y-98506941D01*
X220603626Y-98402502D01*
X220525605Y-98214144D01*
X220412337Y-98044626D01*
X220268174Y-97900463D01*
X220098656Y-97787195D01*
X219910298Y-97709174D01*
X219710339Y-97669400D01*
X219506461Y-97669400D01*
X219306502Y-97709174D01*
X219118144Y-97787195D01*
X218948626Y-97900463D01*
X218804463Y-98044626D01*
X218691195Y-98214144D01*
X218613174Y-98402502D01*
X218573400Y-98602461D01*
X218573400Y-98664599D01*
X218477209Y-98760790D01*
X218438000Y-98756928D01*
X217410024Y-98756928D01*
X217454026Y-98650698D01*
X217493800Y-98450739D01*
X217493800Y-98246861D01*
X217454026Y-98046902D01*
X217376005Y-97858544D01*
X217262737Y-97689026D01*
X217118574Y-97544863D01*
X216949056Y-97431595D01*
X216760698Y-97353574D01*
X216560739Y-97313800D01*
X216356861Y-97313800D01*
X216156902Y-97353574D01*
X215968544Y-97431595D01*
X215799026Y-97544863D01*
X215654863Y-97689026D01*
X215541595Y-97858544D01*
X215463574Y-98046902D01*
X215423800Y-98246861D01*
X215423800Y-98308998D01*
X214164801Y-99567998D01*
X214114252Y-99567998D01*
X214273000Y-99409250D01*
X214276072Y-99395000D01*
X214263812Y-99270518D01*
X214227502Y-99150820D01*
X214168537Y-99040506D01*
X214089185Y-98943815D01*
X213992494Y-98864463D01*
X213882180Y-98805498D01*
X213762482Y-98769188D01*
X213638000Y-98756928D01*
X212948750Y-98760000D01*
X212790000Y-98918750D01*
X212790000Y-99568000D01*
X212810000Y-99568000D01*
X212810000Y-99815197D01*
X212797273Y-99822000D01*
X212790000Y-99822000D01*
X212790000Y-99825887D01*
X212759855Y-99842000D01*
X212594525Y-99842000D01*
X212472647Y-99776854D01*
X212329386Y-99733397D01*
X212217733Y-99722400D01*
X212217722Y-99722400D01*
X212180400Y-99718724D01*
X212143078Y-99722400D01*
X210432600Y-99722400D01*
X210432600Y-99655461D01*
X210392826Y-99455502D01*
X210358164Y-99371821D01*
X210496164Y-99298058D01*
X210629792Y-99188392D01*
X210739458Y-99054764D01*
X210808901Y-98924846D01*
X210939344Y-99012005D01*
X211127702Y-99090026D01*
X211130677Y-99090618D01*
X211098498Y-99150820D01*
X211062188Y-99270518D01*
X211049928Y-99395000D01*
X211053000Y-99409250D01*
X211211750Y-99568000D01*
X212536000Y-99568000D01*
X212536000Y-98918750D01*
X212377250Y-98760000D01*
X212228773Y-98759338D01*
X212233537Y-98754574D01*
X212346805Y-98585056D01*
X212424826Y-98396698D01*
X212464600Y-98196739D01*
X212464600Y-97992861D01*
X212424826Y-97792902D01*
X212346805Y-97604544D01*
X212233537Y-97435026D01*
X212089374Y-97290863D01*
X211919856Y-97177595D01*
X211731498Y-97099574D01*
X211531539Y-97059800D01*
X211327661Y-97059800D01*
X211127702Y-97099574D01*
X210939344Y-97177595D01*
X210769826Y-97290863D01*
X210725889Y-97334800D01*
X210603706Y-97334800D01*
X210629792Y-97313392D01*
X210739458Y-97179764D01*
X210820947Y-97027309D01*
X210871128Y-96861885D01*
X210888072Y-96689850D01*
X210888072Y-96385413D01*
X217992192Y-96385413D01*
X218087956Y-96649814D01*
X218377571Y-96790704D01*
X218689108Y-96872384D01*
X219010595Y-96891718D01*
X219329675Y-96847961D01*
X219634088Y-96742795D01*
X219808044Y-96649814D01*
X219903808Y-96385413D01*
X218948000Y-95429605D01*
X217992192Y-96385413D01*
X210888072Y-96385413D01*
X210888072Y-96202350D01*
X210871128Y-96030315D01*
X210820947Y-95864891D01*
X210739458Y-95712436D01*
X210629792Y-95578808D01*
X210616923Y-95568247D01*
X210765256Y-95506805D01*
X210934774Y-95393537D01*
X210978711Y-95349600D01*
X217311357Y-95349600D01*
X217350039Y-95631675D01*
X217455205Y-95936088D01*
X217548186Y-96110044D01*
X217812587Y-96205808D01*
X218768395Y-95250000D01*
X219127605Y-95250000D01*
X220083413Y-96205808D01*
X220148557Y-96182213D01*
X223376992Y-96182213D01*
X223472756Y-96446614D01*
X223762371Y-96587504D01*
X224073908Y-96669184D01*
X224395395Y-96688518D01*
X224714475Y-96644761D01*
X225018888Y-96539595D01*
X225192844Y-96446614D01*
X225288608Y-96182213D01*
X224332800Y-95226405D01*
X223376992Y-96182213D01*
X220148557Y-96182213D01*
X220347814Y-96110044D01*
X220488704Y-95820429D01*
X220570384Y-95508892D01*
X220589718Y-95187405D01*
X220579021Y-95109395D01*
X222691082Y-95109395D01*
X222734839Y-95428475D01*
X222840005Y-95732888D01*
X222932986Y-95906844D01*
X223197387Y-96002608D01*
X224153195Y-95046800D01*
X224512405Y-95046800D01*
X225468213Y-96002608D01*
X225732614Y-95906844D01*
X225873504Y-95617229D01*
X225955184Y-95305692D01*
X225974518Y-94984205D01*
X225930761Y-94665125D01*
X225825595Y-94360712D01*
X225732614Y-94186756D01*
X225468213Y-94090992D01*
X224512405Y-95046800D01*
X224153195Y-95046800D01*
X223197387Y-94090992D01*
X222932986Y-94186756D01*
X222792096Y-94476371D01*
X222710416Y-94787908D01*
X222691082Y-95109395D01*
X220579021Y-95109395D01*
X220545961Y-94868325D01*
X220440795Y-94563912D01*
X220347814Y-94389956D01*
X220083413Y-94294192D01*
X219127605Y-95250000D01*
X218768395Y-95250000D01*
X218754253Y-95235858D01*
X218933858Y-95056253D01*
X218948000Y-95070395D01*
X219903808Y-94114587D01*
X219808044Y-93850186D01*
X219574989Y-93736811D01*
X219638600Y-93673200D01*
X223463261Y-93673200D01*
X223376992Y-93911387D01*
X224332800Y-94867195D01*
X225288608Y-93911387D01*
X225202339Y-93673200D01*
X229263975Y-93673200D01*
X229240688Y-93677832D01*
X228943137Y-93801082D01*
X228675348Y-93980013D01*
X228447613Y-94207748D01*
X228268682Y-94475537D01*
X228145432Y-94773088D01*
X228082600Y-95088967D01*
X228082600Y-95411033D01*
X228145432Y-95726912D01*
X228268682Y-96024463D01*
X228447613Y-96292252D01*
X228675348Y-96519987D01*
X228943137Y-96698918D01*
X229240688Y-96822168D01*
X229556567Y-96885000D01*
X229878633Y-96885000D01*
X230194512Y-96822168D01*
X230492063Y-96698918D01*
X230759852Y-96519987D01*
X230987587Y-96292252D01*
X231166518Y-96024463D01*
X231289768Y-95726912D01*
X231352600Y-95411033D01*
X231352600Y-95088967D01*
X231289768Y-94773088D01*
X231166518Y-94475537D01*
X230987587Y-94207748D01*
X230759852Y-93980013D01*
X230492063Y-93801082D01*
X230194512Y-93677832D01*
X230171225Y-93673200D01*
X231299889Y-93673200D01*
X231343826Y-93717137D01*
X231513344Y-93830405D01*
X231701702Y-93908426D01*
X231901661Y-93948200D01*
X232105539Y-93948200D01*
X232305498Y-93908426D01*
X232493856Y-93830405D01*
X232663374Y-93717137D01*
X232807537Y-93572974D01*
X232920805Y-93403456D01*
X232998826Y-93215098D01*
X233038600Y-93015139D01*
X233038600Y-92811261D01*
X232998826Y-92611302D01*
X232920805Y-92422944D01*
X232807537Y-92253426D01*
X232663374Y-92109263D01*
X232493856Y-91995995D01*
X232305498Y-91917974D01*
X232105539Y-91878200D01*
X231901661Y-91878200D01*
X231701702Y-91917974D01*
X231513344Y-91995995D01*
X231343826Y-92109263D01*
X231299889Y-92153200D01*
X219361131Y-92153200D01*
X219323798Y-92149523D01*
X219286465Y-92153200D01*
X219174812Y-92164197D01*
X219031551Y-92207654D01*
X218899522Y-92278226D01*
X218783797Y-92373199D01*
X218759999Y-92402197D01*
X217332597Y-93829600D01*
X215974126Y-93829600D01*
X216055205Y-93708256D01*
X216133226Y-93519898D01*
X216173000Y-93319939D01*
X216173000Y-93116061D01*
X216133226Y-92916102D01*
X216055205Y-92727744D01*
X215941937Y-92558226D01*
X215797774Y-92414063D01*
X215628256Y-92300795D01*
X215439898Y-92222774D01*
X215239939Y-92183000D01*
X215036061Y-92183000D01*
X214836102Y-92222774D01*
X214647744Y-92300795D01*
X214478226Y-92414063D01*
X214434289Y-92458000D01*
X209587333Y-92458000D01*
X209550000Y-92454323D01*
X209512667Y-92458000D01*
X208410072Y-92458000D01*
X208410072Y-92443300D01*
X208397812Y-92318818D01*
X208361502Y-92199120D01*
X208302537Y-92088806D01*
X208280000Y-92061344D01*
X208280000Y-91906736D01*
X208283441Y-91871800D01*
X208269709Y-91732380D01*
X208229042Y-91598319D01*
X208163002Y-91474767D01*
X208074127Y-91366473D01*
X207965833Y-91277598D01*
X207842281Y-91211558D01*
X207708220Y-91170891D01*
X207603736Y-91160600D01*
X207568800Y-91157159D01*
X207533864Y-91160600D01*
X202422136Y-91160600D01*
X202387200Y-91157159D01*
X202352264Y-91160600D01*
X202280468Y-91167671D01*
X202272603Y-91087814D01*
X202229146Y-90944553D01*
X202158574Y-90812524D01*
X202063601Y-90696799D01*
X201947876Y-90601826D01*
X201815847Y-90531254D01*
X201672586Y-90487797D01*
X201560933Y-90476800D01*
X201523600Y-90473123D01*
X201486267Y-90476800D01*
X196734922Y-90476800D01*
X196697599Y-90473124D01*
X196660276Y-90476800D01*
X196660267Y-90476800D01*
X196548614Y-90487797D01*
X196405353Y-90531254D01*
X196273324Y-90601826D01*
X196157599Y-90696799D01*
X196133800Y-90725798D01*
X195678598Y-91181001D01*
X195649600Y-91204799D01*
X195625802Y-91233797D01*
X195625801Y-91233798D01*
X195623096Y-91237094D01*
X195603100Y-91235124D01*
X195565778Y-91238800D01*
X194759711Y-91238800D01*
X194715774Y-91194863D01*
X194546256Y-91081595D01*
X194357898Y-91003574D01*
X194157939Y-90963800D01*
X193954061Y-90963800D01*
X193754102Y-91003574D01*
X193565744Y-91081595D01*
X193396226Y-91194863D01*
X193252063Y-91339026D01*
X193138795Y-91508544D01*
X193060774Y-91696902D01*
X193021000Y-91896861D01*
X193021000Y-92100739D01*
X193060774Y-92300698D01*
X193138795Y-92489056D01*
X193238189Y-92637810D01*
X192921174Y-92637810D01*
X192867067Y-92621397D01*
X192796909Y-92614487D01*
X192669475Y-92423768D01*
X192462632Y-92216925D01*
X192219411Y-92054410D01*
X191949158Y-91942468D01*
X191662260Y-91885400D01*
X191369740Y-91885400D01*
X191082842Y-91942468D01*
X190812589Y-92054410D01*
X190569368Y-92216925D01*
X190362525Y-92423768D01*
X190200010Y-92666989D01*
X190088068Y-92937242D01*
X190031000Y-93224140D01*
X190031000Y-93516660D01*
X190088068Y-93803558D01*
X190200010Y-94073811D01*
X190362525Y-94317032D01*
X190494380Y-94448887D01*
X190421820Y-94470898D01*
X190311506Y-94529863D01*
X190214815Y-94609215D01*
X190135463Y-94705906D01*
X190076498Y-94816220D01*
X190040188Y-94935918D01*
X190027928Y-95060400D01*
X190027928Y-96760400D01*
X190040188Y-96884882D01*
X190076498Y-97004580D01*
X190135463Y-97114894D01*
X190214815Y-97211585D01*
X190311506Y-97290937D01*
X190421820Y-97349902D01*
X190541518Y-97386212D01*
X190666000Y-97398472D01*
X192366000Y-97398472D01*
X192490482Y-97386212D01*
X192610180Y-97349902D01*
X192720494Y-97290937D01*
X192817185Y-97211585D01*
X192896537Y-97114894D01*
X192955502Y-97004580D01*
X192991812Y-96884882D01*
X193004072Y-96760400D01*
X193004072Y-96670400D01*
X195496099Y-96670400D01*
X195498128Y-96672429D01*
X195498128Y-97179450D01*
X195515072Y-97351485D01*
X195565253Y-97516909D01*
X195646742Y-97669364D01*
X195756408Y-97802992D01*
X195890036Y-97912658D01*
X196042491Y-97994147D01*
X196045962Y-97995200D01*
X195166111Y-97995200D01*
X195122174Y-97951263D01*
X194952656Y-97837995D01*
X194764298Y-97759974D01*
X194564339Y-97720200D01*
X194360461Y-97720200D01*
X194160502Y-97759974D01*
X193972144Y-97837995D01*
X193802626Y-97951263D01*
X193676691Y-98077198D01*
X193646698Y-98064774D01*
X193446739Y-98025000D01*
X193242861Y-98025000D01*
X193042902Y-98064774D01*
X192854544Y-98142795D01*
X192685026Y-98256063D01*
X192641089Y-98300000D01*
X189628911Y-98300000D01*
X189584974Y-98256063D01*
X189415456Y-98142795D01*
X189227098Y-98064774D01*
X189027139Y-98025000D01*
X188823261Y-98025000D01*
X188623302Y-98064774D01*
X188434944Y-98142795D01*
X188265426Y-98256063D01*
X188221489Y-98300000D01*
X186180000Y-98300000D01*
X186180000Y-97188734D01*
X186270750Y-97197672D01*
X186758250Y-97197672D01*
X186930285Y-97180728D01*
X187095709Y-97130547D01*
X187248164Y-97049058D01*
X187381792Y-96939392D01*
X187387008Y-96933036D01*
X187450815Y-97010785D01*
X187547506Y-97090137D01*
X187657820Y-97149102D01*
X187777518Y-97185412D01*
X187902000Y-97197672D01*
X188103750Y-97194600D01*
X188262500Y-97035850D01*
X188262500Y-95986600D01*
X188516500Y-95986600D01*
X188516500Y-97035850D01*
X188675250Y-97194600D01*
X188877000Y-97197672D01*
X189001482Y-97185412D01*
X189121180Y-97149102D01*
X189231494Y-97090137D01*
X189328185Y-97010785D01*
X189407537Y-96914094D01*
X189466502Y-96803780D01*
X189502812Y-96684082D01*
X189515072Y-96559600D01*
X189512000Y-96145350D01*
X189353250Y-95986600D01*
X188516500Y-95986600D01*
X188262500Y-95986600D01*
X188242500Y-95986600D01*
X188242500Y-95732600D01*
X188262500Y-95732600D01*
X188262500Y-94683350D01*
X188516500Y-94683350D01*
X188516500Y-95732600D01*
X189353250Y-95732600D01*
X189512000Y-95573850D01*
X189515072Y-95159600D01*
X189502812Y-95035118D01*
X189466502Y-94915420D01*
X189407537Y-94805106D01*
X189328185Y-94708415D01*
X189231494Y-94629063D01*
X189121180Y-94570098D01*
X189001482Y-94533788D01*
X188877000Y-94521528D01*
X188675250Y-94524600D01*
X188516500Y-94683350D01*
X188262500Y-94683350D01*
X188103750Y-94524600D01*
X187902000Y-94521528D01*
X187777518Y-94533788D01*
X187657820Y-94570098D01*
X187547506Y-94629063D01*
X187450815Y-94708415D01*
X187387008Y-94786164D01*
X187381792Y-94779808D01*
X187274500Y-94691755D01*
X187274500Y-94595001D01*
X188026380Y-93843122D01*
X188044150Y-93844872D01*
X188531650Y-93844872D01*
X188703685Y-93827928D01*
X188869109Y-93777747D01*
X189021564Y-93696258D01*
X189155192Y-93586592D01*
X189264858Y-93452964D01*
X189346347Y-93300509D01*
X189396528Y-93135085D01*
X189413472Y-92963050D01*
X189413472Y-92050550D01*
X189396528Y-91878515D01*
X189346347Y-91713091D01*
X189264858Y-91560636D01*
X189155192Y-91427008D01*
X189021564Y-91317342D01*
X188869109Y-91235853D01*
X188703685Y-91185672D01*
X188531650Y-91168728D01*
X188044150Y-91168728D01*
X187872115Y-91185672D01*
X187706691Y-91235853D01*
X187554236Y-91317342D01*
X187420608Y-91427008D01*
X187350400Y-91512556D01*
X187280192Y-91427008D01*
X187146564Y-91317342D01*
X186994109Y-91235853D01*
X186828685Y-91185672D01*
X186656650Y-91168728D01*
X186169150Y-91168728D01*
X185997115Y-91185672D01*
X185831691Y-91235853D01*
X185679236Y-91317342D01*
X185545608Y-91427008D01*
X185435942Y-91560636D01*
X185354453Y-91713091D01*
X185304272Y-91878515D01*
X185287328Y-92050550D01*
X185287328Y-92557571D01*
X185234499Y-92610400D01*
X183222133Y-92610400D01*
X183184800Y-92606723D01*
X183147467Y-92610400D01*
X183035814Y-92621397D01*
X182892553Y-92664854D01*
X182760524Y-92735426D01*
X182743372Y-92749502D01*
X182743372Y-92367100D01*
X182731112Y-92242618D01*
X182694802Y-92122920D01*
X182635837Y-92012606D01*
X182556485Y-91915915D01*
X182459794Y-91836563D01*
X182349480Y-91777598D01*
X182229782Y-91741288D01*
X182105300Y-91729028D01*
X181782568Y-91729028D01*
X181815693Y-91649057D01*
X181876700Y-91342355D01*
X181876700Y-91029645D01*
X181815693Y-90722943D01*
X181696024Y-90434037D01*
X181522292Y-90174028D01*
X181301172Y-89952908D01*
X181041163Y-89779176D01*
X180752257Y-89659507D01*
X180445555Y-89598500D01*
X180132845Y-89598500D01*
X179826143Y-89659507D01*
X179537237Y-89779176D01*
X179277228Y-89952908D01*
X179056108Y-90174028D01*
X178882376Y-90434037D01*
X178762707Y-90722943D01*
X178701700Y-91029645D01*
X178701700Y-91342355D01*
X178762707Y-91649057D01*
X178795832Y-91729028D01*
X178473100Y-91729028D01*
X178348618Y-91741288D01*
X178228920Y-91777598D01*
X178118606Y-91836563D01*
X178078600Y-91869395D01*
X178078600Y-89127800D01*
X235229109Y-89127800D01*
X235180492Y-119659011D01*
G36*
X206854795Y-103207856D02*
G01*
X206968063Y-103377374D01*
X207112226Y-103521537D01*
X207281744Y-103634805D01*
X207470102Y-103712826D01*
X207622645Y-103743168D01*
X207640374Y-103832298D01*
X207718395Y-104020656D01*
X207831663Y-104190174D01*
X207975826Y-104334337D01*
X208145344Y-104447605D01*
X208333702Y-104525626D01*
X208533661Y-104565400D01*
X208737539Y-104565400D01*
X208937498Y-104525626D01*
X209125856Y-104447605D01*
X209295374Y-104334337D01*
X209364711Y-104265000D01*
X211345024Y-104265000D01*
X211400171Y-104310258D01*
X211536418Y-104383084D01*
X211684255Y-104427929D01*
X211838000Y-104443072D01*
X211879734Y-104443072D01*
X211856774Y-104498502D01*
X211817000Y-104698461D01*
X211817000Y-104902339D01*
X211856774Y-105102298D01*
X211869198Y-105132291D01*
X211743263Y-105258226D01*
X211629995Y-105427744D01*
X211551974Y-105616102D01*
X211512200Y-105816061D01*
X211512200Y-106019939D01*
X211551974Y-106219898D01*
X211629995Y-106408256D01*
X211743263Y-106577774D01*
X211887426Y-106721937D01*
X212056944Y-106835205D01*
X212245302Y-106913226D01*
X212445261Y-106953000D01*
X212649139Y-106953000D01*
X212849098Y-106913226D01*
X213037456Y-106835205D01*
X213206974Y-106721937D01*
X213237497Y-106691414D01*
X213243653Y-106711709D01*
X213325142Y-106864164D01*
X213425787Y-106986800D01*
X206602060Y-106986800D01*
X206622600Y-106883539D01*
X206622600Y-106679661D01*
X206582826Y-106479702D01*
X206504805Y-106291344D01*
X206391537Y-106121826D01*
X206347600Y-106077889D01*
X206347600Y-103892719D01*
X206365812Y-103832682D01*
X206378072Y-103708200D01*
X206378072Y-103152472D01*
X206831854Y-103152472D01*
X206854795Y-103207856D01*
G37*
X206854795Y-103207856D02*
X206968063Y-103377374D01*
X207112226Y-103521537D01*
X207281744Y-103634805D01*
X207470102Y-103712826D01*
X207622645Y-103743168D01*
X207640374Y-103832298D01*
X207718395Y-104020656D01*
X207831663Y-104190174D01*
X207975826Y-104334337D01*
X208145344Y-104447605D01*
X208333702Y-104525626D01*
X208533661Y-104565400D01*
X208737539Y-104565400D01*
X208937498Y-104525626D01*
X209125856Y-104447605D01*
X209295374Y-104334337D01*
X209364711Y-104265000D01*
X211345024Y-104265000D01*
X211400171Y-104310258D01*
X211536418Y-104383084D01*
X211684255Y-104427929D01*
X211838000Y-104443072D01*
X211879734Y-104443072D01*
X211856774Y-104498502D01*
X211817000Y-104698461D01*
X211817000Y-104902339D01*
X211856774Y-105102298D01*
X211869198Y-105132291D01*
X211743263Y-105258226D01*
X211629995Y-105427744D01*
X211551974Y-105616102D01*
X211512200Y-105816061D01*
X211512200Y-106019939D01*
X211551974Y-106219898D01*
X211629995Y-106408256D01*
X211743263Y-106577774D01*
X211887426Y-106721937D01*
X212056944Y-106835205D01*
X212245302Y-106913226D01*
X212445261Y-106953000D01*
X212649139Y-106953000D01*
X212849098Y-106913226D01*
X213037456Y-106835205D01*
X213206974Y-106721937D01*
X213237497Y-106691414D01*
X213243653Y-106711709D01*
X213325142Y-106864164D01*
X213425787Y-106986800D01*
X206602060Y-106986800D01*
X206622600Y-106883539D01*
X206622600Y-106679661D01*
X206582826Y-106479702D01*
X206504805Y-106291344D01*
X206391537Y-106121826D01*
X206347600Y-106077889D01*
X206347600Y-103892719D01*
X206365812Y-103832682D01*
X206378072Y-103708200D01*
X206378072Y-103152472D01*
X206831854Y-103152472D01*
X206854795Y-103207856D01*
G36*
X204952600Y-101473000D02*
G01*
X204972600Y-101473000D01*
X204972600Y-101727000D01*
X204952600Y-101727000D01*
X204952600Y-101747000D01*
X204698600Y-101747000D01*
X204698600Y-101727000D01*
X204678600Y-101727000D01*
X204678600Y-101473000D01*
X204698600Y-101473000D01*
X204698600Y-101453000D01*
X204952600Y-101453000D01*
X204952600Y-101473000D01*
G37*
X204952600Y-101473000D02*
X204972600Y-101473000D01*
X204972600Y-101727000D01*
X204952600Y-101727000D01*
X204952600Y-101747000D01*
X204698600Y-101747000D01*
X204698600Y-101727000D01*
X204678600Y-101727000D01*
X204678600Y-101473000D01*
X204698600Y-101473000D01*
X204698600Y-101453000D01*
X204952600Y-101453000D01*
X204952600Y-101473000D01*
M02*
