G04 #@! TF.GenerationSoftware,KiCad,Pcbnew,(5.1.5-0)*
G04 #@! TF.CreationDate,2020-04-26T22:39:22-07:00*
G04 #@! TF.ProjectId,Solar-Battery-Charger,536f6c61-722d-4426-9174-746572792d43,rev?*
G04 #@! TF.SameCoordinates,Original*
G04 #@! TF.FileFunction,Paste,Top*
G04 #@! TF.FilePolarity,Positive*
%FSLAX46Y46*%
G04 Gerber Fmt 4.6, Leading zero omitted, Abs format (unit mm)*
G04 Created by KiCad (PCBNEW (5.1.5-0)) date 2020-04-26 22:39:22*
%MOMM*%
%LPD*%
G04 APERTURE LIST*
%ADD10R,2.542540X1.902460*%
%ADD11R,1.902460X2.542540*%
%ADD12R,0.560000X0.630000*%
%ADD13C,0.100000*%
%ADD14R,1.529080X1.084580*%
%ADD15R,0.630000X0.560000*%
%ADD16R,0.213360X0.568960*%
%ADD17R,0.568960X0.213360*%
%ADD18R,1.422400X1.422400*%
G04 APERTURE END LIST*
D10*
X180289200Y-102819200D03*
X180289200Y-93726000D03*
D11*
X200812400Y-117195600D03*
X182575200Y-116890800D03*
D12*
X206349600Y-113979200D03*
X205399600Y-111979200D03*
X207299600Y-111979200D03*
D13*
G36*
X186701849Y-95370422D02*
G01*
X186718412Y-95372879D01*
X186734655Y-95376947D01*
X186750420Y-95382588D01*
X186765557Y-95389747D01*
X186779919Y-95398355D01*
X186793368Y-95408330D01*
X186805775Y-95419575D01*
X186817020Y-95431982D01*
X186826995Y-95445431D01*
X186835603Y-95459793D01*
X186842762Y-95474930D01*
X186848403Y-95490695D01*
X186852471Y-95506938D01*
X186854928Y-95523501D01*
X186855750Y-95540225D01*
X186855750Y-96178975D01*
X186854928Y-96195699D01*
X186852471Y-96212262D01*
X186848403Y-96228505D01*
X186842762Y-96244270D01*
X186835603Y-96259407D01*
X186826995Y-96273769D01*
X186817020Y-96287218D01*
X186805775Y-96299625D01*
X186793368Y-96310870D01*
X186779919Y-96320845D01*
X186765557Y-96329453D01*
X186750420Y-96336612D01*
X186734655Y-96342253D01*
X186718412Y-96346321D01*
X186701849Y-96348778D01*
X186685125Y-96349600D01*
X186343875Y-96349600D01*
X186327151Y-96348778D01*
X186310588Y-96346321D01*
X186294345Y-96342253D01*
X186278580Y-96336612D01*
X186263443Y-96329453D01*
X186249081Y-96320845D01*
X186235632Y-96310870D01*
X186223225Y-96299625D01*
X186211980Y-96287218D01*
X186202005Y-96273769D01*
X186193397Y-96259407D01*
X186186238Y-96244270D01*
X186180597Y-96228505D01*
X186176529Y-96212262D01*
X186174072Y-96195699D01*
X186173250Y-96178975D01*
X186173250Y-95540225D01*
X186174072Y-95523501D01*
X186176529Y-95506938D01*
X186180597Y-95490695D01*
X186186238Y-95474930D01*
X186193397Y-95459793D01*
X186202005Y-95445431D01*
X186211980Y-95431982D01*
X186223225Y-95419575D01*
X186235632Y-95408330D01*
X186249081Y-95398355D01*
X186263443Y-95389747D01*
X186278580Y-95382588D01*
X186294345Y-95376947D01*
X186310588Y-95372879D01*
X186327151Y-95370422D01*
X186343875Y-95369600D01*
X186685125Y-95369600D01*
X186701849Y-95370422D01*
G37*
G36*
X188576849Y-95370422D02*
G01*
X188593412Y-95372879D01*
X188609655Y-95376947D01*
X188625420Y-95382588D01*
X188640557Y-95389747D01*
X188654919Y-95398355D01*
X188668368Y-95408330D01*
X188680775Y-95419575D01*
X188692020Y-95431982D01*
X188701995Y-95445431D01*
X188710603Y-95459793D01*
X188717762Y-95474930D01*
X188723403Y-95490695D01*
X188727471Y-95506938D01*
X188729928Y-95523501D01*
X188730750Y-95540225D01*
X188730750Y-96178975D01*
X188729928Y-96195699D01*
X188727471Y-96212262D01*
X188723403Y-96228505D01*
X188717762Y-96244270D01*
X188710603Y-96259407D01*
X188701995Y-96273769D01*
X188692020Y-96287218D01*
X188680775Y-96299625D01*
X188668368Y-96310870D01*
X188654919Y-96320845D01*
X188640557Y-96329453D01*
X188625420Y-96336612D01*
X188609655Y-96342253D01*
X188593412Y-96346321D01*
X188576849Y-96348778D01*
X188560125Y-96349600D01*
X188218875Y-96349600D01*
X188202151Y-96348778D01*
X188185588Y-96346321D01*
X188169345Y-96342253D01*
X188153580Y-96336612D01*
X188138443Y-96329453D01*
X188124081Y-96320845D01*
X188110632Y-96310870D01*
X188098225Y-96299625D01*
X188086980Y-96287218D01*
X188077005Y-96273769D01*
X188068397Y-96259407D01*
X188061238Y-96244270D01*
X188055597Y-96228505D01*
X188051529Y-96212262D01*
X188049072Y-96195699D01*
X188048250Y-96178975D01*
X188048250Y-95540225D01*
X188049072Y-95523501D01*
X188051529Y-95506938D01*
X188055597Y-95490695D01*
X188061238Y-95474930D01*
X188068397Y-95459793D01*
X188077005Y-95445431D01*
X188086980Y-95431982D01*
X188098225Y-95419575D01*
X188110632Y-95408330D01*
X188124081Y-95398355D01*
X188138443Y-95389747D01*
X188153580Y-95382588D01*
X188169345Y-95376947D01*
X188185588Y-95372879D01*
X188202151Y-95370422D01*
X188218875Y-95369600D01*
X188560125Y-95369600D01*
X188576849Y-95370422D01*
G37*
G36*
X196525699Y-94119872D02*
G01*
X196542262Y-94122329D01*
X196558505Y-94126397D01*
X196574270Y-94132038D01*
X196589407Y-94139197D01*
X196603769Y-94147805D01*
X196617218Y-94157780D01*
X196629625Y-94169025D01*
X196640870Y-94181432D01*
X196650845Y-94194881D01*
X196659453Y-94209243D01*
X196666612Y-94224380D01*
X196672253Y-94240145D01*
X196676321Y-94256388D01*
X196678778Y-94272951D01*
X196679600Y-94289675D01*
X196679600Y-94630925D01*
X196678778Y-94647649D01*
X196676321Y-94664212D01*
X196672253Y-94680455D01*
X196666612Y-94696220D01*
X196659453Y-94711357D01*
X196650845Y-94725719D01*
X196640870Y-94739168D01*
X196629625Y-94751575D01*
X196617218Y-94762820D01*
X196603769Y-94772795D01*
X196589407Y-94781403D01*
X196574270Y-94788562D01*
X196558505Y-94794203D01*
X196542262Y-94798271D01*
X196525699Y-94800728D01*
X196508975Y-94801550D01*
X195870225Y-94801550D01*
X195853501Y-94800728D01*
X195836938Y-94798271D01*
X195820695Y-94794203D01*
X195804930Y-94788562D01*
X195789793Y-94781403D01*
X195775431Y-94772795D01*
X195761982Y-94762820D01*
X195749575Y-94751575D01*
X195738330Y-94739168D01*
X195728355Y-94725719D01*
X195719747Y-94711357D01*
X195712588Y-94696220D01*
X195706947Y-94680455D01*
X195702879Y-94664212D01*
X195700422Y-94647649D01*
X195699600Y-94630925D01*
X195699600Y-94289675D01*
X195700422Y-94272951D01*
X195702879Y-94256388D01*
X195706947Y-94240145D01*
X195712588Y-94224380D01*
X195719747Y-94209243D01*
X195728355Y-94194881D01*
X195738330Y-94181432D01*
X195749575Y-94169025D01*
X195761982Y-94157780D01*
X195775431Y-94147805D01*
X195789793Y-94139197D01*
X195804930Y-94132038D01*
X195820695Y-94126397D01*
X195836938Y-94122329D01*
X195853501Y-94119872D01*
X195870225Y-94119050D01*
X196508975Y-94119050D01*
X196525699Y-94119872D01*
G37*
G36*
X196525699Y-92244872D02*
G01*
X196542262Y-92247329D01*
X196558505Y-92251397D01*
X196574270Y-92257038D01*
X196589407Y-92264197D01*
X196603769Y-92272805D01*
X196617218Y-92282780D01*
X196629625Y-92294025D01*
X196640870Y-92306432D01*
X196650845Y-92319881D01*
X196659453Y-92334243D01*
X196666612Y-92349380D01*
X196672253Y-92365145D01*
X196676321Y-92381388D01*
X196678778Y-92397951D01*
X196679600Y-92414675D01*
X196679600Y-92755925D01*
X196678778Y-92772649D01*
X196676321Y-92789212D01*
X196672253Y-92805455D01*
X196666612Y-92821220D01*
X196659453Y-92836357D01*
X196650845Y-92850719D01*
X196640870Y-92864168D01*
X196629625Y-92876575D01*
X196617218Y-92887820D01*
X196603769Y-92897795D01*
X196589407Y-92906403D01*
X196574270Y-92913562D01*
X196558505Y-92919203D01*
X196542262Y-92923271D01*
X196525699Y-92925728D01*
X196508975Y-92926550D01*
X195870225Y-92926550D01*
X195853501Y-92925728D01*
X195836938Y-92923271D01*
X195820695Y-92919203D01*
X195804930Y-92913562D01*
X195789793Y-92906403D01*
X195775431Y-92897795D01*
X195761982Y-92887820D01*
X195749575Y-92876575D01*
X195738330Y-92864168D01*
X195728355Y-92850719D01*
X195719747Y-92836357D01*
X195712588Y-92821220D01*
X195706947Y-92805455D01*
X195702879Y-92789212D01*
X195700422Y-92772649D01*
X195699600Y-92755925D01*
X195699600Y-92414675D01*
X195700422Y-92397951D01*
X195702879Y-92381388D01*
X195706947Y-92365145D01*
X195712588Y-92349380D01*
X195719747Y-92334243D01*
X195728355Y-92319881D01*
X195738330Y-92306432D01*
X195749575Y-92294025D01*
X195761982Y-92282780D01*
X195775431Y-92272805D01*
X195789793Y-92264197D01*
X195804930Y-92257038D01*
X195820695Y-92251397D01*
X195836938Y-92247329D01*
X195853501Y-92244872D01*
X195870225Y-92244050D01*
X196508975Y-92244050D01*
X196525699Y-92244872D01*
G37*
G36*
X190988499Y-110223472D02*
G01*
X191005062Y-110225929D01*
X191021305Y-110229997D01*
X191037070Y-110235638D01*
X191052207Y-110242797D01*
X191066569Y-110251405D01*
X191080018Y-110261380D01*
X191092425Y-110272625D01*
X191103670Y-110285032D01*
X191113645Y-110298481D01*
X191122253Y-110312843D01*
X191129412Y-110327980D01*
X191135053Y-110343745D01*
X191139121Y-110359988D01*
X191141578Y-110376551D01*
X191142400Y-110393275D01*
X191142400Y-110734525D01*
X191141578Y-110751249D01*
X191139121Y-110767812D01*
X191135053Y-110784055D01*
X191129412Y-110799820D01*
X191122253Y-110814957D01*
X191113645Y-110829319D01*
X191103670Y-110842768D01*
X191092425Y-110855175D01*
X191080018Y-110866420D01*
X191066569Y-110876395D01*
X191052207Y-110885003D01*
X191037070Y-110892162D01*
X191021305Y-110897803D01*
X191005062Y-110901871D01*
X190988499Y-110904328D01*
X190971775Y-110905150D01*
X190333025Y-110905150D01*
X190316301Y-110904328D01*
X190299738Y-110901871D01*
X190283495Y-110897803D01*
X190267730Y-110892162D01*
X190252593Y-110885003D01*
X190238231Y-110876395D01*
X190224782Y-110866420D01*
X190212375Y-110855175D01*
X190201130Y-110842768D01*
X190191155Y-110829319D01*
X190182547Y-110814957D01*
X190175388Y-110799820D01*
X190169747Y-110784055D01*
X190165679Y-110767812D01*
X190163222Y-110751249D01*
X190162400Y-110734525D01*
X190162400Y-110393275D01*
X190163222Y-110376551D01*
X190165679Y-110359988D01*
X190169747Y-110343745D01*
X190175388Y-110327980D01*
X190182547Y-110312843D01*
X190191155Y-110298481D01*
X190201130Y-110285032D01*
X190212375Y-110272625D01*
X190224782Y-110261380D01*
X190238231Y-110251405D01*
X190252593Y-110242797D01*
X190267730Y-110235638D01*
X190283495Y-110229997D01*
X190299738Y-110225929D01*
X190316301Y-110223472D01*
X190333025Y-110222650D01*
X190971775Y-110222650D01*
X190988499Y-110223472D01*
G37*
G36*
X190988499Y-108348472D02*
G01*
X191005062Y-108350929D01*
X191021305Y-108354997D01*
X191037070Y-108360638D01*
X191052207Y-108367797D01*
X191066569Y-108376405D01*
X191080018Y-108386380D01*
X191092425Y-108397625D01*
X191103670Y-108410032D01*
X191113645Y-108423481D01*
X191122253Y-108437843D01*
X191129412Y-108452980D01*
X191135053Y-108468745D01*
X191139121Y-108484988D01*
X191141578Y-108501551D01*
X191142400Y-108518275D01*
X191142400Y-108859525D01*
X191141578Y-108876249D01*
X191139121Y-108892812D01*
X191135053Y-108909055D01*
X191129412Y-108924820D01*
X191122253Y-108939957D01*
X191113645Y-108954319D01*
X191103670Y-108967768D01*
X191092425Y-108980175D01*
X191080018Y-108991420D01*
X191066569Y-109001395D01*
X191052207Y-109010003D01*
X191037070Y-109017162D01*
X191021305Y-109022803D01*
X191005062Y-109026871D01*
X190988499Y-109029328D01*
X190971775Y-109030150D01*
X190333025Y-109030150D01*
X190316301Y-109029328D01*
X190299738Y-109026871D01*
X190283495Y-109022803D01*
X190267730Y-109017162D01*
X190252593Y-109010003D01*
X190238231Y-109001395D01*
X190224782Y-108991420D01*
X190212375Y-108980175D01*
X190201130Y-108967768D01*
X190191155Y-108954319D01*
X190182547Y-108939957D01*
X190175388Y-108924820D01*
X190169747Y-108909055D01*
X190165679Y-108892812D01*
X190163222Y-108876249D01*
X190162400Y-108859525D01*
X190162400Y-108518275D01*
X190163222Y-108501551D01*
X190165679Y-108484988D01*
X190169747Y-108468745D01*
X190175388Y-108452980D01*
X190182547Y-108437843D01*
X190191155Y-108423481D01*
X190201130Y-108410032D01*
X190212375Y-108397625D01*
X190224782Y-108386380D01*
X190238231Y-108376405D01*
X190252593Y-108367797D01*
X190267730Y-108360638D01*
X190283495Y-108354997D01*
X190299738Y-108350929D01*
X190316301Y-108348472D01*
X190333025Y-108347650D01*
X190971775Y-108347650D01*
X190988499Y-108348472D01*
G37*
G36*
X207498499Y-97980672D02*
G01*
X207515062Y-97983129D01*
X207531305Y-97987197D01*
X207547070Y-97992838D01*
X207562207Y-97999997D01*
X207576569Y-98008605D01*
X207590018Y-98018580D01*
X207602425Y-98029825D01*
X207613670Y-98042232D01*
X207623645Y-98055681D01*
X207632253Y-98070043D01*
X207639412Y-98085180D01*
X207645053Y-98100945D01*
X207649121Y-98117188D01*
X207651578Y-98133751D01*
X207652400Y-98150475D01*
X207652400Y-98491725D01*
X207651578Y-98508449D01*
X207649121Y-98525012D01*
X207645053Y-98541255D01*
X207639412Y-98557020D01*
X207632253Y-98572157D01*
X207623645Y-98586519D01*
X207613670Y-98599968D01*
X207602425Y-98612375D01*
X207590018Y-98623620D01*
X207576569Y-98633595D01*
X207562207Y-98642203D01*
X207547070Y-98649362D01*
X207531305Y-98655003D01*
X207515062Y-98659071D01*
X207498499Y-98661528D01*
X207481775Y-98662350D01*
X206843025Y-98662350D01*
X206826301Y-98661528D01*
X206809738Y-98659071D01*
X206793495Y-98655003D01*
X206777730Y-98649362D01*
X206762593Y-98642203D01*
X206748231Y-98633595D01*
X206734782Y-98623620D01*
X206722375Y-98612375D01*
X206711130Y-98599968D01*
X206701155Y-98586519D01*
X206692547Y-98572157D01*
X206685388Y-98557020D01*
X206679747Y-98541255D01*
X206675679Y-98525012D01*
X206673222Y-98508449D01*
X206672400Y-98491725D01*
X206672400Y-98150475D01*
X206673222Y-98133751D01*
X206675679Y-98117188D01*
X206679747Y-98100945D01*
X206685388Y-98085180D01*
X206692547Y-98070043D01*
X206701155Y-98055681D01*
X206711130Y-98042232D01*
X206722375Y-98029825D01*
X206734782Y-98018580D01*
X206748231Y-98008605D01*
X206762593Y-97999997D01*
X206777730Y-97992838D01*
X206793495Y-97987197D01*
X206809738Y-97983129D01*
X206826301Y-97980672D01*
X206843025Y-97979850D01*
X207481775Y-97979850D01*
X207498499Y-97980672D01*
G37*
G36*
X207498499Y-96105672D02*
G01*
X207515062Y-96108129D01*
X207531305Y-96112197D01*
X207547070Y-96117838D01*
X207562207Y-96124997D01*
X207576569Y-96133605D01*
X207590018Y-96143580D01*
X207602425Y-96154825D01*
X207613670Y-96167232D01*
X207623645Y-96180681D01*
X207632253Y-96195043D01*
X207639412Y-96210180D01*
X207645053Y-96225945D01*
X207649121Y-96242188D01*
X207651578Y-96258751D01*
X207652400Y-96275475D01*
X207652400Y-96616725D01*
X207651578Y-96633449D01*
X207649121Y-96650012D01*
X207645053Y-96666255D01*
X207639412Y-96682020D01*
X207632253Y-96697157D01*
X207623645Y-96711519D01*
X207613670Y-96724968D01*
X207602425Y-96737375D01*
X207590018Y-96748620D01*
X207576569Y-96758595D01*
X207562207Y-96767203D01*
X207547070Y-96774362D01*
X207531305Y-96780003D01*
X207515062Y-96784071D01*
X207498499Y-96786528D01*
X207481775Y-96787350D01*
X206843025Y-96787350D01*
X206826301Y-96786528D01*
X206809738Y-96784071D01*
X206793495Y-96780003D01*
X206777730Y-96774362D01*
X206762593Y-96767203D01*
X206748231Y-96758595D01*
X206734782Y-96748620D01*
X206722375Y-96737375D01*
X206711130Y-96724968D01*
X206701155Y-96711519D01*
X206692547Y-96697157D01*
X206685388Y-96682020D01*
X206679747Y-96666255D01*
X206675679Y-96650012D01*
X206673222Y-96633449D01*
X206672400Y-96616725D01*
X206672400Y-96275475D01*
X206673222Y-96258751D01*
X206675679Y-96242188D01*
X206679747Y-96225945D01*
X206685388Y-96210180D01*
X206692547Y-96195043D01*
X206701155Y-96180681D01*
X206711130Y-96167232D01*
X206722375Y-96154825D01*
X206734782Y-96143580D01*
X206748231Y-96133605D01*
X206762593Y-96124997D01*
X206777730Y-96117838D01*
X206793495Y-96112197D01*
X206809738Y-96108129D01*
X206826301Y-96105672D01*
X206843025Y-96104850D01*
X207481775Y-96104850D01*
X207498499Y-96105672D01*
G37*
G36*
X203485299Y-109747772D02*
G01*
X203501862Y-109750229D01*
X203518105Y-109754297D01*
X203533870Y-109759938D01*
X203549007Y-109767097D01*
X203563369Y-109775705D01*
X203576818Y-109785680D01*
X203589225Y-109796925D01*
X203600470Y-109809332D01*
X203610445Y-109822781D01*
X203619053Y-109837143D01*
X203626212Y-109852280D01*
X203631853Y-109868045D01*
X203635921Y-109884288D01*
X203638378Y-109900851D01*
X203639200Y-109917575D01*
X203639200Y-110258825D01*
X203638378Y-110275549D01*
X203635921Y-110292112D01*
X203631853Y-110308355D01*
X203626212Y-110324120D01*
X203619053Y-110339257D01*
X203610445Y-110353619D01*
X203600470Y-110367068D01*
X203589225Y-110379475D01*
X203576818Y-110390720D01*
X203563369Y-110400695D01*
X203549007Y-110409303D01*
X203533870Y-110416462D01*
X203518105Y-110422103D01*
X203501862Y-110426171D01*
X203485299Y-110428628D01*
X203468575Y-110429450D01*
X202829825Y-110429450D01*
X202813101Y-110428628D01*
X202796538Y-110426171D01*
X202780295Y-110422103D01*
X202764530Y-110416462D01*
X202749393Y-110409303D01*
X202735031Y-110400695D01*
X202721582Y-110390720D01*
X202709175Y-110379475D01*
X202697930Y-110367068D01*
X202687955Y-110353619D01*
X202679347Y-110339257D01*
X202672188Y-110324120D01*
X202666547Y-110308355D01*
X202662479Y-110292112D01*
X202660022Y-110275549D01*
X202659200Y-110258825D01*
X202659200Y-109917575D01*
X202660022Y-109900851D01*
X202662479Y-109884288D01*
X202666547Y-109868045D01*
X202672188Y-109852280D01*
X202679347Y-109837143D01*
X202687955Y-109822781D01*
X202697930Y-109809332D01*
X202709175Y-109796925D01*
X202721582Y-109785680D01*
X202735031Y-109775705D01*
X202749393Y-109767097D01*
X202764530Y-109759938D01*
X202780295Y-109754297D01*
X202796538Y-109750229D01*
X202813101Y-109747772D01*
X202829825Y-109746950D01*
X203468575Y-109746950D01*
X203485299Y-109747772D01*
G37*
G36*
X203485299Y-111622772D02*
G01*
X203501862Y-111625229D01*
X203518105Y-111629297D01*
X203533870Y-111634938D01*
X203549007Y-111642097D01*
X203563369Y-111650705D01*
X203576818Y-111660680D01*
X203589225Y-111671925D01*
X203600470Y-111684332D01*
X203610445Y-111697781D01*
X203619053Y-111712143D01*
X203626212Y-111727280D01*
X203631853Y-111743045D01*
X203635921Y-111759288D01*
X203638378Y-111775851D01*
X203639200Y-111792575D01*
X203639200Y-112133825D01*
X203638378Y-112150549D01*
X203635921Y-112167112D01*
X203631853Y-112183355D01*
X203626212Y-112199120D01*
X203619053Y-112214257D01*
X203610445Y-112228619D01*
X203600470Y-112242068D01*
X203589225Y-112254475D01*
X203576818Y-112265720D01*
X203563369Y-112275695D01*
X203549007Y-112284303D01*
X203533870Y-112291462D01*
X203518105Y-112297103D01*
X203501862Y-112301171D01*
X203485299Y-112303628D01*
X203468575Y-112304450D01*
X202829825Y-112304450D01*
X202813101Y-112303628D01*
X202796538Y-112301171D01*
X202780295Y-112297103D01*
X202764530Y-112291462D01*
X202749393Y-112284303D01*
X202735031Y-112275695D01*
X202721582Y-112265720D01*
X202709175Y-112254475D01*
X202697930Y-112242068D01*
X202687955Y-112228619D01*
X202679347Y-112214257D01*
X202672188Y-112199120D01*
X202666547Y-112183355D01*
X202662479Y-112167112D01*
X202660022Y-112150549D01*
X202659200Y-112133825D01*
X202659200Y-111792575D01*
X202660022Y-111775851D01*
X202662479Y-111759288D01*
X202666547Y-111743045D01*
X202672188Y-111727280D01*
X202679347Y-111712143D01*
X202687955Y-111697781D01*
X202697930Y-111684332D01*
X202709175Y-111671925D01*
X202721582Y-111660680D01*
X202735031Y-111650705D01*
X202749393Y-111642097D01*
X202764530Y-111634938D01*
X202780295Y-111629297D01*
X202796538Y-111625229D01*
X202813101Y-111622772D01*
X202829825Y-111621950D01*
X203468575Y-111621950D01*
X203485299Y-111622772D01*
G37*
G36*
X209835299Y-111595072D02*
G01*
X209851862Y-111597529D01*
X209868105Y-111601597D01*
X209883870Y-111607238D01*
X209899007Y-111614397D01*
X209913369Y-111623005D01*
X209926818Y-111632980D01*
X209939225Y-111644225D01*
X209950470Y-111656632D01*
X209960445Y-111670081D01*
X209969053Y-111684443D01*
X209976212Y-111699580D01*
X209981853Y-111715345D01*
X209985921Y-111731588D01*
X209988378Y-111748151D01*
X209989200Y-111764875D01*
X209989200Y-112106125D01*
X209988378Y-112122849D01*
X209985921Y-112139412D01*
X209981853Y-112155655D01*
X209976212Y-112171420D01*
X209969053Y-112186557D01*
X209960445Y-112200919D01*
X209950470Y-112214368D01*
X209939225Y-112226775D01*
X209926818Y-112238020D01*
X209913369Y-112247995D01*
X209899007Y-112256603D01*
X209883870Y-112263762D01*
X209868105Y-112269403D01*
X209851862Y-112273471D01*
X209835299Y-112275928D01*
X209818575Y-112276750D01*
X209179825Y-112276750D01*
X209163101Y-112275928D01*
X209146538Y-112273471D01*
X209130295Y-112269403D01*
X209114530Y-112263762D01*
X209099393Y-112256603D01*
X209085031Y-112247995D01*
X209071582Y-112238020D01*
X209059175Y-112226775D01*
X209047930Y-112214368D01*
X209037955Y-112200919D01*
X209029347Y-112186557D01*
X209022188Y-112171420D01*
X209016547Y-112155655D01*
X209012479Y-112139412D01*
X209010022Y-112122849D01*
X209009200Y-112106125D01*
X209009200Y-111764875D01*
X209010022Y-111748151D01*
X209012479Y-111731588D01*
X209016547Y-111715345D01*
X209022188Y-111699580D01*
X209029347Y-111684443D01*
X209037955Y-111670081D01*
X209047930Y-111656632D01*
X209059175Y-111644225D01*
X209071582Y-111632980D01*
X209085031Y-111623005D01*
X209099393Y-111614397D01*
X209114530Y-111607238D01*
X209130295Y-111601597D01*
X209146538Y-111597529D01*
X209163101Y-111595072D01*
X209179825Y-111594250D01*
X209818575Y-111594250D01*
X209835299Y-111595072D01*
G37*
G36*
X209835299Y-109720072D02*
G01*
X209851862Y-109722529D01*
X209868105Y-109726597D01*
X209883870Y-109732238D01*
X209899007Y-109739397D01*
X209913369Y-109748005D01*
X209926818Y-109757980D01*
X209939225Y-109769225D01*
X209950470Y-109781632D01*
X209960445Y-109795081D01*
X209969053Y-109809443D01*
X209976212Y-109824580D01*
X209981853Y-109840345D01*
X209985921Y-109856588D01*
X209988378Y-109873151D01*
X209989200Y-109889875D01*
X209989200Y-110231125D01*
X209988378Y-110247849D01*
X209985921Y-110264412D01*
X209981853Y-110280655D01*
X209976212Y-110296420D01*
X209969053Y-110311557D01*
X209960445Y-110325919D01*
X209950470Y-110339368D01*
X209939225Y-110351775D01*
X209926818Y-110363020D01*
X209913369Y-110372995D01*
X209899007Y-110381603D01*
X209883870Y-110388762D01*
X209868105Y-110394403D01*
X209851862Y-110398471D01*
X209835299Y-110400928D01*
X209818575Y-110401750D01*
X209179825Y-110401750D01*
X209163101Y-110400928D01*
X209146538Y-110398471D01*
X209130295Y-110394403D01*
X209114530Y-110388762D01*
X209099393Y-110381603D01*
X209085031Y-110372995D01*
X209071582Y-110363020D01*
X209059175Y-110351775D01*
X209047930Y-110339368D01*
X209037955Y-110325919D01*
X209029347Y-110311557D01*
X209022188Y-110296420D01*
X209016547Y-110280655D01*
X209012479Y-110264412D01*
X209010022Y-110247849D01*
X209009200Y-110231125D01*
X209009200Y-109889875D01*
X209010022Y-109873151D01*
X209012479Y-109856588D01*
X209016547Y-109840345D01*
X209022188Y-109824580D01*
X209029347Y-109809443D01*
X209037955Y-109795081D01*
X209047930Y-109781632D01*
X209059175Y-109769225D01*
X209071582Y-109757980D01*
X209085031Y-109748005D01*
X209099393Y-109739397D01*
X209114530Y-109732238D01*
X209130295Y-109726597D01*
X209146538Y-109722529D01*
X209163101Y-109720072D01*
X209179825Y-109719250D01*
X209818575Y-109719250D01*
X209835299Y-109720072D01*
G37*
G36*
X201250099Y-107604972D02*
G01*
X201266662Y-107607429D01*
X201282905Y-107611497D01*
X201298670Y-107617138D01*
X201313807Y-107624297D01*
X201328169Y-107632905D01*
X201341618Y-107642880D01*
X201354025Y-107654125D01*
X201365270Y-107666532D01*
X201375245Y-107679981D01*
X201383853Y-107694343D01*
X201391012Y-107709480D01*
X201396653Y-107725245D01*
X201400721Y-107741488D01*
X201403178Y-107758051D01*
X201404000Y-107774775D01*
X201404000Y-108116025D01*
X201403178Y-108132749D01*
X201400721Y-108149312D01*
X201396653Y-108165555D01*
X201391012Y-108181320D01*
X201383853Y-108196457D01*
X201375245Y-108210819D01*
X201365270Y-108224268D01*
X201354025Y-108236675D01*
X201341618Y-108247920D01*
X201328169Y-108257895D01*
X201313807Y-108266503D01*
X201298670Y-108273662D01*
X201282905Y-108279303D01*
X201266662Y-108283371D01*
X201250099Y-108285828D01*
X201233375Y-108286650D01*
X200594625Y-108286650D01*
X200577901Y-108285828D01*
X200561338Y-108283371D01*
X200545095Y-108279303D01*
X200529330Y-108273662D01*
X200514193Y-108266503D01*
X200499831Y-108257895D01*
X200486382Y-108247920D01*
X200473975Y-108236675D01*
X200462730Y-108224268D01*
X200452755Y-108210819D01*
X200444147Y-108196457D01*
X200436988Y-108181320D01*
X200431347Y-108165555D01*
X200427279Y-108149312D01*
X200424822Y-108132749D01*
X200424000Y-108116025D01*
X200424000Y-107774775D01*
X200424822Y-107758051D01*
X200427279Y-107741488D01*
X200431347Y-107725245D01*
X200436988Y-107709480D01*
X200444147Y-107694343D01*
X200452755Y-107679981D01*
X200462730Y-107666532D01*
X200473975Y-107654125D01*
X200486382Y-107642880D01*
X200499831Y-107632905D01*
X200514193Y-107624297D01*
X200529330Y-107617138D01*
X200545095Y-107611497D01*
X200561338Y-107607429D01*
X200577901Y-107604972D01*
X200594625Y-107604150D01*
X201233375Y-107604150D01*
X201250099Y-107604972D01*
G37*
G36*
X201250099Y-105729972D02*
G01*
X201266662Y-105732429D01*
X201282905Y-105736497D01*
X201298670Y-105742138D01*
X201313807Y-105749297D01*
X201328169Y-105757905D01*
X201341618Y-105767880D01*
X201354025Y-105779125D01*
X201365270Y-105791532D01*
X201375245Y-105804981D01*
X201383853Y-105819343D01*
X201391012Y-105834480D01*
X201396653Y-105850245D01*
X201400721Y-105866488D01*
X201403178Y-105883051D01*
X201404000Y-105899775D01*
X201404000Y-106241025D01*
X201403178Y-106257749D01*
X201400721Y-106274312D01*
X201396653Y-106290555D01*
X201391012Y-106306320D01*
X201383853Y-106321457D01*
X201375245Y-106335819D01*
X201365270Y-106349268D01*
X201354025Y-106361675D01*
X201341618Y-106372920D01*
X201328169Y-106382895D01*
X201313807Y-106391503D01*
X201298670Y-106398662D01*
X201282905Y-106404303D01*
X201266662Y-106408371D01*
X201250099Y-106410828D01*
X201233375Y-106411650D01*
X200594625Y-106411650D01*
X200577901Y-106410828D01*
X200561338Y-106408371D01*
X200545095Y-106404303D01*
X200529330Y-106398662D01*
X200514193Y-106391503D01*
X200499831Y-106382895D01*
X200486382Y-106372920D01*
X200473975Y-106361675D01*
X200462730Y-106349268D01*
X200452755Y-106335819D01*
X200444147Y-106321457D01*
X200436988Y-106306320D01*
X200431347Y-106290555D01*
X200427279Y-106274312D01*
X200424822Y-106257749D01*
X200424000Y-106241025D01*
X200424000Y-105899775D01*
X200424822Y-105883051D01*
X200427279Y-105866488D01*
X200431347Y-105850245D01*
X200436988Y-105834480D01*
X200444147Y-105819343D01*
X200452755Y-105804981D01*
X200462730Y-105791532D01*
X200473975Y-105779125D01*
X200486382Y-105767880D01*
X200499831Y-105757905D01*
X200514193Y-105749297D01*
X200529330Y-105742138D01*
X200545095Y-105736497D01*
X200561338Y-105732429D01*
X200577901Y-105729972D01*
X200594625Y-105729150D01*
X201233375Y-105729150D01*
X201250099Y-105729972D01*
G37*
G36*
X220909699Y-100017272D02*
G01*
X220926262Y-100019729D01*
X220942505Y-100023797D01*
X220958270Y-100029438D01*
X220973407Y-100036597D01*
X220987769Y-100045205D01*
X221001218Y-100055180D01*
X221013625Y-100066425D01*
X221024870Y-100078832D01*
X221034845Y-100092281D01*
X221043453Y-100106643D01*
X221050612Y-100121780D01*
X221056253Y-100137545D01*
X221060321Y-100153788D01*
X221062778Y-100170351D01*
X221063600Y-100187075D01*
X221063600Y-100528325D01*
X221062778Y-100545049D01*
X221060321Y-100561612D01*
X221056253Y-100577855D01*
X221050612Y-100593620D01*
X221043453Y-100608757D01*
X221034845Y-100623119D01*
X221024870Y-100636568D01*
X221013625Y-100648975D01*
X221001218Y-100660220D01*
X220987769Y-100670195D01*
X220973407Y-100678803D01*
X220958270Y-100685962D01*
X220942505Y-100691603D01*
X220926262Y-100695671D01*
X220909699Y-100698128D01*
X220892975Y-100698950D01*
X220254225Y-100698950D01*
X220237501Y-100698128D01*
X220220938Y-100695671D01*
X220204695Y-100691603D01*
X220188930Y-100685962D01*
X220173793Y-100678803D01*
X220159431Y-100670195D01*
X220145982Y-100660220D01*
X220133575Y-100648975D01*
X220122330Y-100636568D01*
X220112355Y-100623119D01*
X220103747Y-100608757D01*
X220096588Y-100593620D01*
X220090947Y-100577855D01*
X220086879Y-100561612D01*
X220084422Y-100545049D01*
X220083600Y-100528325D01*
X220083600Y-100187075D01*
X220084422Y-100170351D01*
X220086879Y-100153788D01*
X220090947Y-100137545D01*
X220096588Y-100121780D01*
X220103747Y-100106643D01*
X220112355Y-100092281D01*
X220122330Y-100078832D01*
X220133575Y-100066425D01*
X220145982Y-100055180D01*
X220159431Y-100045205D01*
X220173793Y-100036597D01*
X220188930Y-100029438D01*
X220204695Y-100023797D01*
X220220938Y-100019729D01*
X220237501Y-100017272D01*
X220254225Y-100016450D01*
X220892975Y-100016450D01*
X220909699Y-100017272D01*
G37*
G36*
X220909699Y-101892272D02*
G01*
X220926262Y-101894729D01*
X220942505Y-101898797D01*
X220958270Y-101904438D01*
X220973407Y-101911597D01*
X220987769Y-101920205D01*
X221001218Y-101930180D01*
X221013625Y-101941425D01*
X221024870Y-101953832D01*
X221034845Y-101967281D01*
X221043453Y-101981643D01*
X221050612Y-101996780D01*
X221056253Y-102012545D01*
X221060321Y-102028788D01*
X221062778Y-102045351D01*
X221063600Y-102062075D01*
X221063600Y-102403325D01*
X221062778Y-102420049D01*
X221060321Y-102436612D01*
X221056253Y-102452855D01*
X221050612Y-102468620D01*
X221043453Y-102483757D01*
X221034845Y-102498119D01*
X221024870Y-102511568D01*
X221013625Y-102523975D01*
X221001218Y-102535220D01*
X220987769Y-102545195D01*
X220973407Y-102553803D01*
X220958270Y-102560962D01*
X220942505Y-102566603D01*
X220926262Y-102570671D01*
X220909699Y-102573128D01*
X220892975Y-102573950D01*
X220254225Y-102573950D01*
X220237501Y-102573128D01*
X220220938Y-102570671D01*
X220204695Y-102566603D01*
X220188930Y-102560962D01*
X220173793Y-102553803D01*
X220159431Y-102545195D01*
X220145982Y-102535220D01*
X220133575Y-102523975D01*
X220122330Y-102511568D01*
X220112355Y-102498119D01*
X220103747Y-102483757D01*
X220096588Y-102468620D01*
X220090947Y-102452855D01*
X220086879Y-102436612D01*
X220084422Y-102420049D01*
X220083600Y-102403325D01*
X220083600Y-102062075D01*
X220084422Y-102045351D01*
X220086879Y-102028788D01*
X220090947Y-102012545D01*
X220096588Y-101996780D01*
X220103747Y-101981643D01*
X220112355Y-101967281D01*
X220122330Y-101953832D01*
X220133575Y-101941425D01*
X220145982Y-101930180D01*
X220159431Y-101920205D01*
X220173793Y-101911597D01*
X220188930Y-101904438D01*
X220204695Y-101898797D01*
X220220938Y-101894729D01*
X220237501Y-101892272D01*
X220254225Y-101891450D01*
X220892975Y-101891450D01*
X220909699Y-101892272D01*
G37*
G36*
X224446249Y-101517222D02*
G01*
X224462812Y-101519679D01*
X224479055Y-101523747D01*
X224494820Y-101529388D01*
X224509957Y-101536547D01*
X224524319Y-101545155D01*
X224537768Y-101555130D01*
X224550175Y-101566375D01*
X224561420Y-101578782D01*
X224571395Y-101592231D01*
X224580003Y-101606593D01*
X224587162Y-101621730D01*
X224592803Y-101637495D01*
X224596871Y-101653738D01*
X224599328Y-101670301D01*
X224600150Y-101687025D01*
X224600150Y-102325775D01*
X224599328Y-102342499D01*
X224596871Y-102359062D01*
X224592803Y-102375305D01*
X224587162Y-102391070D01*
X224580003Y-102406207D01*
X224571395Y-102420569D01*
X224561420Y-102434018D01*
X224550175Y-102446425D01*
X224537768Y-102457670D01*
X224524319Y-102467645D01*
X224509957Y-102476253D01*
X224494820Y-102483412D01*
X224479055Y-102489053D01*
X224462812Y-102493121D01*
X224446249Y-102495578D01*
X224429525Y-102496400D01*
X224088275Y-102496400D01*
X224071551Y-102495578D01*
X224054988Y-102493121D01*
X224038745Y-102489053D01*
X224022980Y-102483412D01*
X224007843Y-102476253D01*
X223993481Y-102467645D01*
X223980032Y-102457670D01*
X223967625Y-102446425D01*
X223956380Y-102434018D01*
X223946405Y-102420569D01*
X223937797Y-102406207D01*
X223930638Y-102391070D01*
X223924997Y-102375305D01*
X223920929Y-102359062D01*
X223918472Y-102342499D01*
X223917650Y-102325775D01*
X223917650Y-101687025D01*
X223918472Y-101670301D01*
X223920929Y-101653738D01*
X223924997Y-101637495D01*
X223930638Y-101621730D01*
X223937797Y-101606593D01*
X223946405Y-101592231D01*
X223956380Y-101578782D01*
X223967625Y-101566375D01*
X223980032Y-101555130D01*
X223993481Y-101545155D01*
X224007843Y-101536547D01*
X224022980Y-101529388D01*
X224038745Y-101523747D01*
X224054988Y-101519679D01*
X224071551Y-101517222D01*
X224088275Y-101516400D01*
X224429525Y-101516400D01*
X224446249Y-101517222D01*
G37*
G36*
X226321249Y-101517222D02*
G01*
X226337812Y-101519679D01*
X226354055Y-101523747D01*
X226369820Y-101529388D01*
X226384957Y-101536547D01*
X226399319Y-101545155D01*
X226412768Y-101555130D01*
X226425175Y-101566375D01*
X226436420Y-101578782D01*
X226446395Y-101592231D01*
X226455003Y-101606593D01*
X226462162Y-101621730D01*
X226467803Y-101637495D01*
X226471871Y-101653738D01*
X226474328Y-101670301D01*
X226475150Y-101687025D01*
X226475150Y-102325775D01*
X226474328Y-102342499D01*
X226471871Y-102359062D01*
X226467803Y-102375305D01*
X226462162Y-102391070D01*
X226455003Y-102406207D01*
X226446395Y-102420569D01*
X226436420Y-102434018D01*
X226425175Y-102446425D01*
X226412768Y-102457670D01*
X226399319Y-102467645D01*
X226384957Y-102476253D01*
X226369820Y-102483412D01*
X226354055Y-102489053D01*
X226337812Y-102493121D01*
X226321249Y-102495578D01*
X226304525Y-102496400D01*
X225963275Y-102496400D01*
X225946551Y-102495578D01*
X225929988Y-102493121D01*
X225913745Y-102489053D01*
X225897980Y-102483412D01*
X225882843Y-102476253D01*
X225868481Y-102467645D01*
X225855032Y-102457670D01*
X225842625Y-102446425D01*
X225831380Y-102434018D01*
X225821405Y-102420569D01*
X225812797Y-102406207D01*
X225805638Y-102391070D01*
X225799997Y-102375305D01*
X225795929Y-102359062D01*
X225793472Y-102342499D01*
X225792650Y-102325775D01*
X225792650Y-101687025D01*
X225793472Y-101670301D01*
X225795929Y-101653738D01*
X225799997Y-101637495D01*
X225805638Y-101621730D01*
X225812797Y-101606593D01*
X225821405Y-101592231D01*
X225831380Y-101578782D01*
X225842625Y-101566375D01*
X225855032Y-101555130D01*
X225868481Y-101545155D01*
X225882843Y-101536547D01*
X225897980Y-101529388D01*
X225913745Y-101523747D01*
X225929988Y-101519679D01*
X225946551Y-101517222D01*
X225963275Y-101516400D01*
X226304525Y-101516400D01*
X226321249Y-101517222D01*
G37*
G36*
X226321249Y-105479622D02*
G01*
X226337812Y-105482079D01*
X226354055Y-105486147D01*
X226369820Y-105491788D01*
X226384957Y-105498947D01*
X226399319Y-105507555D01*
X226412768Y-105517530D01*
X226425175Y-105528775D01*
X226436420Y-105541182D01*
X226446395Y-105554631D01*
X226455003Y-105568993D01*
X226462162Y-105584130D01*
X226467803Y-105599895D01*
X226471871Y-105616138D01*
X226474328Y-105632701D01*
X226475150Y-105649425D01*
X226475150Y-106288175D01*
X226474328Y-106304899D01*
X226471871Y-106321462D01*
X226467803Y-106337705D01*
X226462162Y-106353470D01*
X226455003Y-106368607D01*
X226446395Y-106382969D01*
X226436420Y-106396418D01*
X226425175Y-106408825D01*
X226412768Y-106420070D01*
X226399319Y-106430045D01*
X226384957Y-106438653D01*
X226369820Y-106445812D01*
X226354055Y-106451453D01*
X226337812Y-106455521D01*
X226321249Y-106457978D01*
X226304525Y-106458800D01*
X225963275Y-106458800D01*
X225946551Y-106457978D01*
X225929988Y-106455521D01*
X225913745Y-106451453D01*
X225897980Y-106445812D01*
X225882843Y-106438653D01*
X225868481Y-106430045D01*
X225855032Y-106420070D01*
X225842625Y-106408825D01*
X225831380Y-106396418D01*
X225821405Y-106382969D01*
X225812797Y-106368607D01*
X225805638Y-106353470D01*
X225799997Y-106337705D01*
X225795929Y-106321462D01*
X225793472Y-106304899D01*
X225792650Y-106288175D01*
X225792650Y-105649425D01*
X225793472Y-105632701D01*
X225795929Y-105616138D01*
X225799997Y-105599895D01*
X225805638Y-105584130D01*
X225812797Y-105568993D01*
X225821405Y-105554631D01*
X225831380Y-105541182D01*
X225842625Y-105528775D01*
X225855032Y-105517530D01*
X225868481Y-105507555D01*
X225882843Y-105498947D01*
X225897980Y-105491788D01*
X225913745Y-105486147D01*
X225929988Y-105482079D01*
X225946551Y-105479622D01*
X225963275Y-105478800D01*
X226304525Y-105478800D01*
X226321249Y-105479622D01*
G37*
G36*
X224446249Y-105479622D02*
G01*
X224462812Y-105482079D01*
X224479055Y-105486147D01*
X224494820Y-105491788D01*
X224509957Y-105498947D01*
X224524319Y-105507555D01*
X224537768Y-105517530D01*
X224550175Y-105528775D01*
X224561420Y-105541182D01*
X224571395Y-105554631D01*
X224580003Y-105568993D01*
X224587162Y-105584130D01*
X224592803Y-105599895D01*
X224596871Y-105616138D01*
X224599328Y-105632701D01*
X224600150Y-105649425D01*
X224600150Y-106288175D01*
X224599328Y-106304899D01*
X224596871Y-106321462D01*
X224592803Y-106337705D01*
X224587162Y-106353470D01*
X224580003Y-106368607D01*
X224571395Y-106382969D01*
X224561420Y-106396418D01*
X224550175Y-106408825D01*
X224537768Y-106420070D01*
X224524319Y-106430045D01*
X224509957Y-106438653D01*
X224494820Y-106445812D01*
X224479055Y-106451453D01*
X224462812Y-106455521D01*
X224446249Y-106457978D01*
X224429525Y-106458800D01*
X224088275Y-106458800D01*
X224071551Y-106457978D01*
X224054988Y-106455521D01*
X224038745Y-106451453D01*
X224022980Y-106445812D01*
X224007843Y-106438653D01*
X223993481Y-106430045D01*
X223980032Y-106420070D01*
X223967625Y-106408825D01*
X223956380Y-106396418D01*
X223946405Y-106382969D01*
X223937797Y-106368607D01*
X223930638Y-106353470D01*
X223924997Y-106337705D01*
X223920929Y-106321462D01*
X223918472Y-106304899D01*
X223917650Y-106288175D01*
X223917650Y-105649425D01*
X223918472Y-105632701D01*
X223920929Y-105616138D01*
X223924997Y-105599895D01*
X223930638Y-105584130D01*
X223937797Y-105568993D01*
X223946405Y-105554631D01*
X223956380Y-105541182D01*
X223967625Y-105528775D01*
X223980032Y-105517530D01*
X223993481Y-105507555D01*
X224007843Y-105498947D01*
X224022980Y-105491788D01*
X224038745Y-105486147D01*
X224054988Y-105482079D01*
X224071551Y-105479622D01*
X224088275Y-105478800D01*
X224429525Y-105478800D01*
X224446249Y-105479622D01*
G37*
G36*
X193153449Y-115792022D02*
G01*
X193170012Y-115794479D01*
X193186255Y-115798547D01*
X193202020Y-115804188D01*
X193217157Y-115811347D01*
X193231519Y-115819955D01*
X193244968Y-115829930D01*
X193257375Y-115841175D01*
X193268620Y-115853582D01*
X193278595Y-115867031D01*
X193287203Y-115881393D01*
X193294362Y-115896530D01*
X193300003Y-115912295D01*
X193304071Y-115928538D01*
X193306528Y-115945101D01*
X193307350Y-115961825D01*
X193307350Y-116600575D01*
X193306528Y-116617299D01*
X193304071Y-116633862D01*
X193300003Y-116650105D01*
X193294362Y-116665870D01*
X193287203Y-116681007D01*
X193278595Y-116695369D01*
X193268620Y-116708818D01*
X193257375Y-116721225D01*
X193244968Y-116732470D01*
X193231519Y-116742445D01*
X193217157Y-116751053D01*
X193202020Y-116758212D01*
X193186255Y-116763853D01*
X193170012Y-116767921D01*
X193153449Y-116770378D01*
X193136725Y-116771200D01*
X192795475Y-116771200D01*
X192778751Y-116770378D01*
X192762188Y-116767921D01*
X192745945Y-116763853D01*
X192730180Y-116758212D01*
X192715043Y-116751053D01*
X192700681Y-116742445D01*
X192687232Y-116732470D01*
X192674825Y-116721225D01*
X192663580Y-116708818D01*
X192653605Y-116695369D01*
X192644997Y-116681007D01*
X192637838Y-116665870D01*
X192632197Y-116650105D01*
X192628129Y-116633862D01*
X192625672Y-116617299D01*
X192624850Y-116600575D01*
X192624850Y-115961825D01*
X192625672Y-115945101D01*
X192628129Y-115928538D01*
X192632197Y-115912295D01*
X192637838Y-115896530D01*
X192644997Y-115881393D01*
X192653605Y-115867031D01*
X192663580Y-115853582D01*
X192674825Y-115841175D01*
X192687232Y-115829930D01*
X192700681Y-115819955D01*
X192715043Y-115811347D01*
X192730180Y-115804188D01*
X192745945Y-115798547D01*
X192762188Y-115794479D01*
X192778751Y-115792022D01*
X192795475Y-115791200D01*
X193136725Y-115791200D01*
X193153449Y-115792022D01*
G37*
G36*
X195028449Y-115792022D02*
G01*
X195045012Y-115794479D01*
X195061255Y-115798547D01*
X195077020Y-115804188D01*
X195092157Y-115811347D01*
X195106519Y-115819955D01*
X195119968Y-115829930D01*
X195132375Y-115841175D01*
X195143620Y-115853582D01*
X195153595Y-115867031D01*
X195162203Y-115881393D01*
X195169362Y-115896530D01*
X195175003Y-115912295D01*
X195179071Y-115928538D01*
X195181528Y-115945101D01*
X195182350Y-115961825D01*
X195182350Y-116600575D01*
X195181528Y-116617299D01*
X195179071Y-116633862D01*
X195175003Y-116650105D01*
X195169362Y-116665870D01*
X195162203Y-116681007D01*
X195153595Y-116695369D01*
X195143620Y-116708818D01*
X195132375Y-116721225D01*
X195119968Y-116732470D01*
X195106519Y-116742445D01*
X195092157Y-116751053D01*
X195077020Y-116758212D01*
X195061255Y-116763853D01*
X195045012Y-116767921D01*
X195028449Y-116770378D01*
X195011725Y-116771200D01*
X194670475Y-116771200D01*
X194653751Y-116770378D01*
X194637188Y-116767921D01*
X194620945Y-116763853D01*
X194605180Y-116758212D01*
X194590043Y-116751053D01*
X194575681Y-116742445D01*
X194562232Y-116732470D01*
X194549825Y-116721225D01*
X194538580Y-116708818D01*
X194528605Y-116695369D01*
X194519997Y-116681007D01*
X194512838Y-116665870D01*
X194507197Y-116650105D01*
X194503129Y-116633862D01*
X194500672Y-116617299D01*
X194499850Y-116600575D01*
X194499850Y-115961825D01*
X194500672Y-115945101D01*
X194503129Y-115928538D01*
X194507197Y-115912295D01*
X194512838Y-115896530D01*
X194519997Y-115881393D01*
X194528605Y-115867031D01*
X194538580Y-115853582D01*
X194549825Y-115841175D01*
X194562232Y-115829930D01*
X194575681Y-115819955D01*
X194590043Y-115811347D01*
X194605180Y-115804188D01*
X194620945Y-115798547D01*
X194637188Y-115794479D01*
X194653751Y-115792022D01*
X194670475Y-115791200D01*
X195011725Y-115791200D01*
X195028449Y-115792022D01*
G37*
G36*
X192488449Y-101263222D02*
G01*
X192505012Y-101265679D01*
X192521255Y-101269747D01*
X192537020Y-101275388D01*
X192552157Y-101282547D01*
X192566519Y-101291155D01*
X192579968Y-101301130D01*
X192592375Y-101312375D01*
X192603620Y-101324782D01*
X192613595Y-101338231D01*
X192622203Y-101352593D01*
X192629362Y-101367730D01*
X192635003Y-101383495D01*
X192639071Y-101399738D01*
X192641528Y-101416301D01*
X192642350Y-101433025D01*
X192642350Y-102071775D01*
X192641528Y-102088499D01*
X192639071Y-102105062D01*
X192635003Y-102121305D01*
X192629362Y-102137070D01*
X192622203Y-102152207D01*
X192613595Y-102166569D01*
X192603620Y-102180018D01*
X192592375Y-102192425D01*
X192579968Y-102203670D01*
X192566519Y-102213645D01*
X192552157Y-102222253D01*
X192537020Y-102229412D01*
X192521255Y-102235053D01*
X192505012Y-102239121D01*
X192488449Y-102241578D01*
X192471725Y-102242400D01*
X192130475Y-102242400D01*
X192113751Y-102241578D01*
X192097188Y-102239121D01*
X192080945Y-102235053D01*
X192065180Y-102229412D01*
X192050043Y-102222253D01*
X192035681Y-102213645D01*
X192022232Y-102203670D01*
X192009825Y-102192425D01*
X191998580Y-102180018D01*
X191988605Y-102166569D01*
X191979997Y-102152207D01*
X191972838Y-102137070D01*
X191967197Y-102121305D01*
X191963129Y-102105062D01*
X191960672Y-102088499D01*
X191959850Y-102071775D01*
X191959850Y-101433025D01*
X191960672Y-101416301D01*
X191963129Y-101399738D01*
X191967197Y-101383495D01*
X191972838Y-101367730D01*
X191979997Y-101352593D01*
X191988605Y-101338231D01*
X191998580Y-101324782D01*
X192009825Y-101312375D01*
X192022232Y-101301130D01*
X192035681Y-101291155D01*
X192050043Y-101282547D01*
X192065180Y-101275388D01*
X192080945Y-101269747D01*
X192097188Y-101265679D01*
X192113751Y-101263222D01*
X192130475Y-101262400D01*
X192471725Y-101262400D01*
X192488449Y-101263222D01*
G37*
G36*
X190613449Y-101263222D02*
G01*
X190630012Y-101265679D01*
X190646255Y-101269747D01*
X190662020Y-101275388D01*
X190677157Y-101282547D01*
X190691519Y-101291155D01*
X190704968Y-101301130D01*
X190717375Y-101312375D01*
X190728620Y-101324782D01*
X190738595Y-101338231D01*
X190747203Y-101352593D01*
X190754362Y-101367730D01*
X190760003Y-101383495D01*
X190764071Y-101399738D01*
X190766528Y-101416301D01*
X190767350Y-101433025D01*
X190767350Y-102071775D01*
X190766528Y-102088499D01*
X190764071Y-102105062D01*
X190760003Y-102121305D01*
X190754362Y-102137070D01*
X190747203Y-102152207D01*
X190738595Y-102166569D01*
X190728620Y-102180018D01*
X190717375Y-102192425D01*
X190704968Y-102203670D01*
X190691519Y-102213645D01*
X190677157Y-102222253D01*
X190662020Y-102229412D01*
X190646255Y-102235053D01*
X190630012Y-102239121D01*
X190613449Y-102241578D01*
X190596725Y-102242400D01*
X190255475Y-102242400D01*
X190238751Y-102241578D01*
X190222188Y-102239121D01*
X190205945Y-102235053D01*
X190190180Y-102229412D01*
X190175043Y-102222253D01*
X190160681Y-102213645D01*
X190147232Y-102203670D01*
X190134825Y-102192425D01*
X190123580Y-102180018D01*
X190113605Y-102166569D01*
X190104997Y-102152207D01*
X190097838Y-102137070D01*
X190092197Y-102121305D01*
X190088129Y-102105062D01*
X190085672Y-102088499D01*
X190084850Y-102071775D01*
X190084850Y-101433025D01*
X190085672Y-101416301D01*
X190088129Y-101399738D01*
X190092197Y-101383495D01*
X190097838Y-101367730D01*
X190104997Y-101352593D01*
X190113605Y-101338231D01*
X190123580Y-101324782D01*
X190134825Y-101312375D01*
X190147232Y-101301130D01*
X190160681Y-101291155D01*
X190175043Y-101282547D01*
X190190180Y-101275388D01*
X190205945Y-101269747D01*
X190222188Y-101265679D01*
X190238751Y-101263222D01*
X190255475Y-101262400D01*
X190596725Y-101262400D01*
X190613449Y-101263222D01*
G37*
G36*
X190562649Y-104768422D02*
G01*
X190579212Y-104770879D01*
X190595455Y-104774947D01*
X190611220Y-104780588D01*
X190626357Y-104787747D01*
X190640719Y-104796355D01*
X190654168Y-104806330D01*
X190666575Y-104817575D01*
X190677820Y-104829982D01*
X190687795Y-104843431D01*
X190696403Y-104857793D01*
X190703562Y-104872930D01*
X190709203Y-104888695D01*
X190713271Y-104904938D01*
X190715728Y-104921501D01*
X190716550Y-104938225D01*
X190716550Y-105576975D01*
X190715728Y-105593699D01*
X190713271Y-105610262D01*
X190709203Y-105626505D01*
X190703562Y-105642270D01*
X190696403Y-105657407D01*
X190687795Y-105671769D01*
X190677820Y-105685218D01*
X190666575Y-105697625D01*
X190654168Y-105708870D01*
X190640719Y-105718845D01*
X190626357Y-105727453D01*
X190611220Y-105734612D01*
X190595455Y-105740253D01*
X190579212Y-105744321D01*
X190562649Y-105746778D01*
X190545925Y-105747600D01*
X190204675Y-105747600D01*
X190187951Y-105746778D01*
X190171388Y-105744321D01*
X190155145Y-105740253D01*
X190139380Y-105734612D01*
X190124243Y-105727453D01*
X190109881Y-105718845D01*
X190096432Y-105708870D01*
X190084025Y-105697625D01*
X190072780Y-105685218D01*
X190062805Y-105671769D01*
X190054197Y-105657407D01*
X190047038Y-105642270D01*
X190041397Y-105626505D01*
X190037329Y-105610262D01*
X190034872Y-105593699D01*
X190034050Y-105576975D01*
X190034050Y-104938225D01*
X190034872Y-104921501D01*
X190037329Y-104904938D01*
X190041397Y-104888695D01*
X190047038Y-104872930D01*
X190054197Y-104857793D01*
X190062805Y-104843431D01*
X190072780Y-104829982D01*
X190084025Y-104817575D01*
X190096432Y-104806330D01*
X190109881Y-104796355D01*
X190124243Y-104787747D01*
X190139380Y-104780588D01*
X190155145Y-104774947D01*
X190171388Y-104770879D01*
X190187951Y-104768422D01*
X190204675Y-104767600D01*
X190545925Y-104767600D01*
X190562649Y-104768422D01*
G37*
G36*
X192437649Y-104768422D02*
G01*
X192454212Y-104770879D01*
X192470455Y-104774947D01*
X192486220Y-104780588D01*
X192501357Y-104787747D01*
X192515719Y-104796355D01*
X192529168Y-104806330D01*
X192541575Y-104817575D01*
X192552820Y-104829982D01*
X192562795Y-104843431D01*
X192571403Y-104857793D01*
X192578562Y-104872930D01*
X192584203Y-104888695D01*
X192588271Y-104904938D01*
X192590728Y-104921501D01*
X192591550Y-104938225D01*
X192591550Y-105576975D01*
X192590728Y-105593699D01*
X192588271Y-105610262D01*
X192584203Y-105626505D01*
X192578562Y-105642270D01*
X192571403Y-105657407D01*
X192562795Y-105671769D01*
X192552820Y-105685218D01*
X192541575Y-105697625D01*
X192529168Y-105708870D01*
X192515719Y-105718845D01*
X192501357Y-105727453D01*
X192486220Y-105734612D01*
X192470455Y-105740253D01*
X192454212Y-105744321D01*
X192437649Y-105746778D01*
X192420925Y-105747600D01*
X192079675Y-105747600D01*
X192062951Y-105746778D01*
X192046388Y-105744321D01*
X192030145Y-105740253D01*
X192014380Y-105734612D01*
X191999243Y-105727453D01*
X191984881Y-105718845D01*
X191971432Y-105708870D01*
X191959025Y-105697625D01*
X191947780Y-105685218D01*
X191937805Y-105671769D01*
X191929197Y-105657407D01*
X191922038Y-105642270D01*
X191916397Y-105626505D01*
X191912329Y-105610262D01*
X191909872Y-105593699D01*
X191909050Y-105576975D01*
X191909050Y-104938225D01*
X191909872Y-104921501D01*
X191912329Y-104904938D01*
X191916397Y-104888695D01*
X191922038Y-104872930D01*
X191929197Y-104857793D01*
X191937805Y-104843431D01*
X191947780Y-104829982D01*
X191959025Y-104817575D01*
X191971432Y-104806330D01*
X191984881Y-104796355D01*
X191999243Y-104787747D01*
X192014380Y-104780588D01*
X192030145Y-104774947D01*
X192046388Y-104770879D01*
X192062951Y-104768422D01*
X192079675Y-104767600D01*
X192420925Y-104767600D01*
X192437649Y-104768422D01*
G37*
D14*
X206679800Y-93218000D03*
X203276200Y-93218000D03*
D13*
G36*
X214489449Y-105428822D02*
G01*
X214506012Y-105431279D01*
X214522255Y-105435347D01*
X214538020Y-105440988D01*
X214553157Y-105448147D01*
X214567519Y-105456755D01*
X214580968Y-105466730D01*
X214593375Y-105477975D01*
X214604620Y-105490382D01*
X214614595Y-105503831D01*
X214623203Y-105518193D01*
X214630362Y-105533330D01*
X214636003Y-105549095D01*
X214640071Y-105565338D01*
X214642528Y-105581901D01*
X214643350Y-105598625D01*
X214643350Y-106237375D01*
X214642528Y-106254099D01*
X214640071Y-106270662D01*
X214636003Y-106286905D01*
X214630362Y-106302670D01*
X214623203Y-106317807D01*
X214614595Y-106332169D01*
X214604620Y-106345618D01*
X214593375Y-106358025D01*
X214580968Y-106369270D01*
X214567519Y-106379245D01*
X214553157Y-106387853D01*
X214538020Y-106395012D01*
X214522255Y-106400653D01*
X214506012Y-106404721D01*
X214489449Y-106407178D01*
X214472725Y-106408000D01*
X214131475Y-106408000D01*
X214114751Y-106407178D01*
X214098188Y-106404721D01*
X214081945Y-106400653D01*
X214066180Y-106395012D01*
X214051043Y-106387853D01*
X214036681Y-106379245D01*
X214023232Y-106369270D01*
X214010825Y-106358025D01*
X213999580Y-106345618D01*
X213989605Y-106332169D01*
X213980997Y-106317807D01*
X213973838Y-106302670D01*
X213968197Y-106286905D01*
X213964129Y-106270662D01*
X213961672Y-106254099D01*
X213960850Y-106237375D01*
X213960850Y-105598625D01*
X213961672Y-105581901D01*
X213964129Y-105565338D01*
X213968197Y-105549095D01*
X213973838Y-105533330D01*
X213980997Y-105518193D01*
X213989605Y-105503831D01*
X213999580Y-105490382D01*
X214010825Y-105477975D01*
X214023232Y-105466730D01*
X214036681Y-105456755D01*
X214051043Y-105448147D01*
X214066180Y-105440988D01*
X214081945Y-105435347D01*
X214098188Y-105431279D01*
X214114751Y-105428822D01*
X214131475Y-105428000D01*
X214472725Y-105428000D01*
X214489449Y-105428822D01*
G37*
G36*
X216364449Y-105428822D02*
G01*
X216381012Y-105431279D01*
X216397255Y-105435347D01*
X216413020Y-105440988D01*
X216428157Y-105448147D01*
X216442519Y-105456755D01*
X216455968Y-105466730D01*
X216468375Y-105477975D01*
X216479620Y-105490382D01*
X216489595Y-105503831D01*
X216498203Y-105518193D01*
X216505362Y-105533330D01*
X216511003Y-105549095D01*
X216515071Y-105565338D01*
X216517528Y-105581901D01*
X216518350Y-105598625D01*
X216518350Y-106237375D01*
X216517528Y-106254099D01*
X216515071Y-106270662D01*
X216511003Y-106286905D01*
X216505362Y-106302670D01*
X216498203Y-106317807D01*
X216489595Y-106332169D01*
X216479620Y-106345618D01*
X216468375Y-106358025D01*
X216455968Y-106369270D01*
X216442519Y-106379245D01*
X216428157Y-106387853D01*
X216413020Y-106395012D01*
X216397255Y-106400653D01*
X216381012Y-106404721D01*
X216364449Y-106407178D01*
X216347725Y-106408000D01*
X216006475Y-106408000D01*
X215989751Y-106407178D01*
X215973188Y-106404721D01*
X215956945Y-106400653D01*
X215941180Y-106395012D01*
X215926043Y-106387853D01*
X215911681Y-106379245D01*
X215898232Y-106369270D01*
X215885825Y-106358025D01*
X215874580Y-106345618D01*
X215864605Y-106332169D01*
X215855997Y-106317807D01*
X215848838Y-106302670D01*
X215843197Y-106286905D01*
X215839129Y-106270662D01*
X215836672Y-106254099D01*
X215835850Y-106237375D01*
X215835850Y-105598625D01*
X215836672Y-105581901D01*
X215839129Y-105565338D01*
X215843197Y-105549095D01*
X215848838Y-105533330D01*
X215855997Y-105518193D01*
X215864605Y-105503831D01*
X215874580Y-105490382D01*
X215885825Y-105477975D01*
X215898232Y-105466730D01*
X215911681Y-105456755D01*
X215926043Y-105448147D01*
X215941180Y-105440988D01*
X215956945Y-105435347D01*
X215973188Y-105431279D01*
X215989751Y-105428822D01*
X216006475Y-105428000D01*
X216347725Y-105428000D01*
X216364449Y-105428822D01*
G37*
D15*
X198339200Y-92674400D03*
X198339200Y-94574400D03*
X200339200Y-93624400D03*
D13*
G36*
X213250792Y-99485506D02*
G01*
X213260984Y-99487018D01*
X213270980Y-99489521D01*
X213280682Y-99492993D01*
X213289997Y-99497398D01*
X213298835Y-99502696D01*
X213307111Y-99508834D01*
X213314746Y-99515754D01*
X213321666Y-99523389D01*
X213327804Y-99531665D01*
X213333102Y-99540503D01*
X213337507Y-99549818D01*
X213340979Y-99559520D01*
X213343482Y-99569516D01*
X213344994Y-99579708D01*
X213345500Y-99590000D01*
X213345500Y-99800000D01*
X213344994Y-99810292D01*
X213343482Y-99820484D01*
X213340979Y-99830480D01*
X213337507Y-99840182D01*
X213333102Y-99849497D01*
X213327804Y-99858335D01*
X213321666Y-99866611D01*
X213314746Y-99874246D01*
X213307111Y-99881166D01*
X213298835Y-99887304D01*
X213289997Y-99892602D01*
X213280682Y-99897007D01*
X213270980Y-99900479D01*
X213260984Y-99902982D01*
X213250792Y-99904494D01*
X213240500Y-99905000D01*
X212085500Y-99905000D01*
X212075208Y-99904494D01*
X212065016Y-99902982D01*
X212055020Y-99900479D01*
X212045318Y-99897007D01*
X212036003Y-99892602D01*
X212027165Y-99887304D01*
X212018889Y-99881166D01*
X212011254Y-99874246D01*
X212004334Y-99866611D01*
X211998196Y-99858335D01*
X211992898Y-99849497D01*
X211988493Y-99840182D01*
X211985021Y-99830480D01*
X211982518Y-99820484D01*
X211981006Y-99810292D01*
X211980500Y-99800000D01*
X211980500Y-99590000D01*
X211981006Y-99579708D01*
X211982518Y-99569516D01*
X211985021Y-99559520D01*
X211988493Y-99549818D01*
X211992898Y-99540503D01*
X211998196Y-99531665D01*
X212004334Y-99523389D01*
X212011254Y-99515754D01*
X212018889Y-99508834D01*
X212027165Y-99502696D01*
X212036003Y-99497398D01*
X212045318Y-99492993D01*
X212055020Y-99489521D01*
X212065016Y-99487018D01*
X212075208Y-99485506D01*
X212085500Y-99485000D01*
X213240500Y-99485000D01*
X213250792Y-99485506D01*
G37*
G36*
X213250792Y-100755506D02*
G01*
X213260984Y-100757018D01*
X213270980Y-100759521D01*
X213280682Y-100762993D01*
X213289997Y-100767398D01*
X213298835Y-100772696D01*
X213307111Y-100778834D01*
X213314746Y-100785754D01*
X213321666Y-100793389D01*
X213327804Y-100801665D01*
X213333102Y-100810503D01*
X213337507Y-100819818D01*
X213340979Y-100829520D01*
X213343482Y-100839516D01*
X213344994Y-100849708D01*
X213345500Y-100860000D01*
X213345500Y-101070000D01*
X213344994Y-101080292D01*
X213343482Y-101090484D01*
X213340979Y-101100480D01*
X213337507Y-101110182D01*
X213333102Y-101119497D01*
X213327804Y-101128335D01*
X213321666Y-101136611D01*
X213314746Y-101144246D01*
X213307111Y-101151166D01*
X213298835Y-101157304D01*
X213289997Y-101162602D01*
X213280682Y-101167007D01*
X213270980Y-101170479D01*
X213260984Y-101172982D01*
X213250792Y-101174494D01*
X213240500Y-101175000D01*
X212085500Y-101175000D01*
X212075208Y-101174494D01*
X212065016Y-101172982D01*
X212055020Y-101170479D01*
X212045318Y-101167007D01*
X212036003Y-101162602D01*
X212027165Y-101157304D01*
X212018889Y-101151166D01*
X212011254Y-101144246D01*
X212004334Y-101136611D01*
X211998196Y-101128335D01*
X211992898Y-101119497D01*
X211988493Y-101110182D01*
X211985021Y-101100480D01*
X211982518Y-101090484D01*
X211981006Y-101080292D01*
X211980500Y-101070000D01*
X211980500Y-100860000D01*
X211981006Y-100849708D01*
X211982518Y-100839516D01*
X211985021Y-100829520D01*
X211988493Y-100819818D01*
X211992898Y-100810503D01*
X211998196Y-100801665D01*
X212004334Y-100793389D01*
X212011254Y-100785754D01*
X212018889Y-100778834D01*
X212027165Y-100772696D01*
X212036003Y-100767398D01*
X212045318Y-100762993D01*
X212055020Y-100759521D01*
X212065016Y-100757018D01*
X212075208Y-100755506D01*
X212085500Y-100755000D01*
X213240500Y-100755000D01*
X213250792Y-100755506D01*
G37*
G36*
X213250792Y-102025506D02*
G01*
X213260984Y-102027018D01*
X213270980Y-102029521D01*
X213280682Y-102032993D01*
X213289997Y-102037398D01*
X213298835Y-102042696D01*
X213307111Y-102048834D01*
X213314746Y-102055754D01*
X213321666Y-102063389D01*
X213327804Y-102071665D01*
X213333102Y-102080503D01*
X213337507Y-102089818D01*
X213340979Y-102099520D01*
X213343482Y-102109516D01*
X213344994Y-102119708D01*
X213345500Y-102130000D01*
X213345500Y-102340000D01*
X213344994Y-102350292D01*
X213343482Y-102360484D01*
X213340979Y-102370480D01*
X213337507Y-102380182D01*
X213333102Y-102389497D01*
X213327804Y-102398335D01*
X213321666Y-102406611D01*
X213314746Y-102414246D01*
X213307111Y-102421166D01*
X213298835Y-102427304D01*
X213289997Y-102432602D01*
X213280682Y-102437007D01*
X213270980Y-102440479D01*
X213260984Y-102442982D01*
X213250792Y-102444494D01*
X213240500Y-102445000D01*
X212085500Y-102445000D01*
X212075208Y-102444494D01*
X212065016Y-102442982D01*
X212055020Y-102440479D01*
X212045318Y-102437007D01*
X212036003Y-102432602D01*
X212027165Y-102427304D01*
X212018889Y-102421166D01*
X212011254Y-102414246D01*
X212004334Y-102406611D01*
X211998196Y-102398335D01*
X211992898Y-102389497D01*
X211988493Y-102380182D01*
X211985021Y-102370480D01*
X211982518Y-102360484D01*
X211981006Y-102350292D01*
X211980500Y-102340000D01*
X211980500Y-102130000D01*
X211981006Y-102119708D01*
X211982518Y-102109516D01*
X211985021Y-102099520D01*
X211988493Y-102089818D01*
X211992898Y-102080503D01*
X211998196Y-102071665D01*
X212004334Y-102063389D01*
X212011254Y-102055754D01*
X212018889Y-102048834D01*
X212027165Y-102042696D01*
X212036003Y-102037398D01*
X212045318Y-102032993D01*
X212055020Y-102029521D01*
X212065016Y-102027018D01*
X212075208Y-102025506D01*
X212085500Y-102025000D01*
X213240500Y-102025000D01*
X213250792Y-102025506D01*
G37*
G36*
X213250792Y-103295506D02*
G01*
X213260984Y-103297018D01*
X213270980Y-103299521D01*
X213280682Y-103302993D01*
X213289997Y-103307398D01*
X213298835Y-103312696D01*
X213307111Y-103318834D01*
X213314746Y-103325754D01*
X213321666Y-103333389D01*
X213327804Y-103341665D01*
X213333102Y-103350503D01*
X213337507Y-103359818D01*
X213340979Y-103369520D01*
X213343482Y-103379516D01*
X213344994Y-103389708D01*
X213345500Y-103400000D01*
X213345500Y-103610000D01*
X213344994Y-103620292D01*
X213343482Y-103630484D01*
X213340979Y-103640480D01*
X213337507Y-103650182D01*
X213333102Y-103659497D01*
X213327804Y-103668335D01*
X213321666Y-103676611D01*
X213314746Y-103684246D01*
X213307111Y-103691166D01*
X213298835Y-103697304D01*
X213289997Y-103702602D01*
X213280682Y-103707007D01*
X213270980Y-103710479D01*
X213260984Y-103712982D01*
X213250792Y-103714494D01*
X213240500Y-103715000D01*
X212085500Y-103715000D01*
X212075208Y-103714494D01*
X212065016Y-103712982D01*
X212055020Y-103710479D01*
X212045318Y-103707007D01*
X212036003Y-103702602D01*
X212027165Y-103697304D01*
X212018889Y-103691166D01*
X212011254Y-103684246D01*
X212004334Y-103676611D01*
X211998196Y-103668335D01*
X211992898Y-103659497D01*
X211988493Y-103650182D01*
X211985021Y-103640480D01*
X211982518Y-103630484D01*
X211981006Y-103620292D01*
X211980500Y-103610000D01*
X211980500Y-103400000D01*
X211981006Y-103389708D01*
X211982518Y-103379516D01*
X211985021Y-103369520D01*
X211988493Y-103359818D01*
X211992898Y-103350503D01*
X211998196Y-103341665D01*
X212004334Y-103333389D01*
X212011254Y-103325754D01*
X212018889Y-103318834D01*
X212027165Y-103312696D01*
X212036003Y-103307398D01*
X212045318Y-103302993D01*
X212055020Y-103299521D01*
X212065016Y-103297018D01*
X212075208Y-103295506D01*
X212085500Y-103295000D01*
X213240500Y-103295000D01*
X213250792Y-103295506D01*
G37*
G36*
X218200792Y-103295506D02*
G01*
X218210984Y-103297018D01*
X218220980Y-103299521D01*
X218230682Y-103302993D01*
X218239997Y-103307398D01*
X218248835Y-103312696D01*
X218257111Y-103318834D01*
X218264746Y-103325754D01*
X218271666Y-103333389D01*
X218277804Y-103341665D01*
X218283102Y-103350503D01*
X218287507Y-103359818D01*
X218290979Y-103369520D01*
X218293482Y-103379516D01*
X218294994Y-103389708D01*
X218295500Y-103400000D01*
X218295500Y-103610000D01*
X218294994Y-103620292D01*
X218293482Y-103630484D01*
X218290979Y-103640480D01*
X218287507Y-103650182D01*
X218283102Y-103659497D01*
X218277804Y-103668335D01*
X218271666Y-103676611D01*
X218264746Y-103684246D01*
X218257111Y-103691166D01*
X218248835Y-103697304D01*
X218239997Y-103702602D01*
X218230682Y-103707007D01*
X218220980Y-103710479D01*
X218210984Y-103712982D01*
X218200792Y-103714494D01*
X218190500Y-103715000D01*
X217035500Y-103715000D01*
X217025208Y-103714494D01*
X217015016Y-103712982D01*
X217005020Y-103710479D01*
X216995318Y-103707007D01*
X216986003Y-103702602D01*
X216977165Y-103697304D01*
X216968889Y-103691166D01*
X216961254Y-103684246D01*
X216954334Y-103676611D01*
X216948196Y-103668335D01*
X216942898Y-103659497D01*
X216938493Y-103650182D01*
X216935021Y-103640480D01*
X216932518Y-103630484D01*
X216931006Y-103620292D01*
X216930500Y-103610000D01*
X216930500Y-103400000D01*
X216931006Y-103389708D01*
X216932518Y-103379516D01*
X216935021Y-103369520D01*
X216938493Y-103359818D01*
X216942898Y-103350503D01*
X216948196Y-103341665D01*
X216954334Y-103333389D01*
X216961254Y-103325754D01*
X216968889Y-103318834D01*
X216977165Y-103312696D01*
X216986003Y-103307398D01*
X216995318Y-103302993D01*
X217005020Y-103299521D01*
X217015016Y-103297018D01*
X217025208Y-103295506D01*
X217035500Y-103295000D01*
X218190500Y-103295000D01*
X218200792Y-103295506D01*
G37*
G36*
X218200792Y-102025506D02*
G01*
X218210984Y-102027018D01*
X218220980Y-102029521D01*
X218230682Y-102032993D01*
X218239997Y-102037398D01*
X218248835Y-102042696D01*
X218257111Y-102048834D01*
X218264746Y-102055754D01*
X218271666Y-102063389D01*
X218277804Y-102071665D01*
X218283102Y-102080503D01*
X218287507Y-102089818D01*
X218290979Y-102099520D01*
X218293482Y-102109516D01*
X218294994Y-102119708D01*
X218295500Y-102130000D01*
X218295500Y-102340000D01*
X218294994Y-102350292D01*
X218293482Y-102360484D01*
X218290979Y-102370480D01*
X218287507Y-102380182D01*
X218283102Y-102389497D01*
X218277804Y-102398335D01*
X218271666Y-102406611D01*
X218264746Y-102414246D01*
X218257111Y-102421166D01*
X218248835Y-102427304D01*
X218239997Y-102432602D01*
X218230682Y-102437007D01*
X218220980Y-102440479D01*
X218210984Y-102442982D01*
X218200792Y-102444494D01*
X218190500Y-102445000D01*
X217035500Y-102445000D01*
X217025208Y-102444494D01*
X217015016Y-102442982D01*
X217005020Y-102440479D01*
X216995318Y-102437007D01*
X216986003Y-102432602D01*
X216977165Y-102427304D01*
X216968889Y-102421166D01*
X216961254Y-102414246D01*
X216954334Y-102406611D01*
X216948196Y-102398335D01*
X216942898Y-102389497D01*
X216938493Y-102380182D01*
X216935021Y-102370480D01*
X216932518Y-102360484D01*
X216931006Y-102350292D01*
X216930500Y-102340000D01*
X216930500Y-102130000D01*
X216931006Y-102119708D01*
X216932518Y-102109516D01*
X216935021Y-102099520D01*
X216938493Y-102089818D01*
X216942898Y-102080503D01*
X216948196Y-102071665D01*
X216954334Y-102063389D01*
X216961254Y-102055754D01*
X216968889Y-102048834D01*
X216977165Y-102042696D01*
X216986003Y-102037398D01*
X216995318Y-102032993D01*
X217005020Y-102029521D01*
X217015016Y-102027018D01*
X217025208Y-102025506D01*
X217035500Y-102025000D01*
X218190500Y-102025000D01*
X218200792Y-102025506D01*
G37*
G36*
X218200792Y-100755506D02*
G01*
X218210984Y-100757018D01*
X218220980Y-100759521D01*
X218230682Y-100762993D01*
X218239997Y-100767398D01*
X218248835Y-100772696D01*
X218257111Y-100778834D01*
X218264746Y-100785754D01*
X218271666Y-100793389D01*
X218277804Y-100801665D01*
X218283102Y-100810503D01*
X218287507Y-100819818D01*
X218290979Y-100829520D01*
X218293482Y-100839516D01*
X218294994Y-100849708D01*
X218295500Y-100860000D01*
X218295500Y-101070000D01*
X218294994Y-101080292D01*
X218293482Y-101090484D01*
X218290979Y-101100480D01*
X218287507Y-101110182D01*
X218283102Y-101119497D01*
X218277804Y-101128335D01*
X218271666Y-101136611D01*
X218264746Y-101144246D01*
X218257111Y-101151166D01*
X218248835Y-101157304D01*
X218239997Y-101162602D01*
X218230682Y-101167007D01*
X218220980Y-101170479D01*
X218210984Y-101172982D01*
X218200792Y-101174494D01*
X218190500Y-101175000D01*
X217035500Y-101175000D01*
X217025208Y-101174494D01*
X217015016Y-101172982D01*
X217005020Y-101170479D01*
X216995318Y-101167007D01*
X216986003Y-101162602D01*
X216977165Y-101157304D01*
X216968889Y-101151166D01*
X216961254Y-101144246D01*
X216954334Y-101136611D01*
X216948196Y-101128335D01*
X216942898Y-101119497D01*
X216938493Y-101110182D01*
X216935021Y-101100480D01*
X216932518Y-101090484D01*
X216931006Y-101080292D01*
X216930500Y-101070000D01*
X216930500Y-100860000D01*
X216931006Y-100849708D01*
X216932518Y-100839516D01*
X216935021Y-100829520D01*
X216938493Y-100819818D01*
X216942898Y-100810503D01*
X216948196Y-100801665D01*
X216954334Y-100793389D01*
X216961254Y-100785754D01*
X216968889Y-100778834D01*
X216977165Y-100772696D01*
X216986003Y-100767398D01*
X216995318Y-100762993D01*
X217005020Y-100759521D01*
X217015016Y-100757018D01*
X217025208Y-100755506D01*
X217035500Y-100755000D01*
X218190500Y-100755000D01*
X218200792Y-100755506D01*
G37*
G36*
X218200792Y-99485506D02*
G01*
X218210984Y-99487018D01*
X218220980Y-99489521D01*
X218230682Y-99492993D01*
X218239997Y-99497398D01*
X218248835Y-99502696D01*
X218257111Y-99508834D01*
X218264746Y-99515754D01*
X218271666Y-99523389D01*
X218277804Y-99531665D01*
X218283102Y-99540503D01*
X218287507Y-99549818D01*
X218290979Y-99559520D01*
X218293482Y-99569516D01*
X218294994Y-99579708D01*
X218295500Y-99590000D01*
X218295500Y-99800000D01*
X218294994Y-99810292D01*
X218293482Y-99820484D01*
X218290979Y-99830480D01*
X218287507Y-99840182D01*
X218283102Y-99849497D01*
X218277804Y-99858335D01*
X218271666Y-99866611D01*
X218264746Y-99874246D01*
X218257111Y-99881166D01*
X218248835Y-99887304D01*
X218239997Y-99892602D01*
X218230682Y-99897007D01*
X218220980Y-99900479D01*
X218210984Y-99902982D01*
X218200792Y-99904494D01*
X218190500Y-99905000D01*
X217035500Y-99905000D01*
X217025208Y-99904494D01*
X217015016Y-99902982D01*
X217005020Y-99900479D01*
X216995318Y-99897007D01*
X216986003Y-99892602D01*
X216977165Y-99887304D01*
X216968889Y-99881166D01*
X216961254Y-99874246D01*
X216954334Y-99866611D01*
X216948196Y-99858335D01*
X216942898Y-99849497D01*
X216938493Y-99840182D01*
X216935021Y-99830480D01*
X216932518Y-99820484D01*
X216931006Y-99810292D01*
X216930500Y-99800000D01*
X216930500Y-99590000D01*
X216931006Y-99579708D01*
X216932518Y-99569516D01*
X216935021Y-99559520D01*
X216938493Y-99549818D01*
X216942898Y-99540503D01*
X216948196Y-99531665D01*
X216954334Y-99523389D01*
X216961254Y-99515754D01*
X216968889Y-99508834D01*
X216977165Y-99502696D01*
X216986003Y-99497398D01*
X216995318Y-99492993D01*
X217005020Y-99489521D01*
X217015016Y-99487018D01*
X217025208Y-99485506D01*
X217035500Y-99485000D01*
X218190500Y-99485000D01*
X218200792Y-99485506D01*
G37*
G36*
X187865649Y-101263222D02*
G01*
X187882212Y-101265679D01*
X187898455Y-101269747D01*
X187914220Y-101275388D01*
X187929357Y-101282547D01*
X187943719Y-101291155D01*
X187957168Y-101301130D01*
X187969575Y-101312375D01*
X187980820Y-101324782D01*
X187990795Y-101338231D01*
X187999403Y-101352593D01*
X188006562Y-101367730D01*
X188012203Y-101383495D01*
X188016271Y-101399738D01*
X188018728Y-101416301D01*
X188019550Y-101433025D01*
X188019550Y-102071775D01*
X188018728Y-102088499D01*
X188016271Y-102105062D01*
X188012203Y-102121305D01*
X188006562Y-102137070D01*
X187999403Y-102152207D01*
X187990795Y-102166569D01*
X187980820Y-102180018D01*
X187969575Y-102192425D01*
X187957168Y-102203670D01*
X187943719Y-102213645D01*
X187929357Y-102222253D01*
X187914220Y-102229412D01*
X187898455Y-102235053D01*
X187882212Y-102239121D01*
X187865649Y-102241578D01*
X187848925Y-102242400D01*
X187507675Y-102242400D01*
X187490951Y-102241578D01*
X187474388Y-102239121D01*
X187458145Y-102235053D01*
X187442380Y-102229412D01*
X187427243Y-102222253D01*
X187412881Y-102213645D01*
X187399432Y-102203670D01*
X187387025Y-102192425D01*
X187375780Y-102180018D01*
X187365805Y-102166569D01*
X187357197Y-102152207D01*
X187350038Y-102137070D01*
X187344397Y-102121305D01*
X187340329Y-102105062D01*
X187337872Y-102088499D01*
X187337050Y-102071775D01*
X187337050Y-101433025D01*
X187337872Y-101416301D01*
X187340329Y-101399738D01*
X187344397Y-101383495D01*
X187350038Y-101367730D01*
X187357197Y-101352593D01*
X187365805Y-101338231D01*
X187375780Y-101324782D01*
X187387025Y-101312375D01*
X187399432Y-101301130D01*
X187412881Y-101291155D01*
X187427243Y-101282547D01*
X187442380Y-101275388D01*
X187458145Y-101269747D01*
X187474388Y-101265679D01*
X187490951Y-101263222D01*
X187507675Y-101262400D01*
X187848925Y-101262400D01*
X187865649Y-101263222D01*
G37*
G36*
X185990649Y-101263222D02*
G01*
X186007212Y-101265679D01*
X186023455Y-101269747D01*
X186039220Y-101275388D01*
X186054357Y-101282547D01*
X186068719Y-101291155D01*
X186082168Y-101301130D01*
X186094575Y-101312375D01*
X186105820Y-101324782D01*
X186115795Y-101338231D01*
X186124403Y-101352593D01*
X186131562Y-101367730D01*
X186137203Y-101383495D01*
X186141271Y-101399738D01*
X186143728Y-101416301D01*
X186144550Y-101433025D01*
X186144550Y-102071775D01*
X186143728Y-102088499D01*
X186141271Y-102105062D01*
X186137203Y-102121305D01*
X186131562Y-102137070D01*
X186124403Y-102152207D01*
X186115795Y-102166569D01*
X186105820Y-102180018D01*
X186094575Y-102192425D01*
X186082168Y-102203670D01*
X186068719Y-102213645D01*
X186054357Y-102222253D01*
X186039220Y-102229412D01*
X186023455Y-102235053D01*
X186007212Y-102239121D01*
X185990649Y-102241578D01*
X185973925Y-102242400D01*
X185632675Y-102242400D01*
X185615951Y-102241578D01*
X185599388Y-102239121D01*
X185583145Y-102235053D01*
X185567380Y-102229412D01*
X185552243Y-102222253D01*
X185537881Y-102213645D01*
X185524432Y-102203670D01*
X185512025Y-102192425D01*
X185500780Y-102180018D01*
X185490805Y-102166569D01*
X185482197Y-102152207D01*
X185475038Y-102137070D01*
X185469397Y-102121305D01*
X185465329Y-102105062D01*
X185462872Y-102088499D01*
X185462050Y-102071775D01*
X185462050Y-101433025D01*
X185462872Y-101416301D01*
X185465329Y-101399738D01*
X185469397Y-101383495D01*
X185475038Y-101367730D01*
X185482197Y-101352593D01*
X185490805Y-101338231D01*
X185500780Y-101324782D01*
X185512025Y-101312375D01*
X185524432Y-101301130D01*
X185537881Y-101291155D01*
X185552243Y-101282547D01*
X185567380Y-101275388D01*
X185583145Y-101269747D01*
X185599388Y-101265679D01*
X185615951Y-101263222D01*
X185632675Y-101262400D01*
X185973925Y-101262400D01*
X185990649Y-101263222D01*
G37*
G36*
X185990649Y-104717622D02*
G01*
X186007212Y-104720079D01*
X186023455Y-104724147D01*
X186039220Y-104729788D01*
X186054357Y-104736947D01*
X186068719Y-104745555D01*
X186082168Y-104755530D01*
X186094575Y-104766775D01*
X186105820Y-104779182D01*
X186115795Y-104792631D01*
X186124403Y-104806993D01*
X186131562Y-104822130D01*
X186137203Y-104837895D01*
X186141271Y-104854138D01*
X186143728Y-104870701D01*
X186144550Y-104887425D01*
X186144550Y-105526175D01*
X186143728Y-105542899D01*
X186141271Y-105559462D01*
X186137203Y-105575705D01*
X186131562Y-105591470D01*
X186124403Y-105606607D01*
X186115795Y-105620969D01*
X186105820Y-105634418D01*
X186094575Y-105646825D01*
X186082168Y-105658070D01*
X186068719Y-105668045D01*
X186054357Y-105676653D01*
X186039220Y-105683812D01*
X186023455Y-105689453D01*
X186007212Y-105693521D01*
X185990649Y-105695978D01*
X185973925Y-105696800D01*
X185632675Y-105696800D01*
X185615951Y-105695978D01*
X185599388Y-105693521D01*
X185583145Y-105689453D01*
X185567380Y-105683812D01*
X185552243Y-105676653D01*
X185537881Y-105668045D01*
X185524432Y-105658070D01*
X185512025Y-105646825D01*
X185500780Y-105634418D01*
X185490805Y-105620969D01*
X185482197Y-105606607D01*
X185475038Y-105591470D01*
X185469397Y-105575705D01*
X185465329Y-105559462D01*
X185462872Y-105542899D01*
X185462050Y-105526175D01*
X185462050Y-104887425D01*
X185462872Y-104870701D01*
X185465329Y-104854138D01*
X185469397Y-104837895D01*
X185475038Y-104822130D01*
X185482197Y-104806993D01*
X185490805Y-104792631D01*
X185500780Y-104779182D01*
X185512025Y-104766775D01*
X185524432Y-104755530D01*
X185537881Y-104745555D01*
X185552243Y-104736947D01*
X185567380Y-104729788D01*
X185583145Y-104724147D01*
X185599388Y-104720079D01*
X185615951Y-104717622D01*
X185632675Y-104716800D01*
X185973925Y-104716800D01*
X185990649Y-104717622D01*
G37*
G36*
X187865649Y-104717622D02*
G01*
X187882212Y-104720079D01*
X187898455Y-104724147D01*
X187914220Y-104729788D01*
X187929357Y-104736947D01*
X187943719Y-104745555D01*
X187957168Y-104755530D01*
X187969575Y-104766775D01*
X187980820Y-104779182D01*
X187990795Y-104792631D01*
X187999403Y-104806993D01*
X188006562Y-104822130D01*
X188012203Y-104837895D01*
X188016271Y-104854138D01*
X188018728Y-104870701D01*
X188019550Y-104887425D01*
X188019550Y-105526175D01*
X188018728Y-105542899D01*
X188016271Y-105559462D01*
X188012203Y-105575705D01*
X188006562Y-105591470D01*
X187999403Y-105606607D01*
X187990795Y-105620969D01*
X187980820Y-105634418D01*
X187969575Y-105646825D01*
X187957168Y-105658070D01*
X187943719Y-105668045D01*
X187929357Y-105676653D01*
X187914220Y-105683812D01*
X187898455Y-105689453D01*
X187882212Y-105693521D01*
X187865649Y-105695978D01*
X187848925Y-105696800D01*
X187507675Y-105696800D01*
X187490951Y-105695978D01*
X187474388Y-105693521D01*
X187458145Y-105689453D01*
X187442380Y-105683812D01*
X187427243Y-105676653D01*
X187412881Y-105668045D01*
X187399432Y-105658070D01*
X187387025Y-105646825D01*
X187375780Y-105634418D01*
X187365805Y-105620969D01*
X187357197Y-105606607D01*
X187350038Y-105591470D01*
X187344397Y-105575705D01*
X187340329Y-105559462D01*
X187337872Y-105542899D01*
X187337050Y-105526175D01*
X187337050Y-104887425D01*
X187337872Y-104870701D01*
X187340329Y-104854138D01*
X187344397Y-104837895D01*
X187350038Y-104822130D01*
X187357197Y-104806993D01*
X187365805Y-104792631D01*
X187375780Y-104779182D01*
X187387025Y-104766775D01*
X187399432Y-104755530D01*
X187412881Y-104745555D01*
X187427243Y-104736947D01*
X187442380Y-104729788D01*
X187458145Y-104724147D01*
X187474388Y-104720079D01*
X187490951Y-104717622D01*
X187507675Y-104716800D01*
X187848925Y-104716800D01*
X187865649Y-104717622D01*
G37*
G36*
X188475249Y-92017622D02*
G01*
X188491812Y-92020079D01*
X188508055Y-92024147D01*
X188523820Y-92029788D01*
X188538957Y-92036947D01*
X188553319Y-92045555D01*
X188566768Y-92055530D01*
X188579175Y-92066775D01*
X188590420Y-92079182D01*
X188600395Y-92092631D01*
X188609003Y-92106993D01*
X188616162Y-92122130D01*
X188621803Y-92137895D01*
X188625871Y-92154138D01*
X188628328Y-92170701D01*
X188629150Y-92187425D01*
X188629150Y-92826175D01*
X188628328Y-92842899D01*
X188625871Y-92859462D01*
X188621803Y-92875705D01*
X188616162Y-92891470D01*
X188609003Y-92906607D01*
X188600395Y-92920969D01*
X188590420Y-92934418D01*
X188579175Y-92946825D01*
X188566768Y-92958070D01*
X188553319Y-92968045D01*
X188538957Y-92976653D01*
X188523820Y-92983812D01*
X188508055Y-92989453D01*
X188491812Y-92993521D01*
X188475249Y-92995978D01*
X188458525Y-92996800D01*
X188117275Y-92996800D01*
X188100551Y-92995978D01*
X188083988Y-92993521D01*
X188067745Y-92989453D01*
X188051980Y-92983812D01*
X188036843Y-92976653D01*
X188022481Y-92968045D01*
X188009032Y-92958070D01*
X187996625Y-92946825D01*
X187985380Y-92934418D01*
X187975405Y-92920969D01*
X187966797Y-92906607D01*
X187959638Y-92891470D01*
X187953997Y-92875705D01*
X187949929Y-92859462D01*
X187947472Y-92842899D01*
X187946650Y-92826175D01*
X187946650Y-92187425D01*
X187947472Y-92170701D01*
X187949929Y-92154138D01*
X187953997Y-92137895D01*
X187959638Y-92122130D01*
X187966797Y-92106993D01*
X187975405Y-92092631D01*
X187985380Y-92079182D01*
X187996625Y-92066775D01*
X188009032Y-92055530D01*
X188022481Y-92045555D01*
X188036843Y-92036947D01*
X188051980Y-92029788D01*
X188067745Y-92024147D01*
X188083988Y-92020079D01*
X188100551Y-92017622D01*
X188117275Y-92016800D01*
X188458525Y-92016800D01*
X188475249Y-92017622D01*
G37*
G36*
X186600249Y-92017622D02*
G01*
X186616812Y-92020079D01*
X186633055Y-92024147D01*
X186648820Y-92029788D01*
X186663957Y-92036947D01*
X186678319Y-92045555D01*
X186691768Y-92055530D01*
X186704175Y-92066775D01*
X186715420Y-92079182D01*
X186725395Y-92092631D01*
X186734003Y-92106993D01*
X186741162Y-92122130D01*
X186746803Y-92137895D01*
X186750871Y-92154138D01*
X186753328Y-92170701D01*
X186754150Y-92187425D01*
X186754150Y-92826175D01*
X186753328Y-92842899D01*
X186750871Y-92859462D01*
X186746803Y-92875705D01*
X186741162Y-92891470D01*
X186734003Y-92906607D01*
X186725395Y-92920969D01*
X186715420Y-92934418D01*
X186704175Y-92946825D01*
X186691768Y-92958070D01*
X186678319Y-92968045D01*
X186663957Y-92976653D01*
X186648820Y-92983812D01*
X186633055Y-92989453D01*
X186616812Y-92993521D01*
X186600249Y-92995978D01*
X186583525Y-92996800D01*
X186242275Y-92996800D01*
X186225551Y-92995978D01*
X186208988Y-92993521D01*
X186192745Y-92989453D01*
X186176980Y-92983812D01*
X186161843Y-92976653D01*
X186147481Y-92968045D01*
X186134032Y-92958070D01*
X186121625Y-92946825D01*
X186110380Y-92934418D01*
X186100405Y-92920969D01*
X186091797Y-92906607D01*
X186084638Y-92891470D01*
X186078997Y-92875705D01*
X186074929Y-92859462D01*
X186072472Y-92842899D01*
X186071650Y-92826175D01*
X186071650Y-92187425D01*
X186072472Y-92170701D01*
X186074929Y-92154138D01*
X186078997Y-92137895D01*
X186084638Y-92122130D01*
X186091797Y-92106993D01*
X186100405Y-92092631D01*
X186110380Y-92079182D01*
X186121625Y-92066775D01*
X186134032Y-92055530D01*
X186147481Y-92045555D01*
X186161843Y-92036947D01*
X186176980Y-92029788D01*
X186192745Y-92024147D01*
X186208988Y-92020079D01*
X186225551Y-92017622D01*
X186242275Y-92016800D01*
X186583525Y-92016800D01*
X186600249Y-92017622D01*
G37*
G36*
X202394449Y-96284822D02*
G01*
X202411012Y-96287279D01*
X202427255Y-96291347D01*
X202443020Y-96296988D01*
X202458157Y-96304147D01*
X202472519Y-96312755D01*
X202485968Y-96322730D01*
X202498375Y-96333975D01*
X202509620Y-96346382D01*
X202519595Y-96359831D01*
X202528203Y-96374193D01*
X202535362Y-96389330D01*
X202541003Y-96405095D01*
X202545071Y-96421338D01*
X202547528Y-96437901D01*
X202548350Y-96454625D01*
X202548350Y-97093375D01*
X202547528Y-97110099D01*
X202545071Y-97126662D01*
X202541003Y-97142905D01*
X202535362Y-97158670D01*
X202528203Y-97173807D01*
X202519595Y-97188169D01*
X202509620Y-97201618D01*
X202498375Y-97214025D01*
X202485968Y-97225270D01*
X202472519Y-97235245D01*
X202458157Y-97243853D01*
X202443020Y-97251012D01*
X202427255Y-97256653D01*
X202411012Y-97260721D01*
X202394449Y-97263178D01*
X202377725Y-97264000D01*
X202036475Y-97264000D01*
X202019751Y-97263178D01*
X202003188Y-97260721D01*
X201986945Y-97256653D01*
X201971180Y-97251012D01*
X201956043Y-97243853D01*
X201941681Y-97235245D01*
X201928232Y-97225270D01*
X201915825Y-97214025D01*
X201904580Y-97201618D01*
X201894605Y-97188169D01*
X201885997Y-97173807D01*
X201878838Y-97158670D01*
X201873197Y-97142905D01*
X201869129Y-97126662D01*
X201866672Y-97110099D01*
X201865850Y-97093375D01*
X201865850Y-96454625D01*
X201866672Y-96437901D01*
X201869129Y-96421338D01*
X201873197Y-96405095D01*
X201878838Y-96389330D01*
X201885997Y-96374193D01*
X201894605Y-96359831D01*
X201904580Y-96346382D01*
X201915825Y-96333975D01*
X201928232Y-96322730D01*
X201941681Y-96312755D01*
X201956043Y-96304147D01*
X201971180Y-96296988D01*
X201986945Y-96291347D01*
X202003188Y-96287279D01*
X202019751Y-96284822D01*
X202036475Y-96284000D01*
X202377725Y-96284000D01*
X202394449Y-96284822D01*
G37*
G36*
X200519449Y-96284822D02*
G01*
X200536012Y-96287279D01*
X200552255Y-96291347D01*
X200568020Y-96296988D01*
X200583157Y-96304147D01*
X200597519Y-96312755D01*
X200610968Y-96322730D01*
X200623375Y-96333975D01*
X200634620Y-96346382D01*
X200644595Y-96359831D01*
X200653203Y-96374193D01*
X200660362Y-96389330D01*
X200666003Y-96405095D01*
X200670071Y-96421338D01*
X200672528Y-96437901D01*
X200673350Y-96454625D01*
X200673350Y-97093375D01*
X200672528Y-97110099D01*
X200670071Y-97126662D01*
X200666003Y-97142905D01*
X200660362Y-97158670D01*
X200653203Y-97173807D01*
X200644595Y-97188169D01*
X200634620Y-97201618D01*
X200623375Y-97214025D01*
X200610968Y-97225270D01*
X200597519Y-97235245D01*
X200583157Y-97243853D01*
X200568020Y-97251012D01*
X200552255Y-97256653D01*
X200536012Y-97260721D01*
X200519449Y-97263178D01*
X200502725Y-97264000D01*
X200161475Y-97264000D01*
X200144751Y-97263178D01*
X200128188Y-97260721D01*
X200111945Y-97256653D01*
X200096180Y-97251012D01*
X200081043Y-97243853D01*
X200066681Y-97235245D01*
X200053232Y-97225270D01*
X200040825Y-97214025D01*
X200029580Y-97201618D01*
X200019605Y-97188169D01*
X200010997Y-97173807D01*
X200003838Y-97158670D01*
X199998197Y-97142905D01*
X199994129Y-97126662D01*
X199991672Y-97110099D01*
X199990850Y-97093375D01*
X199990850Y-96454625D01*
X199991672Y-96437901D01*
X199994129Y-96421338D01*
X199998197Y-96405095D01*
X200003838Y-96389330D01*
X200010997Y-96374193D01*
X200019605Y-96359831D01*
X200029580Y-96346382D01*
X200040825Y-96333975D01*
X200053232Y-96322730D01*
X200066681Y-96312755D01*
X200081043Y-96304147D01*
X200096180Y-96296988D01*
X200111945Y-96291347D01*
X200128188Y-96287279D01*
X200144751Y-96284822D01*
X200161475Y-96284000D01*
X200502725Y-96284000D01*
X200519449Y-96284822D01*
G37*
G36*
X198686049Y-96234022D02*
G01*
X198702612Y-96236479D01*
X198718855Y-96240547D01*
X198734620Y-96246188D01*
X198749757Y-96253347D01*
X198764119Y-96261955D01*
X198777568Y-96271930D01*
X198789975Y-96283175D01*
X198801220Y-96295582D01*
X198811195Y-96309031D01*
X198819803Y-96323393D01*
X198826962Y-96338530D01*
X198832603Y-96354295D01*
X198836671Y-96370538D01*
X198839128Y-96387101D01*
X198839950Y-96403825D01*
X198839950Y-97042575D01*
X198839128Y-97059299D01*
X198836671Y-97075862D01*
X198832603Y-97092105D01*
X198826962Y-97107870D01*
X198819803Y-97123007D01*
X198811195Y-97137369D01*
X198801220Y-97150818D01*
X198789975Y-97163225D01*
X198777568Y-97174470D01*
X198764119Y-97184445D01*
X198749757Y-97193053D01*
X198734620Y-97200212D01*
X198718855Y-97205853D01*
X198702612Y-97209921D01*
X198686049Y-97212378D01*
X198669325Y-97213200D01*
X198328075Y-97213200D01*
X198311351Y-97212378D01*
X198294788Y-97209921D01*
X198278545Y-97205853D01*
X198262780Y-97200212D01*
X198247643Y-97193053D01*
X198233281Y-97184445D01*
X198219832Y-97174470D01*
X198207425Y-97163225D01*
X198196180Y-97150818D01*
X198186205Y-97137369D01*
X198177597Y-97123007D01*
X198170438Y-97107870D01*
X198164797Y-97092105D01*
X198160729Y-97075862D01*
X198158272Y-97059299D01*
X198157450Y-97042575D01*
X198157450Y-96403825D01*
X198158272Y-96387101D01*
X198160729Y-96370538D01*
X198164797Y-96354295D01*
X198170438Y-96338530D01*
X198177597Y-96323393D01*
X198186205Y-96309031D01*
X198196180Y-96295582D01*
X198207425Y-96283175D01*
X198219832Y-96271930D01*
X198233281Y-96261955D01*
X198247643Y-96253347D01*
X198262780Y-96246188D01*
X198278545Y-96240547D01*
X198294788Y-96236479D01*
X198311351Y-96234022D01*
X198328075Y-96233200D01*
X198669325Y-96233200D01*
X198686049Y-96234022D01*
G37*
G36*
X196811049Y-96234022D02*
G01*
X196827612Y-96236479D01*
X196843855Y-96240547D01*
X196859620Y-96246188D01*
X196874757Y-96253347D01*
X196889119Y-96261955D01*
X196902568Y-96271930D01*
X196914975Y-96283175D01*
X196926220Y-96295582D01*
X196936195Y-96309031D01*
X196944803Y-96323393D01*
X196951962Y-96338530D01*
X196957603Y-96354295D01*
X196961671Y-96370538D01*
X196964128Y-96387101D01*
X196964950Y-96403825D01*
X196964950Y-97042575D01*
X196964128Y-97059299D01*
X196961671Y-97075862D01*
X196957603Y-97092105D01*
X196951962Y-97107870D01*
X196944803Y-97123007D01*
X196936195Y-97137369D01*
X196926220Y-97150818D01*
X196914975Y-97163225D01*
X196902568Y-97174470D01*
X196889119Y-97184445D01*
X196874757Y-97193053D01*
X196859620Y-97200212D01*
X196843855Y-97205853D01*
X196827612Y-97209921D01*
X196811049Y-97212378D01*
X196794325Y-97213200D01*
X196453075Y-97213200D01*
X196436351Y-97212378D01*
X196419788Y-97209921D01*
X196403545Y-97205853D01*
X196387780Y-97200212D01*
X196372643Y-97193053D01*
X196358281Y-97184445D01*
X196344832Y-97174470D01*
X196332425Y-97163225D01*
X196321180Y-97150818D01*
X196311205Y-97137369D01*
X196302597Y-97123007D01*
X196295438Y-97107870D01*
X196289797Y-97092105D01*
X196285729Y-97075862D01*
X196283272Y-97059299D01*
X196282450Y-97042575D01*
X196282450Y-96403825D01*
X196283272Y-96387101D01*
X196285729Y-96370538D01*
X196289797Y-96354295D01*
X196295438Y-96338530D01*
X196302597Y-96323393D01*
X196311205Y-96309031D01*
X196321180Y-96295582D01*
X196332425Y-96283175D01*
X196344832Y-96271930D01*
X196358281Y-96261955D01*
X196372643Y-96253347D01*
X196387780Y-96246188D01*
X196403545Y-96240547D01*
X196419788Y-96236479D01*
X196436351Y-96234022D01*
X196453075Y-96233200D01*
X196794325Y-96233200D01*
X196811049Y-96234022D01*
G37*
G36*
X186577149Y-111880422D02*
G01*
X186593712Y-111882879D01*
X186609955Y-111886947D01*
X186625720Y-111892588D01*
X186640857Y-111899747D01*
X186655219Y-111908355D01*
X186668668Y-111918330D01*
X186681075Y-111929575D01*
X186692320Y-111941982D01*
X186702295Y-111955431D01*
X186710903Y-111969793D01*
X186718062Y-111984930D01*
X186723703Y-112000695D01*
X186727771Y-112016938D01*
X186730228Y-112033501D01*
X186731050Y-112050225D01*
X186731050Y-112688975D01*
X186730228Y-112705699D01*
X186727771Y-112722262D01*
X186723703Y-112738505D01*
X186718062Y-112754270D01*
X186710903Y-112769407D01*
X186702295Y-112783769D01*
X186692320Y-112797218D01*
X186681075Y-112809625D01*
X186668668Y-112820870D01*
X186655219Y-112830845D01*
X186640857Y-112839453D01*
X186625720Y-112846612D01*
X186609955Y-112852253D01*
X186593712Y-112856321D01*
X186577149Y-112858778D01*
X186560425Y-112859600D01*
X186219175Y-112859600D01*
X186202451Y-112858778D01*
X186185888Y-112856321D01*
X186169645Y-112852253D01*
X186153880Y-112846612D01*
X186138743Y-112839453D01*
X186124381Y-112830845D01*
X186110932Y-112820870D01*
X186098525Y-112809625D01*
X186087280Y-112797218D01*
X186077305Y-112783769D01*
X186068697Y-112769407D01*
X186061538Y-112754270D01*
X186055897Y-112738505D01*
X186051829Y-112722262D01*
X186049372Y-112705699D01*
X186048550Y-112688975D01*
X186048550Y-112050225D01*
X186049372Y-112033501D01*
X186051829Y-112016938D01*
X186055897Y-112000695D01*
X186061538Y-111984930D01*
X186068697Y-111969793D01*
X186077305Y-111955431D01*
X186087280Y-111941982D01*
X186098525Y-111929575D01*
X186110932Y-111918330D01*
X186124381Y-111908355D01*
X186138743Y-111899747D01*
X186153880Y-111892588D01*
X186169645Y-111886947D01*
X186185888Y-111882879D01*
X186202451Y-111880422D01*
X186219175Y-111879600D01*
X186560425Y-111879600D01*
X186577149Y-111880422D01*
G37*
G36*
X188452149Y-111880422D02*
G01*
X188468712Y-111882879D01*
X188484955Y-111886947D01*
X188500720Y-111892588D01*
X188515857Y-111899747D01*
X188530219Y-111908355D01*
X188543668Y-111918330D01*
X188556075Y-111929575D01*
X188567320Y-111941982D01*
X188577295Y-111955431D01*
X188585903Y-111969793D01*
X188593062Y-111984930D01*
X188598703Y-112000695D01*
X188602771Y-112016938D01*
X188605228Y-112033501D01*
X188606050Y-112050225D01*
X188606050Y-112688975D01*
X188605228Y-112705699D01*
X188602771Y-112722262D01*
X188598703Y-112738505D01*
X188593062Y-112754270D01*
X188585903Y-112769407D01*
X188577295Y-112783769D01*
X188567320Y-112797218D01*
X188556075Y-112809625D01*
X188543668Y-112820870D01*
X188530219Y-112830845D01*
X188515857Y-112839453D01*
X188500720Y-112846612D01*
X188484955Y-112852253D01*
X188468712Y-112856321D01*
X188452149Y-112858778D01*
X188435425Y-112859600D01*
X188094175Y-112859600D01*
X188077451Y-112858778D01*
X188060888Y-112856321D01*
X188044645Y-112852253D01*
X188028880Y-112846612D01*
X188013743Y-112839453D01*
X187999381Y-112830845D01*
X187985932Y-112820870D01*
X187973525Y-112809625D01*
X187962280Y-112797218D01*
X187952305Y-112783769D01*
X187943697Y-112769407D01*
X187936538Y-112754270D01*
X187930897Y-112738505D01*
X187926829Y-112722262D01*
X187924372Y-112705699D01*
X187923550Y-112688975D01*
X187923550Y-112050225D01*
X187924372Y-112033501D01*
X187926829Y-112016938D01*
X187930897Y-112000695D01*
X187936538Y-111984930D01*
X187943697Y-111969793D01*
X187952305Y-111955431D01*
X187962280Y-111941982D01*
X187973525Y-111929575D01*
X187985932Y-111918330D01*
X187999381Y-111908355D01*
X188013743Y-111899747D01*
X188028880Y-111892588D01*
X188044645Y-111886947D01*
X188060888Y-111882879D01*
X188077451Y-111880422D01*
X188094175Y-111879600D01*
X188435425Y-111879600D01*
X188452149Y-111880422D01*
G37*
G36*
X186526349Y-108426022D02*
G01*
X186542912Y-108428479D01*
X186559155Y-108432547D01*
X186574920Y-108438188D01*
X186590057Y-108445347D01*
X186604419Y-108453955D01*
X186617868Y-108463930D01*
X186630275Y-108475175D01*
X186641520Y-108487582D01*
X186651495Y-108501031D01*
X186660103Y-108515393D01*
X186667262Y-108530530D01*
X186672903Y-108546295D01*
X186676971Y-108562538D01*
X186679428Y-108579101D01*
X186680250Y-108595825D01*
X186680250Y-109234575D01*
X186679428Y-109251299D01*
X186676971Y-109267862D01*
X186672903Y-109284105D01*
X186667262Y-109299870D01*
X186660103Y-109315007D01*
X186651495Y-109329369D01*
X186641520Y-109342818D01*
X186630275Y-109355225D01*
X186617868Y-109366470D01*
X186604419Y-109376445D01*
X186590057Y-109385053D01*
X186574920Y-109392212D01*
X186559155Y-109397853D01*
X186542912Y-109401921D01*
X186526349Y-109404378D01*
X186509625Y-109405200D01*
X186168375Y-109405200D01*
X186151651Y-109404378D01*
X186135088Y-109401921D01*
X186118845Y-109397853D01*
X186103080Y-109392212D01*
X186087943Y-109385053D01*
X186073581Y-109376445D01*
X186060132Y-109366470D01*
X186047725Y-109355225D01*
X186036480Y-109342818D01*
X186026505Y-109329369D01*
X186017897Y-109315007D01*
X186010738Y-109299870D01*
X186005097Y-109284105D01*
X186001029Y-109267862D01*
X185998572Y-109251299D01*
X185997750Y-109234575D01*
X185997750Y-108595825D01*
X185998572Y-108579101D01*
X186001029Y-108562538D01*
X186005097Y-108546295D01*
X186010738Y-108530530D01*
X186017897Y-108515393D01*
X186026505Y-108501031D01*
X186036480Y-108487582D01*
X186047725Y-108475175D01*
X186060132Y-108463930D01*
X186073581Y-108453955D01*
X186087943Y-108445347D01*
X186103080Y-108438188D01*
X186118845Y-108432547D01*
X186135088Y-108428479D01*
X186151651Y-108426022D01*
X186168375Y-108425200D01*
X186509625Y-108425200D01*
X186526349Y-108426022D01*
G37*
G36*
X188401349Y-108426022D02*
G01*
X188417912Y-108428479D01*
X188434155Y-108432547D01*
X188449920Y-108438188D01*
X188465057Y-108445347D01*
X188479419Y-108453955D01*
X188492868Y-108463930D01*
X188505275Y-108475175D01*
X188516520Y-108487582D01*
X188526495Y-108501031D01*
X188535103Y-108515393D01*
X188542262Y-108530530D01*
X188547903Y-108546295D01*
X188551971Y-108562538D01*
X188554428Y-108579101D01*
X188555250Y-108595825D01*
X188555250Y-109234575D01*
X188554428Y-109251299D01*
X188551971Y-109267862D01*
X188547903Y-109284105D01*
X188542262Y-109299870D01*
X188535103Y-109315007D01*
X188526495Y-109329369D01*
X188516520Y-109342818D01*
X188505275Y-109355225D01*
X188492868Y-109366470D01*
X188479419Y-109376445D01*
X188465057Y-109385053D01*
X188449920Y-109392212D01*
X188434155Y-109397853D01*
X188417912Y-109401921D01*
X188401349Y-109404378D01*
X188384625Y-109405200D01*
X188043375Y-109405200D01*
X188026651Y-109404378D01*
X188010088Y-109401921D01*
X187993845Y-109397853D01*
X187978080Y-109392212D01*
X187962943Y-109385053D01*
X187948581Y-109376445D01*
X187935132Y-109366470D01*
X187922725Y-109355225D01*
X187911480Y-109342818D01*
X187901505Y-109329369D01*
X187892897Y-109315007D01*
X187885738Y-109299870D01*
X187880097Y-109284105D01*
X187876029Y-109267862D01*
X187873572Y-109251299D01*
X187872750Y-109234575D01*
X187872750Y-108595825D01*
X187873572Y-108579101D01*
X187876029Y-108562538D01*
X187880097Y-108546295D01*
X187885738Y-108530530D01*
X187892897Y-108515393D01*
X187901505Y-108501031D01*
X187911480Y-108487582D01*
X187922725Y-108475175D01*
X187935132Y-108463930D01*
X187948581Y-108453955D01*
X187962943Y-108445347D01*
X187978080Y-108438188D01*
X187993845Y-108432547D01*
X188010088Y-108428479D01*
X188026651Y-108426022D01*
X188043375Y-108425200D01*
X188384625Y-108425200D01*
X188401349Y-108426022D01*
G37*
G36*
X209886099Y-97980672D02*
G01*
X209902662Y-97983129D01*
X209918905Y-97987197D01*
X209934670Y-97992838D01*
X209949807Y-97999997D01*
X209964169Y-98008605D01*
X209977618Y-98018580D01*
X209990025Y-98029825D01*
X210001270Y-98042232D01*
X210011245Y-98055681D01*
X210019853Y-98070043D01*
X210027012Y-98085180D01*
X210032653Y-98100945D01*
X210036721Y-98117188D01*
X210039178Y-98133751D01*
X210040000Y-98150475D01*
X210040000Y-98491725D01*
X210039178Y-98508449D01*
X210036721Y-98525012D01*
X210032653Y-98541255D01*
X210027012Y-98557020D01*
X210019853Y-98572157D01*
X210011245Y-98586519D01*
X210001270Y-98599968D01*
X209990025Y-98612375D01*
X209977618Y-98623620D01*
X209964169Y-98633595D01*
X209949807Y-98642203D01*
X209934670Y-98649362D01*
X209918905Y-98655003D01*
X209902662Y-98659071D01*
X209886099Y-98661528D01*
X209869375Y-98662350D01*
X209230625Y-98662350D01*
X209213901Y-98661528D01*
X209197338Y-98659071D01*
X209181095Y-98655003D01*
X209165330Y-98649362D01*
X209150193Y-98642203D01*
X209135831Y-98633595D01*
X209122382Y-98623620D01*
X209109975Y-98612375D01*
X209098730Y-98599968D01*
X209088755Y-98586519D01*
X209080147Y-98572157D01*
X209072988Y-98557020D01*
X209067347Y-98541255D01*
X209063279Y-98525012D01*
X209060822Y-98508449D01*
X209060000Y-98491725D01*
X209060000Y-98150475D01*
X209060822Y-98133751D01*
X209063279Y-98117188D01*
X209067347Y-98100945D01*
X209072988Y-98085180D01*
X209080147Y-98070043D01*
X209088755Y-98055681D01*
X209098730Y-98042232D01*
X209109975Y-98029825D01*
X209122382Y-98018580D01*
X209135831Y-98008605D01*
X209150193Y-97999997D01*
X209165330Y-97992838D01*
X209181095Y-97987197D01*
X209197338Y-97983129D01*
X209213901Y-97980672D01*
X209230625Y-97979850D01*
X209869375Y-97979850D01*
X209886099Y-97980672D01*
G37*
G36*
X209886099Y-96105672D02*
G01*
X209902662Y-96108129D01*
X209918905Y-96112197D01*
X209934670Y-96117838D01*
X209949807Y-96124997D01*
X209964169Y-96133605D01*
X209977618Y-96143580D01*
X209990025Y-96154825D01*
X210001270Y-96167232D01*
X210011245Y-96180681D01*
X210019853Y-96195043D01*
X210027012Y-96210180D01*
X210032653Y-96225945D01*
X210036721Y-96242188D01*
X210039178Y-96258751D01*
X210040000Y-96275475D01*
X210040000Y-96616725D01*
X210039178Y-96633449D01*
X210036721Y-96650012D01*
X210032653Y-96666255D01*
X210027012Y-96682020D01*
X210019853Y-96697157D01*
X210011245Y-96711519D01*
X210001270Y-96724968D01*
X209990025Y-96737375D01*
X209977618Y-96748620D01*
X209964169Y-96758595D01*
X209949807Y-96767203D01*
X209934670Y-96774362D01*
X209918905Y-96780003D01*
X209902662Y-96784071D01*
X209886099Y-96786528D01*
X209869375Y-96787350D01*
X209230625Y-96787350D01*
X209213901Y-96786528D01*
X209197338Y-96784071D01*
X209181095Y-96780003D01*
X209165330Y-96774362D01*
X209150193Y-96767203D01*
X209135831Y-96758595D01*
X209122382Y-96748620D01*
X209109975Y-96737375D01*
X209098730Y-96724968D01*
X209088755Y-96711519D01*
X209080147Y-96697157D01*
X209072988Y-96682020D01*
X209067347Y-96666255D01*
X209063279Y-96650012D01*
X209060822Y-96633449D01*
X209060000Y-96616725D01*
X209060000Y-96275475D01*
X209060822Y-96258751D01*
X209063279Y-96242188D01*
X209067347Y-96225945D01*
X209072988Y-96210180D01*
X209080147Y-96195043D01*
X209088755Y-96180681D01*
X209098730Y-96167232D01*
X209109975Y-96154825D01*
X209122382Y-96143580D01*
X209135831Y-96133605D01*
X209150193Y-96124997D01*
X209165330Y-96117838D01*
X209181095Y-96112197D01*
X209197338Y-96108129D01*
X209213901Y-96105672D01*
X209230625Y-96104850D01*
X209869375Y-96104850D01*
X209886099Y-96105672D01*
G37*
G36*
X219097653Y-105407943D02*
G01*
X219114641Y-105410463D01*
X219131300Y-105414635D01*
X219147470Y-105420421D01*
X219162994Y-105427764D01*
X219177725Y-105436593D01*
X219191519Y-105446823D01*
X219204244Y-105458356D01*
X219215777Y-105471081D01*
X219226007Y-105484875D01*
X219234836Y-105499606D01*
X219242179Y-105515130D01*
X219247965Y-105531300D01*
X219252137Y-105547959D01*
X219254657Y-105564947D01*
X219255500Y-105582100D01*
X219255500Y-106457100D01*
X219254657Y-106474253D01*
X219252137Y-106491241D01*
X219247965Y-106507900D01*
X219242179Y-106524070D01*
X219234836Y-106539594D01*
X219226007Y-106554325D01*
X219215777Y-106568119D01*
X219204244Y-106580844D01*
X219191519Y-106592377D01*
X219177725Y-106602607D01*
X219162994Y-106611436D01*
X219147470Y-106618779D01*
X219131300Y-106624565D01*
X219114641Y-106628737D01*
X219097653Y-106631257D01*
X219080500Y-106632100D01*
X218555500Y-106632100D01*
X218538347Y-106631257D01*
X218521359Y-106628737D01*
X218504700Y-106624565D01*
X218488530Y-106618779D01*
X218473006Y-106611436D01*
X218458275Y-106602607D01*
X218444481Y-106592377D01*
X218431756Y-106580844D01*
X218420223Y-106568119D01*
X218409993Y-106554325D01*
X218401164Y-106539594D01*
X218393821Y-106524070D01*
X218388035Y-106507900D01*
X218383863Y-106491241D01*
X218381343Y-106474253D01*
X218380500Y-106457100D01*
X218380500Y-105582100D01*
X218381343Y-105564947D01*
X218383863Y-105547959D01*
X218388035Y-105531300D01*
X218393821Y-105515130D01*
X218401164Y-105499606D01*
X218409993Y-105484875D01*
X218420223Y-105471081D01*
X218431756Y-105458356D01*
X218444481Y-105446823D01*
X218458275Y-105436593D01*
X218473006Y-105427764D01*
X218488530Y-105420421D01*
X218504700Y-105414635D01*
X218521359Y-105410463D01*
X218538347Y-105407943D01*
X218555500Y-105407100D01*
X219080500Y-105407100D01*
X219097653Y-105407943D01*
G37*
G36*
X221897653Y-105407943D02*
G01*
X221914641Y-105410463D01*
X221931300Y-105414635D01*
X221947470Y-105420421D01*
X221962994Y-105427764D01*
X221977725Y-105436593D01*
X221991519Y-105446823D01*
X222004244Y-105458356D01*
X222015777Y-105471081D01*
X222026007Y-105484875D01*
X222034836Y-105499606D01*
X222042179Y-105515130D01*
X222047965Y-105531300D01*
X222052137Y-105547959D01*
X222054657Y-105564947D01*
X222055500Y-105582100D01*
X222055500Y-106457100D01*
X222054657Y-106474253D01*
X222052137Y-106491241D01*
X222047965Y-106507900D01*
X222042179Y-106524070D01*
X222034836Y-106539594D01*
X222026007Y-106554325D01*
X222015777Y-106568119D01*
X222004244Y-106580844D01*
X221991519Y-106592377D01*
X221977725Y-106602607D01*
X221962994Y-106611436D01*
X221947470Y-106618779D01*
X221931300Y-106624565D01*
X221914641Y-106628737D01*
X221897653Y-106631257D01*
X221880500Y-106632100D01*
X221355500Y-106632100D01*
X221338347Y-106631257D01*
X221321359Y-106628737D01*
X221304700Y-106624565D01*
X221288530Y-106618779D01*
X221273006Y-106611436D01*
X221258275Y-106602607D01*
X221244481Y-106592377D01*
X221231756Y-106580844D01*
X221220223Y-106568119D01*
X221209993Y-106554325D01*
X221201164Y-106539594D01*
X221193821Y-106524070D01*
X221188035Y-106507900D01*
X221183863Y-106491241D01*
X221181343Y-106474253D01*
X221180500Y-106457100D01*
X221180500Y-105582100D01*
X221181343Y-105564947D01*
X221183863Y-105547959D01*
X221188035Y-105531300D01*
X221193821Y-105515130D01*
X221201164Y-105499606D01*
X221209993Y-105484875D01*
X221220223Y-105471081D01*
X221231756Y-105458356D01*
X221244481Y-105446823D01*
X221258275Y-105436593D01*
X221273006Y-105427764D01*
X221288530Y-105420421D01*
X221304700Y-105414635D01*
X221321359Y-105410463D01*
X221338347Y-105407943D01*
X221355500Y-105407100D01*
X221880500Y-105407100D01*
X221897653Y-105407943D01*
G37*
G36*
X193079549Y-112337622D02*
G01*
X193096112Y-112340079D01*
X193112355Y-112344147D01*
X193128120Y-112349788D01*
X193143257Y-112356947D01*
X193157619Y-112365555D01*
X193171068Y-112375530D01*
X193183475Y-112386775D01*
X193194720Y-112399182D01*
X193204695Y-112412631D01*
X193213303Y-112426993D01*
X193220462Y-112442130D01*
X193226103Y-112457895D01*
X193230171Y-112474138D01*
X193232628Y-112490701D01*
X193233450Y-112507425D01*
X193233450Y-113146175D01*
X193232628Y-113162899D01*
X193230171Y-113179462D01*
X193226103Y-113195705D01*
X193220462Y-113211470D01*
X193213303Y-113226607D01*
X193204695Y-113240969D01*
X193194720Y-113254418D01*
X193183475Y-113266825D01*
X193171068Y-113278070D01*
X193157619Y-113288045D01*
X193143257Y-113296653D01*
X193128120Y-113303812D01*
X193112355Y-113309453D01*
X193096112Y-113313521D01*
X193079549Y-113315978D01*
X193062825Y-113316800D01*
X192721575Y-113316800D01*
X192704851Y-113315978D01*
X192688288Y-113313521D01*
X192672045Y-113309453D01*
X192656280Y-113303812D01*
X192641143Y-113296653D01*
X192626781Y-113288045D01*
X192613332Y-113278070D01*
X192600925Y-113266825D01*
X192589680Y-113254418D01*
X192579705Y-113240969D01*
X192571097Y-113226607D01*
X192563938Y-113211470D01*
X192558297Y-113195705D01*
X192554229Y-113179462D01*
X192551772Y-113162899D01*
X192550950Y-113146175D01*
X192550950Y-112507425D01*
X192551772Y-112490701D01*
X192554229Y-112474138D01*
X192558297Y-112457895D01*
X192563938Y-112442130D01*
X192571097Y-112426993D01*
X192579705Y-112412631D01*
X192589680Y-112399182D01*
X192600925Y-112386775D01*
X192613332Y-112375530D01*
X192626781Y-112365555D01*
X192641143Y-112356947D01*
X192656280Y-112349788D01*
X192672045Y-112344147D01*
X192688288Y-112340079D01*
X192704851Y-112337622D01*
X192721575Y-112336800D01*
X193062825Y-112336800D01*
X193079549Y-112337622D01*
G37*
G36*
X194954549Y-112337622D02*
G01*
X194971112Y-112340079D01*
X194987355Y-112344147D01*
X195003120Y-112349788D01*
X195018257Y-112356947D01*
X195032619Y-112365555D01*
X195046068Y-112375530D01*
X195058475Y-112386775D01*
X195069720Y-112399182D01*
X195079695Y-112412631D01*
X195088303Y-112426993D01*
X195095462Y-112442130D01*
X195101103Y-112457895D01*
X195105171Y-112474138D01*
X195107628Y-112490701D01*
X195108450Y-112507425D01*
X195108450Y-113146175D01*
X195107628Y-113162899D01*
X195105171Y-113179462D01*
X195101103Y-113195705D01*
X195095462Y-113211470D01*
X195088303Y-113226607D01*
X195079695Y-113240969D01*
X195069720Y-113254418D01*
X195058475Y-113266825D01*
X195046068Y-113278070D01*
X195032619Y-113288045D01*
X195018257Y-113296653D01*
X195003120Y-113303812D01*
X194987355Y-113309453D01*
X194971112Y-113313521D01*
X194954549Y-113315978D01*
X194937825Y-113316800D01*
X194596575Y-113316800D01*
X194579851Y-113315978D01*
X194563288Y-113313521D01*
X194547045Y-113309453D01*
X194531280Y-113303812D01*
X194516143Y-113296653D01*
X194501781Y-113288045D01*
X194488332Y-113278070D01*
X194475925Y-113266825D01*
X194464680Y-113254418D01*
X194454705Y-113240969D01*
X194446097Y-113226607D01*
X194438938Y-113211470D01*
X194433297Y-113195705D01*
X194429229Y-113179462D01*
X194426772Y-113162899D01*
X194425950Y-113146175D01*
X194425950Y-112507425D01*
X194426772Y-112490701D01*
X194429229Y-112474138D01*
X194433297Y-112457895D01*
X194438938Y-112442130D01*
X194446097Y-112426993D01*
X194454705Y-112412631D01*
X194464680Y-112399182D01*
X194475925Y-112386775D01*
X194488332Y-112375530D01*
X194501781Y-112365555D01*
X194516143Y-112356947D01*
X194531280Y-112349788D01*
X194547045Y-112344147D01*
X194563288Y-112340079D01*
X194579851Y-112337622D01*
X194596575Y-112336800D01*
X194937825Y-112336800D01*
X194954549Y-112337622D01*
G37*
G36*
X198764549Y-112286822D02*
G01*
X198781112Y-112289279D01*
X198797355Y-112293347D01*
X198813120Y-112298988D01*
X198828257Y-112306147D01*
X198842619Y-112314755D01*
X198856068Y-112324730D01*
X198868475Y-112335975D01*
X198879720Y-112348382D01*
X198889695Y-112361831D01*
X198898303Y-112376193D01*
X198905462Y-112391330D01*
X198911103Y-112407095D01*
X198915171Y-112423338D01*
X198917628Y-112439901D01*
X198918450Y-112456625D01*
X198918450Y-113095375D01*
X198917628Y-113112099D01*
X198915171Y-113128662D01*
X198911103Y-113144905D01*
X198905462Y-113160670D01*
X198898303Y-113175807D01*
X198889695Y-113190169D01*
X198879720Y-113203618D01*
X198868475Y-113216025D01*
X198856068Y-113227270D01*
X198842619Y-113237245D01*
X198828257Y-113245853D01*
X198813120Y-113253012D01*
X198797355Y-113258653D01*
X198781112Y-113262721D01*
X198764549Y-113265178D01*
X198747825Y-113266000D01*
X198406575Y-113266000D01*
X198389851Y-113265178D01*
X198373288Y-113262721D01*
X198357045Y-113258653D01*
X198341280Y-113253012D01*
X198326143Y-113245853D01*
X198311781Y-113237245D01*
X198298332Y-113227270D01*
X198285925Y-113216025D01*
X198274680Y-113203618D01*
X198264705Y-113190169D01*
X198256097Y-113175807D01*
X198248938Y-113160670D01*
X198243297Y-113144905D01*
X198239229Y-113128662D01*
X198236772Y-113112099D01*
X198235950Y-113095375D01*
X198235950Y-112456625D01*
X198236772Y-112439901D01*
X198239229Y-112423338D01*
X198243297Y-112407095D01*
X198248938Y-112391330D01*
X198256097Y-112376193D01*
X198264705Y-112361831D01*
X198274680Y-112348382D01*
X198285925Y-112335975D01*
X198298332Y-112324730D01*
X198311781Y-112314755D01*
X198326143Y-112306147D01*
X198341280Y-112298988D01*
X198357045Y-112293347D01*
X198373288Y-112289279D01*
X198389851Y-112286822D01*
X198406575Y-112286000D01*
X198747825Y-112286000D01*
X198764549Y-112286822D01*
G37*
G36*
X196889549Y-112286822D02*
G01*
X196906112Y-112289279D01*
X196922355Y-112293347D01*
X196938120Y-112298988D01*
X196953257Y-112306147D01*
X196967619Y-112314755D01*
X196981068Y-112324730D01*
X196993475Y-112335975D01*
X197004720Y-112348382D01*
X197014695Y-112361831D01*
X197023303Y-112376193D01*
X197030462Y-112391330D01*
X197036103Y-112407095D01*
X197040171Y-112423338D01*
X197042628Y-112439901D01*
X197043450Y-112456625D01*
X197043450Y-113095375D01*
X197042628Y-113112099D01*
X197040171Y-113128662D01*
X197036103Y-113144905D01*
X197030462Y-113160670D01*
X197023303Y-113175807D01*
X197014695Y-113190169D01*
X197004720Y-113203618D01*
X196993475Y-113216025D01*
X196981068Y-113227270D01*
X196967619Y-113237245D01*
X196953257Y-113245853D01*
X196938120Y-113253012D01*
X196922355Y-113258653D01*
X196906112Y-113262721D01*
X196889549Y-113265178D01*
X196872825Y-113266000D01*
X196531575Y-113266000D01*
X196514851Y-113265178D01*
X196498288Y-113262721D01*
X196482045Y-113258653D01*
X196466280Y-113253012D01*
X196451143Y-113245853D01*
X196436781Y-113237245D01*
X196423332Y-113227270D01*
X196410925Y-113216025D01*
X196399680Y-113203618D01*
X196389705Y-113190169D01*
X196381097Y-113175807D01*
X196373938Y-113160670D01*
X196368297Y-113144905D01*
X196364229Y-113128662D01*
X196361772Y-113112099D01*
X196360950Y-113095375D01*
X196360950Y-112456625D01*
X196361772Y-112439901D01*
X196364229Y-112423338D01*
X196368297Y-112407095D01*
X196373938Y-112391330D01*
X196381097Y-112376193D01*
X196389705Y-112361831D01*
X196399680Y-112348382D01*
X196410925Y-112335975D01*
X196423332Y-112324730D01*
X196436781Y-112314755D01*
X196451143Y-112306147D01*
X196466280Y-112298988D01*
X196482045Y-112293347D01*
X196498288Y-112289279D01*
X196514851Y-112286822D01*
X196531575Y-112286000D01*
X196872825Y-112286000D01*
X196889549Y-112286822D01*
G37*
D16*
X205587600Y-99898200D03*
X205079600Y-99898200D03*
X204571600Y-99898200D03*
X204063600Y-99898200D03*
D17*
X203123800Y-100838000D03*
X203123800Y-101346000D03*
X203123800Y-101854000D03*
X203123800Y-102362000D03*
D16*
X204063600Y-103301800D03*
X204571600Y-103301800D03*
X205079600Y-103301800D03*
X205587600Y-103301800D03*
D17*
X206527400Y-102362000D03*
X206527400Y-101854000D03*
X206527400Y-101346000D03*
X206527400Y-100838000D03*
D18*
X204825600Y-101600000D03*
M02*
