G04 #@! TF.GenerationSoftware,KiCad,Pcbnew,(5.1.5-0)*
G04 #@! TF.CreationDate,2020-04-26T22:39:23-07:00*
G04 #@! TF.ProjectId,Solar-Battery-Charger,536f6c61-722d-4426-9174-746572792d43,rev?*
G04 #@! TF.SameCoordinates,Original*
G04 #@! TF.FileFunction,Soldermask,Bot*
G04 #@! TF.FilePolarity,Negative*
%FSLAX46Y46*%
G04 Gerber Fmt 4.6, Leading zero omitted, Abs format (unit mm)*
G04 Created by KiCad (PCBNEW (5.1.5-0)) date 2020-04-26 22:39:23*
%MOMM*%
%LPD*%
G04 APERTURE LIST*
%ADD10C,0.100000*%
G04 APERTURE END LIST*
D10*
G36*
X203478825Y-116197588D02*
G01*
X203645110Y-116230663D01*
X203827736Y-116306309D01*
X203992094Y-116416130D01*
X204131870Y-116555906D01*
X204241691Y-116720264D01*
X204317337Y-116902890D01*
X204344174Y-117037811D01*
X204352208Y-117078200D01*
X204355900Y-117096764D01*
X204355900Y-117294436D01*
X204317337Y-117488310D01*
X204241691Y-117670936D01*
X204131870Y-117835294D01*
X203992094Y-117975070D01*
X203827736Y-118084891D01*
X203645110Y-118160537D01*
X203478825Y-118193612D01*
X203451237Y-118199100D01*
X203253563Y-118199100D01*
X203225975Y-118193612D01*
X203059690Y-118160537D01*
X202877064Y-118084891D01*
X202712706Y-117975070D01*
X202572930Y-117835294D01*
X202463109Y-117670936D01*
X202387463Y-117488310D01*
X202348900Y-117294436D01*
X202348900Y-117096764D01*
X202352593Y-117078200D01*
X202360626Y-117037811D01*
X202387463Y-116902890D01*
X202463109Y-116720264D01*
X202572930Y-116555906D01*
X202712706Y-116416130D01*
X202877064Y-116306309D01*
X203059690Y-116230663D01*
X203225975Y-116197588D01*
X203253563Y-116192100D01*
X203451237Y-116192100D01*
X203478825Y-116197588D01*
G37*
G36*
X198398825Y-116197588D02*
G01*
X198565110Y-116230663D01*
X198747736Y-116306309D01*
X198912094Y-116416130D01*
X199051870Y-116555906D01*
X199161691Y-116720264D01*
X199237337Y-116902890D01*
X199264174Y-117037811D01*
X199272208Y-117078200D01*
X199275900Y-117096764D01*
X199275900Y-117294436D01*
X199237337Y-117488310D01*
X199161691Y-117670936D01*
X199051870Y-117835294D01*
X198912094Y-117975070D01*
X198747736Y-118084891D01*
X198565110Y-118160537D01*
X198398825Y-118193612D01*
X198371237Y-118199100D01*
X198173563Y-118199100D01*
X198145975Y-118193612D01*
X197979690Y-118160537D01*
X197797064Y-118084891D01*
X197632706Y-117975070D01*
X197492930Y-117835294D01*
X197383109Y-117670936D01*
X197307463Y-117488310D01*
X197268900Y-117294436D01*
X197268900Y-117096764D01*
X197272593Y-117078200D01*
X197280626Y-117037811D01*
X197307463Y-116902890D01*
X197383109Y-116720264D01*
X197492930Y-116555906D01*
X197632706Y-116416130D01*
X197797064Y-116306309D01*
X197979690Y-116230663D01*
X198145975Y-116197588D01*
X198173563Y-116192100D01*
X198371237Y-116192100D01*
X198398825Y-116197588D01*
G37*
G36*
X180161625Y-115892788D02*
G01*
X180327910Y-115925863D01*
X180510536Y-116001509D01*
X180674894Y-116111330D01*
X180814670Y-116251106D01*
X180924491Y-116415464D01*
X181000137Y-116598090D01*
X181038700Y-116791964D01*
X181038700Y-116989636D01*
X181000137Y-117183510D01*
X180924491Y-117366136D01*
X180814670Y-117530494D01*
X180674894Y-117670270D01*
X180510536Y-117780091D01*
X180327910Y-117855737D01*
X180161625Y-117888812D01*
X180134037Y-117894300D01*
X179936363Y-117894300D01*
X179908775Y-117888812D01*
X179742490Y-117855737D01*
X179559864Y-117780091D01*
X179395506Y-117670270D01*
X179255730Y-117530494D01*
X179145909Y-117366136D01*
X179070263Y-117183510D01*
X179031700Y-116989636D01*
X179031700Y-116791964D01*
X179070263Y-116598090D01*
X179145909Y-116415464D01*
X179255730Y-116251106D01*
X179395506Y-116111330D01*
X179559864Y-116001509D01*
X179742490Y-115925863D01*
X179908775Y-115892788D01*
X179936363Y-115887300D01*
X180134037Y-115887300D01*
X180161625Y-115892788D01*
G37*
G36*
X185241625Y-115892788D02*
G01*
X185407910Y-115925863D01*
X185590536Y-116001509D01*
X185754894Y-116111330D01*
X185894670Y-116251106D01*
X186004491Y-116415464D01*
X186080137Y-116598090D01*
X186118700Y-116791964D01*
X186118700Y-116989636D01*
X186080137Y-117183510D01*
X186004491Y-117366136D01*
X185894670Y-117530494D01*
X185754894Y-117670270D01*
X185590536Y-117780091D01*
X185407910Y-117855737D01*
X185241625Y-117888812D01*
X185214037Y-117894300D01*
X185016363Y-117894300D01*
X184988775Y-117888812D01*
X184822490Y-117855737D01*
X184639864Y-117780091D01*
X184475506Y-117670270D01*
X184335730Y-117530494D01*
X184225909Y-117366136D01*
X184150263Y-117183510D01*
X184111700Y-116989636D01*
X184111700Y-116791964D01*
X184150263Y-116598090D01*
X184225909Y-116415464D01*
X184335730Y-116251106D01*
X184475506Y-116111330D01*
X184639864Y-116001509D01*
X184822490Y-115925863D01*
X184988775Y-115892788D01*
X185016363Y-115887300D01*
X185214037Y-115887300D01*
X185241625Y-115892788D01*
G37*
G36*
X230176564Y-115219789D02*
G01*
X230277589Y-115261635D01*
X230367835Y-115299016D01*
X230539973Y-115414035D01*
X230686365Y-115560427D01*
X230793413Y-115720635D01*
X230801385Y-115732567D01*
X230880611Y-115923836D01*
X230921000Y-116126884D01*
X230921000Y-116333916D01*
X230880611Y-116536964D01*
X230855291Y-116598091D01*
X230801384Y-116728235D01*
X230686365Y-116900373D01*
X230539973Y-117046765D01*
X230367835Y-117161784D01*
X230367834Y-117161785D01*
X230367833Y-117161785D01*
X230176564Y-117241011D01*
X229973516Y-117281400D01*
X229766484Y-117281400D01*
X229563436Y-117241011D01*
X229372167Y-117161785D01*
X229372166Y-117161785D01*
X229372165Y-117161784D01*
X229200027Y-117046765D01*
X229053635Y-116900373D01*
X228938616Y-116728235D01*
X228884709Y-116598091D01*
X228859389Y-116536964D01*
X228819000Y-116333916D01*
X228819000Y-116126884D01*
X228859389Y-115923836D01*
X228938615Y-115732567D01*
X228946588Y-115720635D01*
X229053635Y-115560427D01*
X229200027Y-115414035D01*
X229372165Y-115299016D01*
X229462411Y-115261635D01*
X229563436Y-115219789D01*
X229766484Y-115179400D01*
X229973516Y-115179400D01*
X230176564Y-115219789D01*
G37*
G36*
X210720164Y-115118189D02*
G01*
X210911433Y-115197415D01*
X210911435Y-115197416D01*
X211083573Y-115312435D01*
X211229965Y-115458827D01*
X211311041Y-115580165D01*
X211344985Y-115630967D01*
X211424211Y-115822236D01*
X211464600Y-116025284D01*
X211464600Y-116232316D01*
X211424211Y-116435364D01*
X211374281Y-116555906D01*
X211344984Y-116626635D01*
X211229965Y-116798773D01*
X211083573Y-116945165D01*
X210911435Y-117060184D01*
X210911434Y-117060185D01*
X210911433Y-117060185D01*
X210720164Y-117139411D01*
X210517116Y-117179800D01*
X210310084Y-117179800D01*
X210107036Y-117139411D01*
X209915767Y-117060185D01*
X209915766Y-117060185D01*
X209915765Y-117060184D01*
X209743627Y-116945165D01*
X209597235Y-116798773D01*
X209482216Y-116626635D01*
X209452919Y-116555906D01*
X209402989Y-116435364D01*
X209362600Y-116232316D01*
X209362600Y-116025284D01*
X209402989Y-115822236D01*
X209482215Y-115630967D01*
X209516160Y-115580165D01*
X209597235Y-115458827D01*
X209743627Y-115312435D01*
X209915765Y-115197416D01*
X209915767Y-115197415D01*
X210107036Y-115118189D01*
X210310084Y-115077800D01*
X210517116Y-115077800D01*
X210720164Y-115118189D01*
G37*
G36*
X220524564Y-115067389D02*
G01*
X220715833Y-115146615D01*
X220715835Y-115146616D01*
X220887973Y-115261635D01*
X221034365Y-115408027D01*
X221115441Y-115529365D01*
X221149385Y-115580167D01*
X221228611Y-115771436D01*
X221269000Y-115974484D01*
X221269000Y-116181516D01*
X221228611Y-116384564D01*
X221157639Y-116555906D01*
X221149384Y-116575835D01*
X221034365Y-116747973D01*
X220887973Y-116894365D01*
X220715835Y-117009384D01*
X220715834Y-117009385D01*
X220715833Y-117009385D01*
X220524564Y-117088611D01*
X220321516Y-117129000D01*
X220114484Y-117129000D01*
X219911436Y-117088611D01*
X219720167Y-117009385D01*
X219720166Y-117009385D01*
X219720165Y-117009384D01*
X219548027Y-116894365D01*
X219401635Y-116747973D01*
X219286616Y-116575835D01*
X219278361Y-116555906D01*
X219207389Y-116384564D01*
X219167000Y-116181516D01*
X219167000Y-115974484D01*
X219207389Y-115771436D01*
X219286615Y-115580167D01*
X219320560Y-115529365D01*
X219401635Y-115408027D01*
X219548027Y-115261635D01*
X219720165Y-115146616D01*
X219720167Y-115146615D01*
X219911436Y-115067389D01*
X220114484Y-115027000D01*
X220321516Y-115027000D01*
X220524564Y-115067389D01*
G37*
G36*
X225299764Y-115016589D02*
G01*
X225491033Y-115095815D01*
X225491035Y-115095816D01*
X225616127Y-115179400D01*
X225663173Y-115210835D01*
X225809565Y-115357227D01*
X225924585Y-115529367D01*
X226003811Y-115720636D01*
X226044200Y-115923684D01*
X226044200Y-116130716D01*
X226003811Y-116333764D01*
X225924585Y-116525033D01*
X225924584Y-116525035D01*
X225809565Y-116697173D01*
X225663173Y-116843565D01*
X225491035Y-116958584D01*
X225491034Y-116958585D01*
X225491033Y-116958585D01*
X225299764Y-117037811D01*
X225096716Y-117078200D01*
X224889684Y-117078200D01*
X224686636Y-117037811D01*
X224495367Y-116958585D01*
X224495366Y-116958585D01*
X224495365Y-116958584D01*
X224323227Y-116843565D01*
X224176835Y-116697173D01*
X224061816Y-116525035D01*
X224061815Y-116525033D01*
X223982589Y-116333764D01*
X223942200Y-116130716D01*
X223942200Y-115923684D01*
X223982589Y-115720636D01*
X224061815Y-115529367D01*
X224176835Y-115357227D01*
X224323227Y-115210835D01*
X224370273Y-115179400D01*
X224495365Y-115095816D01*
X224495367Y-115095815D01*
X224686636Y-115016589D01*
X224889684Y-114976200D01*
X225096716Y-114976200D01*
X225299764Y-115016589D01*
G37*
G36*
X215647764Y-115016589D02*
G01*
X215839033Y-115095815D01*
X215839035Y-115095816D01*
X215964127Y-115179400D01*
X216011173Y-115210835D01*
X216157565Y-115357227D01*
X216272585Y-115529367D01*
X216351811Y-115720636D01*
X216392200Y-115923684D01*
X216392200Y-116130716D01*
X216351811Y-116333764D01*
X216272585Y-116525033D01*
X216272584Y-116525035D01*
X216157565Y-116697173D01*
X216011173Y-116843565D01*
X215839035Y-116958584D01*
X215839034Y-116958585D01*
X215839033Y-116958585D01*
X215647764Y-117037811D01*
X215444716Y-117078200D01*
X215237684Y-117078200D01*
X215034636Y-117037811D01*
X214843367Y-116958585D01*
X214843366Y-116958585D01*
X214843365Y-116958584D01*
X214671227Y-116843565D01*
X214524835Y-116697173D01*
X214409816Y-116525035D01*
X214409815Y-116525033D01*
X214330589Y-116333764D01*
X214290200Y-116130716D01*
X214290200Y-115923684D01*
X214330589Y-115720636D01*
X214409815Y-115529367D01*
X214524835Y-115357227D01*
X214671227Y-115210835D01*
X214718273Y-115179400D01*
X214843365Y-115095816D01*
X214843367Y-115095815D01*
X215034636Y-115016589D01*
X215237684Y-114976200D01*
X215444716Y-114976200D01*
X215647764Y-115016589D01*
G37*
G36*
X183247512Y-111422727D02*
G01*
X183396812Y-111452424D01*
X183560784Y-111520344D01*
X183708354Y-111618947D01*
X183833853Y-111744446D01*
X183932456Y-111892016D01*
X184000376Y-112055988D01*
X184035000Y-112230059D01*
X184035000Y-112407541D01*
X184000376Y-112581612D01*
X183932456Y-112745584D01*
X183833853Y-112893154D01*
X183708354Y-113018653D01*
X183560784Y-113117256D01*
X183396812Y-113185176D01*
X183247512Y-113214873D01*
X183222742Y-113219800D01*
X183045258Y-113219800D01*
X183020488Y-113214873D01*
X182871188Y-113185176D01*
X182707216Y-113117256D01*
X182559646Y-113018653D01*
X182434147Y-112893154D01*
X182335544Y-112745584D01*
X182267624Y-112581612D01*
X182233000Y-112407541D01*
X182233000Y-112230059D01*
X182267624Y-112055988D01*
X182335544Y-111892016D01*
X182434147Y-111744446D01*
X182559646Y-111618947D01*
X182707216Y-111520344D01*
X182871188Y-111452424D01*
X183020488Y-111422727D01*
X183045258Y-111417800D01*
X183222742Y-111417800D01*
X183247512Y-111422727D01*
G37*
G36*
X215647764Y-109987389D02*
G01*
X215748789Y-110029235D01*
X215839035Y-110066616D01*
X216011173Y-110181635D01*
X216157565Y-110328027D01*
X216170754Y-110347765D01*
X216272585Y-110500167D01*
X216351811Y-110691436D01*
X216392200Y-110894484D01*
X216392200Y-111101516D01*
X216351811Y-111304564D01*
X216290565Y-111452425D01*
X216272584Y-111495835D01*
X216157565Y-111667973D01*
X216011173Y-111814365D01*
X215839035Y-111929384D01*
X215839034Y-111929385D01*
X215839033Y-111929385D01*
X215647764Y-112008611D01*
X215444716Y-112049000D01*
X215237684Y-112049000D01*
X215034636Y-112008611D01*
X214843367Y-111929385D01*
X214843366Y-111929385D01*
X214843365Y-111929384D01*
X214671227Y-111814365D01*
X214524835Y-111667973D01*
X214409816Y-111495835D01*
X214391835Y-111452425D01*
X214330589Y-111304564D01*
X214290200Y-111101516D01*
X214290200Y-110894484D01*
X214330589Y-110691436D01*
X214409815Y-110500167D01*
X214511647Y-110347765D01*
X214524835Y-110328027D01*
X214671227Y-110181635D01*
X214843365Y-110066616D01*
X214933611Y-110029235D01*
X215034636Y-109987389D01*
X215237684Y-109947000D01*
X215444716Y-109947000D01*
X215647764Y-109987389D01*
G37*
G36*
X230074964Y-109885789D02*
G01*
X230266233Y-109965015D01*
X230266235Y-109965016D01*
X230438373Y-110080035D01*
X230584765Y-110226427D01*
X230665841Y-110347765D01*
X230699785Y-110398567D01*
X230779011Y-110589836D01*
X230819400Y-110792884D01*
X230819400Y-110999916D01*
X230779011Y-111202964D01*
X230720827Y-111343433D01*
X230699784Y-111394235D01*
X230584765Y-111566373D01*
X230438373Y-111712765D01*
X230266235Y-111827784D01*
X230266234Y-111827785D01*
X230266233Y-111827785D01*
X230074964Y-111907011D01*
X229871916Y-111947400D01*
X229664884Y-111947400D01*
X229461836Y-111907011D01*
X229270567Y-111827785D01*
X229270566Y-111827785D01*
X229270565Y-111827784D01*
X229098427Y-111712765D01*
X228952035Y-111566373D01*
X228837016Y-111394235D01*
X228815973Y-111343433D01*
X228757789Y-111202964D01*
X228717400Y-110999916D01*
X228717400Y-110792884D01*
X228757789Y-110589836D01*
X228837015Y-110398567D01*
X228870960Y-110347765D01*
X228952035Y-110226427D01*
X229098427Y-110080035D01*
X229270565Y-109965016D01*
X229270567Y-109965015D01*
X229461836Y-109885789D01*
X229664884Y-109845400D01*
X229871916Y-109845400D01*
X230074964Y-109885789D01*
G37*
G36*
X225299764Y-109885789D02*
G01*
X225491033Y-109965015D01*
X225491035Y-109965016D01*
X225663173Y-110080035D01*
X225809565Y-110226427D01*
X225890641Y-110347765D01*
X225924585Y-110398567D01*
X226003811Y-110589836D01*
X226044200Y-110792884D01*
X226044200Y-110999916D01*
X226003811Y-111202964D01*
X225945627Y-111343433D01*
X225924584Y-111394235D01*
X225809565Y-111566373D01*
X225663173Y-111712765D01*
X225491035Y-111827784D01*
X225491034Y-111827785D01*
X225491033Y-111827785D01*
X225299764Y-111907011D01*
X225096716Y-111947400D01*
X224889684Y-111947400D01*
X224686636Y-111907011D01*
X224495367Y-111827785D01*
X224495366Y-111827785D01*
X224495365Y-111827784D01*
X224323227Y-111712765D01*
X224176835Y-111566373D01*
X224061816Y-111394235D01*
X224040773Y-111343433D01*
X223982589Y-111202964D01*
X223942200Y-110999916D01*
X223942200Y-110792884D01*
X223982589Y-110589836D01*
X224061815Y-110398567D01*
X224095760Y-110347765D01*
X224176835Y-110226427D01*
X224323227Y-110080035D01*
X224495365Y-109965016D01*
X224495367Y-109965015D01*
X224686636Y-109885789D01*
X224889684Y-109845400D01*
X225096716Y-109845400D01*
X225299764Y-109885789D01*
G37*
G36*
X220372164Y-109834989D02*
G01*
X220563433Y-109914215D01*
X220563435Y-109914216D01*
X220735573Y-110029235D01*
X220881965Y-110175627D01*
X220996985Y-110347767D01*
X221076211Y-110539036D01*
X221116600Y-110742084D01*
X221116600Y-110949116D01*
X221076211Y-111152164D01*
X220996985Y-111343433D01*
X220996984Y-111343435D01*
X220881965Y-111515573D01*
X220735573Y-111661965D01*
X220563435Y-111776984D01*
X220563434Y-111776985D01*
X220563433Y-111776985D01*
X220372164Y-111856211D01*
X220169116Y-111896600D01*
X219962084Y-111896600D01*
X219759036Y-111856211D01*
X219567767Y-111776985D01*
X219567766Y-111776985D01*
X219567765Y-111776984D01*
X219395627Y-111661965D01*
X219249235Y-111515573D01*
X219134216Y-111343435D01*
X219134215Y-111343433D01*
X219054989Y-111152164D01*
X219014600Y-110949116D01*
X219014600Y-110742084D01*
X219054989Y-110539036D01*
X219134215Y-110347767D01*
X219249235Y-110175627D01*
X219395627Y-110029235D01*
X219567765Y-109914216D01*
X219567767Y-109914215D01*
X219759036Y-109834989D01*
X219962084Y-109794600D01*
X220169116Y-109794600D01*
X220372164Y-109834989D01*
G37*
G36*
X184035000Y-110679800D02*
G01*
X182233000Y-110679800D01*
X182233000Y-108877800D01*
X184035000Y-108877800D01*
X184035000Y-110679800D01*
G37*
G36*
X230024164Y-104500989D02*
G01*
X230214262Y-104579730D01*
X230215435Y-104580216D01*
X230387573Y-104695235D01*
X230533965Y-104841627D01*
X230648985Y-105013767D01*
X230728211Y-105205036D01*
X230768600Y-105408084D01*
X230768600Y-105615116D01*
X230728211Y-105818164D01*
X230653351Y-105998892D01*
X230648984Y-106009435D01*
X230533965Y-106181573D01*
X230387573Y-106327965D01*
X230215435Y-106442984D01*
X230215434Y-106442985D01*
X230215433Y-106442985D01*
X230024164Y-106522211D01*
X229821116Y-106562600D01*
X229614084Y-106562600D01*
X229411036Y-106522211D01*
X229219767Y-106442985D01*
X229219766Y-106442985D01*
X229219765Y-106442984D01*
X229047627Y-106327965D01*
X228901235Y-106181573D01*
X228786216Y-106009435D01*
X228781849Y-105998892D01*
X228706989Y-105818164D01*
X228666600Y-105615116D01*
X228666600Y-105408084D01*
X228706989Y-105205036D01*
X228786215Y-105013767D01*
X228901235Y-104841627D01*
X229047627Y-104695235D01*
X229219765Y-104580216D01*
X229220938Y-104579730D01*
X229411036Y-104500989D01*
X229614084Y-104460600D01*
X229821116Y-104460600D01*
X230024164Y-104500989D01*
G37*
G36*
X180415625Y-104361188D02*
G01*
X180581910Y-104394263D01*
X180764536Y-104469909D01*
X180928894Y-104579730D01*
X181068670Y-104719506D01*
X181178491Y-104883864D01*
X181254137Y-105066490D01*
X181292700Y-105260364D01*
X181292700Y-105458036D01*
X181254137Y-105651910D01*
X181178491Y-105834536D01*
X181068670Y-105998894D01*
X180928894Y-106138670D01*
X180764536Y-106248491D01*
X180581910Y-106324137D01*
X180415625Y-106357212D01*
X180388037Y-106362700D01*
X180190363Y-106362700D01*
X180162775Y-106357212D01*
X179996490Y-106324137D01*
X179813864Y-106248491D01*
X179649506Y-106138670D01*
X179509730Y-105998894D01*
X179399909Y-105834536D01*
X179324263Y-105651910D01*
X179285700Y-105458036D01*
X179285700Y-105260364D01*
X179324263Y-105066490D01*
X179399909Y-104883864D01*
X179509730Y-104719506D01*
X179649506Y-104579730D01*
X179813864Y-104469909D01*
X179996490Y-104394263D01*
X180162775Y-104361188D01*
X180190363Y-104355700D01*
X180388037Y-104355700D01*
X180415625Y-104361188D01*
G37*
G36*
X180415625Y-99281188D02*
G01*
X180581910Y-99314263D01*
X180764536Y-99389909D01*
X180928894Y-99499730D01*
X181068670Y-99639506D01*
X181178491Y-99803864D01*
X181254137Y-99986490D01*
X181292700Y-100180364D01*
X181292700Y-100378036D01*
X181254137Y-100571910D01*
X181178491Y-100754536D01*
X181068670Y-100918894D01*
X180928894Y-101058670D01*
X180764536Y-101168491D01*
X180581910Y-101244137D01*
X180415625Y-101277212D01*
X180388037Y-101282700D01*
X180190363Y-101282700D01*
X180162775Y-101277212D01*
X179996490Y-101244137D01*
X179813864Y-101168491D01*
X179649506Y-101058670D01*
X179509730Y-100918894D01*
X179399909Y-100754536D01*
X179324263Y-100571910D01*
X179285700Y-100378036D01*
X179285700Y-100180364D01*
X179324263Y-99986490D01*
X179399909Y-99803864D01*
X179509730Y-99639506D01*
X179649506Y-99499730D01*
X179813864Y-99389909D01*
X179996490Y-99314263D01*
X180162775Y-99281188D01*
X180190363Y-99275700D01*
X180388037Y-99275700D01*
X180415625Y-99281188D01*
G37*
G36*
X230074964Y-99217789D02*
G01*
X230266233Y-99297015D01*
X230266235Y-99297016D01*
X230438373Y-99412035D01*
X230584765Y-99558427D01*
X230638942Y-99639508D01*
X230699785Y-99730567D01*
X230779011Y-99921836D01*
X230819400Y-100124884D01*
X230819400Y-100331916D01*
X230779011Y-100534964D01*
X230699785Y-100726233D01*
X230699784Y-100726235D01*
X230584765Y-100898373D01*
X230438373Y-101044765D01*
X230266235Y-101159784D01*
X230266234Y-101159785D01*
X230266233Y-101159785D01*
X230074964Y-101239011D01*
X229871916Y-101279400D01*
X229664884Y-101279400D01*
X229461836Y-101239011D01*
X229270567Y-101159785D01*
X229270566Y-101159785D01*
X229270565Y-101159784D01*
X229098427Y-101044765D01*
X228952035Y-100898373D01*
X228837016Y-100726235D01*
X228837015Y-100726233D01*
X228757789Y-100534964D01*
X228717400Y-100331916D01*
X228717400Y-100124884D01*
X228757789Y-99921836D01*
X228837015Y-99730567D01*
X228897859Y-99639508D01*
X228952035Y-99558427D01*
X229098427Y-99412035D01*
X229270565Y-99297016D01*
X229270567Y-99297015D01*
X229461836Y-99217789D01*
X229664884Y-99177400D01*
X229871916Y-99177400D01*
X230074964Y-99217789D01*
G37*
G36*
X180415625Y-95267988D02*
G01*
X180581910Y-95301063D01*
X180764536Y-95376709D01*
X180928894Y-95486530D01*
X181068670Y-95626306D01*
X181178491Y-95790664D01*
X181254137Y-95973290D01*
X181292700Y-96167164D01*
X181292700Y-96364836D01*
X181254137Y-96558710D01*
X181178491Y-96741336D01*
X181068670Y-96905694D01*
X180928894Y-97045470D01*
X180764536Y-97155291D01*
X180581910Y-97230937D01*
X180415625Y-97264012D01*
X180388037Y-97269500D01*
X180190363Y-97269500D01*
X180162775Y-97264012D01*
X179996490Y-97230937D01*
X179813864Y-97155291D01*
X179649506Y-97045470D01*
X179509730Y-96905694D01*
X179399909Y-96741336D01*
X179324263Y-96558710D01*
X179285700Y-96364836D01*
X179285700Y-96167164D01*
X179324263Y-95973290D01*
X179399909Y-95790664D01*
X179509730Y-95626306D01*
X179649506Y-95486530D01*
X179813864Y-95376709D01*
X179996490Y-95301063D01*
X180162775Y-95267988D01*
X180190363Y-95262500D01*
X180388037Y-95262500D01*
X180415625Y-95267988D01*
G37*
G36*
X192417000Y-96811400D02*
G01*
X190615000Y-96811400D01*
X190615000Y-95009400D01*
X192417000Y-95009400D01*
X192417000Y-96811400D01*
G37*
G36*
X219254564Y-94239389D02*
G01*
X219445833Y-94318615D01*
X219445835Y-94318616D01*
X219617973Y-94433635D01*
X219764365Y-94580027D01*
X219871413Y-94740235D01*
X219879385Y-94752167D01*
X219958611Y-94943436D01*
X219999000Y-95146484D01*
X219999000Y-95353516D01*
X219958611Y-95556564D01*
X219929723Y-95626306D01*
X219879384Y-95747835D01*
X219764365Y-95919973D01*
X219617973Y-96066365D01*
X219445835Y-96181384D01*
X219445834Y-96181385D01*
X219445833Y-96181385D01*
X219254564Y-96260611D01*
X219051516Y-96301000D01*
X218844484Y-96301000D01*
X218641436Y-96260611D01*
X218450167Y-96181385D01*
X218450166Y-96181385D01*
X218450165Y-96181384D01*
X218278027Y-96066365D01*
X218131635Y-95919973D01*
X218016616Y-95747835D01*
X217966277Y-95626306D01*
X217937389Y-95556564D01*
X217897000Y-95353516D01*
X217897000Y-95146484D01*
X217937389Y-94943436D01*
X218016615Y-94752167D01*
X218024588Y-94740235D01*
X218131635Y-94580027D01*
X218278027Y-94433635D01*
X218450165Y-94318616D01*
X218450167Y-94318615D01*
X218641436Y-94239389D01*
X218844484Y-94199000D01*
X219051516Y-94199000D01*
X219254564Y-94239389D01*
G37*
G36*
X230024164Y-94239389D02*
G01*
X230215433Y-94318615D01*
X230215435Y-94318616D01*
X230387573Y-94433635D01*
X230533965Y-94580027D01*
X230641013Y-94740235D01*
X230648985Y-94752167D01*
X230728211Y-94943436D01*
X230768600Y-95146484D01*
X230768600Y-95353516D01*
X230728211Y-95556564D01*
X230699323Y-95626306D01*
X230648984Y-95747835D01*
X230533965Y-95919973D01*
X230387573Y-96066365D01*
X230215435Y-96181384D01*
X230215434Y-96181385D01*
X230215433Y-96181385D01*
X230024164Y-96260611D01*
X229821116Y-96301000D01*
X229614084Y-96301000D01*
X229411036Y-96260611D01*
X229219767Y-96181385D01*
X229219766Y-96181385D01*
X229219765Y-96181384D01*
X229047627Y-96066365D01*
X228901235Y-95919973D01*
X228786216Y-95747835D01*
X228735877Y-95626306D01*
X228706989Y-95556564D01*
X228666600Y-95353516D01*
X228666600Y-95146484D01*
X228706989Y-94943436D01*
X228786215Y-94752167D01*
X228794188Y-94740235D01*
X228901235Y-94580027D01*
X229047627Y-94433635D01*
X229219765Y-94318616D01*
X229219767Y-94318615D01*
X229411036Y-94239389D01*
X229614084Y-94199000D01*
X229821116Y-94199000D01*
X230024164Y-94239389D01*
G37*
G36*
X224639364Y-94036189D02*
G01*
X224830633Y-94115415D01*
X224830635Y-94115416D01*
X224955727Y-94199000D01*
X225002773Y-94230435D01*
X225149165Y-94376827D01*
X225264185Y-94548967D01*
X225343411Y-94740236D01*
X225383800Y-94943284D01*
X225383800Y-95150316D01*
X225343411Y-95353364D01*
X225333741Y-95376709D01*
X225264184Y-95544635D01*
X225149165Y-95716773D01*
X225002773Y-95863165D01*
X224830635Y-95978184D01*
X224830634Y-95978185D01*
X224830633Y-95978185D01*
X224639364Y-96057411D01*
X224436316Y-96097800D01*
X224229284Y-96097800D01*
X224026236Y-96057411D01*
X223834967Y-95978185D01*
X223834966Y-95978185D01*
X223834965Y-95978184D01*
X223662827Y-95863165D01*
X223516435Y-95716773D01*
X223401416Y-95544635D01*
X223331859Y-95376709D01*
X223322189Y-95353364D01*
X223281800Y-95150316D01*
X223281800Y-94943284D01*
X223322189Y-94740236D01*
X223401415Y-94548967D01*
X223516435Y-94376827D01*
X223662827Y-94230435D01*
X223709873Y-94199000D01*
X223834965Y-94115416D01*
X223834967Y-94115415D01*
X224026236Y-94036189D01*
X224229284Y-93995800D01*
X224436316Y-93995800D01*
X224639364Y-94036189D01*
G37*
G36*
X191629512Y-92474327D02*
G01*
X191778812Y-92504024D01*
X191942784Y-92571944D01*
X192090354Y-92670547D01*
X192215853Y-92796046D01*
X192314456Y-92943616D01*
X192382376Y-93107588D01*
X192417000Y-93281659D01*
X192417000Y-93459141D01*
X192382376Y-93633212D01*
X192314456Y-93797184D01*
X192215853Y-93944754D01*
X192090354Y-94070253D01*
X191942784Y-94168856D01*
X191778812Y-94236776D01*
X191629512Y-94266473D01*
X191604742Y-94271400D01*
X191427258Y-94271400D01*
X191402488Y-94266473D01*
X191253188Y-94236776D01*
X191089216Y-94168856D01*
X190941646Y-94070253D01*
X190816147Y-93944754D01*
X190717544Y-93797184D01*
X190649624Y-93633212D01*
X190615000Y-93459141D01*
X190615000Y-93281659D01*
X190649624Y-93107588D01*
X190717544Y-92943616D01*
X190816147Y-92796046D01*
X190941646Y-92670547D01*
X191089216Y-92571944D01*
X191253188Y-92504024D01*
X191402488Y-92474327D01*
X191427258Y-92469400D01*
X191604742Y-92469400D01*
X191629512Y-92474327D01*
G37*
G36*
X180415625Y-90187988D02*
G01*
X180581910Y-90221063D01*
X180764536Y-90296709D01*
X180928894Y-90406530D01*
X181068670Y-90546306D01*
X181178491Y-90710664D01*
X181254137Y-90893290D01*
X181292700Y-91087164D01*
X181292700Y-91284836D01*
X181254137Y-91478710D01*
X181178491Y-91661336D01*
X181068670Y-91825694D01*
X180928894Y-91965470D01*
X180764536Y-92075291D01*
X180581910Y-92150937D01*
X180415625Y-92184012D01*
X180388037Y-92189500D01*
X180190363Y-92189500D01*
X180162775Y-92184012D01*
X179996490Y-92150937D01*
X179813864Y-92075291D01*
X179649506Y-91965470D01*
X179509730Y-91825694D01*
X179399909Y-91661336D01*
X179324263Y-91478710D01*
X179285700Y-91284836D01*
X179285700Y-91087164D01*
X179324263Y-90893290D01*
X179399909Y-90710664D01*
X179509730Y-90546306D01*
X179649506Y-90406530D01*
X179813864Y-90296709D01*
X179996490Y-90221063D01*
X180162775Y-90187988D01*
X180190363Y-90182500D01*
X180388037Y-90182500D01*
X180415625Y-90187988D01*
G37*
M02*
