G04 #@! TF.GenerationSoftware,KiCad,Pcbnew,(5.1.5-0)*
G04 #@! TF.CreationDate,2020-04-26T22:39:22-07:00*
G04 #@! TF.ProjectId,Solar-Battery-Charger,536f6c61-722d-4426-9174-746572792d43,rev?*
G04 #@! TF.SameCoordinates,Original*
G04 #@! TF.FileFunction,Soldermask,Top*
G04 #@! TF.FilePolarity,Negative*
%FSLAX46Y46*%
G04 Gerber Fmt 4.6, Leading zero omitted, Abs format (unit mm)*
G04 Created by KiCad (PCBNEW (5.1.5-0)) date 2020-04-26 22:39:22*
%MOMM*%
%LPD*%
G04 APERTURE LIST*
%ADD10C,0.100000*%
G04 APERTURE END LIST*
D10*
G36*
X202222300Y-116673218D02*
G01*
X202224702Y-116697604D01*
X202231815Y-116721053D01*
X202243366Y-116742664D01*
X202258911Y-116761606D01*
X202277853Y-116777151D01*
X202299464Y-116788702D01*
X202322913Y-116795815D01*
X202347299Y-116798217D01*
X202371685Y-116795815D01*
X202395134Y-116788702D01*
X202416745Y-116777151D01*
X202435687Y-116761606D01*
X202451232Y-116742664D01*
X202462783Y-116721052D01*
X202463108Y-116720267D01*
X202463109Y-116720264D01*
X202572930Y-116555906D01*
X202712706Y-116416130D01*
X202877064Y-116306309D01*
X203059690Y-116230663D01*
X203225975Y-116197588D01*
X203253563Y-116192100D01*
X203451237Y-116192100D01*
X203478825Y-116197588D01*
X203645110Y-116230663D01*
X203827736Y-116306309D01*
X203992094Y-116416130D01*
X204131870Y-116555906D01*
X204241691Y-116720264D01*
X204317337Y-116902890D01*
X204344174Y-117037811D01*
X204352208Y-117078200D01*
X204355900Y-117096764D01*
X204355900Y-117294436D01*
X204317337Y-117488310D01*
X204241691Y-117670936D01*
X204131870Y-117835294D01*
X203992094Y-117975070D01*
X203827736Y-118084891D01*
X203645110Y-118160537D01*
X203478825Y-118193612D01*
X203451237Y-118199100D01*
X203253563Y-118199100D01*
X203225975Y-118193612D01*
X203059690Y-118160537D01*
X202877064Y-118084891D01*
X202712706Y-117975070D01*
X202572930Y-117835294D01*
X202463109Y-117670936D01*
X202462781Y-117670145D01*
X202451232Y-117648537D01*
X202435687Y-117629595D01*
X202416745Y-117614050D01*
X202395135Y-117602498D01*
X202371686Y-117595385D01*
X202347300Y-117592983D01*
X202322914Y-117595385D01*
X202299465Y-117602498D01*
X202277854Y-117614049D01*
X202258912Y-117629594D01*
X202243367Y-117648536D01*
X202231815Y-117670146D01*
X202224702Y-117693595D01*
X202222300Y-117717982D01*
X202222300Y-119062700D01*
X199402500Y-119062700D01*
X199402500Y-117717982D01*
X199400098Y-117693596D01*
X199392985Y-117670147D01*
X199381434Y-117648536D01*
X199365889Y-117629594D01*
X199346947Y-117614049D01*
X199325336Y-117602498D01*
X199301887Y-117595385D01*
X199277501Y-117592983D01*
X199253115Y-117595385D01*
X199229666Y-117602498D01*
X199208055Y-117614049D01*
X199189113Y-117629594D01*
X199173568Y-117648536D01*
X199162019Y-117670145D01*
X199161691Y-117670936D01*
X199051870Y-117835294D01*
X198912094Y-117975070D01*
X198747736Y-118084891D01*
X198565110Y-118160537D01*
X198398825Y-118193612D01*
X198371237Y-118199100D01*
X198173563Y-118199100D01*
X198145975Y-118193612D01*
X197979690Y-118160537D01*
X197797064Y-118084891D01*
X197632706Y-117975070D01*
X197492930Y-117835294D01*
X197383109Y-117670936D01*
X197307463Y-117488310D01*
X197268900Y-117294436D01*
X197268900Y-117096764D01*
X197272593Y-117078200D01*
X197280626Y-117037811D01*
X197307463Y-116902890D01*
X197383109Y-116720264D01*
X197492930Y-116555906D01*
X197632706Y-116416130D01*
X197797064Y-116306309D01*
X197979690Y-116230663D01*
X198145975Y-116197588D01*
X198173563Y-116192100D01*
X198371237Y-116192100D01*
X198398825Y-116197588D01*
X198565110Y-116230663D01*
X198747736Y-116306309D01*
X198912094Y-116416130D01*
X199051870Y-116555906D01*
X199161691Y-116720264D01*
X199161692Y-116720267D01*
X199162017Y-116721052D01*
X199173568Y-116742663D01*
X199189113Y-116761605D01*
X199208055Y-116777150D01*
X199229665Y-116788702D01*
X199253114Y-116795815D01*
X199277500Y-116798217D01*
X199301886Y-116795815D01*
X199325335Y-116788702D01*
X199346946Y-116777151D01*
X199365888Y-116761606D01*
X199381433Y-116742664D01*
X199392985Y-116721054D01*
X199400098Y-116697605D01*
X199402500Y-116673218D01*
X199402500Y-115328500D01*
X202222300Y-115328500D01*
X202222300Y-116673218D01*
G37*
G36*
X183985100Y-116368418D02*
G01*
X183987502Y-116392804D01*
X183994615Y-116416253D01*
X184006166Y-116437864D01*
X184021711Y-116456806D01*
X184040653Y-116472351D01*
X184062264Y-116483902D01*
X184085713Y-116491015D01*
X184110099Y-116493417D01*
X184134485Y-116491015D01*
X184157934Y-116483902D01*
X184179545Y-116472351D01*
X184198487Y-116456806D01*
X184214032Y-116437864D01*
X184225583Y-116416252D01*
X184225634Y-116416130D01*
X184225909Y-116415464D01*
X184335730Y-116251106D01*
X184475506Y-116111330D01*
X184639864Y-116001509D01*
X184822490Y-115925863D01*
X184988775Y-115892788D01*
X185016363Y-115887300D01*
X185214037Y-115887300D01*
X185241625Y-115892788D01*
X185407910Y-115925863D01*
X185590536Y-116001509D01*
X185754894Y-116111330D01*
X185894670Y-116251106D01*
X186004491Y-116415464D01*
X186080137Y-116598090D01*
X186118700Y-116791964D01*
X186118700Y-116989636D01*
X186080137Y-117183510D01*
X186004491Y-117366136D01*
X185894670Y-117530494D01*
X185754894Y-117670270D01*
X185590536Y-117780091D01*
X185407910Y-117855737D01*
X185241625Y-117888812D01*
X185214037Y-117894300D01*
X185016363Y-117894300D01*
X184988775Y-117888812D01*
X184822490Y-117855737D01*
X184639864Y-117780091D01*
X184475506Y-117670270D01*
X184335730Y-117530494D01*
X184225909Y-117366136D01*
X184225581Y-117365345D01*
X184214032Y-117343737D01*
X184198487Y-117324795D01*
X184179545Y-117309250D01*
X184157935Y-117297698D01*
X184134486Y-117290585D01*
X184110100Y-117288183D01*
X184085714Y-117290585D01*
X184062265Y-117297698D01*
X184040654Y-117309249D01*
X184021712Y-117324794D01*
X184006167Y-117343736D01*
X183994615Y-117365346D01*
X183987502Y-117388795D01*
X183985100Y-117413182D01*
X183985100Y-118757900D01*
X181165300Y-118757900D01*
X181165300Y-117413182D01*
X181162898Y-117388796D01*
X181155785Y-117365347D01*
X181144234Y-117343736D01*
X181128689Y-117324794D01*
X181109747Y-117309249D01*
X181088136Y-117297698D01*
X181064687Y-117290585D01*
X181040301Y-117288183D01*
X181015915Y-117290585D01*
X180992466Y-117297698D01*
X180970855Y-117309249D01*
X180951913Y-117324794D01*
X180936368Y-117343736D01*
X180924819Y-117365345D01*
X180924491Y-117366136D01*
X180814670Y-117530494D01*
X180674894Y-117670270D01*
X180510536Y-117780091D01*
X180327910Y-117855737D01*
X180161625Y-117888812D01*
X180134037Y-117894300D01*
X179936363Y-117894300D01*
X179908775Y-117888812D01*
X179742490Y-117855737D01*
X179559864Y-117780091D01*
X179395506Y-117670270D01*
X179255730Y-117530494D01*
X179145909Y-117366136D01*
X179070263Y-117183510D01*
X179031700Y-116989636D01*
X179031700Y-116791964D01*
X179070263Y-116598090D01*
X179145909Y-116415464D01*
X179255730Y-116251106D01*
X179395506Y-116111330D01*
X179559864Y-116001509D01*
X179742490Y-115925863D01*
X179908775Y-115892788D01*
X179936363Y-115887300D01*
X180134037Y-115887300D01*
X180161625Y-115892788D01*
X180327910Y-115925863D01*
X180510536Y-116001509D01*
X180674894Y-116111330D01*
X180814670Y-116251106D01*
X180924491Y-116415464D01*
X180924767Y-116416130D01*
X180924817Y-116416252D01*
X180936368Y-116437863D01*
X180951913Y-116456805D01*
X180970855Y-116472350D01*
X180992465Y-116483902D01*
X181015914Y-116491015D01*
X181040300Y-116493417D01*
X181064686Y-116491015D01*
X181088135Y-116483902D01*
X181109746Y-116472351D01*
X181128688Y-116456806D01*
X181144233Y-116437864D01*
X181155785Y-116416254D01*
X181162898Y-116392805D01*
X181165300Y-116368418D01*
X181165300Y-115023700D01*
X183985100Y-115023700D01*
X183985100Y-116368418D01*
G37*
G36*
X230176564Y-115219789D02*
G01*
X230277589Y-115261635D01*
X230367835Y-115299016D01*
X230539973Y-115414035D01*
X230686365Y-115560427D01*
X230793413Y-115720635D01*
X230801385Y-115732567D01*
X230880611Y-115923836D01*
X230921000Y-116126884D01*
X230921000Y-116333916D01*
X230880611Y-116536964D01*
X230801385Y-116728233D01*
X230801384Y-116728235D01*
X230686365Y-116900373D01*
X230539973Y-117046765D01*
X230367835Y-117161784D01*
X230367834Y-117161785D01*
X230367833Y-117161785D01*
X230176564Y-117241011D01*
X229973516Y-117281400D01*
X229766484Y-117281400D01*
X229563436Y-117241011D01*
X229372167Y-117161785D01*
X229372166Y-117161785D01*
X229372165Y-117161784D01*
X229200027Y-117046765D01*
X229053635Y-116900373D01*
X228938616Y-116728235D01*
X228938615Y-116728233D01*
X228859389Y-116536964D01*
X228819000Y-116333916D01*
X228819000Y-116126884D01*
X228859389Y-115923836D01*
X228938615Y-115732567D01*
X228946588Y-115720635D01*
X229053635Y-115560427D01*
X229200027Y-115414035D01*
X229372165Y-115299016D01*
X229462411Y-115261635D01*
X229563436Y-115219789D01*
X229766484Y-115179400D01*
X229973516Y-115179400D01*
X230176564Y-115219789D01*
G37*
G36*
X210720164Y-115118189D02*
G01*
X210911433Y-115197415D01*
X210911435Y-115197416D01*
X211083573Y-115312435D01*
X211229965Y-115458827D01*
X211318403Y-115591183D01*
X211344985Y-115630967D01*
X211424211Y-115822236D01*
X211464600Y-116025284D01*
X211464600Y-116232316D01*
X211424211Y-116435364D01*
X211374281Y-116555906D01*
X211344984Y-116626635D01*
X211229965Y-116798773D01*
X211083573Y-116945165D01*
X210911435Y-117060184D01*
X210911434Y-117060185D01*
X210911433Y-117060185D01*
X210720164Y-117139411D01*
X210517116Y-117179800D01*
X210310084Y-117179800D01*
X210107036Y-117139411D01*
X209915767Y-117060185D01*
X209915766Y-117060185D01*
X209915765Y-117060184D01*
X209743627Y-116945165D01*
X209597235Y-116798773D01*
X209482216Y-116626635D01*
X209452919Y-116555906D01*
X209402989Y-116435364D01*
X209362600Y-116232316D01*
X209362600Y-116025284D01*
X209402989Y-115822236D01*
X209482215Y-115630967D01*
X209508798Y-115591183D01*
X209597235Y-115458827D01*
X209743627Y-115312435D01*
X209915765Y-115197416D01*
X209915767Y-115197415D01*
X210107036Y-115118189D01*
X210310084Y-115077800D01*
X210517116Y-115077800D01*
X210720164Y-115118189D01*
G37*
G36*
X220524564Y-115067389D02*
G01*
X220715833Y-115146615D01*
X220715835Y-115146616D01*
X220887973Y-115261635D01*
X221034365Y-115408027D01*
X221129693Y-115550695D01*
X221149385Y-115580167D01*
X221228611Y-115771436D01*
X221269000Y-115974484D01*
X221269000Y-116181516D01*
X221228611Y-116384564D01*
X221157639Y-116555906D01*
X221149384Y-116575835D01*
X221034365Y-116747973D01*
X220887973Y-116894365D01*
X220715835Y-117009384D01*
X220715834Y-117009385D01*
X220715833Y-117009385D01*
X220524564Y-117088611D01*
X220321516Y-117129000D01*
X220114484Y-117129000D01*
X219911436Y-117088611D01*
X219720167Y-117009385D01*
X219720166Y-117009385D01*
X219720165Y-117009384D01*
X219548027Y-116894365D01*
X219401635Y-116747973D01*
X219286616Y-116575835D01*
X219278361Y-116555906D01*
X219207389Y-116384564D01*
X219167000Y-116181516D01*
X219167000Y-115974484D01*
X219207389Y-115771436D01*
X219286615Y-115580167D01*
X219306308Y-115550695D01*
X219401635Y-115408027D01*
X219548027Y-115261635D01*
X219720165Y-115146616D01*
X219720167Y-115146615D01*
X219911436Y-115067389D01*
X220114484Y-115027000D01*
X220321516Y-115027000D01*
X220524564Y-115067389D01*
G37*
G36*
X225299764Y-115016589D02*
G01*
X225491033Y-115095815D01*
X225491035Y-115095816D01*
X225616127Y-115179400D01*
X225663173Y-115210835D01*
X225809565Y-115357227D01*
X225924585Y-115529367D01*
X226003811Y-115720636D01*
X226044200Y-115923684D01*
X226044200Y-116130716D01*
X226003811Y-116333764D01*
X225937681Y-116493417D01*
X225924584Y-116525035D01*
X225809565Y-116697173D01*
X225663173Y-116843565D01*
X225491035Y-116958584D01*
X225491034Y-116958585D01*
X225491033Y-116958585D01*
X225299764Y-117037811D01*
X225096716Y-117078200D01*
X224889684Y-117078200D01*
X224686636Y-117037811D01*
X224495367Y-116958585D01*
X224495366Y-116958585D01*
X224495365Y-116958584D01*
X224323227Y-116843565D01*
X224176835Y-116697173D01*
X224061816Y-116525035D01*
X224048719Y-116493417D01*
X223982589Y-116333764D01*
X223942200Y-116130716D01*
X223942200Y-115923684D01*
X223982589Y-115720636D01*
X224061815Y-115529367D01*
X224176835Y-115357227D01*
X224323227Y-115210835D01*
X224370273Y-115179400D01*
X224495365Y-115095816D01*
X224495367Y-115095815D01*
X224686636Y-115016589D01*
X224889684Y-114976200D01*
X225096716Y-114976200D01*
X225299764Y-115016589D01*
G37*
G36*
X215647764Y-115016589D02*
G01*
X215839033Y-115095815D01*
X215839035Y-115095816D01*
X215964127Y-115179400D01*
X216011173Y-115210835D01*
X216157565Y-115357227D01*
X216272585Y-115529367D01*
X216351811Y-115720636D01*
X216392200Y-115923684D01*
X216392200Y-116130716D01*
X216351811Y-116333764D01*
X216285681Y-116493417D01*
X216272584Y-116525035D01*
X216157565Y-116697173D01*
X216011173Y-116843565D01*
X215839035Y-116958584D01*
X215839034Y-116958585D01*
X215839033Y-116958585D01*
X215647764Y-117037811D01*
X215444716Y-117078200D01*
X215237684Y-117078200D01*
X215034636Y-117037811D01*
X214843367Y-116958585D01*
X214843366Y-116958585D01*
X214843365Y-116958584D01*
X214671227Y-116843565D01*
X214524835Y-116697173D01*
X214409816Y-116525035D01*
X214396719Y-116493417D01*
X214330589Y-116333764D01*
X214290200Y-116130716D01*
X214290200Y-115923684D01*
X214330589Y-115720636D01*
X214409815Y-115529367D01*
X214524835Y-115357227D01*
X214671227Y-115210835D01*
X214718273Y-115179400D01*
X214843365Y-115095816D01*
X214843367Y-115095815D01*
X215034636Y-115016589D01*
X215237684Y-114976200D01*
X215444716Y-114976200D01*
X215647764Y-115016589D01*
G37*
G36*
X195213068Y-115534765D02*
G01*
X195251738Y-115546496D01*
X195287377Y-115565546D01*
X195318617Y-115591183D01*
X195344254Y-115622423D01*
X195363304Y-115658062D01*
X195375035Y-115696732D01*
X195379600Y-115743088D01*
X195379600Y-116819312D01*
X195375035Y-116865668D01*
X195363304Y-116904338D01*
X195344254Y-116939977D01*
X195318617Y-116971217D01*
X195287377Y-116996854D01*
X195251738Y-117015904D01*
X195213068Y-117027635D01*
X195166712Y-117032200D01*
X194515488Y-117032200D01*
X194469132Y-117027635D01*
X194430462Y-117015904D01*
X194394823Y-116996854D01*
X194363583Y-116971217D01*
X194337946Y-116939977D01*
X194318896Y-116904338D01*
X194307165Y-116865668D01*
X194302600Y-116819312D01*
X194302600Y-115743088D01*
X194307165Y-115696732D01*
X194318896Y-115658062D01*
X194337946Y-115622423D01*
X194363583Y-115591183D01*
X194394823Y-115565546D01*
X194430462Y-115546496D01*
X194469132Y-115534765D01*
X194515488Y-115530200D01*
X195166712Y-115530200D01*
X195213068Y-115534765D01*
G37*
G36*
X193338068Y-115534765D02*
G01*
X193376738Y-115546496D01*
X193412377Y-115565546D01*
X193443617Y-115591183D01*
X193469254Y-115622423D01*
X193488304Y-115658062D01*
X193500035Y-115696732D01*
X193504600Y-115743088D01*
X193504600Y-116819312D01*
X193500035Y-116865668D01*
X193488304Y-116904338D01*
X193469254Y-116939977D01*
X193443617Y-116971217D01*
X193412377Y-116996854D01*
X193376738Y-117015904D01*
X193338068Y-117027635D01*
X193291712Y-117032200D01*
X192640488Y-117032200D01*
X192594132Y-117027635D01*
X192555462Y-117015904D01*
X192519823Y-116996854D01*
X192488583Y-116971217D01*
X192462946Y-116939977D01*
X192443896Y-116904338D01*
X192432165Y-116865668D01*
X192427600Y-116819312D01*
X192427600Y-115743088D01*
X192432165Y-115696732D01*
X192443896Y-115658062D01*
X192462946Y-115622423D01*
X192488583Y-115591183D01*
X192519823Y-115565546D01*
X192555462Y-115546496D01*
X192594132Y-115534765D01*
X192640488Y-115530200D01*
X193291712Y-115530200D01*
X193338068Y-115534765D01*
G37*
G36*
X206800600Y-114480200D02*
G01*
X205898600Y-114480200D01*
X205898600Y-113478200D01*
X206800600Y-113478200D01*
X206800600Y-114480200D01*
G37*
G36*
X193264168Y-112080365D02*
G01*
X193302838Y-112092096D01*
X193338477Y-112111146D01*
X193369717Y-112136783D01*
X193395354Y-112168023D01*
X193414404Y-112203662D01*
X193426135Y-112242332D01*
X193430700Y-112288688D01*
X193430700Y-113364912D01*
X193426135Y-113411268D01*
X193414404Y-113449938D01*
X193395354Y-113485577D01*
X193369717Y-113516817D01*
X193338477Y-113542454D01*
X193302838Y-113561504D01*
X193264168Y-113573235D01*
X193217812Y-113577800D01*
X192566588Y-113577800D01*
X192520232Y-113573235D01*
X192481562Y-113561504D01*
X192445923Y-113542454D01*
X192414683Y-113516817D01*
X192389046Y-113485577D01*
X192369996Y-113449938D01*
X192358265Y-113411268D01*
X192353700Y-113364912D01*
X192353700Y-112288688D01*
X192358265Y-112242332D01*
X192369996Y-112203662D01*
X192389046Y-112168023D01*
X192414683Y-112136783D01*
X192445923Y-112111146D01*
X192481562Y-112092096D01*
X192520232Y-112080365D01*
X192566588Y-112075800D01*
X193217812Y-112075800D01*
X193264168Y-112080365D01*
G37*
G36*
X195139168Y-112080365D02*
G01*
X195177838Y-112092096D01*
X195213477Y-112111146D01*
X195244717Y-112136783D01*
X195270354Y-112168023D01*
X195289404Y-112203662D01*
X195301135Y-112242332D01*
X195305700Y-112288688D01*
X195305700Y-113364912D01*
X195301135Y-113411268D01*
X195289404Y-113449938D01*
X195270354Y-113485577D01*
X195244717Y-113516817D01*
X195213477Y-113542454D01*
X195177838Y-113561504D01*
X195139168Y-113573235D01*
X195092812Y-113577800D01*
X194441588Y-113577800D01*
X194395232Y-113573235D01*
X194356562Y-113561504D01*
X194320923Y-113542454D01*
X194289683Y-113516817D01*
X194264046Y-113485577D01*
X194244996Y-113449938D01*
X194233265Y-113411268D01*
X194228700Y-113364912D01*
X194228700Y-112288688D01*
X194233265Y-112242332D01*
X194244996Y-112203662D01*
X194264046Y-112168023D01*
X194289683Y-112136783D01*
X194320923Y-112111146D01*
X194356562Y-112092096D01*
X194395232Y-112080365D01*
X194441588Y-112075800D01*
X195092812Y-112075800D01*
X195139168Y-112080365D01*
G37*
G36*
X197074168Y-112029565D02*
G01*
X197112838Y-112041296D01*
X197148477Y-112060346D01*
X197179717Y-112085983D01*
X197205354Y-112117223D01*
X197224404Y-112152862D01*
X197236135Y-112191532D01*
X197240700Y-112237888D01*
X197240700Y-113314112D01*
X197236135Y-113360468D01*
X197224404Y-113399138D01*
X197205354Y-113434777D01*
X197179717Y-113466017D01*
X197148477Y-113491654D01*
X197112838Y-113510704D01*
X197074168Y-113522435D01*
X197027812Y-113527000D01*
X196376588Y-113527000D01*
X196330232Y-113522435D01*
X196291562Y-113510704D01*
X196255923Y-113491654D01*
X196224683Y-113466017D01*
X196199046Y-113434777D01*
X196179996Y-113399138D01*
X196168265Y-113360468D01*
X196163700Y-113314112D01*
X196163700Y-112237888D01*
X196168265Y-112191532D01*
X196179996Y-112152862D01*
X196199046Y-112117223D01*
X196224683Y-112085983D01*
X196255923Y-112060346D01*
X196291562Y-112041296D01*
X196330232Y-112029565D01*
X196376588Y-112025000D01*
X197027812Y-112025000D01*
X197074168Y-112029565D01*
G37*
G36*
X198949168Y-112029565D02*
G01*
X198987838Y-112041296D01*
X199023477Y-112060346D01*
X199054717Y-112085983D01*
X199080354Y-112117223D01*
X199099404Y-112152862D01*
X199111135Y-112191532D01*
X199115700Y-112237888D01*
X199115700Y-113314112D01*
X199111135Y-113360468D01*
X199099404Y-113399138D01*
X199080354Y-113434777D01*
X199054717Y-113466017D01*
X199023477Y-113491654D01*
X198987838Y-113510704D01*
X198949168Y-113522435D01*
X198902812Y-113527000D01*
X198251588Y-113527000D01*
X198205232Y-113522435D01*
X198166562Y-113510704D01*
X198130923Y-113491654D01*
X198099683Y-113466017D01*
X198074046Y-113434777D01*
X198054996Y-113399138D01*
X198043265Y-113360468D01*
X198038700Y-113314112D01*
X198038700Y-112237888D01*
X198043265Y-112191532D01*
X198054996Y-112152862D01*
X198074046Y-112117223D01*
X198099683Y-112085983D01*
X198130923Y-112060346D01*
X198166562Y-112041296D01*
X198205232Y-112029565D01*
X198251588Y-112025000D01*
X198902812Y-112025000D01*
X198949168Y-112029565D01*
G37*
G36*
X183247512Y-111422727D02*
G01*
X183396812Y-111452424D01*
X183560784Y-111520344D01*
X183708354Y-111618947D01*
X183833853Y-111744446D01*
X183932456Y-111892016D01*
X184000376Y-112055988D01*
X184035000Y-112230059D01*
X184035000Y-112407541D01*
X184000376Y-112581612D01*
X183932456Y-112745584D01*
X183833853Y-112893154D01*
X183708354Y-113018653D01*
X183560784Y-113117256D01*
X183396812Y-113185176D01*
X183247512Y-113214873D01*
X183222742Y-113219800D01*
X183045258Y-113219800D01*
X183020488Y-113214873D01*
X182871188Y-113185176D01*
X182707216Y-113117256D01*
X182559646Y-113018653D01*
X182434147Y-112893154D01*
X182335544Y-112745584D01*
X182267624Y-112581612D01*
X182233000Y-112407541D01*
X182233000Y-112230059D01*
X182267624Y-112055988D01*
X182335544Y-111892016D01*
X182434147Y-111744446D01*
X182559646Y-111618947D01*
X182707216Y-111520344D01*
X182871188Y-111452424D01*
X183020488Y-111422727D01*
X183045258Y-111417800D01*
X183222742Y-111417800D01*
X183247512Y-111422727D01*
G37*
G36*
X188636768Y-111623165D02*
G01*
X188675438Y-111634896D01*
X188711077Y-111653946D01*
X188742317Y-111679583D01*
X188767954Y-111710823D01*
X188787004Y-111746462D01*
X188798735Y-111785132D01*
X188803300Y-111831488D01*
X188803300Y-112907712D01*
X188798735Y-112954068D01*
X188787004Y-112992738D01*
X188767954Y-113028377D01*
X188742317Y-113059617D01*
X188711077Y-113085254D01*
X188675438Y-113104304D01*
X188636768Y-113116035D01*
X188590412Y-113120600D01*
X187939188Y-113120600D01*
X187892832Y-113116035D01*
X187854162Y-113104304D01*
X187818523Y-113085254D01*
X187787283Y-113059617D01*
X187761646Y-113028377D01*
X187742596Y-112992738D01*
X187730865Y-112954068D01*
X187726300Y-112907712D01*
X187726300Y-111831488D01*
X187730865Y-111785132D01*
X187742596Y-111746462D01*
X187761646Y-111710823D01*
X187787283Y-111679583D01*
X187818523Y-111653946D01*
X187854162Y-111634896D01*
X187892832Y-111623165D01*
X187939188Y-111618600D01*
X188590412Y-111618600D01*
X188636768Y-111623165D01*
G37*
G36*
X186761768Y-111623165D02*
G01*
X186800438Y-111634896D01*
X186836077Y-111653946D01*
X186867317Y-111679583D01*
X186892954Y-111710823D01*
X186912004Y-111746462D01*
X186923735Y-111785132D01*
X186928300Y-111831488D01*
X186928300Y-112907712D01*
X186923735Y-112954068D01*
X186912004Y-112992738D01*
X186892954Y-113028377D01*
X186867317Y-113059617D01*
X186836077Y-113085254D01*
X186800438Y-113104304D01*
X186761768Y-113116035D01*
X186715412Y-113120600D01*
X186064188Y-113120600D01*
X186017832Y-113116035D01*
X185979162Y-113104304D01*
X185943523Y-113085254D01*
X185912283Y-113059617D01*
X185886646Y-113028377D01*
X185867596Y-112992738D01*
X185855865Y-112954068D01*
X185851300Y-112907712D01*
X185851300Y-111831488D01*
X185855865Y-111785132D01*
X185867596Y-111746462D01*
X185886646Y-111710823D01*
X185912283Y-111679583D01*
X185943523Y-111653946D01*
X185979162Y-111634896D01*
X186017832Y-111623165D01*
X186064188Y-111618600D01*
X186715412Y-111618600D01*
X186761768Y-111623165D01*
G37*
G36*
X203733668Y-111429265D02*
G01*
X203772338Y-111440996D01*
X203807977Y-111460046D01*
X203839217Y-111485683D01*
X203864854Y-111516923D01*
X203883904Y-111552562D01*
X203895635Y-111591232D01*
X203900200Y-111637588D01*
X203900200Y-112288812D01*
X203895635Y-112335168D01*
X203883904Y-112373838D01*
X203864854Y-112409477D01*
X203839217Y-112440717D01*
X203807977Y-112466354D01*
X203772338Y-112485404D01*
X203733668Y-112497135D01*
X203687312Y-112501700D01*
X202611088Y-112501700D01*
X202564732Y-112497135D01*
X202526062Y-112485404D01*
X202490423Y-112466354D01*
X202459183Y-112440717D01*
X202433546Y-112409477D01*
X202414496Y-112373838D01*
X202402765Y-112335168D01*
X202398200Y-112288812D01*
X202398200Y-111637588D01*
X202402765Y-111591232D01*
X202414496Y-111552562D01*
X202433546Y-111516923D01*
X202459183Y-111485683D01*
X202490423Y-111460046D01*
X202526062Y-111440996D01*
X202564732Y-111429265D01*
X202611088Y-111424700D01*
X203687312Y-111424700D01*
X203733668Y-111429265D01*
G37*
G36*
X205850600Y-112480200D02*
G01*
X204948600Y-112480200D01*
X204948600Y-111478200D01*
X205850600Y-111478200D01*
X205850600Y-112480200D01*
G37*
G36*
X207750600Y-112480200D02*
G01*
X206848600Y-112480200D01*
X206848600Y-111478200D01*
X207750600Y-111478200D01*
X207750600Y-112480200D01*
G37*
G36*
X210083668Y-111401565D02*
G01*
X210122338Y-111413296D01*
X210157977Y-111432346D01*
X210189217Y-111457983D01*
X210214854Y-111489223D01*
X210233904Y-111524862D01*
X210245635Y-111563532D01*
X210250200Y-111609888D01*
X210250200Y-112261112D01*
X210245635Y-112307468D01*
X210233904Y-112346138D01*
X210214854Y-112381777D01*
X210189217Y-112413017D01*
X210157977Y-112438654D01*
X210122338Y-112457704D01*
X210083668Y-112469435D01*
X210037312Y-112474000D01*
X208961088Y-112474000D01*
X208914732Y-112469435D01*
X208876062Y-112457704D01*
X208840423Y-112438654D01*
X208809183Y-112413017D01*
X208783546Y-112381777D01*
X208764496Y-112346138D01*
X208752765Y-112307468D01*
X208748200Y-112261112D01*
X208748200Y-111609888D01*
X208752765Y-111563532D01*
X208764496Y-111524862D01*
X208783546Y-111489223D01*
X208809183Y-111457983D01*
X208840423Y-111432346D01*
X208876062Y-111413296D01*
X208914732Y-111401565D01*
X208961088Y-111397000D01*
X210037312Y-111397000D01*
X210083668Y-111401565D01*
G37*
G36*
X215647764Y-109987389D02*
G01*
X215839033Y-110066615D01*
X215839035Y-110066616D01*
X216011173Y-110181635D01*
X216157565Y-110328027D01*
X216253189Y-110471138D01*
X216272585Y-110500167D01*
X216351811Y-110691436D01*
X216392200Y-110894484D01*
X216392200Y-111101516D01*
X216351811Y-111304564D01*
X216279889Y-111478200D01*
X216272584Y-111495835D01*
X216157565Y-111667973D01*
X216011173Y-111814365D01*
X215839035Y-111929384D01*
X215839034Y-111929385D01*
X215839033Y-111929385D01*
X215647764Y-112008611D01*
X215444716Y-112049000D01*
X215237684Y-112049000D01*
X215034636Y-112008611D01*
X214843367Y-111929385D01*
X214843366Y-111929385D01*
X214843365Y-111929384D01*
X214671227Y-111814365D01*
X214524835Y-111667973D01*
X214409816Y-111495835D01*
X214402511Y-111478200D01*
X214330589Y-111304564D01*
X214290200Y-111101516D01*
X214290200Y-110894484D01*
X214330589Y-110691436D01*
X214409815Y-110500167D01*
X214429212Y-110471138D01*
X214524835Y-110328027D01*
X214671227Y-110181635D01*
X214843365Y-110066616D01*
X214843367Y-110066615D01*
X215034636Y-109987389D01*
X215237684Y-109947000D01*
X215444716Y-109947000D01*
X215647764Y-109987389D01*
G37*
G36*
X230074964Y-109885789D02*
G01*
X230266233Y-109965015D01*
X230266235Y-109965016D01*
X230438373Y-110080035D01*
X230584765Y-110226427D01*
X230665841Y-110347765D01*
X230699785Y-110398567D01*
X230779011Y-110589836D01*
X230819400Y-110792884D01*
X230819400Y-110999916D01*
X230779011Y-111202964D01*
X230720827Y-111343433D01*
X230699784Y-111394235D01*
X230584765Y-111566373D01*
X230438373Y-111712765D01*
X230266235Y-111827784D01*
X230266234Y-111827785D01*
X230266233Y-111827785D01*
X230074964Y-111907011D01*
X229871916Y-111947400D01*
X229664884Y-111947400D01*
X229461836Y-111907011D01*
X229270567Y-111827785D01*
X229270566Y-111827785D01*
X229270565Y-111827784D01*
X229098427Y-111712765D01*
X228952035Y-111566373D01*
X228837016Y-111394235D01*
X228815973Y-111343433D01*
X228757789Y-111202964D01*
X228717400Y-110999916D01*
X228717400Y-110792884D01*
X228757789Y-110589836D01*
X228837015Y-110398567D01*
X228870960Y-110347765D01*
X228952035Y-110226427D01*
X229098427Y-110080035D01*
X229270565Y-109965016D01*
X229270567Y-109965015D01*
X229461836Y-109885789D01*
X229664884Y-109845400D01*
X229871916Y-109845400D01*
X230074964Y-109885789D01*
G37*
G36*
X225299764Y-109885789D02*
G01*
X225491033Y-109965015D01*
X225491035Y-109965016D01*
X225663173Y-110080035D01*
X225809565Y-110226427D01*
X225890641Y-110347765D01*
X225924585Y-110398567D01*
X226003811Y-110589836D01*
X226044200Y-110792884D01*
X226044200Y-110999916D01*
X226003811Y-111202964D01*
X225945627Y-111343433D01*
X225924584Y-111394235D01*
X225809565Y-111566373D01*
X225663173Y-111712765D01*
X225491035Y-111827784D01*
X225491034Y-111827785D01*
X225491033Y-111827785D01*
X225299764Y-111907011D01*
X225096716Y-111947400D01*
X224889684Y-111947400D01*
X224686636Y-111907011D01*
X224495367Y-111827785D01*
X224495366Y-111827785D01*
X224495365Y-111827784D01*
X224323227Y-111712765D01*
X224176835Y-111566373D01*
X224061816Y-111394235D01*
X224040773Y-111343433D01*
X223982589Y-111202964D01*
X223942200Y-110999916D01*
X223942200Y-110792884D01*
X223982589Y-110589836D01*
X224061815Y-110398567D01*
X224095760Y-110347765D01*
X224176835Y-110226427D01*
X224323227Y-110080035D01*
X224495365Y-109965016D01*
X224495367Y-109965015D01*
X224686636Y-109885789D01*
X224889684Y-109845400D01*
X225096716Y-109845400D01*
X225299764Y-109885789D01*
G37*
G36*
X220372164Y-109834989D02*
G01*
X220563433Y-109914215D01*
X220563435Y-109914216D01*
X220735573Y-110029235D01*
X220881965Y-110175627D01*
X220984947Y-110329750D01*
X220996985Y-110347767D01*
X221076211Y-110539036D01*
X221116600Y-110742084D01*
X221116600Y-110949116D01*
X221076211Y-111152164D01*
X220996985Y-111343433D01*
X220996984Y-111343435D01*
X220881965Y-111515573D01*
X220735573Y-111661965D01*
X220563435Y-111776984D01*
X220563434Y-111776985D01*
X220563433Y-111776985D01*
X220372164Y-111856211D01*
X220169116Y-111896600D01*
X219962084Y-111896600D01*
X219759036Y-111856211D01*
X219567767Y-111776985D01*
X219567766Y-111776985D01*
X219567765Y-111776984D01*
X219395627Y-111661965D01*
X219249235Y-111515573D01*
X219134216Y-111343435D01*
X219134215Y-111343433D01*
X219054989Y-111152164D01*
X219014600Y-110949116D01*
X219014600Y-110742084D01*
X219054989Y-110539036D01*
X219134215Y-110347767D01*
X219146254Y-110329750D01*
X219249235Y-110175627D01*
X219395627Y-110029235D01*
X219567765Y-109914216D01*
X219567767Y-109914215D01*
X219759036Y-109834989D01*
X219962084Y-109794600D01*
X220169116Y-109794600D01*
X220372164Y-109834989D01*
G37*
G36*
X191236868Y-110029965D02*
G01*
X191275538Y-110041696D01*
X191311177Y-110060746D01*
X191342417Y-110086383D01*
X191368054Y-110117623D01*
X191387104Y-110153262D01*
X191398835Y-110191932D01*
X191403400Y-110238288D01*
X191403400Y-110889512D01*
X191398835Y-110935868D01*
X191387104Y-110974538D01*
X191368054Y-111010177D01*
X191342417Y-111041417D01*
X191311177Y-111067054D01*
X191275538Y-111086104D01*
X191236868Y-111097835D01*
X191190512Y-111102400D01*
X190114288Y-111102400D01*
X190067932Y-111097835D01*
X190029262Y-111086104D01*
X189993623Y-111067054D01*
X189962383Y-111041417D01*
X189936746Y-111010177D01*
X189917696Y-110974538D01*
X189905965Y-110935868D01*
X189901400Y-110889512D01*
X189901400Y-110238288D01*
X189905965Y-110191932D01*
X189917696Y-110153262D01*
X189936746Y-110117623D01*
X189962383Y-110086383D01*
X189993623Y-110060746D01*
X190029262Y-110041696D01*
X190067932Y-110029965D01*
X190114288Y-110025400D01*
X191190512Y-110025400D01*
X191236868Y-110029965D01*
G37*
G36*
X184035000Y-110679800D02*
G01*
X182233000Y-110679800D01*
X182233000Y-108877800D01*
X184035000Y-108877800D01*
X184035000Y-110679800D01*
G37*
G36*
X203733668Y-109554265D02*
G01*
X203772338Y-109565996D01*
X203807977Y-109585046D01*
X203839217Y-109610683D01*
X203864854Y-109641923D01*
X203883904Y-109677562D01*
X203895635Y-109716232D01*
X203900200Y-109762588D01*
X203900200Y-110413812D01*
X203895635Y-110460168D01*
X203883904Y-110498838D01*
X203864854Y-110534477D01*
X203839217Y-110565717D01*
X203807977Y-110591354D01*
X203772338Y-110610404D01*
X203733668Y-110622135D01*
X203687312Y-110626700D01*
X202611088Y-110626700D01*
X202564732Y-110622135D01*
X202526062Y-110610404D01*
X202490423Y-110591354D01*
X202459183Y-110565717D01*
X202433546Y-110534477D01*
X202414496Y-110498838D01*
X202402765Y-110460168D01*
X202398200Y-110413812D01*
X202398200Y-109762588D01*
X202402765Y-109716232D01*
X202414496Y-109677562D01*
X202433546Y-109641923D01*
X202459183Y-109610683D01*
X202490423Y-109585046D01*
X202526062Y-109565996D01*
X202564732Y-109554265D01*
X202611088Y-109549700D01*
X203687312Y-109549700D01*
X203733668Y-109554265D01*
G37*
G36*
X210083668Y-109526565D02*
G01*
X210122338Y-109538296D01*
X210157977Y-109557346D01*
X210189217Y-109582983D01*
X210214854Y-109614223D01*
X210233904Y-109649862D01*
X210245635Y-109688532D01*
X210250200Y-109734888D01*
X210250200Y-110386112D01*
X210245635Y-110432468D01*
X210233904Y-110471138D01*
X210214854Y-110506777D01*
X210189217Y-110538017D01*
X210157977Y-110563654D01*
X210122338Y-110582704D01*
X210083668Y-110594435D01*
X210037312Y-110599000D01*
X208961088Y-110599000D01*
X208914732Y-110594435D01*
X208876062Y-110582704D01*
X208840423Y-110563654D01*
X208809183Y-110538017D01*
X208783546Y-110506777D01*
X208764496Y-110471138D01*
X208752765Y-110432468D01*
X208748200Y-110386112D01*
X208748200Y-109734888D01*
X208752765Y-109688532D01*
X208764496Y-109649862D01*
X208783546Y-109614223D01*
X208809183Y-109582983D01*
X208840423Y-109557346D01*
X208876062Y-109538296D01*
X208914732Y-109526565D01*
X208961088Y-109522000D01*
X210037312Y-109522000D01*
X210083668Y-109526565D01*
G37*
G36*
X188585968Y-108168765D02*
G01*
X188624638Y-108180496D01*
X188660277Y-108199546D01*
X188691517Y-108225183D01*
X188717154Y-108256423D01*
X188736204Y-108292062D01*
X188747935Y-108330732D01*
X188752500Y-108377088D01*
X188752500Y-109453312D01*
X188747935Y-109499668D01*
X188736204Y-109538338D01*
X188717154Y-109573977D01*
X188691517Y-109605217D01*
X188660277Y-109630854D01*
X188624638Y-109649904D01*
X188585968Y-109661635D01*
X188539612Y-109666200D01*
X187888388Y-109666200D01*
X187842032Y-109661635D01*
X187803362Y-109649904D01*
X187767723Y-109630854D01*
X187736483Y-109605217D01*
X187710846Y-109573977D01*
X187691796Y-109538338D01*
X187680065Y-109499668D01*
X187675500Y-109453312D01*
X187675500Y-108377088D01*
X187680065Y-108330732D01*
X187691796Y-108292062D01*
X187710846Y-108256423D01*
X187736483Y-108225183D01*
X187767723Y-108199546D01*
X187803362Y-108180496D01*
X187842032Y-108168765D01*
X187888388Y-108164200D01*
X188539612Y-108164200D01*
X188585968Y-108168765D01*
G37*
G36*
X186710968Y-108168765D02*
G01*
X186749638Y-108180496D01*
X186785277Y-108199546D01*
X186816517Y-108225183D01*
X186842154Y-108256423D01*
X186861204Y-108292062D01*
X186872935Y-108330732D01*
X186877500Y-108377088D01*
X186877500Y-109453312D01*
X186872935Y-109499668D01*
X186861204Y-109538338D01*
X186842154Y-109573977D01*
X186816517Y-109605217D01*
X186785277Y-109630854D01*
X186749638Y-109649904D01*
X186710968Y-109661635D01*
X186664612Y-109666200D01*
X186013388Y-109666200D01*
X185967032Y-109661635D01*
X185928362Y-109649904D01*
X185892723Y-109630854D01*
X185861483Y-109605217D01*
X185835846Y-109573977D01*
X185816796Y-109538338D01*
X185805065Y-109499668D01*
X185800500Y-109453312D01*
X185800500Y-108377088D01*
X185805065Y-108330732D01*
X185816796Y-108292062D01*
X185835846Y-108256423D01*
X185861483Y-108225183D01*
X185892723Y-108199546D01*
X185928362Y-108180496D01*
X185967032Y-108168765D01*
X186013388Y-108164200D01*
X186664612Y-108164200D01*
X186710968Y-108168765D01*
G37*
G36*
X191236868Y-108154965D02*
G01*
X191275538Y-108166696D01*
X191311177Y-108185746D01*
X191342417Y-108211383D01*
X191368054Y-108242623D01*
X191387104Y-108278262D01*
X191398835Y-108316932D01*
X191403400Y-108363288D01*
X191403400Y-109014512D01*
X191398835Y-109060868D01*
X191387104Y-109099538D01*
X191368054Y-109135177D01*
X191342417Y-109166417D01*
X191311177Y-109192054D01*
X191275538Y-109211104D01*
X191236868Y-109222835D01*
X191190512Y-109227400D01*
X190114288Y-109227400D01*
X190067932Y-109222835D01*
X190029262Y-109211104D01*
X189993623Y-109192054D01*
X189962383Y-109166417D01*
X189936746Y-109135177D01*
X189917696Y-109099538D01*
X189905965Y-109060868D01*
X189901400Y-109014512D01*
X189901400Y-108363288D01*
X189905965Y-108316932D01*
X189917696Y-108278262D01*
X189936746Y-108242623D01*
X189962383Y-108211383D01*
X189993623Y-108185746D01*
X190029262Y-108166696D01*
X190067932Y-108154965D01*
X190114288Y-108150400D01*
X191190512Y-108150400D01*
X191236868Y-108154965D01*
G37*
G36*
X201498468Y-107411465D02*
G01*
X201537138Y-107423196D01*
X201572777Y-107442246D01*
X201604017Y-107467883D01*
X201629654Y-107499123D01*
X201648704Y-107534762D01*
X201660435Y-107573432D01*
X201665000Y-107619788D01*
X201665000Y-108271012D01*
X201660435Y-108317368D01*
X201648704Y-108356038D01*
X201629654Y-108391677D01*
X201604017Y-108422917D01*
X201572777Y-108448554D01*
X201537138Y-108467604D01*
X201498468Y-108479335D01*
X201452112Y-108483900D01*
X200375888Y-108483900D01*
X200329532Y-108479335D01*
X200290862Y-108467604D01*
X200255223Y-108448554D01*
X200223983Y-108422917D01*
X200198346Y-108391677D01*
X200179296Y-108356038D01*
X200167565Y-108317368D01*
X200163000Y-108271012D01*
X200163000Y-107619788D01*
X200167565Y-107573432D01*
X200179296Y-107534762D01*
X200198346Y-107499123D01*
X200223983Y-107467883D01*
X200255223Y-107442246D01*
X200290862Y-107423196D01*
X200329532Y-107411465D01*
X200375888Y-107406900D01*
X201452112Y-107406900D01*
X201498468Y-107411465D01*
G37*
G36*
X222136604Y-105097947D02*
G01*
X222173144Y-105109032D01*
X222206821Y-105127033D01*
X222236341Y-105151259D01*
X222260567Y-105180779D01*
X222278568Y-105214456D01*
X222289653Y-105250996D01*
X222294000Y-105295138D01*
X222294000Y-106744062D01*
X222289653Y-106788204D01*
X222278568Y-106824744D01*
X222260567Y-106858421D01*
X222236341Y-106887941D01*
X222206821Y-106912167D01*
X222173144Y-106930168D01*
X222136604Y-106941253D01*
X222092462Y-106945600D01*
X221143538Y-106945600D01*
X221099396Y-106941253D01*
X221062856Y-106930168D01*
X221029179Y-106912167D01*
X220999659Y-106887941D01*
X220975433Y-106858421D01*
X220957432Y-106824744D01*
X220946347Y-106788204D01*
X220942000Y-106744062D01*
X220942000Y-105295138D01*
X220946347Y-105250996D01*
X220957432Y-105214456D01*
X220975433Y-105180779D01*
X220999659Y-105151259D01*
X221029179Y-105127033D01*
X221062856Y-105109032D01*
X221099396Y-105097947D01*
X221143538Y-105093600D01*
X222092462Y-105093600D01*
X222136604Y-105097947D01*
G37*
G36*
X219336604Y-105097947D02*
G01*
X219373144Y-105109032D01*
X219406821Y-105127033D01*
X219436341Y-105151259D01*
X219460567Y-105180779D01*
X219478568Y-105214456D01*
X219489653Y-105250996D01*
X219494000Y-105295138D01*
X219494000Y-106744062D01*
X219489653Y-106788204D01*
X219478568Y-106824744D01*
X219460567Y-106858421D01*
X219436341Y-106887941D01*
X219406821Y-106912167D01*
X219373144Y-106930168D01*
X219336604Y-106941253D01*
X219292462Y-106945600D01*
X218343538Y-106945600D01*
X218299396Y-106941253D01*
X218262856Y-106930168D01*
X218229179Y-106912167D01*
X218199659Y-106887941D01*
X218175433Y-106858421D01*
X218157432Y-106824744D01*
X218146347Y-106788204D01*
X218142000Y-106744062D01*
X218142000Y-105295138D01*
X218146347Y-105250996D01*
X218157432Y-105214456D01*
X218175433Y-105180779D01*
X218199659Y-105151259D01*
X218229179Y-105127033D01*
X218262856Y-105109032D01*
X218299396Y-105097947D01*
X218343538Y-105093600D01*
X219292462Y-105093600D01*
X219336604Y-105097947D01*
G37*
G36*
X226505868Y-105222365D02*
G01*
X226544538Y-105234096D01*
X226580177Y-105253146D01*
X226611417Y-105278783D01*
X226637054Y-105310023D01*
X226656104Y-105345662D01*
X226667835Y-105384332D01*
X226672400Y-105430688D01*
X226672400Y-106506912D01*
X226667835Y-106553268D01*
X226656104Y-106591938D01*
X226637054Y-106627577D01*
X226611417Y-106658817D01*
X226580177Y-106684454D01*
X226544538Y-106703504D01*
X226505868Y-106715235D01*
X226459512Y-106719800D01*
X225808288Y-106719800D01*
X225761932Y-106715235D01*
X225723262Y-106703504D01*
X225687623Y-106684454D01*
X225656383Y-106658817D01*
X225630746Y-106627577D01*
X225611696Y-106591938D01*
X225599965Y-106553268D01*
X225595400Y-106506912D01*
X225595400Y-105430688D01*
X225599965Y-105384332D01*
X225611696Y-105345662D01*
X225630746Y-105310023D01*
X225656383Y-105278783D01*
X225687623Y-105253146D01*
X225723262Y-105234096D01*
X225761932Y-105222365D01*
X225808288Y-105217800D01*
X226459512Y-105217800D01*
X226505868Y-105222365D01*
G37*
G36*
X224630868Y-105222365D02*
G01*
X224669538Y-105234096D01*
X224705177Y-105253146D01*
X224736417Y-105278783D01*
X224762054Y-105310023D01*
X224781104Y-105345662D01*
X224792835Y-105384332D01*
X224797400Y-105430688D01*
X224797400Y-106506912D01*
X224792835Y-106553268D01*
X224781104Y-106591938D01*
X224762054Y-106627577D01*
X224736417Y-106658817D01*
X224705177Y-106684454D01*
X224669538Y-106703504D01*
X224630868Y-106715235D01*
X224584512Y-106719800D01*
X223933288Y-106719800D01*
X223886932Y-106715235D01*
X223848262Y-106703504D01*
X223812623Y-106684454D01*
X223781383Y-106658817D01*
X223755746Y-106627577D01*
X223736696Y-106591938D01*
X223724965Y-106553268D01*
X223720400Y-106506912D01*
X223720400Y-105430688D01*
X223724965Y-105384332D01*
X223736696Y-105345662D01*
X223755746Y-105310023D01*
X223781383Y-105278783D01*
X223812623Y-105253146D01*
X223848262Y-105234096D01*
X223886932Y-105222365D01*
X223933288Y-105217800D01*
X224584512Y-105217800D01*
X224630868Y-105222365D01*
G37*
G36*
X216549068Y-105171565D02*
G01*
X216587738Y-105183296D01*
X216623377Y-105202346D01*
X216654617Y-105227983D01*
X216680254Y-105259223D01*
X216699304Y-105294862D01*
X216711035Y-105333532D01*
X216715600Y-105379888D01*
X216715600Y-106456112D01*
X216711035Y-106502468D01*
X216699304Y-106541138D01*
X216680254Y-106576777D01*
X216654617Y-106608017D01*
X216623377Y-106633654D01*
X216587738Y-106652704D01*
X216549068Y-106664435D01*
X216502712Y-106669000D01*
X215851488Y-106669000D01*
X215805132Y-106664435D01*
X215766462Y-106652704D01*
X215730823Y-106633654D01*
X215699583Y-106608017D01*
X215673946Y-106576777D01*
X215654896Y-106541138D01*
X215643165Y-106502468D01*
X215638600Y-106456112D01*
X215638600Y-105379888D01*
X215643165Y-105333532D01*
X215654896Y-105294862D01*
X215673946Y-105259223D01*
X215699583Y-105227983D01*
X215730823Y-105202346D01*
X215766462Y-105183296D01*
X215805132Y-105171565D01*
X215851488Y-105167000D01*
X216502712Y-105167000D01*
X216549068Y-105171565D01*
G37*
G36*
X214674068Y-105171565D02*
G01*
X214712738Y-105183296D01*
X214748377Y-105202346D01*
X214779617Y-105227983D01*
X214805254Y-105259223D01*
X214824304Y-105294862D01*
X214836035Y-105333532D01*
X214840600Y-105379888D01*
X214840600Y-106456112D01*
X214836035Y-106502468D01*
X214824304Y-106541138D01*
X214805254Y-106576777D01*
X214779617Y-106608017D01*
X214748377Y-106633654D01*
X214712738Y-106652704D01*
X214674068Y-106664435D01*
X214627712Y-106669000D01*
X213976488Y-106669000D01*
X213930132Y-106664435D01*
X213891462Y-106652704D01*
X213855823Y-106633654D01*
X213824583Y-106608017D01*
X213798946Y-106576777D01*
X213779896Y-106541138D01*
X213768165Y-106502468D01*
X213763600Y-106456112D01*
X213763600Y-105379888D01*
X213768165Y-105333532D01*
X213779896Y-105294862D01*
X213798946Y-105259223D01*
X213824583Y-105227983D01*
X213855823Y-105202346D01*
X213891462Y-105183296D01*
X213930132Y-105171565D01*
X213976488Y-105167000D01*
X214627712Y-105167000D01*
X214674068Y-105171565D01*
G37*
G36*
X201498468Y-105536465D02*
G01*
X201537138Y-105548196D01*
X201572777Y-105567246D01*
X201604017Y-105592883D01*
X201629654Y-105624123D01*
X201648704Y-105659762D01*
X201660435Y-105698432D01*
X201665000Y-105744788D01*
X201665000Y-106396012D01*
X201660435Y-106442368D01*
X201648704Y-106481038D01*
X201629654Y-106516677D01*
X201604017Y-106547917D01*
X201572777Y-106573554D01*
X201537138Y-106592604D01*
X201498468Y-106604335D01*
X201452112Y-106608900D01*
X200375888Y-106608900D01*
X200329532Y-106604335D01*
X200290862Y-106592604D01*
X200255223Y-106573554D01*
X200223983Y-106547917D01*
X200198346Y-106516677D01*
X200179296Y-106481038D01*
X200167565Y-106442368D01*
X200163000Y-106396012D01*
X200163000Y-105744788D01*
X200167565Y-105698432D01*
X200179296Y-105659762D01*
X200198346Y-105624123D01*
X200223983Y-105592883D01*
X200255223Y-105567246D01*
X200290862Y-105548196D01*
X200329532Y-105536465D01*
X200375888Y-105531900D01*
X201452112Y-105531900D01*
X201498468Y-105536465D01*
G37*
G36*
X230024164Y-104500989D02*
G01*
X230214262Y-104579730D01*
X230215435Y-104580216D01*
X230387573Y-104695235D01*
X230533965Y-104841627D01*
X230648985Y-105013767D01*
X230728211Y-105205036D01*
X230768600Y-105408084D01*
X230768600Y-105615116D01*
X230728211Y-105818164D01*
X230663971Y-105973254D01*
X230648984Y-106009435D01*
X230533965Y-106181573D01*
X230387573Y-106327965D01*
X230215435Y-106442984D01*
X230215434Y-106442985D01*
X230215433Y-106442985D01*
X230024164Y-106522211D01*
X229821116Y-106562600D01*
X229614084Y-106562600D01*
X229411036Y-106522211D01*
X229219767Y-106442985D01*
X229219766Y-106442985D01*
X229219765Y-106442984D01*
X229047627Y-106327965D01*
X228901235Y-106181573D01*
X228786216Y-106009435D01*
X228771229Y-105973254D01*
X228706989Y-105818164D01*
X228666600Y-105615116D01*
X228666600Y-105408084D01*
X228706989Y-105205036D01*
X228786215Y-105013767D01*
X228901235Y-104841627D01*
X229047627Y-104695235D01*
X229219765Y-104580216D01*
X229220938Y-104579730D01*
X229411036Y-104500989D01*
X229614084Y-104460600D01*
X229821116Y-104460600D01*
X230024164Y-104500989D01*
G37*
G36*
X180415625Y-99281188D02*
G01*
X180581910Y-99314263D01*
X180764536Y-99389909D01*
X180928894Y-99499730D01*
X181068670Y-99639506D01*
X181178491Y-99803864D01*
X181254137Y-99986490D01*
X181292700Y-100180364D01*
X181292700Y-100378036D01*
X181254137Y-100571910D01*
X181178491Y-100754536D01*
X181068670Y-100918894D01*
X180928894Y-101058670D01*
X180764536Y-101168491D01*
X180763745Y-101168819D01*
X180742137Y-101180368D01*
X180723195Y-101195913D01*
X180707650Y-101214855D01*
X180696098Y-101236465D01*
X180688985Y-101259914D01*
X180686583Y-101284300D01*
X180688985Y-101308686D01*
X180696098Y-101332135D01*
X180707649Y-101353746D01*
X180723194Y-101372688D01*
X180742136Y-101388233D01*
X180763746Y-101399785D01*
X180787195Y-101406898D01*
X180811582Y-101409300D01*
X182156300Y-101409300D01*
X182156300Y-104229100D01*
X180811582Y-104229100D01*
X180787196Y-104231502D01*
X180763747Y-104238615D01*
X180742136Y-104250166D01*
X180723194Y-104265711D01*
X180707649Y-104284653D01*
X180696098Y-104306264D01*
X180688985Y-104329713D01*
X180686583Y-104354099D01*
X180688985Y-104378485D01*
X180696098Y-104401934D01*
X180707649Y-104423545D01*
X180723194Y-104442487D01*
X180742136Y-104458032D01*
X180763745Y-104469581D01*
X180764536Y-104469909D01*
X180928894Y-104579730D01*
X181068670Y-104719506D01*
X181178491Y-104883864D01*
X181254137Y-105066490D01*
X181292700Y-105260364D01*
X181292700Y-105458036D01*
X181254137Y-105651910D01*
X181178491Y-105834536D01*
X181068670Y-105998894D01*
X180928894Y-106138670D01*
X180764536Y-106248491D01*
X180581910Y-106324137D01*
X180415625Y-106357212D01*
X180388037Y-106362700D01*
X180190363Y-106362700D01*
X180162775Y-106357212D01*
X179996490Y-106324137D01*
X179813864Y-106248491D01*
X179649506Y-106138670D01*
X179509730Y-105998894D01*
X179399909Y-105834536D01*
X179324263Y-105651910D01*
X179285700Y-105458036D01*
X179285700Y-105260364D01*
X179324263Y-105066490D01*
X179399909Y-104883864D01*
X179509730Y-104719506D01*
X179649506Y-104579730D01*
X179813864Y-104469909D01*
X179814655Y-104469581D01*
X179836263Y-104458032D01*
X179855205Y-104442487D01*
X179870750Y-104423545D01*
X179882302Y-104401935D01*
X179889415Y-104378486D01*
X179891817Y-104354100D01*
X179889415Y-104329714D01*
X179882302Y-104306265D01*
X179870751Y-104284654D01*
X179855206Y-104265712D01*
X179836264Y-104250167D01*
X179814654Y-104238615D01*
X179791205Y-104231502D01*
X179766818Y-104229100D01*
X178422100Y-104229100D01*
X178422100Y-101409300D01*
X179766818Y-101409300D01*
X179791204Y-101406898D01*
X179814653Y-101399785D01*
X179836264Y-101388234D01*
X179855206Y-101372689D01*
X179870751Y-101353747D01*
X179882302Y-101332136D01*
X179889415Y-101308687D01*
X179891817Y-101284301D01*
X179889415Y-101259915D01*
X179882302Y-101236466D01*
X179870751Y-101214855D01*
X179855206Y-101195913D01*
X179836264Y-101180368D01*
X179814655Y-101168819D01*
X179813864Y-101168491D01*
X179649506Y-101058670D01*
X179509730Y-100918894D01*
X179399909Y-100754536D01*
X179324263Y-100571910D01*
X179285700Y-100378036D01*
X179285700Y-100180364D01*
X179324263Y-99986490D01*
X179399909Y-99803864D01*
X179509730Y-99639506D01*
X179649506Y-99499730D01*
X179813864Y-99389909D01*
X179996490Y-99314263D01*
X180162775Y-99281188D01*
X180190363Y-99275700D01*
X180388037Y-99275700D01*
X180415625Y-99281188D01*
G37*
G36*
X192622268Y-104511165D02*
G01*
X192660938Y-104522896D01*
X192696577Y-104541946D01*
X192727817Y-104567583D01*
X192753454Y-104598823D01*
X192772504Y-104634462D01*
X192784235Y-104673132D01*
X192788800Y-104719488D01*
X192788800Y-105795712D01*
X192784235Y-105842068D01*
X192772504Y-105880738D01*
X192753454Y-105916377D01*
X192727817Y-105947617D01*
X192696577Y-105973254D01*
X192660938Y-105992304D01*
X192622268Y-106004035D01*
X192575912Y-106008600D01*
X191924688Y-106008600D01*
X191878332Y-106004035D01*
X191839662Y-105992304D01*
X191804023Y-105973254D01*
X191772783Y-105947617D01*
X191747146Y-105916377D01*
X191728096Y-105880738D01*
X191716365Y-105842068D01*
X191711800Y-105795712D01*
X191711800Y-104719488D01*
X191716365Y-104673132D01*
X191728096Y-104634462D01*
X191747146Y-104598823D01*
X191772783Y-104567583D01*
X191804023Y-104541946D01*
X191839662Y-104522896D01*
X191878332Y-104511165D01*
X191924688Y-104506600D01*
X192575912Y-104506600D01*
X192622268Y-104511165D01*
G37*
G36*
X190747268Y-104511165D02*
G01*
X190785938Y-104522896D01*
X190821577Y-104541946D01*
X190852817Y-104567583D01*
X190878454Y-104598823D01*
X190897504Y-104634462D01*
X190909235Y-104673132D01*
X190913800Y-104719488D01*
X190913800Y-105795712D01*
X190909235Y-105842068D01*
X190897504Y-105880738D01*
X190878454Y-105916377D01*
X190852817Y-105947617D01*
X190821577Y-105973254D01*
X190785938Y-105992304D01*
X190747268Y-106004035D01*
X190700912Y-106008600D01*
X190049688Y-106008600D01*
X190003332Y-106004035D01*
X189964662Y-105992304D01*
X189929023Y-105973254D01*
X189897783Y-105947617D01*
X189872146Y-105916377D01*
X189853096Y-105880738D01*
X189841365Y-105842068D01*
X189836800Y-105795712D01*
X189836800Y-104719488D01*
X189841365Y-104673132D01*
X189853096Y-104634462D01*
X189872146Y-104598823D01*
X189897783Y-104567583D01*
X189929023Y-104541946D01*
X189964662Y-104522896D01*
X190003332Y-104511165D01*
X190049688Y-104506600D01*
X190700912Y-104506600D01*
X190747268Y-104511165D01*
G37*
G36*
X186175268Y-104460365D02*
G01*
X186213938Y-104472096D01*
X186249577Y-104491146D01*
X186280817Y-104516783D01*
X186306454Y-104548023D01*
X186325504Y-104583662D01*
X186337235Y-104622332D01*
X186341800Y-104668688D01*
X186341800Y-105744912D01*
X186337235Y-105791268D01*
X186325504Y-105829938D01*
X186306454Y-105865577D01*
X186280817Y-105896817D01*
X186249577Y-105922454D01*
X186213938Y-105941504D01*
X186175268Y-105953235D01*
X186128912Y-105957800D01*
X185477688Y-105957800D01*
X185431332Y-105953235D01*
X185392662Y-105941504D01*
X185357023Y-105922454D01*
X185325783Y-105896817D01*
X185300146Y-105865577D01*
X185281096Y-105829938D01*
X185269365Y-105791268D01*
X185264800Y-105744912D01*
X185264800Y-104668688D01*
X185269365Y-104622332D01*
X185281096Y-104583662D01*
X185300146Y-104548023D01*
X185325783Y-104516783D01*
X185357023Y-104491146D01*
X185392662Y-104472096D01*
X185431332Y-104460365D01*
X185477688Y-104455800D01*
X186128912Y-104455800D01*
X186175268Y-104460365D01*
G37*
G36*
X188050268Y-104460365D02*
G01*
X188088938Y-104472096D01*
X188124577Y-104491146D01*
X188155817Y-104516783D01*
X188181454Y-104548023D01*
X188200504Y-104583662D01*
X188212235Y-104622332D01*
X188216800Y-104668688D01*
X188216800Y-105744912D01*
X188212235Y-105791268D01*
X188200504Y-105829938D01*
X188181454Y-105865577D01*
X188155817Y-105896817D01*
X188124577Y-105922454D01*
X188088938Y-105941504D01*
X188050268Y-105953235D01*
X188003912Y-105957800D01*
X187352688Y-105957800D01*
X187306332Y-105953235D01*
X187267662Y-105941504D01*
X187232023Y-105922454D01*
X187200783Y-105896817D01*
X187175146Y-105865577D01*
X187156096Y-105829938D01*
X187144365Y-105791268D01*
X187139800Y-105744912D01*
X187139800Y-104668688D01*
X187144365Y-104622332D01*
X187156096Y-104583662D01*
X187175146Y-104548023D01*
X187200783Y-104516783D01*
X187232023Y-104491146D01*
X187267662Y-104472096D01*
X187306332Y-104460365D01*
X187352688Y-104455800D01*
X188003912Y-104455800D01*
X188050268Y-104460365D01*
G37*
G36*
X213597928Y-103156764D02*
G01*
X213619009Y-103163160D01*
X213638445Y-103173548D01*
X213655476Y-103187524D01*
X213669452Y-103204555D01*
X213679840Y-103223991D01*
X213686236Y-103245072D01*
X213689000Y-103273140D01*
X213689000Y-103736860D01*
X213686236Y-103764928D01*
X213679840Y-103786009D01*
X213669452Y-103805445D01*
X213655476Y-103822476D01*
X213638445Y-103836452D01*
X213619009Y-103846840D01*
X213597928Y-103853236D01*
X213569860Y-103856000D01*
X211756140Y-103856000D01*
X211728072Y-103853236D01*
X211706991Y-103846840D01*
X211687555Y-103836452D01*
X211670524Y-103822476D01*
X211656548Y-103805445D01*
X211646160Y-103786009D01*
X211639764Y-103764928D01*
X211637000Y-103736860D01*
X211637000Y-103273140D01*
X211639764Y-103245072D01*
X211646160Y-103223991D01*
X211656548Y-103204555D01*
X211670524Y-103187524D01*
X211687555Y-103173548D01*
X211706991Y-103163160D01*
X211728072Y-103156764D01*
X211756140Y-103154000D01*
X213569860Y-103154000D01*
X213597928Y-103156764D01*
G37*
G36*
X218547928Y-103156764D02*
G01*
X218569009Y-103163160D01*
X218588445Y-103173548D01*
X218605476Y-103187524D01*
X218619452Y-103204555D01*
X218629840Y-103223991D01*
X218636236Y-103245072D01*
X218639000Y-103273140D01*
X218639000Y-103736860D01*
X218636236Y-103764928D01*
X218629840Y-103786009D01*
X218619452Y-103805445D01*
X218605476Y-103822476D01*
X218588445Y-103836452D01*
X218569009Y-103846840D01*
X218547928Y-103853236D01*
X218519860Y-103856000D01*
X216706140Y-103856000D01*
X216678072Y-103853236D01*
X216656991Y-103846840D01*
X216637555Y-103836452D01*
X216620524Y-103822476D01*
X216606548Y-103805445D01*
X216596160Y-103786009D01*
X216589764Y-103764928D01*
X216587000Y-103736860D01*
X216587000Y-103273140D01*
X216589764Y-103245072D01*
X216596160Y-103223991D01*
X216606548Y-103204555D01*
X216620524Y-103187524D01*
X216637555Y-103173548D01*
X216656991Y-103163160D01*
X216678072Y-103156764D01*
X216706140Y-103154000D01*
X218519860Y-103154000D01*
X218547928Y-103156764D01*
G37*
G36*
X205791000Y-100408001D02*
G01*
X205793402Y-100432387D01*
X205800515Y-100455836D01*
X205812066Y-100477447D01*
X205827611Y-100496389D01*
X205846553Y-100511934D01*
X205868164Y-100523485D01*
X205891613Y-100530598D01*
X205894698Y-100530902D01*
X205895002Y-100533987D01*
X205902115Y-100557436D01*
X205913666Y-100579047D01*
X205929211Y-100597989D01*
X205948153Y-100613534D01*
X205969764Y-100625085D01*
X205993213Y-100632198D01*
X206017599Y-100634600D01*
X206984800Y-100634600D01*
X206984800Y-102565400D01*
X206017599Y-102565400D01*
X205993213Y-102567802D01*
X205969764Y-102574915D01*
X205948153Y-102586466D01*
X205929211Y-102602011D01*
X205913666Y-102620953D01*
X205902115Y-102642564D01*
X205895002Y-102666013D01*
X205894698Y-102669098D01*
X205891613Y-102669402D01*
X205868164Y-102676515D01*
X205846553Y-102688066D01*
X205827611Y-102703611D01*
X205812066Y-102722553D01*
X205800515Y-102744164D01*
X205793402Y-102767613D01*
X205791000Y-102791999D01*
X205791000Y-103759200D01*
X203860200Y-103759200D01*
X203860200Y-102791999D01*
X203857798Y-102767613D01*
X203850685Y-102744164D01*
X203839134Y-102722553D01*
X203823589Y-102703611D01*
X203804647Y-102688066D01*
X203783036Y-102676515D01*
X203759587Y-102669402D01*
X203756502Y-102669098D01*
X203756198Y-102666013D01*
X203749085Y-102642564D01*
X203737534Y-102620953D01*
X203721989Y-102602011D01*
X203703047Y-102586466D01*
X203681436Y-102574915D01*
X203657987Y-102567802D01*
X203633601Y-102565400D01*
X202666400Y-102565400D01*
X202666400Y-100634600D01*
X203633601Y-100634600D01*
X203657987Y-100632198D01*
X203681436Y-100625085D01*
X203703047Y-100613534D01*
X203721989Y-100597989D01*
X203737534Y-100579047D01*
X203749085Y-100557436D01*
X203756198Y-100533987D01*
X203756502Y-100530902D01*
X203759587Y-100530598D01*
X203783036Y-100523485D01*
X203804647Y-100511934D01*
X203823589Y-100496389D01*
X203839134Y-100477447D01*
X203850685Y-100455836D01*
X203857798Y-100432387D01*
X203860200Y-100408001D01*
X203860200Y-99440800D01*
X205791000Y-99440800D01*
X205791000Y-100408001D01*
G37*
G36*
X221158068Y-101698765D02*
G01*
X221196738Y-101710496D01*
X221232377Y-101729546D01*
X221263617Y-101755183D01*
X221289254Y-101786423D01*
X221308304Y-101822062D01*
X221320035Y-101860732D01*
X221324600Y-101907088D01*
X221324600Y-102558312D01*
X221320035Y-102604668D01*
X221308304Y-102643338D01*
X221289254Y-102678977D01*
X221263617Y-102710217D01*
X221232377Y-102735854D01*
X221196738Y-102754904D01*
X221158068Y-102766635D01*
X221111712Y-102771200D01*
X220035488Y-102771200D01*
X219989132Y-102766635D01*
X219950462Y-102754904D01*
X219914823Y-102735854D01*
X219883583Y-102710217D01*
X219857946Y-102678977D01*
X219838896Y-102643338D01*
X219827165Y-102604668D01*
X219822600Y-102558312D01*
X219822600Y-101907088D01*
X219827165Y-101860732D01*
X219838896Y-101822062D01*
X219857946Y-101786423D01*
X219883583Y-101755183D01*
X219914823Y-101729546D01*
X219950462Y-101710496D01*
X219989132Y-101698765D01*
X220035488Y-101694200D01*
X221111712Y-101694200D01*
X221158068Y-101698765D01*
G37*
G36*
X224630868Y-101259965D02*
G01*
X224669538Y-101271696D01*
X224705177Y-101290746D01*
X224736417Y-101316383D01*
X224762054Y-101347623D01*
X224781104Y-101383262D01*
X224792835Y-101421932D01*
X224797400Y-101468288D01*
X224797400Y-102544512D01*
X224792835Y-102590868D01*
X224781104Y-102629538D01*
X224762054Y-102665177D01*
X224736417Y-102696417D01*
X224705177Y-102722054D01*
X224669538Y-102741104D01*
X224630868Y-102752835D01*
X224584512Y-102757400D01*
X223933288Y-102757400D01*
X223886932Y-102752835D01*
X223848262Y-102741104D01*
X223812623Y-102722054D01*
X223781383Y-102696417D01*
X223755746Y-102665177D01*
X223736696Y-102629538D01*
X223724965Y-102590868D01*
X223720400Y-102544512D01*
X223720400Y-101468288D01*
X223724965Y-101421932D01*
X223736696Y-101383262D01*
X223755746Y-101347623D01*
X223781383Y-101316383D01*
X223812623Y-101290746D01*
X223848262Y-101271696D01*
X223886932Y-101259965D01*
X223933288Y-101255400D01*
X224584512Y-101255400D01*
X224630868Y-101259965D01*
G37*
G36*
X226505868Y-101259965D02*
G01*
X226544538Y-101271696D01*
X226580177Y-101290746D01*
X226611417Y-101316383D01*
X226637054Y-101347623D01*
X226656104Y-101383262D01*
X226667835Y-101421932D01*
X226672400Y-101468288D01*
X226672400Y-102544512D01*
X226667835Y-102590868D01*
X226656104Y-102629538D01*
X226637054Y-102665177D01*
X226611417Y-102696417D01*
X226580177Y-102722054D01*
X226544538Y-102741104D01*
X226505868Y-102752835D01*
X226459512Y-102757400D01*
X225808288Y-102757400D01*
X225761932Y-102752835D01*
X225723262Y-102741104D01*
X225687623Y-102722054D01*
X225656383Y-102696417D01*
X225630746Y-102665177D01*
X225611696Y-102629538D01*
X225599965Y-102590868D01*
X225595400Y-102544512D01*
X225595400Y-101468288D01*
X225599965Y-101421932D01*
X225611696Y-101383262D01*
X225630746Y-101347623D01*
X225656383Y-101316383D01*
X225687623Y-101290746D01*
X225723262Y-101271696D01*
X225761932Y-101259965D01*
X225808288Y-101255400D01*
X226459512Y-101255400D01*
X226505868Y-101259965D01*
G37*
G36*
X218547928Y-101886764D02*
G01*
X218569009Y-101893160D01*
X218588445Y-101903548D01*
X218605476Y-101917524D01*
X218619452Y-101934555D01*
X218629840Y-101953991D01*
X218636236Y-101975072D01*
X218639000Y-102003140D01*
X218639000Y-102466860D01*
X218636236Y-102494928D01*
X218629840Y-102516009D01*
X218619452Y-102535445D01*
X218605476Y-102552476D01*
X218588445Y-102566452D01*
X218569009Y-102576840D01*
X218547928Y-102583236D01*
X218519860Y-102586000D01*
X216706140Y-102586000D01*
X216678072Y-102583236D01*
X216656991Y-102576840D01*
X216637555Y-102566452D01*
X216620524Y-102552476D01*
X216606548Y-102535445D01*
X216596160Y-102516009D01*
X216589764Y-102494928D01*
X216587000Y-102466860D01*
X216587000Y-102003140D01*
X216589764Y-101975072D01*
X216596160Y-101953991D01*
X216606548Y-101934555D01*
X216620524Y-101917524D01*
X216637555Y-101903548D01*
X216656991Y-101893160D01*
X216678072Y-101886764D01*
X216706140Y-101884000D01*
X218519860Y-101884000D01*
X218547928Y-101886764D01*
G37*
G36*
X213597928Y-101886764D02*
G01*
X213619009Y-101893160D01*
X213638445Y-101903548D01*
X213655476Y-101917524D01*
X213669452Y-101934555D01*
X213679840Y-101953991D01*
X213686236Y-101975072D01*
X213689000Y-102003140D01*
X213689000Y-102466860D01*
X213686236Y-102494928D01*
X213679840Y-102516009D01*
X213669452Y-102535445D01*
X213655476Y-102552476D01*
X213638445Y-102566452D01*
X213619009Y-102576840D01*
X213597928Y-102583236D01*
X213569860Y-102586000D01*
X211756140Y-102586000D01*
X211728072Y-102583236D01*
X211706991Y-102576840D01*
X211687555Y-102566452D01*
X211670524Y-102552476D01*
X211656548Y-102535445D01*
X211646160Y-102516009D01*
X211639764Y-102494928D01*
X211637000Y-102466860D01*
X211637000Y-102003140D01*
X211639764Y-101975072D01*
X211646160Y-101953991D01*
X211656548Y-101934555D01*
X211670524Y-101917524D01*
X211687555Y-101903548D01*
X211706991Y-101893160D01*
X211728072Y-101886764D01*
X211756140Y-101884000D01*
X213569860Y-101884000D01*
X213597928Y-101886764D01*
G37*
G36*
X188050268Y-101005965D02*
G01*
X188088938Y-101017696D01*
X188124577Y-101036746D01*
X188155817Y-101062383D01*
X188181454Y-101093623D01*
X188200504Y-101129262D01*
X188212235Y-101167932D01*
X188216800Y-101214288D01*
X188216800Y-102290512D01*
X188212235Y-102336868D01*
X188200504Y-102375538D01*
X188181454Y-102411177D01*
X188155817Y-102442417D01*
X188124577Y-102468054D01*
X188088938Y-102487104D01*
X188050268Y-102498835D01*
X188003912Y-102503400D01*
X187352688Y-102503400D01*
X187306332Y-102498835D01*
X187267662Y-102487104D01*
X187232023Y-102468054D01*
X187200783Y-102442417D01*
X187175146Y-102411177D01*
X187156096Y-102375538D01*
X187144365Y-102336868D01*
X187139800Y-102290512D01*
X187139800Y-101214288D01*
X187144365Y-101167932D01*
X187156096Y-101129262D01*
X187175146Y-101093623D01*
X187200783Y-101062383D01*
X187232023Y-101036746D01*
X187267662Y-101017696D01*
X187306332Y-101005965D01*
X187352688Y-101001400D01*
X188003912Y-101001400D01*
X188050268Y-101005965D01*
G37*
G36*
X192673068Y-101005965D02*
G01*
X192711738Y-101017696D01*
X192747377Y-101036746D01*
X192778617Y-101062383D01*
X192804254Y-101093623D01*
X192823304Y-101129262D01*
X192835035Y-101167932D01*
X192839600Y-101214288D01*
X192839600Y-102290512D01*
X192835035Y-102336868D01*
X192823304Y-102375538D01*
X192804254Y-102411177D01*
X192778617Y-102442417D01*
X192747377Y-102468054D01*
X192711738Y-102487104D01*
X192673068Y-102498835D01*
X192626712Y-102503400D01*
X191975488Y-102503400D01*
X191929132Y-102498835D01*
X191890462Y-102487104D01*
X191854823Y-102468054D01*
X191823583Y-102442417D01*
X191797946Y-102411177D01*
X191778896Y-102375538D01*
X191767165Y-102336868D01*
X191762600Y-102290512D01*
X191762600Y-101214288D01*
X191767165Y-101167932D01*
X191778896Y-101129262D01*
X191797946Y-101093623D01*
X191823583Y-101062383D01*
X191854823Y-101036746D01*
X191890462Y-101017696D01*
X191929132Y-101005965D01*
X191975488Y-101001400D01*
X192626712Y-101001400D01*
X192673068Y-101005965D01*
G37*
G36*
X190798068Y-101005965D02*
G01*
X190836738Y-101017696D01*
X190872377Y-101036746D01*
X190903617Y-101062383D01*
X190929254Y-101093623D01*
X190948304Y-101129262D01*
X190960035Y-101167932D01*
X190964600Y-101214288D01*
X190964600Y-102290512D01*
X190960035Y-102336868D01*
X190948304Y-102375538D01*
X190929254Y-102411177D01*
X190903617Y-102442417D01*
X190872377Y-102468054D01*
X190836738Y-102487104D01*
X190798068Y-102498835D01*
X190751712Y-102503400D01*
X190100488Y-102503400D01*
X190054132Y-102498835D01*
X190015462Y-102487104D01*
X189979823Y-102468054D01*
X189948583Y-102442417D01*
X189922946Y-102411177D01*
X189903896Y-102375538D01*
X189892165Y-102336868D01*
X189887600Y-102290512D01*
X189887600Y-101214288D01*
X189892165Y-101167932D01*
X189903896Y-101129262D01*
X189922946Y-101093623D01*
X189948583Y-101062383D01*
X189979823Y-101036746D01*
X190015462Y-101017696D01*
X190054132Y-101005965D01*
X190100488Y-101001400D01*
X190751712Y-101001400D01*
X190798068Y-101005965D01*
G37*
G36*
X186175268Y-101005965D02*
G01*
X186213938Y-101017696D01*
X186249577Y-101036746D01*
X186280817Y-101062383D01*
X186306454Y-101093623D01*
X186325504Y-101129262D01*
X186337235Y-101167932D01*
X186341800Y-101214288D01*
X186341800Y-102290512D01*
X186337235Y-102336868D01*
X186325504Y-102375538D01*
X186306454Y-102411177D01*
X186280817Y-102442417D01*
X186249577Y-102468054D01*
X186213938Y-102487104D01*
X186175268Y-102498835D01*
X186128912Y-102503400D01*
X185477688Y-102503400D01*
X185431332Y-102498835D01*
X185392662Y-102487104D01*
X185357023Y-102468054D01*
X185325783Y-102442417D01*
X185300146Y-102411177D01*
X185281096Y-102375538D01*
X185269365Y-102336868D01*
X185264800Y-102290512D01*
X185264800Y-101214288D01*
X185269365Y-101167932D01*
X185281096Y-101129262D01*
X185300146Y-101093623D01*
X185325783Y-101062383D01*
X185357023Y-101036746D01*
X185392662Y-101017696D01*
X185431332Y-101005965D01*
X185477688Y-101001400D01*
X186128912Y-101001400D01*
X186175268Y-101005965D01*
G37*
G36*
X218547928Y-100616764D02*
G01*
X218569009Y-100623160D01*
X218588445Y-100633548D01*
X218605476Y-100647524D01*
X218619452Y-100664555D01*
X218629840Y-100683991D01*
X218636236Y-100705072D01*
X218639000Y-100733140D01*
X218639000Y-101196860D01*
X218636236Y-101224928D01*
X218629840Y-101246009D01*
X218619452Y-101265445D01*
X218605476Y-101282476D01*
X218588445Y-101296452D01*
X218569009Y-101306840D01*
X218547928Y-101313236D01*
X218519860Y-101316000D01*
X216706140Y-101316000D01*
X216678072Y-101313236D01*
X216656991Y-101306840D01*
X216637555Y-101296452D01*
X216620524Y-101282476D01*
X216606548Y-101265445D01*
X216596160Y-101246009D01*
X216589764Y-101224928D01*
X216587000Y-101196860D01*
X216587000Y-100733140D01*
X216589764Y-100705072D01*
X216596160Y-100683991D01*
X216606548Y-100664555D01*
X216620524Y-100647524D01*
X216637555Y-100633548D01*
X216656991Y-100623160D01*
X216678072Y-100616764D01*
X216706140Y-100614000D01*
X218519860Y-100614000D01*
X218547928Y-100616764D01*
G37*
G36*
X213597928Y-100616764D02*
G01*
X213619009Y-100623160D01*
X213638445Y-100633548D01*
X213655476Y-100647524D01*
X213669452Y-100664555D01*
X213679840Y-100683991D01*
X213686236Y-100705072D01*
X213689000Y-100733140D01*
X213689000Y-101196860D01*
X213686236Y-101224928D01*
X213679840Y-101246009D01*
X213669452Y-101265445D01*
X213655476Y-101282476D01*
X213638445Y-101296452D01*
X213619009Y-101306840D01*
X213597928Y-101313236D01*
X213569860Y-101316000D01*
X211756140Y-101316000D01*
X211728072Y-101313236D01*
X211706991Y-101306840D01*
X211687555Y-101296452D01*
X211670524Y-101282476D01*
X211656548Y-101265445D01*
X211646160Y-101246009D01*
X211639764Y-101224928D01*
X211637000Y-101196860D01*
X211637000Y-100733140D01*
X211639764Y-100705072D01*
X211646160Y-100683991D01*
X211656548Y-100664555D01*
X211670524Y-100647524D01*
X211687555Y-100633548D01*
X211706991Y-100623160D01*
X211728072Y-100616764D01*
X211756140Y-100614000D01*
X213569860Y-100614000D01*
X213597928Y-100616764D01*
G37*
G36*
X230074964Y-99217789D02*
G01*
X230266233Y-99297015D01*
X230266235Y-99297016D01*
X230438373Y-99412035D01*
X230584765Y-99558427D01*
X230638942Y-99639508D01*
X230699785Y-99730567D01*
X230779011Y-99921836D01*
X230819400Y-100124884D01*
X230819400Y-100331916D01*
X230779011Y-100534964D01*
X230717563Y-100683312D01*
X230699784Y-100726235D01*
X230584765Y-100898373D01*
X230438373Y-101044765D01*
X230266235Y-101159784D01*
X230266234Y-101159785D01*
X230266233Y-101159785D01*
X230074964Y-101239011D01*
X229871916Y-101279400D01*
X229664884Y-101279400D01*
X229461836Y-101239011D01*
X229270567Y-101159785D01*
X229270566Y-101159785D01*
X229270565Y-101159784D01*
X229098427Y-101044765D01*
X228952035Y-100898373D01*
X228837016Y-100726235D01*
X228819237Y-100683312D01*
X228757789Y-100534964D01*
X228717400Y-100331916D01*
X228717400Y-100124884D01*
X228757789Y-99921836D01*
X228837015Y-99730567D01*
X228897859Y-99639508D01*
X228952035Y-99558427D01*
X229098427Y-99412035D01*
X229270565Y-99297016D01*
X229270567Y-99297015D01*
X229461836Y-99217789D01*
X229664884Y-99177400D01*
X229871916Y-99177400D01*
X230074964Y-99217789D01*
G37*
G36*
X221158068Y-99823765D02*
G01*
X221196738Y-99835496D01*
X221232377Y-99854546D01*
X221263617Y-99880183D01*
X221289254Y-99911423D01*
X221308304Y-99947062D01*
X221320035Y-99985732D01*
X221324600Y-100032088D01*
X221324600Y-100683312D01*
X221320035Y-100729668D01*
X221308304Y-100768338D01*
X221289254Y-100803977D01*
X221263617Y-100835217D01*
X221232377Y-100860854D01*
X221196738Y-100879904D01*
X221158068Y-100891635D01*
X221111712Y-100896200D01*
X220035488Y-100896200D01*
X219989132Y-100891635D01*
X219950462Y-100879904D01*
X219914823Y-100860854D01*
X219883583Y-100835217D01*
X219857946Y-100803977D01*
X219838896Y-100768338D01*
X219827165Y-100729668D01*
X219822600Y-100683312D01*
X219822600Y-100032088D01*
X219827165Y-99985732D01*
X219838896Y-99947062D01*
X219857946Y-99911423D01*
X219883583Y-99880183D01*
X219914823Y-99854546D01*
X219950462Y-99835496D01*
X219989132Y-99823765D01*
X220035488Y-99819200D01*
X221111712Y-99819200D01*
X221158068Y-99823765D01*
G37*
G36*
X213597928Y-99346764D02*
G01*
X213619009Y-99353160D01*
X213638445Y-99363548D01*
X213655476Y-99377524D01*
X213669452Y-99394555D01*
X213679840Y-99413991D01*
X213686236Y-99435072D01*
X213689000Y-99463140D01*
X213689000Y-99926860D01*
X213686236Y-99954928D01*
X213679840Y-99976009D01*
X213669452Y-99995445D01*
X213655476Y-100012476D01*
X213638445Y-100026452D01*
X213619009Y-100036840D01*
X213597928Y-100043236D01*
X213569860Y-100046000D01*
X211756140Y-100046000D01*
X211728072Y-100043236D01*
X211706991Y-100036840D01*
X211687555Y-100026452D01*
X211670524Y-100012476D01*
X211656548Y-99995445D01*
X211646160Y-99976009D01*
X211639764Y-99954928D01*
X211637000Y-99926860D01*
X211637000Y-99463140D01*
X211639764Y-99435072D01*
X211646160Y-99413991D01*
X211656548Y-99394555D01*
X211670524Y-99377524D01*
X211687555Y-99363548D01*
X211706991Y-99353160D01*
X211728072Y-99346764D01*
X211756140Y-99344000D01*
X213569860Y-99344000D01*
X213597928Y-99346764D01*
G37*
G36*
X218547928Y-99346764D02*
G01*
X218569009Y-99353160D01*
X218588445Y-99363548D01*
X218605476Y-99377524D01*
X218619452Y-99394555D01*
X218629840Y-99413991D01*
X218636236Y-99435072D01*
X218639000Y-99463140D01*
X218639000Y-99926860D01*
X218636236Y-99954928D01*
X218629840Y-99976009D01*
X218619452Y-99995445D01*
X218605476Y-100012476D01*
X218588445Y-100026452D01*
X218569009Y-100036840D01*
X218547928Y-100043236D01*
X218519860Y-100046000D01*
X216706140Y-100046000D01*
X216678072Y-100043236D01*
X216656991Y-100036840D01*
X216637555Y-100026452D01*
X216620524Y-100012476D01*
X216606548Y-99995445D01*
X216596160Y-99976009D01*
X216589764Y-99954928D01*
X216587000Y-99926860D01*
X216587000Y-99463140D01*
X216589764Y-99435072D01*
X216596160Y-99413991D01*
X216606548Y-99394555D01*
X216620524Y-99377524D01*
X216637555Y-99363548D01*
X216656991Y-99353160D01*
X216678072Y-99346764D01*
X216706140Y-99344000D01*
X218519860Y-99344000D01*
X218547928Y-99346764D01*
G37*
G36*
X207746868Y-97787165D02*
G01*
X207785538Y-97798896D01*
X207821177Y-97817946D01*
X207852417Y-97843583D01*
X207878054Y-97874823D01*
X207897104Y-97910462D01*
X207908835Y-97949132D01*
X207913400Y-97995488D01*
X207913400Y-98646712D01*
X207908835Y-98693068D01*
X207897104Y-98731738D01*
X207878054Y-98767377D01*
X207852417Y-98798617D01*
X207821177Y-98824254D01*
X207785538Y-98843304D01*
X207746868Y-98855035D01*
X207700512Y-98859600D01*
X206624288Y-98859600D01*
X206577932Y-98855035D01*
X206539262Y-98843304D01*
X206503623Y-98824254D01*
X206472383Y-98798617D01*
X206446746Y-98767377D01*
X206427696Y-98731738D01*
X206415965Y-98693068D01*
X206411400Y-98646712D01*
X206411400Y-97995488D01*
X206415965Y-97949132D01*
X206427696Y-97910462D01*
X206446746Y-97874823D01*
X206472383Y-97843583D01*
X206503623Y-97817946D01*
X206539262Y-97798896D01*
X206577932Y-97787165D01*
X206624288Y-97782600D01*
X207700512Y-97782600D01*
X207746868Y-97787165D01*
G37*
G36*
X210134468Y-97787165D02*
G01*
X210173138Y-97798896D01*
X210208777Y-97817946D01*
X210240017Y-97843583D01*
X210265654Y-97874823D01*
X210284704Y-97910462D01*
X210296435Y-97949132D01*
X210301000Y-97995488D01*
X210301000Y-98646712D01*
X210296435Y-98693068D01*
X210284704Y-98731738D01*
X210265654Y-98767377D01*
X210240017Y-98798617D01*
X210208777Y-98824254D01*
X210173138Y-98843304D01*
X210134468Y-98855035D01*
X210088112Y-98859600D01*
X209011888Y-98859600D01*
X208965532Y-98855035D01*
X208926862Y-98843304D01*
X208891223Y-98824254D01*
X208859983Y-98798617D01*
X208834346Y-98767377D01*
X208815296Y-98731738D01*
X208803565Y-98693068D01*
X208799000Y-98646712D01*
X208799000Y-97995488D01*
X208803565Y-97949132D01*
X208815296Y-97910462D01*
X208834346Y-97874823D01*
X208859983Y-97843583D01*
X208891223Y-97817946D01*
X208926862Y-97798896D01*
X208965532Y-97787165D01*
X209011888Y-97782600D01*
X210088112Y-97782600D01*
X210134468Y-97787165D01*
G37*
G36*
X202579068Y-96027565D02*
G01*
X202617738Y-96039296D01*
X202653377Y-96058346D01*
X202684617Y-96083983D01*
X202710254Y-96115223D01*
X202729304Y-96150862D01*
X202741035Y-96189532D01*
X202745600Y-96235888D01*
X202745600Y-97312112D01*
X202741035Y-97358468D01*
X202729304Y-97397138D01*
X202710254Y-97432777D01*
X202684617Y-97464017D01*
X202653377Y-97489654D01*
X202617738Y-97508704D01*
X202579068Y-97520435D01*
X202532712Y-97525000D01*
X201881488Y-97525000D01*
X201835132Y-97520435D01*
X201796462Y-97508704D01*
X201760823Y-97489654D01*
X201729583Y-97464017D01*
X201703946Y-97432777D01*
X201684896Y-97397138D01*
X201673165Y-97358468D01*
X201668600Y-97312112D01*
X201668600Y-96235888D01*
X201673165Y-96189532D01*
X201684896Y-96150862D01*
X201703946Y-96115223D01*
X201729583Y-96083983D01*
X201760823Y-96058346D01*
X201796462Y-96039296D01*
X201835132Y-96027565D01*
X201881488Y-96023000D01*
X202532712Y-96023000D01*
X202579068Y-96027565D01*
G37*
G36*
X200704068Y-96027565D02*
G01*
X200742738Y-96039296D01*
X200778377Y-96058346D01*
X200809617Y-96083983D01*
X200835254Y-96115223D01*
X200854304Y-96150862D01*
X200866035Y-96189532D01*
X200870600Y-96235888D01*
X200870600Y-97312112D01*
X200866035Y-97358468D01*
X200854304Y-97397138D01*
X200835254Y-97432777D01*
X200809617Y-97464017D01*
X200778377Y-97489654D01*
X200742738Y-97508704D01*
X200704068Y-97520435D01*
X200657712Y-97525000D01*
X200006488Y-97525000D01*
X199960132Y-97520435D01*
X199921462Y-97508704D01*
X199885823Y-97489654D01*
X199854583Y-97464017D01*
X199828946Y-97432777D01*
X199809896Y-97397138D01*
X199798165Y-97358468D01*
X199793600Y-97312112D01*
X199793600Y-96235888D01*
X199798165Y-96189532D01*
X199809896Y-96150862D01*
X199828946Y-96115223D01*
X199854583Y-96083983D01*
X199885823Y-96058346D01*
X199921462Y-96039296D01*
X199960132Y-96027565D01*
X200006488Y-96023000D01*
X200657712Y-96023000D01*
X200704068Y-96027565D01*
G37*
G36*
X196995668Y-95976765D02*
G01*
X197034338Y-95988496D01*
X197069977Y-96007546D01*
X197101217Y-96033183D01*
X197126854Y-96064423D01*
X197145904Y-96100062D01*
X197157635Y-96138732D01*
X197162200Y-96185088D01*
X197162200Y-97261312D01*
X197157635Y-97307668D01*
X197145904Y-97346338D01*
X197126854Y-97381977D01*
X197101217Y-97413217D01*
X197069977Y-97438854D01*
X197034338Y-97457904D01*
X196995668Y-97469635D01*
X196949312Y-97474200D01*
X196298088Y-97474200D01*
X196251732Y-97469635D01*
X196213062Y-97457904D01*
X196177423Y-97438854D01*
X196146183Y-97413217D01*
X196120546Y-97381977D01*
X196101496Y-97346338D01*
X196089765Y-97307668D01*
X196085200Y-97261312D01*
X196085200Y-96185088D01*
X196089765Y-96138732D01*
X196101496Y-96100062D01*
X196120546Y-96064423D01*
X196146183Y-96033183D01*
X196177423Y-96007546D01*
X196213062Y-95988496D01*
X196251732Y-95976765D01*
X196298088Y-95972200D01*
X196949312Y-95972200D01*
X196995668Y-95976765D01*
G37*
G36*
X198870668Y-95976765D02*
G01*
X198909338Y-95988496D01*
X198944977Y-96007546D01*
X198976217Y-96033183D01*
X199001854Y-96064423D01*
X199020904Y-96100062D01*
X199032635Y-96138732D01*
X199037200Y-96185088D01*
X199037200Y-97261312D01*
X199032635Y-97307668D01*
X199020904Y-97346338D01*
X199001854Y-97381977D01*
X198976217Y-97413217D01*
X198944977Y-97438854D01*
X198909338Y-97457904D01*
X198870668Y-97469635D01*
X198824312Y-97474200D01*
X198173088Y-97474200D01*
X198126732Y-97469635D01*
X198088062Y-97457904D01*
X198052423Y-97438854D01*
X198021183Y-97413217D01*
X197995546Y-97381977D01*
X197976496Y-97346338D01*
X197964765Y-97307668D01*
X197960200Y-97261312D01*
X197960200Y-96185088D01*
X197964765Y-96138732D01*
X197976496Y-96100062D01*
X197995546Y-96064423D01*
X198021183Y-96033183D01*
X198052423Y-96007546D01*
X198088062Y-95988496D01*
X198126732Y-95976765D01*
X198173088Y-95972200D01*
X198824312Y-95972200D01*
X198870668Y-95976765D01*
G37*
G36*
X180415625Y-90187988D02*
G01*
X180581910Y-90221063D01*
X180764536Y-90296709D01*
X180928894Y-90406530D01*
X181068670Y-90546306D01*
X181178491Y-90710664D01*
X181254137Y-90893290D01*
X181292700Y-91087164D01*
X181292700Y-91284836D01*
X181254137Y-91478710D01*
X181178491Y-91661336D01*
X181068670Y-91825694D01*
X180928894Y-91965470D01*
X180764536Y-92075291D01*
X180763745Y-92075619D01*
X180742137Y-92087168D01*
X180723195Y-92102713D01*
X180707650Y-92121655D01*
X180696098Y-92143265D01*
X180688985Y-92166714D01*
X180686583Y-92191100D01*
X180688985Y-92215486D01*
X180696098Y-92238935D01*
X180707649Y-92260546D01*
X180723194Y-92279488D01*
X180742136Y-92295033D01*
X180763746Y-92306585D01*
X180787195Y-92313698D01*
X180811582Y-92316100D01*
X182156300Y-92316100D01*
X182156300Y-95135900D01*
X180811582Y-95135900D01*
X180787196Y-95138302D01*
X180763747Y-95145415D01*
X180742136Y-95156966D01*
X180723194Y-95172511D01*
X180707649Y-95191453D01*
X180696098Y-95213064D01*
X180688985Y-95236513D01*
X180686583Y-95260899D01*
X180688985Y-95285285D01*
X180696098Y-95308734D01*
X180707649Y-95330345D01*
X180723194Y-95349287D01*
X180742136Y-95364832D01*
X180763745Y-95376381D01*
X180764536Y-95376709D01*
X180928894Y-95486530D01*
X181068670Y-95626306D01*
X181178491Y-95790664D01*
X181254137Y-95973290D01*
X181292700Y-96167164D01*
X181292700Y-96364836D01*
X181254137Y-96558710D01*
X181178491Y-96741336D01*
X181068670Y-96905694D01*
X180928894Y-97045470D01*
X180764536Y-97155291D01*
X180581910Y-97230937D01*
X180415625Y-97264012D01*
X180388037Y-97269500D01*
X180190363Y-97269500D01*
X180162775Y-97264012D01*
X179996490Y-97230937D01*
X179813864Y-97155291D01*
X179649506Y-97045470D01*
X179509730Y-96905694D01*
X179399909Y-96741336D01*
X179324263Y-96558710D01*
X179285700Y-96364836D01*
X179285700Y-96167164D01*
X179324263Y-95973290D01*
X179399909Y-95790664D01*
X179509730Y-95626306D01*
X179649506Y-95486530D01*
X179813864Y-95376709D01*
X179814655Y-95376381D01*
X179836263Y-95364832D01*
X179855205Y-95349287D01*
X179870750Y-95330345D01*
X179882302Y-95308735D01*
X179889415Y-95285286D01*
X179891817Y-95260900D01*
X179889415Y-95236514D01*
X179882302Y-95213065D01*
X179870751Y-95191454D01*
X179855206Y-95172512D01*
X179836264Y-95156967D01*
X179814654Y-95145415D01*
X179791205Y-95138302D01*
X179766818Y-95135900D01*
X178422100Y-95135900D01*
X178422100Y-92316100D01*
X179766818Y-92316100D01*
X179791204Y-92313698D01*
X179814653Y-92306585D01*
X179836264Y-92295034D01*
X179855206Y-92279489D01*
X179870751Y-92260547D01*
X179882302Y-92238936D01*
X179889415Y-92215487D01*
X179891817Y-92191101D01*
X179889415Y-92166715D01*
X179882302Y-92143266D01*
X179870751Y-92121655D01*
X179855206Y-92102713D01*
X179836264Y-92087168D01*
X179814655Y-92075619D01*
X179813864Y-92075291D01*
X179649506Y-91965470D01*
X179509730Y-91825694D01*
X179399909Y-91661336D01*
X179324263Y-91478710D01*
X179285700Y-91284836D01*
X179285700Y-91087164D01*
X179324263Y-90893290D01*
X179399909Y-90710664D01*
X179509730Y-90546306D01*
X179649506Y-90406530D01*
X179813864Y-90296709D01*
X179996490Y-90221063D01*
X180162775Y-90187988D01*
X180190363Y-90182500D01*
X180388037Y-90182500D01*
X180415625Y-90187988D01*
G37*
G36*
X207746868Y-95912165D02*
G01*
X207785538Y-95923896D01*
X207821177Y-95942946D01*
X207852417Y-95968583D01*
X207878054Y-95999823D01*
X207897104Y-96035462D01*
X207908835Y-96074132D01*
X207913400Y-96120488D01*
X207913400Y-96771712D01*
X207908835Y-96818068D01*
X207897104Y-96856738D01*
X207878054Y-96892377D01*
X207852417Y-96923617D01*
X207821177Y-96949254D01*
X207785538Y-96968304D01*
X207746868Y-96980035D01*
X207700512Y-96984600D01*
X206624288Y-96984600D01*
X206577932Y-96980035D01*
X206539262Y-96968304D01*
X206503623Y-96949254D01*
X206472383Y-96923617D01*
X206446746Y-96892377D01*
X206427696Y-96856738D01*
X206415965Y-96818068D01*
X206411400Y-96771712D01*
X206411400Y-96120488D01*
X206415965Y-96074132D01*
X206427696Y-96035462D01*
X206446746Y-95999823D01*
X206472383Y-95968583D01*
X206503623Y-95942946D01*
X206539262Y-95923896D01*
X206577932Y-95912165D01*
X206624288Y-95907600D01*
X207700512Y-95907600D01*
X207746868Y-95912165D01*
G37*
G36*
X210134468Y-95912165D02*
G01*
X210173138Y-95923896D01*
X210208777Y-95942946D01*
X210240017Y-95968583D01*
X210265654Y-95999823D01*
X210284704Y-96035462D01*
X210296435Y-96074132D01*
X210301000Y-96120488D01*
X210301000Y-96771712D01*
X210296435Y-96818068D01*
X210284704Y-96856738D01*
X210265654Y-96892377D01*
X210240017Y-96923617D01*
X210208777Y-96949254D01*
X210173138Y-96968304D01*
X210134468Y-96980035D01*
X210088112Y-96984600D01*
X209011888Y-96984600D01*
X208965532Y-96980035D01*
X208926862Y-96968304D01*
X208891223Y-96949254D01*
X208859983Y-96923617D01*
X208834346Y-96892377D01*
X208815296Y-96856738D01*
X208803565Y-96818068D01*
X208799000Y-96771712D01*
X208799000Y-96120488D01*
X208803565Y-96074132D01*
X208815296Y-96035462D01*
X208834346Y-95999823D01*
X208859983Y-95968583D01*
X208891223Y-95942946D01*
X208926862Y-95923896D01*
X208965532Y-95912165D01*
X209011888Y-95907600D01*
X210088112Y-95907600D01*
X210134468Y-95912165D01*
G37*
G36*
X192417000Y-96811400D02*
G01*
X190615000Y-96811400D01*
X190615000Y-95009400D01*
X192417000Y-95009400D01*
X192417000Y-96811400D01*
G37*
G36*
X186886468Y-95113165D02*
G01*
X186925138Y-95124896D01*
X186960777Y-95143946D01*
X186992017Y-95169583D01*
X187017654Y-95200823D01*
X187036704Y-95236462D01*
X187048435Y-95275132D01*
X187053000Y-95321488D01*
X187053000Y-96397712D01*
X187048435Y-96444068D01*
X187036704Y-96482738D01*
X187017654Y-96518377D01*
X186992017Y-96549617D01*
X186960777Y-96575254D01*
X186925138Y-96594304D01*
X186886468Y-96606035D01*
X186840112Y-96610600D01*
X186188888Y-96610600D01*
X186142532Y-96606035D01*
X186103862Y-96594304D01*
X186068223Y-96575254D01*
X186036983Y-96549617D01*
X186011346Y-96518377D01*
X185992296Y-96482738D01*
X185980565Y-96444068D01*
X185976000Y-96397712D01*
X185976000Y-95321488D01*
X185980565Y-95275132D01*
X185992296Y-95236462D01*
X186011346Y-95200823D01*
X186036983Y-95169583D01*
X186068223Y-95143946D01*
X186103862Y-95124896D01*
X186142532Y-95113165D01*
X186188888Y-95108600D01*
X186840112Y-95108600D01*
X186886468Y-95113165D01*
G37*
G36*
X188761468Y-95113165D02*
G01*
X188800138Y-95124896D01*
X188835777Y-95143946D01*
X188867017Y-95169583D01*
X188892654Y-95200823D01*
X188911704Y-95236462D01*
X188923435Y-95275132D01*
X188928000Y-95321488D01*
X188928000Y-96397712D01*
X188923435Y-96444068D01*
X188911704Y-96482738D01*
X188892654Y-96518377D01*
X188867017Y-96549617D01*
X188835777Y-96575254D01*
X188800138Y-96594304D01*
X188761468Y-96606035D01*
X188715112Y-96610600D01*
X188063888Y-96610600D01*
X188017532Y-96606035D01*
X187978862Y-96594304D01*
X187943223Y-96575254D01*
X187911983Y-96549617D01*
X187886346Y-96518377D01*
X187867296Y-96482738D01*
X187855565Y-96444068D01*
X187851000Y-96397712D01*
X187851000Y-95321488D01*
X187855565Y-95275132D01*
X187867296Y-95236462D01*
X187886346Y-95200823D01*
X187911983Y-95169583D01*
X187943223Y-95143946D01*
X187978862Y-95124896D01*
X188017532Y-95113165D01*
X188063888Y-95108600D01*
X188715112Y-95108600D01*
X188761468Y-95113165D01*
G37*
G36*
X230024164Y-94239389D02*
G01*
X230215433Y-94318615D01*
X230215435Y-94318616D01*
X230387573Y-94433635D01*
X230533965Y-94580027D01*
X230641013Y-94740235D01*
X230648985Y-94752167D01*
X230728211Y-94943436D01*
X230768600Y-95146484D01*
X230768600Y-95353516D01*
X230728211Y-95556564D01*
X230699323Y-95626306D01*
X230648984Y-95747835D01*
X230533965Y-95919973D01*
X230387573Y-96066365D01*
X230215435Y-96181384D01*
X230215434Y-96181385D01*
X230215433Y-96181385D01*
X230024164Y-96260611D01*
X229821116Y-96301000D01*
X229614084Y-96301000D01*
X229411036Y-96260611D01*
X229219767Y-96181385D01*
X229219766Y-96181385D01*
X229219765Y-96181384D01*
X229047627Y-96066365D01*
X228901235Y-95919973D01*
X228786216Y-95747835D01*
X228735877Y-95626306D01*
X228706989Y-95556564D01*
X228666600Y-95353516D01*
X228666600Y-95146484D01*
X228706989Y-94943436D01*
X228786215Y-94752167D01*
X228794188Y-94740235D01*
X228901235Y-94580027D01*
X229047627Y-94433635D01*
X229219765Y-94318616D01*
X229219767Y-94318615D01*
X229411036Y-94239389D01*
X229614084Y-94199000D01*
X229821116Y-94199000D01*
X230024164Y-94239389D01*
G37*
G36*
X219254564Y-94239389D02*
G01*
X219445833Y-94318615D01*
X219445835Y-94318616D01*
X219617973Y-94433635D01*
X219764365Y-94580027D01*
X219871413Y-94740235D01*
X219879385Y-94752167D01*
X219958611Y-94943436D01*
X219999000Y-95146484D01*
X219999000Y-95353516D01*
X219958611Y-95556564D01*
X219929723Y-95626306D01*
X219879384Y-95747835D01*
X219764365Y-95919973D01*
X219617973Y-96066365D01*
X219445835Y-96181384D01*
X219445834Y-96181385D01*
X219445833Y-96181385D01*
X219254564Y-96260611D01*
X219051516Y-96301000D01*
X218844484Y-96301000D01*
X218641436Y-96260611D01*
X218450167Y-96181385D01*
X218450166Y-96181385D01*
X218450165Y-96181384D01*
X218278027Y-96066365D01*
X218131635Y-95919973D01*
X218016616Y-95747835D01*
X217966277Y-95626306D01*
X217937389Y-95556564D01*
X217897000Y-95353516D01*
X217897000Y-95146484D01*
X217937389Y-94943436D01*
X218016615Y-94752167D01*
X218024588Y-94740235D01*
X218131635Y-94580027D01*
X218278027Y-94433635D01*
X218450165Y-94318616D01*
X218450167Y-94318615D01*
X218641436Y-94239389D01*
X218844484Y-94199000D01*
X219051516Y-94199000D01*
X219254564Y-94239389D01*
G37*
G36*
X224639364Y-94036189D02*
G01*
X224830633Y-94115415D01*
X224830635Y-94115416D01*
X224943829Y-94191050D01*
X225002773Y-94230435D01*
X225149165Y-94376827D01*
X225264185Y-94548967D01*
X225343411Y-94740236D01*
X225383800Y-94943284D01*
X225383800Y-95150316D01*
X225343411Y-95353364D01*
X225288252Y-95486530D01*
X225264184Y-95544635D01*
X225149165Y-95716773D01*
X225002773Y-95863165D01*
X224830635Y-95978184D01*
X224830634Y-95978185D01*
X224830633Y-95978185D01*
X224639364Y-96057411D01*
X224436316Y-96097800D01*
X224229284Y-96097800D01*
X224026236Y-96057411D01*
X223834967Y-95978185D01*
X223834966Y-95978185D01*
X223834965Y-95978184D01*
X223662827Y-95863165D01*
X223516435Y-95716773D01*
X223401416Y-95544635D01*
X223377348Y-95486530D01*
X223322189Y-95353364D01*
X223281800Y-95150316D01*
X223281800Y-94943284D01*
X223322189Y-94740236D01*
X223401415Y-94548967D01*
X223516435Y-94376827D01*
X223662827Y-94230435D01*
X223721771Y-94191050D01*
X223834965Y-94115416D01*
X223834967Y-94115415D01*
X224026236Y-94036189D01*
X224229284Y-93995800D01*
X224436316Y-93995800D01*
X224639364Y-94036189D01*
G37*
G36*
X198840200Y-95025400D02*
G01*
X197838200Y-95025400D01*
X197838200Y-94123400D01*
X198840200Y-94123400D01*
X198840200Y-95025400D01*
G37*
G36*
X196774068Y-93926365D02*
G01*
X196812738Y-93938096D01*
X196848377Y-93957146D01*
X196879617Y-93982783D01*
X196905254Y-94014023D01*
X196924304Y-94049662D01*
X196936035Y-94088332D01*
X196940600Y-94134688D01*
X196940600Y-94785912D01*
X196936035Y-94832268D01*
X196924304Y-94870938D01*
X196905254Y-94906577D01*
X196879617Y-94937817D01*
X196848377Y-94963454D01*
X196812738Y-94982504D01*
X196774068Y-94994235D01*
X196727712Y-94998800D01*
X195651488Y-94998800D01*
X195605132Y-94994235D01*
X195566462Y-94982504D01*
X195530823Y-94963454D01*
X195499583Y-94937817D01*
X195473946Y-94906577D01*
X195454896Y-94870938D01*
X195443165Y-94832268D01*
X195438600Y-94785912D01*
X195438600Y-94134688D01*
X195443165Y-94088332D01*
X195454896Y-94049662D01*
X195473946Y-94014023D01*
X195499583Y-93982783D01*
X195530823Y-93957146D01*
X195566462Y-93938096D01*
X195605132Y-93926365D01*
X195651488Y-93921800D01*
X196727712Y-93921800D01*
X196774068Y-93926365D01*
G37*
G36*
X191629512Y-92474327D02*
G01*
X191778812Y-92504024D01*
X191942784Y-92571944D01*
X192090354Y-92670547D01*
X192215853Y-92796046D01*
X192314456Y-92943616D01*
X192382376Y-93107588D01*
X192417000Y-93281659D01*
X192417000Y-93459141D01*
X192382376Y-93633212D01*
X192314456Y-93797184D01*
X192215853Y-93944754D01*
X192090354Y-94070253D01*
X191942784Y-94168856D01*
X191778812Y-94236776D01*
X191629512Y-94266473D01*
X191604742Y-94271400D01*
X191427258Y-94271400D01*
X191402488Y-94266473D01*
X191253188Y-94236776D01*
X191089216Y-94168856D01*
X190941646Y-94070253D01*
X190816147Y-93944754D01*
X190717544Y-93797184D01*
X190649624Y-93633212D01*
X190615000Y-93459141D01*
X190615000Y-93281659D01*
X190649624Y-93107588D01*
X190717544Y-92943616D01*
X190816147Y-92796046D01*
X190941646Y-92670547D01*
X191089216Y-92571944D01*
X191253188Y-92504024D01*
X191402488Y-92474327D01*
X191427258Y-92469400D01*
X191604742Y-92469400D01*
X191629512Y-92474327D01*
G37*
G36*
X200840200Y-94075400D02*
G01*
X199838200Y-94075400D01*
X199838200Y-93173400D01*
X200840200Y-93173400D01*
X200840200Y-94075400D01*
G37*
G36*
X204419400Y-94043700D02*
G01*
X202133000Y-94043700D01*
X202133000Y-92392300D01*
X204419400Y-92392300D01*
X204419400Y-94043700D01*
G37*
G36*
X207823000Y-94043700D02*
G01*
X205536600Y-94043700D01*
X205536600Y-92392300D01*
X207823000Y-92392300D01*
X207823000Y-94043700D01*
G37*
G36*
X188659868Y-91760365D02*
G01*
X188698538Y-91772096D01*
X188734177Y-91791146D01*
X188765417Y-91816783D01*
X188791054Y-91848023D01*
X188810104Y-91883662D01*
X188821835Y-91922332D01*
X188826400Y-91968688D01*
X188826400Y-93044912D01*
X188821835Y-93091268D01*
X188810104Y-93129938D01*
X188791054Y-93165577D01*
X188765417Y-93196817D01*
X188734177Y-93222454D01*
X188698538Y-93241504D01*
X188659868Y-93253235D01*
X188613512Y-93257800D01*
X187962288Y-93257800D01*
X187915932Y-93253235D01*
X187877262Y-93241504D01*
X187841623Y-93222454D01*
X187810383Y-93196817D01*
X187784746Y-93165577D01*
X187765696Y-93129938D01*
X187753965Y-93091268D01*
X187749400Y-93044912D01*
X187749400Y-91968688D01*
X187753965Y-91922332D01*
X187765696Y-91883662D01*
X187784746Y-91848023D01*
X187810383Y-91816783D01*
X187841623Y-91791146D01*
X187877262Y-91772096D01*
X187915932Y-91760365D01*
X187962288Y-91755800D01*
X188613512Y-91755800D01*
X188659868Y-91760365D01*
G37*
G36*
X186784868Y-91760365D02*
G01*
X186823538Y-91772096D01*
X186859177Y-91791146D01*
X186890417Y-91816783D01*
X186916054Y-91848023D01*
X186935104Y-91883662D01*
X186946835Y-91922332D01*
X186951400Y-91968688D01*
X186951400Y-93044912D01*
X186946835Y-93091268D01*
X186935104Y-93129938D01*
X186916054Y-93165577D01*
X186890417Y-93196817D01*
X186859177Y-93222454D01*
X186823538Y-93241504D01*
X186784868Y-93253235D01*
X186738512Y-93257800D01*
X186087288Y-93257800D01*
X186040932Y-93253235D01*
X186002262Y-93241504D01*
X185966623Y-93222454D01*
X185935383Y-93196817D01*
X185909746Y-93165577D01*
X185890696Y-93129938D01*
X185878965Y-93091268D01*
X185874400Y-93044912D01*
X185874400Y-91968688D01*
X185878965Y-91922332D01*
X185890696Y-91883662D01*
X185909746Y-91848023D01*
X185935383Y-91816783D01*
X185966623Y-91791146D01*
X186002262Y-91772096D01*
X186040932Y-91760365D01*
X186087288Y-91755800D01*
X186738512Y-91755800D01*
X186784868Y-91760365D01*
G37*
G36*
X198840200Y-93125400D02*
G01*
X197838200Y-93125400D01*
X197838200Y-92223400D01*
X198840200Y-92223400D01*
X198840200Y-93125400D01*
G37*
G36*
X196774068Y-92051365D02*
G01*
X196812738Y-92063096D01*
X196848377Y-92082146D01*
X196879617Y-92107783D01*
X196905254Y-92139023D01*
X196924304Y-92174662D01*
X196936035Y-92213332D01*
X196940600Y-92259688D01*
X196940600Y-92910912D01*
X196936035Y-92957268D01*
X196924304Y-92995938D01*
X196905254Y-93031577D01*
X196879617Y-93062817D01*
X196848377Y-93088454D01*
X196812738Y-93107504D01*
X196774068Y-93119235D01*
X196727712Y-93123800D01*
X195651488Y-93123800D01*
X195605132Y-93119235D01*
X195566462Y-93107504D01*
X195530823Y-93088454D01*
X195499583Y-93062817D01*
X195473946Y-93031577D01*
X195454896Y-92995938D01*
X195443165Y-92957268D01*
X195438600Y-92910912D01*
X195438600Y-92259688D01*
X195443165Y-92213332D01*
X195454896Y-92174662D01*
X195473946Y-92139023D01*
X195499583Y-92107783D01*
X195530823Y-92082146D01*
X195566462Y-92063096D01*
X195605132Y-92051365D01*
X195651488Y-92046800D01*
X196727712Y-92046800D01*
X196774068Y-92051365D01*
G37*
M02*
