G04 #@! TF.GenerationSoftware,KiCad,Pcbnew,(5.1.5-0)*
G04 #@! TF.CreationDate,2020-04-26T22:39:22-07:00*
G04 #@! TF.ProjectId,Solar-Battery-Charger,536f6c61-722d-4426-9174-746572792d43,rev?*
G04 #@! TF.SameCoordinates,Original*
G04 #@! TF.FileFunction,Legend,Top*
G04 #@! TF.FilePolarity,Positive*
%FSLAX46Y46*%
G04 Gerber Fmt 4.6, Leading zero omitted, Abs format (unit mm)*
G04 Created by KiCad (PCBNEW (5.1.5-0)) date 2020-04-26 22:39:22*
%MOMM*%
%LPD*%
G04 APERTURE LIST*
%ADD10C,0.152400*%
%ADD11C,0.120000*%
%ADD12C,0.150000*%
%ADD13C,0.015000*%
G04 APERTURE END LIST*
D10*
X178600100Y-104510840D02*
X178600100Y-106908600D01*
X181978300Y-101127560D02*
X181978300Y-98729800D01*
X178600100Y-106908600D02*
X181978300Y-106908600D01*
X178600100Y-98729800D02*
X178600100Y-101127560D01*
X181978300Y-98729800D02*
X178600100Y-98729800D01*
X181978300Y-106908600D02*
X181978300Y-104510840D01*
X178600100Y-95417640D02*
X178600100Y-97815400D01*
X181978300Y-92034360D02*
X181978300Y-89636600D01*
X178600100Y-97815400D02*
X181978300Y-97815400D01*
X178600100Y-89636600D02*
X178600100Y-92034360D01*
X181978300Y-89636600D02*
X178600100Y-89636600D01*
X181978300Y-97815400D02*
X181978300Y-95417640D01*
X199120760Y-115506500D02*
X196723000Y-115506500D01*
X202504040Y-118884700D02*
X204901800Y-118884700D01*
X196723000Y-115506500D02*
X196723000Y-118884700D01*
X204901800Y-115506500D02*
X202504040Y-115506500D01*
X204901800Y-118884700D02*
X204901800Y-115506500D01*
X196723000Y-118884700D02*
X199120760Y-118884700D01*
X180883560Y-115201700D02*
X178485800Y-115201700D01*
X184266840Y-118579900D02*
X186664600Y-118579900D01*
X178485800Y-115201700D02*
X178485800Y-118579900D01*
X186664600Y-115201700D02*
X184266840Y-115201700D01*
X186664600Y-118579900D02*
X186664600Y-115201700D01*
X178485800Y-118579900D02*
X180883560Y-118579900D01*
D11*
X204769600Y-113739200D02*
X204769600Y-112279200D01*
X207929600Y-113739200D02*
X207929600Y-111579200D01*
X207929600Y-113739200D02*
X206999600Y-113739200D01*
X204769600Y-113739200D02*
X205699600Y-113739200D01*
X187193422Y-95149600D02*
X187710578Y-95149600D01*
X187193422Y-96569600D02*
X187710578Y-96569600D01*
X195479600Y-93264222D02*
X195479600Y-93781378D01*
X196899600Y-93264222D02*
X196899600Y-93781378D01*
X189942400Y-109884978D02*
X189942400Y-109367822D01*
X191362400Y-109884978D02*
X191362400Y-109367822D01*
X206452400Y-97642178D02*
X206452400Y-97125022D01*
X207872400Y-97642178D02*
X207872400Y-97125022D01*
X203859200Y-111284278D02*
X203859200Y-110767122D01*
X202439200Y-111284278D02*
X202439200Y-110767122D01*
X208789200Y-111256578D02*
X208789200Y-110739422D01*
X210209200Y-111256578D02*
X210209200Y-110739422D01*
X200204000Y-107266478D02*
X200204000Y-106749322D01*
X201624000Y-107266478D02*
X201624000Y-106749322D01*
X221283600Y-101553778D02*
X221283600Y-101036622D01*
X219863600Y-101553778D02*
X219863600Y-101036622D01*
X224937822Y-101296400D02*
X225454978Y-101296400D01*
X224937822Y-102716400D02*
X225454978Y-102716400D01*
X224937822Y-106678800D02*
X225454978Y-106678800D01*
X224937822Y-105258800D02*
X225454978Y-105258800D01*
X194162178Y-115571200D02*
X193645022Y-115571200D01*
X194162178Y-116991200D02*
X193645022Y-116991200D01*
X190363600Y-102712400D02*
X193048600Y-102712400D01*
X193048600Y-102712400D02*
X193048600Y-100792400D01*
X193048600Y-100792400D02*
X190363600Y-100792400D01*
X192997800Y-104297600D02*
X190312800Y-104297600D01*
X192997800Y-106217600D02*
X192997800Y-104297600D01*
X190312800Y-106217600D02*
X192997800Y-106217600D01*
D10*
X208127600Y-93218000D02*
X209397600Y-93218000D01*
X209143600Y-93853000D02*
X209143600Y-92583000D01*
X209143600Y-93218000D02*
X208381600Y-93853000D01*
X209143600Y-93218000D02*
X208381600Y-93726000D01*
X209143600Y-93218000D02*
X208381600Y-93599000D01*
X209143600Y-93218000D02*
X208381600Y-93472000D01*
X209143600Y-93218000D02*
X208381600Y-93345000D01*
X209143600Y-93218000D02*
X208381600Y-92583000D01*
X209143600Y-93218000D02*
X208381600Y-92710000D01*
X209143600Y-93218000D02*
X208381600Y-92837000D01*
X209143600Y-93218000D02*
X208381600Y-92964000D01*
X209143600Y-93218000D02*
X208381600Y-93091000D01*
X208381600Y-93853000D02*
X208381600Y-92583000D01*
X207746600Y-91694000D02*
X202209400Y-91694000D01*
X202209400Y-91694000D02*
X202209400Y-92110560D01*
X202209400Y-94742000D02*
X207746600Y-94742000D01*
X207746600Y-94742000D02*
X207746600Y-94325440D01*
X207746600Y-92110560D02*
X207746600Y-91694000D01*
X202209400Y-94325440D02*
X202209400Y-94742000D01*
D11*
X183134000Y-108448800D02*
X184464000Y-108448800D01*
X184464000Y-108448800D02*
X184464000Y-109778800D01*
X184464000Y-111048800D02*
X184464000Y-113648800D01*
X181804000Y-113648800D02*
X184464000Y-113648800D01*
X181804000Y-111048800D02*
X181804000Y-113648800D01*
X181804000Y-111048800D02*
X184464000Y-111048800D01*
X192846000Y-94640400D02*
X190186000Y-94640400D01*
X192846000Y-94640400D02*
X192846000Y-92040400D01*
X192846000Y-92040400D02*
X190186000Y-92040400D01*
X190186000Y-94640400D02*
X190186000Y-92040400D01*
X190186000Y-97240400D02*
X190186000Y-95910400D01*
X191516000Y-97240400D02*
X190186000Y-97240400D01*
X214981022Y-105208000D02*
X215498178Y-105208000D01*
X214981022Y-106628000D02*
X215498178Y-106628000D01*
X200099200Y-95204400D02*
X200099200Y-94274400D01*
X200099200Y-92044400D02*
X200099200Y-92974400D01*
X200099200Y-92044400D02*
X197939200Y-92044400D01*
X200099200Y-95204400D02*
X198639200Y-95204400D01*
X215138000Y-104160000D02*
X217088000Y-104160000D01*
X215138000Y-104160000D02*
X213188000Y-104160000D01*
X215138000Y-99040000D02*
X217088000Y-99040000D01*
X215138000Y-99040000D02*
X211688000Y-99040000D01*
X186482222Y-102462400D02*
X186999378Y-102462400D01*
X186482222Y-101042400D02*
X186999378Y-101042400D01*
X186482222Y-104496800D02*
X186999378Y-104496800D01*
X186482222Y-105916800D02*
X186999378Y-105916800D01*
X187091822Y-93216800D02*
X187608978Y-93216800D01*
X187091822Y-91796800D02*
X187608978Y-91796800D01*
X201528178Y-97484000D02*
X201011022Y-97484000D01*
X201528178Y-96064000D02*
X201011022Y-96064000D01*
X197819778Y-97433200D02*
X197302622Y-97433200D01*
X197819778Y-96013200D02*
X197302622Y-96013200D01*
X187585878Y-111659600D02*
X187068722Y-111659600D01*
X187585878Y-113079600D02*
X187068722Y-113079600D01*
X187017922Y-108205200D02*
X187535078Y-108205200D01*
X187017922Y-109625200D02*
X187535078Y-109625200D01*
X208840000Y-97125022D02*
X208840000Y-97642178D01*
X210260000Y-97125022D02*
X210260000Y-97642178D01*
X219615936Y-105109600D02*
X220820064Y-105109600D01*
X219615936Y-106929600D02*
X220820064Y-106929600D01*
X194088278Y-112116800D02*
X193571122Y-112116800D01*
X194088278Y-113536800D02*
X193571122Y-113536800D01*
X197898278Y-113486000D02*
X197381122Y-113486000D01*
X197898278Y-112066000D02*
X197381122Y-112066000D01*
X216841200Y-110998000D02*
G75*
G03X216841200Y-110998000I-1500000J0D01*
G01*
X221565600Y-110845600D02*
G75*
G03X221565600Y-110845600I-1500000J0D01*
G01*
X226493200Y-110896400D02*
G75*
G03X226493200Y-110896400I-1500000J0D01*
G01*
X211913600Y-116128800D02*
G75*
G03X211913600Y-116128800I-1500000J0D01*
G01*
X216841200Y-116027200D02*
G75*
G03X216841200Y-116027200I-1500000J0D01*
G01*
X221718000Y-116078000D02*
G75*
G03X221718000Y-116078000I-1500000J0D01*
G01*
X226493200Y-116027200D02*
G75*
G03X226493200Y-116027200I-1500000J0D01*
G01*
X231370000Y-116230400D02*
G75*
G03X231370000Y-116230400I-1500000J0D01*
G01*
X231268400Y-110896400D02*
G75*
G03X231268400Y-110896400I-1500000J0D01*
G01*
X231217600Y-105511600D02*
G75*
G03X231217600Y-105511600I-1500000J0D01*
G01*
X231268400Y-100228400D02*
G75*
G03X231268400Y-100228400I-1500000J0D01*
G01*
X231217600Y-95250000D02*
G75*
G03X231217600Y-95250000I-1500000J0D01*
G01*
X225832800Y-95046800D02*
G75*
G03X225832800Y-95046800I-1500000J0D01*
G01*
X220448000Y-95250000D02*
G75*
G03X220448000Y-95250000I-1500000J0D01*
G01*
D10*
X206070200Y-103403400D02*
X206629000Y-103403400D01*
X203022200Y-102844600D02*
X203022200Y-103403400D01*
X206629000Y-100355400D02*
X206629000Y-99796600D01*
X203022200Y-99796600D02*
X203022200Y-100355400D01*
X203022200Y-103403400D02*
X203581000Y-103403400D01*
X206629000Y-103403400D02*
X206629000Y-102844600D01*
X206629000Y-99796600D02*
X206070200Y-99796600D01*
X203581000Y-99796600D02*
X203022200Y-99796600D01*
D12*
X179741580Y-103581104D02*
X180551104Y-103581104D01*
X180646342Y-103533485D01*
X180693961Y-103485866D01*
X180741580Y-103390628D01*
X180741580Y-103200152D01*
X180693961Y-103104914D01*
X180646342Y-103057295D01*
X180551104Y-103009676D01*
X179741580Y-103009676D01*
X179836819Y-102581104D02*
X179789200Y-102533485D01*
X179741580Y-102438247D01*
X179741580Y-102200152D01*
X179789200Y-102104914D01*
X179836819Y-102057295D01*
X179932057Y-102009676D01*
X180027295Y-102009676D01*
X180170152Y-102057295D01*
X180741580Y-102628723D01*
X180741580Y-102009676D01*
X180741580Y-106485866D02*
X180741580Y-107057295D01*
X180741580Y-106771580D02*
X179741580Y-106771580D01*
X179884438Y-106866819D01*
X179979676Y-106962057D01*
X180027295Y-107057295D01*
X179836819Y-106104914D02*
X179789200Y-106057295D01*
X179741580Y-105962057D01*
X179741580Y-105723961D01*
X179789200Y-105628723D01*
X179836819Y-105581104D01*
X179932057Y-105533485D01*
X180027295Y-105533485D01*
X180170152Y-105581104D01*
X180741580Y-106152533D01*
X180741580Y-105533485D01*
X180741580Y-104581104D02*
X180741580Y-105152533D01*
X180741580Y-104866819D02*
X179741580Y-104866819D01*
X179884438Y-104962057D01*
X179979676Y-105057295D01*
X180027295Y-105152533D01*
X179741580Y-104247771D02*
X179741580Y-103581104D01*
X180741580Y-104009676D01*
X180170152Y-103057295D02*
X180122533Y-103152533D01*
X180074914Y-103200152D01*
X179979676Y-103247771D01*
X179932057Y-103247771D01*
X179836819Y-103200152D01*
X179789200Y-103152533D01*
X179741580Y-103057295D01*
X179741580Y-102866819D01*
X179789200Y-102771580D01*
X179836819Y-102723961D01*
X179932057Y-102676342D01*
X179979676Y-102676342D01*
X180074914Y-102723961D01*
X180122533Y-102771580D01*
X180170152Y-102866819D01*
X180170152Y-103057295D01*
X180217771Y-103152533D01*
X180265390Y-103200152D01*
X180360628Y-103247771D01*
X180551104Y-103247771D01*
X180646342Y-103200152D01*
X180693961Y-103152533D01*
X180741580Y-103057295D01*
X180741580Y-102866819D01*
X180693961Y-102771580D01*
X180646342Y-102723961D01*
X180551104Y-102676342D01*
X180360628Y-102676342D01*
X180265390Y-102723961D01*
X180217771Y-102771580D01*
X180170152Y-102866819D01*
X179741580Y-101819200D02*
X179741580Y-102009676D01*
X179789200Y-102104914D01*
X179836819Y-102152533D01*
X179979676Y-102247771D01*
X180170152Y-102295390D01*
X180551104Y-102295390D01*
X180646342Y-102247771D01*
X180693961Y-102200152D01*
X180741580Y-102104914D01*
X180741580Y-101914438D01*
X180693961Y-101819200D01*
X180646342Y-101771580D01*
X180551104Y-101723961D01*
X180313009Y-101723961D01*
X180217771Y-101771580D01*
X180170152Y-101819200D01*
X180122533Y-101914438D01*
X180122533Y-102104914D01*
X180170152Y-102200152D01*
X180217771Y-102247771D01*
X180313009Y-102295390D01*
X180741580Y-100771580D02*
X180741580Y-101343009D01*
X180741580Y-101057295D02*
X179741580Y-101057295D01*
X179884438Y-101152533D01*
X179979676Y-101247771D01*
X180027295Y-101343009D01*
X180360628Y-100343009D02*
X180360628Y-99581104D01*
X180741580Y-98581104D02*
X180741580Y-99152533D01*
X180741580Y-98866819D02*
X179741580Y-98866819D01*
X179884438Y-98962057D01*
X179979676Y-99057295D01*
X180027295Y-99152533D01*
X179741580Y-102819200D02*
X179979676Y-102819200D01*
X179884438Y-103057295D02*
X179979676Y-102819200D01*
X179884438Y-102581104D01*
X180170152Y-102962057D02*
X179979676Y-102819200D01*
X180170152Y-102676342D01*
X179741580Y-94487904D02*
X180551104Y-94487904D01*
X180646342Y-94440285D01*
X180693961Y-94392666D01*
X180741580Y-94297428D01*
X180741580Y-94106952D01*
X180693961Y-94011714D01*
X180646342Y-93964095D01*
X180551104Y-93916476D01*
X179741580Y-93916476D01*
X179741580Y-93535523D02*
X179741580Y-92916476D01*
X180122533Y-93249809D01*
X180122533Y-93106952D01*
X180170152Y-93011714D01*
X180217771Y-92964095D01*
X180313009Y-92916476D01*
X180551104Y-92916476D01*
X180646342Y-92964095D01*
X180693961Y-93011714D01*
X180741580Y-93106952D01*
X180741580Y-93392666D01*
X180693961Y-93487904D01*
X180646342Y-93535523D01*
X180741580Y-97392666D02*
X180741580Y-97964095D01*
X180741580Y-97678380D02*
X179741580Y-97678380D01*
X179884438Y-97773619D01*
X179979676Y-97868857D01*
X180027295Y-97964095D01*
X179836819Y-97011714D02*
X179789200Y-96964095D01*
X179741580Y-96868857D01*
X179741580Y-96630761D01*
X179789200Y-96535523D01*
X179836819Y-96487904D01*
X179932057Y-96440285D01*
X180027295Y-96440285D01*
X180170152Y-96487904D01*
X180741580Y-97059333D01*
X180741580Y-96440285D01*
X180741580Y-95487904D02*
X180741580Y-96059333D01*
X180741580Y-95773619D02*
X179741580Y-95773619D01*
X179884438Y-95868857D01*
X179979676Y-95964095D01*
X180027295Y-96059333D01*
X179741580Y-95154571D02*
X179741580Y-94487904D01*
X180741580Y-94916476D01*
X180170152Y-93964095D02*
X180122533Y-94059333D01*
X180074914Y-94106952D01*
X179979676Y-94154571D01*
X179932057Y-94154571D01*
X179836819Y-94106952D01*
X179789200Y-94059333D01*
X179741580Y-93964095D01*
X179741580Y-93773619D01*
X179789200Y-93678380D01*
X179836819Y-93630761D01*
X179932057Y-93583142D01*
X179979676Y-93583142D01*
X180074914Y-93630761D01*
X180122533Y-93678380D01*
X180170152Y-93773619D01*
X180170152Y-93964095D01*
X180217771Y-94059333D01*
X180265390Y-94106952D01*
X180360628Y-94154571D01*
X180551104Y-94154571D01*
X180646342Y-94106952D01*
X180693961Y-94059333D01*
X180741580Y-93964095D01*
X180741580Y-93773619D01*
X180693961Y-93678380D01*
X180646342Y-93630761D01*
X180551104Y-93583142D01*
X180360628Y-93583142D01*
X180265390Y-93630761D01*
X180217771Y-93678380D01*
X180170152Y-93773619D01*
X179741580Y-92726000D02*
X179741580Y-92916476D01*
X179789200Y-93011714D01*
X179836819Y-93059333D01*
X179979676Y-93154571D01*
X180170152Y-93202190D01*
X180551104Y-93202190D01*
X180646342Y-93154571D01*
X180693961Y-93106952D01*
X180741580Y-93011714D01*
X180741580Y-92821238D01*
X180693961Y-92726000D01*
X180646342Y-92678380D01*
X180551104Y-92630761D01*
X180313009Y-92630761D01*
X180217771Y-92678380D01*
X180170152Y-92726000D01*
X180122533Y-92821238D01*
X180122533Y-93011714D01*
X180170152Y-93106952D01*
X180217771Y-93154571D01*
X180313009Y-93202190D01*
X180741580Y-91678380D02*
X180741580Y-92249809D01*
X180741580Y-91964095D02*
X179741580Y-91964095D01*
X179884438Y-92059333D01*
X179979676Y-92154571D01*
X180027295Y-92249809D01*
X180360628Y-91249809D02*
X180360628Y-90487904D01*
X180741580Y-89487904D02*
X180741580Y-90059333D01*
X180741580Y-89773619D02*
X179741580Y-89773619D01*
X179884438Y-89868857D01*
X179979676Y-89964095D01*
X180027295Y-90059333D01*
X179741580Y-93726000D02*
X179979676Y-93726000D01*
X179884438Y-93964095D02*
X179979676Y-93726000D01*
X179884438Y-93487904D01*
X180170152Y-93868857D02*
X179979676Y-93726000D01*
X180170152Y-93583142D01*
X200050495Y-116647980D02*
X200050495Y-117457504D01*
X200098114Y-117552742D01*
X200145733Y-117600361D01*
X200240971Y-117647980D01*
X200431447Y-117647980D01*
X200526685Y-117600361D01*
X200574304Y-117552742D01*
X200621923Y-117457504D01*
X200621923Y-116647980D01*
X201574304Y-116647980D02*
X201098114Y-116647980D01*
X201050495Y-117124171D01*
X201098114Y-117076552D01*
X201193352Y-117028933D01*
X201431447Y-117028933D01*
X201526685Y-117076552D01*
X201574304Y-117124171D01*
X201621923Y-117219409D01*
X201621923Y-117457504D01*
X201574304Y-117552742D01*
X201526685Y-117600361D01*
X201431447Y-117647980D01*
X201193352Y-117647980D01*
X201098114Y-117600361D01*
X201050495Y-117552742D01*
X181813295Y-116343180D02*
X181813295Y-117152704D01*
X181860914Y-117247942D01*
X181908533Y-117295561D01*
X182003771Y-117343180D01*
X182194247Y-117343180D01*
X182289485Y-117295561D01*
X182337104Y-117247942D01*
X182384723Y-117152704D01*
X182384723Y-116343180D01*
X183289485Y-116676514D02*
X183289485Y-117343180D01*
X183051390Y-116295561D02*
X182813295Y-117009847D01*
X183432342Y-117009847D01*
X178908533Y-117343180D02*
X178337104Y-117343180D01*
X178622819Y-117343180D02*
X178622819Y-116343180D01*
X178527580Y-116486038D01*
X178432342Y-116581276D01*
X178337104Y-116628895D01*
X179289485Y-116438419D02*
X179337104Y-116390800D01*
X179432342Y-116343180D01*
X179670438Y-116343180D01*
X179765676Y-116390800D01*
X179813295Y-116438419D01*
X179860914Y-116533657D01*
X179860914Y-116628895D01*
X179813295Y-116771752D01*
X179241866Y-117343180D01*
X179860914Y-117343180D01*
X180813295Y-117343180D02*
X180241866Y-117343180D01*
X180527580Y-117343180D02*
X180527580Y-116343180D01*
X180432342Y-116486038D01*
X180337104Y-116581276D01*
X180241866Y-116628895D01*
X181146628Y-116343180D02*
X181813295Y-116343180D01*
X181384723Y-117343180D01*
X182337104Y-116771752D02*
X182241866Y-116724133D01*
X182194247Y-116676514D01*
X182146628Y-116581276D01*
X182146628Y-116533657D01*
X182194247Y-116438419D01*
X182241866Y-116390800D01*
X182337104Y-116343180D01*
X182527580Y-116343180D01*
X182622819Y-116390800D01*
X182670438Y-116438419D01*
X182718057Y-116533657D01*
X182718057Y-116581276D01*
X182670438Y-116676514D01*
X182622819Y-116724133D01*
X182527580Y-116771752D01*
X182337104Y-116771752D01*
X182241866Y-116819371D01*
X182194247Y-116866990D01*
X182146628Y-116962228D01*
X182146628Y-117152704D01*
X182194247Y-117247942D01*
X182241866Y-117295561D01*
X182337104Y-117343180D01*
X182527580Y-117343180D01*
X182622819Y-117295561D01*
X182670438Y-117247942D01*
X182718057Y-117152704D01*
X182718057Y-116962228D01*
X182670438Y-116866990D01*
X182622819Y-116819371D01*
X182527580Y-116771752D01*
X183575200Y-116343180D02*
X183384723Y-116343180D01*
X183289485Y-116390800D01*
X183241866Y-116438419D01*
X183146628Y-116581276D01*
X183099009Y-116771752D01*
X183099009Y-117152704D01*
X183146628Y-117247942D01*
X183194247Y-117295561D01*
X183289485Y-117343180D01*
X183479961Y-117343180D01*
X183575200Y-117295561D01*
X183622819Y-117247942D01*
X183670438Y-117152704D01*
X183670438Y-116914609D01*
X183622819Y-116819371D01*
X183575200Y-116771752D01*
X183479961Y-116724133D01*
X183289485Y-116724133D01*
X183194247Y-116771752D01*
X183146628Y-116819371D01*
X183099009Y-116914609D01*
X184622819Y-117343180D02*
X184051390Y-117343180D01*
X184337104Y-117343180D02*
X184337104Y-116343180D01*
X184241866Y-116486038D01*
X184146628Y-116581276D01*
X184051390Y-116628895D01*
X185051390Y-116962228D02*
X185813295Y-116962228D01*
X186813295Y-117343180D02*
X186241866Y-117343180D01*
X186527580Y-117343180D02*
X186527580Y-116343180D01*
X186432342Y-116486038D01*
X186337104Y-116581276D01*
X186241866Y-116628895D01*
X182575200Y-116343180D02*
X182575200Y-116581276D01*
X182337104Y-116486038D02*
X182575200Y-116581276D01*
X182813295Y-116486038D01*
X182432342Y-116771752D02*
X182575200Y-116581276D01*
X182718057Y-116771752D01*
X205662304Y-116022380D02*
X205662304Y-115022380D01*
X205900400Y-115022380D01*
X206043257Y-115070000D01*
X206138495Y-115165238D01*
X206186114Y-115260476D01*
X206233733Y-115450952D01*
X206233733Y-115593809D01*
X206186114Y-115784285D01*
X206138495Y-115879523D01*
X206043257Y-115974761D01*
X205900400Y-116022380D01*
X205662304Y-116022380D01*
X207090876Y-115355714D02*
X207090876Y-116022380D01*
X206852780Y-114974761D02*
X206614685Y-115689047D01*
X207233733Y-115689047D01*
X187234533Y-97943942D02*
X187186914Y-97991561D01*
X187044057Y-98039180D01*
X186948819Y-98039180D01*
X186805961Y-97991561D01*
X186710723Y-97896323D01*
X186663104Y-97801085D01*
X186615485Y-97610609D01*
X186615485Y-97467752D01*
X186663104Y-97277276D01*
X186710723Y-97182038D01*
X186805961Y-97086800D01*
X186948819Y-97039180D01*
X187044057Y-97039180D01*
X187186914Y-97086800D01*
X187234533Y-97134419D01*
X188186914Y-98039180D02*
X187615485Y-98039180D01*
X187901200Y-98039180D02*
X187901200Y-97039180D01*
X187805961Y-97182038D01*
X187710723Y-97277276D01*
X187615485Y-97324895D01*
X194768742Y-93689466D02*
X194816361Y-93737085D01*
X194863980Y-93879942D01*
X194863980Y-93975180D01*
X194816361Y-94118038D01*
X194721123Y-94213276D01*
X194625885Y-94260895D01*
X194435409Y-94308514D01*
X194292552Y-94308514D01*
X194102076Y-94260895D01*
X194006838Y-94213276D01*
X193911600Y-94118038D01*
X193863980Y-93975180D01*
X193863980Y-93879942D01*
X193911600Y-93737085D01*
X193959219Y-93689466D01*
X193959219Y-93308514D02*
X193911600Y-93260895D01*
X193863980Y-93165657D01*
X193863980Y-92927561D01*
X193911600Y-92832323D01*
X193959219Y-92784704D01*
X194054457Y-92737085D01*
X194149695Y-92737085D01*
X194292552Y-92784704D01*
X194863980Y-93356133D01*
X194863980Y-92737085D01*
X193041542Y-109945466D02*
X193089161Y-109993085D01*
X193136780Y-110135942D01*
X193136780Y-110231180D01*
X193089161Y-110374038D01*
X192993923Y-110469276D01*
X192898685Y-110516895D01*
X192708209Y-110564514D01*
X192565352Y-110564514D01*
X192374876Y-110516895D01*
X192279638Y-110469276D01*
X192184400Y-110374038D01*
X192136780Y-110231180D01*
X192136780Y-110135942D01*
X192184400Y-109993085D01*
X192232019Y-109945466D01*
X192136780Y-109612133D02*
X192136780Y-108993085D01*
X192517733Y-109326419D01*
X192517733Y-109183561D01*
X192565352Y-109088323D01*
X192612971Y-109040704D01*
X192708209Y-108993085D01*
X192946304Y-108993085D01*
X193041542Y-109040704D01*
X193089161Y-109088323D01*
X193136780Y-109183561D01*
X193136780Y-109469276D01*
X193089161Y-109564514D01*
X193041542Y-109612133D01*
X205869542Y-97550266D02*
X205917161Y-97597885D01*
X205964780Y-97740742D01*
X205964780Y-97835980D01*
X205917161Y-97978838D01*
X205821923Y-98074076D01*
X205726685Y-98121695D01*
X205536209Y-98169314D01*
X205393352Y-98169314D01*
X205202876Y-98121695D01*
X205107638Y-98074076D01*
X205012400Y-97978838D01*
X204964780Y-97835980D01*
X204964780Y-97740742D01*
X205012400Y-97597885D01*
X205060019Y-97550266D01*
X205298114Y-96693123D02*
X205964780Y-96693123D01*
X204917161Y-96931219D02*
X205631447Y-97169314D01*
X205631447Y-96550266D01*
X201856342Y-111192366D02*
X201903961Y-111239985D01*
X201951580Y-111382842D01*
X201951580Y-111478080D01*
X201903961Y-111620938D01*
X201808723Y-111716176D01*
X201713485Y-111763795D01*
X201523009Y-111811414D01*
X201380152Y-111811414D01*
X201189676Y-111763795D01*
X201094438Y-111716176D01*
X200999200Y-111620938D01*
X200951580Y-111478080D01*
X200951580Y-111382842D01*
X200999200Y-111239985D01*
X201046819Y-111192366D01*
X200951580Y-110287604D02*
X200951580Y-110763795D01*
X201427771Y-110811414D01*
X201380152Y-110763795D01*
X201332533Y-110668557D01*
X201332533Y-110430461D01*
X201380152Y-110335223D01*
X201427771Y-110287604D01*
X201523009Y-110239985D01*
X201761104Y-110239985D01*
X201856342Y-110287604D01*
X201903961Y-110335223D01*
X201951580Y-110430461D01*
X201951580Y-110668557D01*
X201903961Y-110763795D01*
X201856342Y-110811414D01*
X211634342Y-111113866D02*
X211681961Y-111161485D01*
X211729580Y-111304342D01*
X211729580Y-111399580D01*
X211681961Y-111542438D01*
X211586723Y-111637676D01*
X211491485Y-111685295D01*
X211301009Y-111732914D01*
X211158152Y-111732914D01*
X210967676Y-111685295D01*
X210872438Y-111637676D01*
X210777200Y-111542438D01*
X210729580Y-111399580D01*
X210729580Y-111304342D01*
X210777200Y-111161485D01*
X210824819Y-111113866D01*
X210729580Y-110256723D02*
X210729580Y-110447200D01*
X210777200Y-110542438D01*
X210824819Y-110590057D01*
X210967676Y-110685295D01*
X211158152Y-110732914D01*
X211539104Y-110732914D01*
X211634342Y-110685295D01*
X211681961Y-110637676D01*
X211729580Y-110542438D01*
X211729580Y-110351961D01*
X211681961Y-110256723D01*
X211634342Y-110209104D01*
X211539104Y-110161485D01*
X211301009Y-110161485D01*
X211205771Y-110209104D01*
X211158152Y-110256723D01*
X211110533Y-110351961D01*
X211110533Y-110542438D01*
X211158152Y-110637676D01*
X211205771Y-110685295D01*
X211301009Y-110732914D01*
X199621142Y-107174566D02*
X199668761Y-107222185D01*
X199716380Y-107365042D01*
X199716380Y-107460280D01*
X199668761Y-107603138D01*
X199573523Y-107698376D01*
X199478285Y-107745995D01*
X199287809Y-107793614D01*
X199144952Y-107793614D01*
X198954476Y-107745995D01*
X198859238Y-107698376D01*
X198764000Y-107603138D01*
X198716380Y-107460280D01*
X198716380Y-107365042D01*
X198764000Y-107222185D01*
X198811619Y-107174566D01*
X198716380Y-106841233D02*
X198716380Y-106174566D01*
X199716380Y-106603138D01*
X222911942Y-101157066D02*
X222959561Y-101204685D01*
X223007180Y-101347542D01*
X223007180Y-101442780D01*
X222959561Y-101585638D01*
X222864323Y-101680876D01*
X222769085Y-101728495D01*
X222578609Y-101776114D01*
X222435752Y-101776114D01*
X222245276Y-101728495D01*
X222150038Y-101680876D01*
X222054800Y-101585638D01*
X222007180Y-101442780D01*
X222007180Y-101347542D01*
X222054800Y-101204685D01*
X222102419Y-101157066D01*
X222435752Y-100585638D02*
X222388133Y-100680876D01*
X222340514Y-100728495D01*
X222245276Y-100776114D01*
X222197657Y-100776114D01*
X222102419Y-100728495D01*
X222054800Y-100680876D01*
X222007180Y-100585638D01*
X222007180Y-100395161D01*
X222054800Y-100299923D01*
X222102419Y-100252304D01*
X222197657Y-100204685D01*
X222245276Y-100204685D01*
X222340514Y-100252304D01*
X222388133Y-100299923D01*
X222435752Y-100395161D01*
X222435752Y-100585638D01*
X222483371Y-100680876D01*
X222530990Y-100728495D01*
X222626228Y-100776114D01*
X222816704Y-100776114D01*
X222911942Y-100728495D01*
X222959561Y-100680876D01*
X223007180Y-100585638D01*
X223007180Y-100395161D01*
X222959561Y-100299923D01*
X222911942Y-100252304D01*
X222816704Y-100204685D01*
X222626228Y-100204685D01*
X222530990Y-100252304D01*
X222483371Y-100299923D01*
X222435752Y-100395161D01*
X225029733Y-104090742D02*
X224982114Y-104138361D01*
X224839257Y-104185980D01*
X224744019Y-104185980D01*
X224601161Y-104138361D01*
X224505923Y-104043123D01*
X224458304Y-103947885D01*
X224410685Y-103757409D01*
X224410685Y-103614552D01*
X224458304Y-103424076D01*
X224505923Y-103328838D01*
X224601161Y-103233600D01*
X224744019Y-103185980D01*
X224839257Y-103185980D01*
X224982114Y-103233600D01*
X225029733Y-103281219D01*
X225505923Y-104185980D02*
X225696400Y-104185980D01*
X225791638Y-104138361D01*
X225839257Y-104090742D01*
X225934495Y-103947885D01*
X225982114Y-103757409D01*
X225982114Y-103376457D01*
X225934495Y-103281219D01*
X225886876Y-103233600D01*
X225791638Y-103185980D01*
X225601161Y-103185980D01*
X225505923Y-103233600D01*
X225458304Y-103281219D01*
X225410685Y-103376457D01*
X225410685Y-103614552D01*
X225458304Y-103709790D01*
X225505923Y-103757409D01*
X225601161Y-103805028D01*
X225791638Y-103805028D01*
X225886876Y-103757409D01*
X225934495Y-103709790D01*
X225982114Y-103614552D01*
X224604342Y-108002342D02*
X224556723Y-108049961D01*
X224413866Y-108097580D01*
X224318628Y-108097580D01*
X224175771Y-108049961D01*
X224080533Y-107954723D01*
X224032914Y-107859485D01*
X223985295Y-107669009D01*
X223985295Y-107526152D01*
X224032914Y-107335676D01*
X224080533Y-107240438D01*
X224175771Y-107145200D01*
X224318628Y-107097580D01*
X224413866Y-107097580D01*
X224556723Y-107145200D01*
X224604342Y-107192819D01*
X225556723Y-108097580D02*
X224985295Y-108097580D01*
X225271009Y-108097580D02*
X225271009Y-107097580D01*
X225175771Y-107240438D01*
X225080533Y-107335676D01*
X224985295Y-107383295D01*
X226175771Y-107097580D02*
X226271009Y-107097580D01*
X226366247Y-107145200D01*
X226413866Y-107192819D01*
X226461485Y-107288057D01*
X226509104Y-107478533D01*
X226509104Y-107716628D01*
X226461485Y-107907104D01*
X226413866Y-108002342D01*
X226366247Y-108049961D01*
X226271009Y-108097580D01*
X226175771Y-108097580D01*
X226080533Y-108049961D01*
X226032914Y-108002342D01*
X225985295Y-107907104D01*
X225937676Y-107716628D01*
X225937676Y-107478533D01*
X225985295Y-107288057D01*
X226032914Y-107192819D01*
X226080533Y-107145200D01*
X226175771Y-107097580D01*
X193260742Y-118288342D02*
X193213123Y-118335961D01*
X193070266Y-118383580D01*
X192975028Y-118383580D01*
X192832171Y-118335961D01*
X192736933Y-118240723D01*
X192689314Y-118145485D01*
X192641695Y-117955009D01*
X192641695Y-117812152D01*
X192689314Y-117621676D01*
X192736933Y-117526438D01*
X192832171Y-117431200D01*
X192975028Y-117383580D01*
X193070266Y-117383580D01*
X193213123Y-117431200D01*
X193260742Y-117478819D01*
X194213123Y-118383580D02*
X193641695Y-118383580D01*
X193927409Y-118383580D02*
X193927409Y-117383580D01*
X193832171Y-117526438D01*
X193736933Y-117621676D01*
X193641695Y-117669295D01*
X195165504Y-118383580D02*
X194594076Y-118383580D01*
X194879790Y-118383580D02*
X194879790Y-117383580D01*
X194784552Y-117526438D01*
X194689314Y-117621676D01*
X194594076Y-117669295D01*
X190727104Y-103931980D02*
X190727104Y-102931980D01*
X190965200Y-102931980D01*
X191108057Y-102979600D01*
X191203295Y-103074838D01*
X191250914Y-103170076D01*
X191298533Y-103360552D01*
X191298533Y-103503409D01*
X191250914Y-103693885D01*
X191203295Y-103789123D01*
X191108057Y-103884361D01*
X190965200Y-103931980D01*
X190727104Y-103931980D01*
X192250914Y-103931980D02*
X191679485Y-103931980D01*
X191965200Y-103931980D02*
X191965200Y-102931980D01*
X191869961Y-103074838D01*
X191774723Y-103170076D01*
X191679485Y-103217695D01*
X190574704Y-107359980D02*
X190574704Y-106359980D01*
X190812800Y-106359980D01*
X190955657Y-106407600D01*
X191050895Y-106502838D01*
X191098514Y-106598076D01*
X191146133Y-106788552D01*
X191146133Y-106931409D01*
X191098514Y-107121885D01*
X191050895Y-107217123D01*
X190955657Y-107312361D01*
X190812800Y-107359980D01*
X190574704Y-107359980D01*
X191527085Y-106455219D02*
X191574704Y-106407600D01*
X191669942Y-106359980D01*
X191908038Y-106359980D01*
X192003276Y-106407600D01*
X192050895Y-106455219D01*
X192098514Y-106550457D01*
X192098514Y-106645695D01*
X192050895Y-106788552D01*
X191479466Y-107359980D01*
X192098514Y-107359980D01*
X204239904Y-93670380D02*
X204239904Y-92670380D01*
X204478000Y-92670380D01*
X204620857Y-92718000D01*
X204716095Y-92813238D01*
X204763714Y-92908476D01*
X204811333Y-93098952D01*
X204811333Y-93241809D01*
X204763714Y-93432285D01*
X204716095Y-93527523D01*
X204620857Y-93622761D01*
X204478000Y-93670380D01*
X204239904Y-93670380D01*
X205144666Y-92670380D02*
X205763714Y-92670380D01*
X205430380Y-93051333D01*
X205573238Y-93051333D01*
X205668476Y-93098952D01*
X205716095Y-93146571D01*
X205763714Y-93241809D01*
X205763714Y-93479904D01*
X205716095Y-93575142D01*
X205668476Y-93622761D01*
X205573238Y-93670380D01*
X205287523Y-93670380D01*
X205192285Y-93622761D01*
X205144666Y-93575142D01*
X203001809Y-93670380D02*
X203001809Y-92670380D01*
X203239904Y-92670380D01*
X203382761Y-92718000D01*
X203478000Y-92813238D01*
X203525619Y-92908476D01*
X203573238Y-93098952D01*
X203573238Y-93241809D01*
X203525619Y-93432285D01*
X203478000Y-93527523D01*
X203382761Y-93622761D01*
X203239904Y-93670380D01*
X203001809Y-93670380D01*
X204001809Y-93670380D02*
X204001809Y-92670380D01*
X204668476Y-92670380D02*
X204858952Y-92670380D01*
X204954190Y-92718000D01*
X205049428Y-92813238D01*
X205097047Y-93003714D01*
X205097047Y-93337047D01*
X205049428Y-93527523D01*
X204954190Y-93622761D01*
X204858952Y-93670380D01*
X204668476Y-93670380D01*
X204573238Y-93622761D01*
X204478000Y-93527523D01*
X204430380Y-93337047D01*
X204430380Y-93003714D01*
X204478000Y-92813238D01*
X204573238Y-92718000D01*
X204668476Y-92670380D01*
X205525619Y-93670380D02*
X205525619Y-92670380D01*
X205763714Y-92670380D01*
X205906571Y-92718000D01*
X206001809Y-92813238D01*
X206049428Y-92908476D01*
X206097047Y-93098952D01*
X206097047Y-93241809D01*
X206049428Y-93432285D01*
X206001809Y-93527523D01*
X205906571Y-93622761D01*
X205763714Y-93670380D01*
X205525619Y-93670380D01*
X206525619Y-93146571D02*
X206858952Y-93146571D01*
X207001809Y-93670380D02*
X206525619Y-93670380D01*
X206525619Y-92670380D01*
X207001809Y-92670380D01*
X204978000Y-92670380D02*
X204978000Y-92908476D01*
X204739904Y-92813238D02*
X204978000Y-92908476D01*
X205216095Y-92813238D01*
X204835142Y-93098952D02*
X204978000Y-92908476D01*
X205120857Y-93098952D01*
X182800666Y-106461180D02*
X182800666Y-107175466D01*
X182753047Y-107318323D01*
X182657809Y-107413561D01*
X182514952Y-107461180D01*
X182419714Y-107461180D01*
X183800666Y-107461180D02*
X183229238Y-107461180D01*
X183514952Y-107461180D02*
X183514952Y-106461180D01*
X183419714Y-106604038D01*
X183324476Y-106699276D01*
X183229238Y-106746895D01*
X191182666Y-98132780D02*
X191182666Y-98847066D01*
X191135047Y-98989923D01*
X191039809Y-99085161D01*
X190896952Y-99132780D01*
X190801714Y-99132780D01*
X192087428Y-98466114D02*
X192087428Y-99132780D01*
X191849333Y-98085161D02*
X191611238Y-98799447D01*
X192230285Y-98799447D01*
X215123733Y-108046780D02*
X214647542Y-108046780D01*
X214647542Y-107046780D01*
X215980876Y-108046780D02*
X215409447Y-108046780D01*
X215695161Y-108046780D02*
X215695161Y-107046780D01*
X215599923Y-107189638D01*
X215504685Y-107284876D01*
X215409447Y-107332495D01*
X199243961Y-91672019D02*
X199148723Y-91624400D01*
X199053485Y-91529161D01*
X198910628Y-91386304D01*
X198815390Y-91338685D01*
X198720152Y-91338685D01*
X198767771Y-91576780D02*
X198672533Y-91529161D01*
X198577295Y-91433923D01*
X198529676Y-91243447D01*
X198529676Y-90910114D01*
X198577295Y-90719638D01*
X198672533Y-90624400D01*
X198767771Y-90576780D01*
X198958247Y-90576780D01*
X199053485Y-90624400D01*
X199148723Y-90719638D01*
X199196342Y-90910114D01*
X199196342Y-91243447D01*
X199148723Y-91433923D01*
X199053485Y-91529161D01*
X198958247Y-91576780D01*
X198767771Y-91576780D01*
X200148723Y-91576780D02*
X199577295Y-91576780D01*
X199863009Y-91576780D02*
X199863009Y-90576780D01*
X199767771Y-90719638D01*
X199672533Y-90814876D01*
X199577295Y-90862495D01*
X215042761Y-98747619D02*
X214947523Y-98700000D01*
X214852285Y-98604761D01*
X214709428Y-98461904D01*
X214614190Y-98414285D01*
X214518952Y-98414285D01*
X214566571Y-98652380D02*
X214471333Y-98604761D01*
X214376095Y-98509523D01*
X214328476Y-98319047D01*
X214328476Y-97985714D01*
X214376095Y-97795238D01*
X214471333Y-97700000D01*
X214566571Y-97652380D01*
X214757047Y-97652380D01*
X214852285Y-97700000D01*
X214947523Y-97795238D01*
X214995142Y-97985714D01*
X214995142Y-98319047D01*
X214947523Y-98509523D01*
X214852285Y-98604761D01*
X214757047Y-98652380D01*
X214566571Y-98652380D01*
X215376095Y-97747619D02*
X215423714Y-97700000D01*
X215518952Y-97652380D01*
X215757047Y-97652380D01*
X215852285Y-97700000D01*
X215899904Y-97747619D01*
X215947523Y-97842857D01*
X215947523Y-97938095D01*
X215899904Y-98080952D01*
X215328476Y-98652380D01*
X215947523Y-98652380D01*
X186523333Y-103931980D02*
X186190000Y-103455790D01*
X185951904Y-103931980D02*
X185951904Y-102931980D01*
X186332857Y-102931980D01*
X186428095Y-102979600D01*
X186475714Y-103027219D01*
X186523333Y-103122457D01*
X186523333Y-103265314D01*
X186475714Y-103360552D01*
X186428095Y-103408171D01*
X186332857Y-103455790D01*
X185951904Y-103455790D01*
X187475714Y-103931980D02*
X186904285Y-103931980D01*
X187190000Y-103931980D02*
X187190000Y-102931980D01*
X187094761Y-103074838D01*
X186999523Y-103170076D01*
X186904285Y-103217695D01*
X186777333Y-107284780D02*
X186444000Y-106808590D01*
X186205904Y-107284780D02*
X186205904Y-106284780D01*
X186586857Y-106284780D01*
X186682095Y-106332400D01*
X186729714Y-106380019D01*
X186777333Y-106475257D01*
X186777333Y-106618114D01*
X186729714Y-106713352D01*
X186682095Y-106760971D01*
X186586857Y-106808590D01*
X186205904Y-106808590D01*
X187158285Y-106380019D02*
X187205904Y-106332400D01*
X187301142Y-106284780D01*
X187539238Y-106284780D01*
X187634476Y-106332400D01*
X187682095Y-106380019D01*
X187729714Y-106475257D01*
X187729714Y-106570495D01*
X187682095Y-106713352D01*
X187110666Y-107284780D01*
X187729714Y-107284780D01*
X187234533Y-94686380D02*
X186901200Y-94210190D01*
X186663104Y-94686380D02*
X186663104Y-93686380D01*
X187044057Y-93686380D01*
X187139295Y-93734000D01*
X187186914Y-93781619D01*
X187234533Y-93876857D01*
X187234533Y-94019714D01*
X187186914Y-94114952D01*
X187139295Y-94162571D01*
X187044057Y-94210190D01*
X186663104Y-94210190D01*
X187567866Y-93686380D02*
X188186914Y-93686380D01*
X187853580Y-94067333D01*
X187996438Y-94067333D01*
X188091676Y-94114952D01*
X188139295Y-94162571D01*
X188186914Y-94257809D01*
X188186914Y-94495904D01*
X188139295Y-94591142D01*
X188091676Y-94638761D01*
X187996438Y-94686380D01*
X187710723Y-94686380D01*
X187615485Y-94638761D01*
X187567866Y-94591142D01*
X201102933Y-98876380D02*
X200769600Y-98400190D01*
X200531504Y-98876380D02*
X200531504Y-97876380D01*
X200912457Y-97876380D01*
X201007695Y-97924000D01*
X201055314Y-97971619D01*
X201102933Y-98066857D01*
X201102933Y-98209714D01*
X201055314Y-98304952D01*
X201007695Y-98352571D01*
X200912457Y-98400190D01*
X200531504Y-98400190D01*
X201960076Y-98209714D02*
X201960076Y-98876380D01*
X201721980Y-97828761D02*
X201483885Y-98543047D01*
X202102933Y-98543047D01*
X197394533Y-98825580D02*
X197061200Y-98349390D01*
X196823104Y-98825580D02*
X196823104Y-97825580D01*
X197204057Y-97825580D01*
X197299295Y-97873200D01*
X197346914Y-97920819D01*
X197394533Y-98016057D01*
X197394533Y-98158914D01*
X197346914Y-98254152D01*
X197299295Y-98301771D01*
X197204057Y-98349390D01*
X196823104Y-98349390D01*
X198299295Y-97825580D02*
X197823104Y-97825580D01*
X197775485Y-98301771D01*
X197823104Y-98254152D01*
X197918342Y-98206533D01*
X198156438Y-98206533D01*
X198251676Y-98254152D01*
X198299295Y-98301771D01*
X198346914Y-98397009D01*
X198346914Y-98635104D01*
X198299295Y-98730342D01*
X198251676Y-98777961D01*
X198156438Y-98825580D01*
X197918342Y-98825580D01*
X197823104Y-98777961D01*
X197775485Y-98730342D01*
X187183733Y-114549180D02*
X186850400Y-114072990D01*
X186612304Y-114549180D02*
X186612304Y-113549180D01*
X186993257Y-113549180D01*
X187088495Y-113596800D01*
X187136114Y-113644419D01*
X187183733Y-113739657D01*
X187183733Y-113882514D01*
X187136114Y-113977752D01*
X187088495Y-114025371D01*
X186993257Y-114072990D01*
X186612304Y-114072990D01*
X188040876Y-113549180D02*
X187850400Y-113549180D01*
X187755161Y-113596800D01*
X187707542Y-113644419D01*
X187612304Y-113787276D01*
X187564685Y-113977752D01*
X187564685Y-114358704D01*
X187612304Y-114453942D01*
X187659923Y-114501561D01*
X187755161Y-114549180D01*
X187945638Y-114549180D01*
X188040876Y-114501561D01*
X188088495Y-114453942D01*
X188136114Y-114358704D01*
X188136114Y-114120609D01*
X188088495Y-114025371D01*
X188040876Y-113977752D01*
X187945638Y-113930133D01*
X187755161Y-113930133D01*
X187659923Y-113977752D01*
X187612304Y-114025371D01*
X187564685Y-114120609D01*
X187183733Y-111196380D02*
X186850400Y-110720190D01*
X186612304Y-111196380D02*
X186612304Y-110196380D01*
X186993257Y-110196380D01*
X187088495Y-110244000D01*
X187136114Y-110291619D01*
X187183733Y-110386857D01*
X187183733Y-110529714D01*
X187136114Y-110624952D01*
X187088495Y-110672571D01*
X186993257Y-110720190D01*
X186612304Y-110720190D01*
X187517066Y-110196380D02*
X188183733Y-110196380D01*
X187755161Y-111196380D01*
X211652380Y-97550266D02*
X211176190Y-97883600D01*
X211652380Y-98121695D02*
X210652380Y-98121695D01*
X210652380Y-97740742D01*
X210700000Y-97645504D01*
X210747619Y-97597885D01*
X210842857Y-97550266D01*
X210985714Y-97550266D01*
X211080952Y-97597885D01*
X211128571Y-97645504D01*
X211176190Y-97740742D01*
X211176190Y-98121695D01*
X211080952Y-96978838D02*
X211033333Y-97074076D01*
X210985714Y-97121695D01*
X210890476Y-97169314D01*
X210842857Y-97169314D01*
X210747619Y-97121695D01*
X210700000Y-97074076D01*
X210652380Y-96978838D01*
X210652380Y-96788361D01*
X210700000Y-96693123D01*
X210747619Y-96645504D01*
X210842857Y-96597885D01*
X210890476Y-96597885D01*
X210985714Y-96645504D01*
X211033333Y-96693123D01*
X211080952Y-96788361D01*
X211080952Y-96978838D01*
X211128571Y-97074076D01*
X211176190Y-97121695D01*
X211271428Y-97169314D01*
X211461904Y-97169314D01*
X211557142Y-97121695D01*
X211604761Y-97074076D01*
X211652380Y-96978838D01*
X211652380Y-96788361D01*
X211604761Y-96693123D01*
X211557142Y-96645504D01*
X211461904Y-96597885D01*
X211271428Y-96597885D01*
X211176190Y-96645504D01*
X211128571Y-96693123D01*
X211080952Y-96788361D01*
X220051333Y-108351580D02*
X219718000Y-107875390D01*
X219479904Y-108351580D02*
X219479904Y-107351580D01*
X219860857Y-107351580D01*
X219956095Y-107399200D01*
X220003714Y-107446819D01*
X220051333Y-107542057D01*
X220051333Y-107684914D01*
X220003714Y-107780152D01*
X219956095Y-107827771D01*
X219860857Y-107875390D01*
X219479904Y-107875390D01*
X220527523Y-108351580D02*
X220718000Y-108351580D01*
X220813238Y-108303961D01*
X220860857Y-108256342D01*
X220956095Y-108113485D01*
X221003714Y-107923009D01*
X221003714Y-107542057D01*
X220956095Y-107446819D01*
X220908476Y-107399200D01*
X220813238Y-107351580D01*
X220622761Y-107351580D01*
X220527523Y-107399200D01*
X220479904Y-107446819D01*
X220432285Y-107542057D01*
X220432285Y-107780152D01*
X220479904Y-107875390D01*
X220527523Y-107923009D01*
X220622761Y-107970628D01*
X220813238Y-107970628D01*
X220908476Y-107923009D01*
X220956095Y-107875390D01*
X221003714Y-107780152D01*
X193260742Y-114955580D02*
X192927409Y-114479390D01*
X192689314Y-114955580D02*
X192689314Y-113955580D01*
X193070266Y-113955580D01*
X193165504Y-114003200D01*
X193213123Y-114050819D01*
X193260742Y-114146057D01*
X193260742Y-114288914D01*
X193213123Y-114384152D01*
X193165504Y-114431771D01*
X193070266Y-114479390D01*
X192689314Y-114479390D01*
X194213123Y-114955580D02*
X193641695Y-114955580D01*
X193927409Y-114955580D02*
X193927409Y-113955580D01*
X193832171Y-114098438D01*
X193736933Y-114193676D01*
X193641695Y-114241295D01*
X194832171Y-113955580D02*
X194927409Y-113955580D01*
X195022647Y-114003200D01*
X195070266Y-114050819D01*
X195117885Y-114146057D01*
X195165504Y-114336533D01*
X195165504Y-114574628D01*
X195117885Y-114765104D01*
X195070266Y-114860342D01*
X195022647Y-114907961D01*
X194927409Y-114955580D01*
X194832171Y-114955580D01*
X194736933Y-114907961D01*
X194689314Y-114860342D01*
X194641695Y-114765104D01*
X194594076Y-114574628D01*
X194594076Y-114336533D01*
X194641695Y-114146057D01*
X194689314Y-114050819D01*
X194736933Y-114003200D01*
X194832171Y-113955580D01*
X196996842Y-114878380D02*
X196663509Y-114402190D01*
X196425414Y-114878380D02*
X196425414Y-113878380D01*
X196806366Y-113878380D01*
X196901604Y-113926000D01*
X196949223Y-113973619D01*
X196996842Y-114068857D01*
X196996842Y-114211714D01*
X196949223Y-114306952D01*
X196901604Y-114354571D01*
X196806366Y-114402190D01*
X196425414Y-114402190D01*
X197949223Y-114878380D02*
X197377795Y-114878380D01*
X197663509Y-114878380D02*
X197663509Y-113878380D01*
X197568271Y-114021238D01*
X197473033Y-114116476D01*
X197377795Y-114164095D01*
X198901604Y-114878380D02*
X198330176Y-114878380D01*
X198615890Y-114878380D02*
X198615890Y-113878380D01*
X198520652Y-114021238D01*
X198425414Y-114116476D01*
X198330176Y-114164095D01*
X214779295Y-112950380D02*
X215350723Y-112950380D01*
X215065009Y-113950380D02*
X215065009Y-112950380D01*
X215684057Y-113950380D02*
X215684057Y-112950380D01*
X216065009Y-112950380D01*
X216160247Y-112998000D01*
X216207866Y-113045619D01*
X216255485Y-113140857D01*
X216255485Y-113283714D01*
X216207866Y-113378952D01*
X216160247Y-113426571D01*
X216065009Y-113474190D01*
X215684057Y-113474190D01*
X217207866Y-113950380D02*
X216636438Y-113950380D01*
X216922152Y-113950380D02*
X216922152Y-112950380D01*
X216826914Y-113093238D01*
X216731676Y-113188476D01*
X216636438Y-113236095D01*
X219503695Y-112797980D02*
X220075123Y-112797980D01*
X219789409Y-113797980D02*
X219789409Y-112797980D01*
X220408457Y-113797980D02*
X220408457Y-112797980D01*
X220789409Y-112797980D01*
X220884647Y-112845600D01*
X220932266Y-112893219D01*
X220979885Y-112988457D01*
X220979885Y-113131314D01*
X220932266Y-113226552D01*
X220884647Y-113274171D01*
X220789409Y-113321790D01*
X220408457Y-113321790D01*
X221360838Y-112893219D02*
X221408457Y-112845600D01*
X221503695Y-112797980D01*
X221741790Y-112797980D01*
X221837028Y-112845600D01*
X221884647Y-112893219D01*
X221932266Y-112988457D01*
X221932266Y-113083695D01*
X221884647Y-113226552D01*
X221313219Y-113797980D01*
X221932266Y-113797980D01*
X224431295Y-112848780D02*
X225002723Y-112848780D01*
X224717009Y-113848780D02*
X224717009Y-112848780D01*
X225336057Y-113848780D02*
X225336057Y-112848780D01*
X225717009Y-112848780D01*
X225812247Y-112896400D01*
X225859866Y-112944019D01*
X225907485Y-113039257D01*
X225907485Y-113182114D01*
X225859866Y-113277352D01*
X225812247Y-113324971D01*
X225717009Y-113372590D01*
X225336057Y-113372590D01*
X226240819Y-112848780D02*
X226859866Y-112848780D01*
X226526533Y-113229733D01*
X226669390Y-113229733D01*
X226764628Y-113277352D01*
X226812247Y-113324971D01*
X226859866Y-113420209D01*
X226859866Y-113658304D01*
X226812247Y-113753542D01*
X226764628Y-113801161D01*
X226669390Y-113848780D01*
X226383676Y-113848780D01*
X226288438Y-113801161D01*
X226240819Y-113753542D01*
X209851695Y-118081180D02*
X210423123Y-118081180D01*
X210137409Y-119081180D02*
X210137409Y-118081180D01*
X210756457Y-119081180D02*
X210756457Y-118081180D01*
X211137409Y-118081180D01*
X211232647Y-118128800D01*
X211280266Y-118176419D01*
X211327885Y-118271657D01*
X211327885Y-118414514D01*
X211280266Y-118509752D01*
X211232647Y-118557371D01*
X211137409Y-118604990D01*
X210756457Y-118604990D01*
X212185028Y-118414514D02*
X212185028Y-119081180D01*
X211946933Y-118033561D02*
X211708838Y-118747847D01*
X212327885Y-118747847D01*
X214779295Y-117979580D02*
X215350723Y-117979580D01*
X215065009Y-118979580D02*
X215065009Y-117979580D01*
X215684057Y-118979580D02*
X215684057Y-117979580D01*
X216065009Y-117979580D01*
X216160247Y-118027200D01*
X216207866Y-118074819D01*
X216255485Y-118170057D01*
X216255485Y-118312914D01*
X216207866Y-118408152D01*
X216160247Y-118455771D01*
X216065009Y-118503390D01*
X215684057Y-118503390D01*
X217160247Y-117979580D02*
X216684057Y-117979580D01*
X216636438Y-118455771D01*
X216684057Y-118408152D01*
X216779295Y-118360533D01*
X217017390Y-118360533D01*
X217112628Y-118408152D01*
X217160247Y-118455771D01*
X217207866Y-118551009D01*
X217207866Y-118789104D01*
X217160247Y-118884342D01*
X217112628Y-118931961D01*
X217017390Y-118979580D01*
X216779295Y-118979580D01*
X216684057Y-118931961D01*
X216636438Y-118884342D01*
X219656095Y-118030380D02*
X220227523Y-118030380D01*
X219941809Y-119030380D02*
X219941809Y-118030380D01*
X220560857Y-119030380D02*
X220560857Y-118030380D01*
X220941809Y-118030380D01*
X221037047Y-118078000D01*
X221084666Y-118125619D01*
X221132285Y-118220857D01*
X221132285Y-118363714D01*
X221084666Y-118458952D01*
X221037047Y-118506571D01*
X220941809Y-118554190D01*
X220560857Y-118554190D01*
X221989428Y-118030380D02*
X221798952Y-118030380D01*
X221703714Y-118078000D01*
X221656095Y-118125619D01*
X221560857Y-118268476D01*
X221513238Y-118458952D01*
X221513238Y-118839904D01*
X221560857Y-118935142D01*
X221608476Y-118982761D01*
X221703714Y-119030380D01*
X221894190Y-119030380D01*
X221989428Y-118982761D01*
X222037047Y-118935142D01*
X222084666Y-118839904D01*
X222084666Y-118601809D01*
X222037047Y-118506571D01*
X221989428Y-118458952D01*
X221894190Y-118411333D01*
X221703714Y-118411333D01*
X221608476Y-118458952D01*
X221560857Y-118506571D01*
X221513238Y-118601809D01*
X224431295Y-117979580D02*
X225002723Y-117979580D01*
X224717009Y-118979580D02*
X224717009Y-117979580D01*
X225336057Y-118979580D02*
X225336057Y-117979580D01*
X225717009Y-117979580D01*
X225812247Y-118027200D01*
X225859866Y-118074819D01*
X225907485Y-118170057D01*
X225907485Y-118312914D01*
X225859866Y-118408152D01*
X225812247Y-118455771D01*
X225717009Y-118503390D01*
X225336057Y-118503390D01*
X226240819Y-117979580D02*
X226907485Y-117979580D01*
X226478914Y-118979580D01*
X231822380Y-116792304D02*
X231822380Y-116220876D01*
X232822380Y-116506590D02*
X231822380Y-116506590D01*
X232822380Y-115887542D02*
X231822380Y-115887542D01*
X231822380Y-115506590D01*
X231870000Y-115411352D01*
X231917619Y-115363733D01*
X232012857Y-115316114D01*
X232155714Y-115316114D01*
X232250952Y-115363733D01*
X232298571Y-115411352D01*
X232346190Y-115506590D01*
X232346190Y-115887542D01*
X232250952Y-114744685D02*
X232203333Y-114839923D01*
X232155714Y-114887542D01*
X232060476Y-114935161D01*
X232012857Y-114935161D01*
X231917619Y-114887542D01*
X231870000Y-114839923D01*
X231822380Y-114744685D01*
X231822380Y-114554209D01*
X231870000Y-114458971D01*
X231917619Y-114411352D01*
X232012857Y-114363733D01*
X232060476Y-114363733D01*
X232155714Y-114411352D01*
X232203333Y-114458971D01*
X232250952Y-114554209D01*
X232250952Y-114744685D01*
X232298571Y-114839923D01*
X232346190Y-114887542D01*
X232441428Y-114935161D01*
X232631904Y-114935161D01*
X232727142Y-114887542D01*
X232774761Y-114839923D01*
X232822380Y-114744685D01*
X232822380Y-114554209D01*
X232774761Y-114458971D01*
X232727142Y-114411352D01*
X232631904Y-114363733D01*
X232441428Y-114363733D01*
X232346190Y-114411352D01*
X232298571Y-114458971D01*
X232250952Y-114554209D01*
X231720780Y-111458304D02*
X231720780Y-110886876D01*
X232720780Y-111172590D02*
X231720780Y-111172590D01*
X232720780Y-110553542D02*
X231720780Y-110553542D01*
X231720780Y-110172590D01*
X231768400Y-110077352D01*
X231816019Y-110029733D01*
X231911257Y-109982114D01*
X232054114Y-109982114D01*
X232149352Y-110029733D01*
X232196971Y-110077352D01*
X232244590Y-110172590D01*
X232244590Y-110553542D01*
X232720780Y-109505923D02*
X232720780Y-109315447D01*
X232673161Y-109220209D01*
X232625542Y-109172590D01*
X232482685Y-109077352D01*
X232292209Y-109029733D01*
X231911257Y-109029733D01*
X231816019Y-109077352D01*
X231768400Y-109124971D01*
X231720780Y-109220209D01*
X231720780Y-109410685D01*
X231768400Y-109505923D01*
X231816019Y-109553542D01*
X231911257Y-109601161D01*
X232149352Y-109601161D01*
X232244590Y-109553542D01*
X232292209Y-109505923D01*
X232339828Y-109410685D01*
X232339828Y-109220209D01*
X232292209Y-109124971D01*
X232244590Y-109077352D01*
X232149352Y-109029733D01*
X231669980Y-106549695D02*
X231669980Y-105978266D01*
X232669980Y-106263980D02*
X231669980Y-106263980D01*
X232669980Y-105644933D02*
X231669980Y-105644933D01*
X231669980Y-105263980D01*
X231717600Y-105168742D01*
X231765219Y-105121123D01*
X231860457Y-105073504D01*
X232003314Y-105073504D01*
X232098552Y-105121123D01*
X232146171Y-105168742D01*
X232193790Y-105263980D01*
X232193790Y-105644933D01*
X232669980Y-104121123D02*
X232669980Y-104692552D01*
X232669980Y-104406838D02*
X231669980Y-104406838D01*
X231812838Y-104502076D01*
X231908076Y-104597314D01*
X231955695Y-104692552D01*
X231669980Y-103502076D02*
X231669980Y-103406838D01*
X231717600Y-103311600D01*
X231765219Y-103263980D01*
X231860457Y-103216361D01*
X232050933Y-103168742D01*
X232289028Y-103168742D01*
X232479504Y-103216361D01*
X232574742Y-103263980D01*
X232622361Y-103311600D01*
X232669980Y-103406838D01*
X232669980Y-103502076D01*
X232622361Y-103597314D01*
X232574742Y-103644933D01*
X232479504Y-103692552D01*
X232289028Y-103740171D01*
X232050933Y-103740171D01*
X231860457Y-103692552D01*
X231765219Y-103644933D01*
X231717600Y-103597314D01*
X231669980Y-103502076D01*
X231720780Y-101266495D02*
X231720780Y-100695066D01*
X232720780Y-100980780D02*
X231720780Y-100980780D01*
X232720780Y-100361733D02*
X231720780Y-100361733D01*
X231720780Y-99980780D01*
X231768400Y-99885542D01*
X231816019Y-99837923D01*
X231911257Y-99790304D01*
X232054114Y-99790304D01*
X232149352Y-99837923D01*
X232196971Y-99885542D01*
X232244590Y-99980780D01*
X232244590Y-100361733D01*
X232720780Y-98837923D02*
X232720780Y-99409352D01*
X232720780Y-99123638D02*
X231720780Y-99123638D01*
X231863638Y-99218876D01*
X231958876Y-99314114D01*
X232006495Y-99409352D01*
X232720780Y-97885542D02*
X232720780Y-98456971D01*
X232720780Y-98171257D02*
X231720780Y-98171257D01*
X231863638Y-98266495D01*
X231958876Y-98361733D01*
X232006495Y-98456971D01*
X231669980Y-96288095D02*
X231669980Y-95716666D01*
X232669980Y-96002380D02*
X231669980Y-96002380D01*
X232669980Y-95383333D02*
X231669980Y-95383333D01*
X231669980Y-95002380D01*
X231717600Y-94907142D01*
X231765219Y-94859523D01*
X231860457Y-94811904D01*
X232003314Y-94811904D01*
X232098552Y-94859523D01*
X232146171Y-94907142D01*
X232193790Y-95002380D01*
X232193790Y-95383333D01*
X232669980Y-93859523D02*
X232669980Y-94430952D01*
X232669980Y-94145238D02*
X231669980Y-94145238D01*
X231812838Y-94240476D01*
X231908076Y-94335714D01*
X231955695Y-94430952D01*
X231765219Y-93478571D02*
X231717600Y-93430952D01*
X231669980Y-93335714D01*
X231669980Y-93097619D01*
X231717600Y-93002380D01*
X231765219Y-92954761D01*
X231860457Y-92907142D01*
X231955695Y-92907142D01*
X232098552Y-92954761D01*
X232669980Y-93526190D01*
X232669980Y-92907142D01*
X221894704Y-91999180D02*
X222466133Y-91999180D01*
X222180419Y-92999180D02*
X222180419Y-91999180D01*
X222799466Y-92999180D02*
X222799466Y-91999180D01*
X223180419Y-91999180D01*
X223275657Y-92046800D01*
X223323276Y-92094419D01*
X223370895Y-92189657D01*
X223370895Y-92332514D01*
X223323276Y-92427752D01*
X223275657Y-92475371D01*
X223180419Y-92522990D01*
X222799466Y-92522990D01*
X224323276Y-92999180D02*
X223751847Y-92999180D01*
X224037561Y-92999180D02*
X224037561Y-91999180D01*
X223942323Y-92142038D01*
X223847085Y-92237276D01*
X223751847Y-92284895D01*
X224656609Y-91999180D02*
X225275657Y-91999180D01*
X224942323Y-92380133D01*
X225085180Y-92380133D01*
X225180419Y-92427752D01*
X225228038Y-92475371D01*
X225275657Y-92570609D01*
X225275657Y-92808704D01*
X225228038Y-92903942D01*
X225180419Y-92951561D01*
X225085180Y-92999180D01*
X224799466Y-92999180D01*
X224704228Y-92951561D01*
X224656609Y-92903942D01*
X216509904Y-92202380D02*
X217081333Y-92202380D01*
X216795619Y-93202380D02*
X216795619Y-92202380D01*
X217414666Y-93202380D02*
X217414666Y-92202380D01*
X217795619Y-92202380D01*
X217890857Y-92250000D01*
X217938476Y-92297619D01*
X217986095Y-92392857D01*
X217986095Y-92535714D01*
X217938476Y-92630952D01*
X217890857Y-92678571D01*
X217795619Y-92726190D01*
X217414666Y-92726190D01*
X218938476Y-93202380D02*
X218367047Y-93202380D01*
X218652761Y-93202380D02*
X218652761Y-92202380D01*
X218557523Y-92345238D01*
X218462285Y-92440476D01*
X218367047Y-92488095D01*
X219795619Y-92535714D02*
X219795619Y-93202380D01*
X219557523Y-92154761D02*
X219319428Y-92869047D01*
X219938476Y-92869047D01*
D13*
X203423100Y-97247090D02*
X203423100Y-98575321D01*
X203501231Y-98731584D01*
X203579362Y-98809715D01*
X203735625Y-98887846D01*
X204048150Y-98887846D01*
X204204412Y-98809715D01*
X204282543Y-98731584D01*
X204360675Y-98575321D01*
X204360675Y-97247090D01*
X206001431Y-98887846D02*
X205063856Y-98887846D01*
X205532643Y-98887846D02*
X205532643Y-97247090D01*
X205376381Y-97481484D01*
X205220118Y-97637746D01*
X205063856Y-97715878D01*
M02*
