G04 #@! TF.GenerationSoftware,KiCad,Pcbnew,(5.1.5-0)*
G04 #@! TF.CreationDate,2020-04-26T22:39:22-07:00*
G04 #@! TF.ProjectId,Solar-Battery-Charger,536f6c61-722d-4426-9174-746572792d43,rev?*
G04 #@! TF.SameCoordinates,Original*
G04 #@! TF.FileFunction,Copper,L2,Bot*
G04 #@! TF.FilePolarity,Positive*
%FSLAX46Y46*%
G04 Gerber Fmt 4.6, Leading zero omitted, Abs format (unit mm)*
G04 Created by KiCad (PCBNEW (5.1.5-0)) date 2020-04-26 22:39:22*
%MOMM*%
%LPD*%
G04 APERTURE LIST*
%ADD10C,1.905000*%
%ADD11O,1.700000X1.700000*%
%ADD12R,1.700000X1.700000*%
%ADD13C,2.000000*%
%ADD14C,0.800000*%
%ADD15C,1.200000*%
%ADD16C,0.250000*%
%ADD17C,2.000000*%
%ADD18C,0.254000*%
G04 APERTURE END LIST*
D10*
X180289200Y-100279200D03*
X180289200Y-105359200D03*
X180289200Y-91186000D03*
X180289200Y-96266000D03*
X203352400Y-117195600D03*
X198272400Y-117195600D03*
X185115200Y-116890800D03*
X180035200Y-116890800D03*
D11*
X183134000Y-112318800D03*
D12*
X183134000Y-109778800D03*
X191516000Y-95910400D03*
D11*
X191516000Y-93370400D03*
D13*
X215341200Y-110998000D03*
X220065600Y-110845600D03*
X224993200Y-110896400D03*
X210413600Y-116128800D03*
X215341200Y-116027200D03*
X220218000Y-116078000D03*
X224993200Y-116027200D03*
X229870000Y-116230400D03*
X229768400Y-110896400D03*
X229717600Y-105511600D03*
X229768400Y-100228400D03*
X229717600Y-95250000D03*
X224332800Y-95046800D03*
X218948000Y-95250000D03*
D14*
X223215200Y-108559600D03*
X232105200Y-108407200D03*
X232003600Y-92913200D03*
X210275000Y-94589600D03*
X204724000Y-96875600D03*
X188925200Y-101752400D03*
X188925200Y-99060000D03*
X193344800Y-99060000D03*
X194056000Y-91998800D03*
X195935600Y-103124000D03*
X195935600Y-110032800D03*
X222605600Y-110896400D03*
X222605600Y-119176800D03*
X189733347Y-117606653D03*
X189636400Y-113385600D03*
X211124800Y-110947200D03*
X211429600Y-98094800D03*
X205587600Y-106781600D03*
X205587600Y-110540800D03*
X212547200Y-110032800D03*
X212547200Y-105918000D03*
X219608400Y-98704400D03*
X221640400Y-98704400D03*
X227025200Y-98704400D03*
X209397600Y-99757400D03*
X207264000Y-110591600D03*
X227177600Y-113284000D03*
X211923800Y-112877600D03*
X209600800Y-113334800D03*
X202742800Y-105359200D03*
X202692000Y-108559600D03*
X194208400Y-108204000D03*
X193751200Y-110896400D03*
D15*
X189839600Y-119227600D03*
X191160400Y-116078000D03*
D14*
X203860400Y-105410000D03*
X203809600Y-107746800D03*
X215138000Y-93218000D03*
X215188800Y-102260400D03*
X217779600Y-113842800D03*
X196748400Y-102311200D03*
X196748400Y-110947200D03*
X212648800Y-111099600D03*
X199999600Y-114350800D03*
X194462400Y-105257600D03*
X194462400Y-98755200D03*
X198170800Y-99923600D03*
X198221600Y-107391200D03*
X206095600Y-118821200D03*
X192227200Y-118770400D03*
X208635600Y-101346000D03*
X208635600Y-103530400D03*
X213461600Y-109321600D03*
X212852000Y-104800400D03*
X207772000Y-102717600D03*
X207772000Y-100482400D03*
X216458800Y-98348800D03*
X225856800Y-97942400D03*
X192836800Y-108661200D03*
X205282800Y-102108000D03*
X204317600Y-102108000D03*
X205333600Y-101092000D03*
X204368400Y-101041200D03*
X210566000Y-99720400D03*
X210566000Y-105308400D03*
X206705200Y-105308400D03*
X204862600Y-105460800D03*
X200456800Y-92049600D03*
X204165200Y-95707200D03*
X195122800Y-95910400D03*
D16*
X222351600Y-108559600D02*
X223215200Y-108559600D01*
X220065600Y-110845600D02*
X222351600Y-108559600D01*
X232105200Y-93014800D02*
X232003600Y-92913200D01*
X232105200Y-108407200D02*
X232105200Y-93014800D01*
X207010000Y-94589600D02*
X204724000Y-96875600D01*
X210275000Y-94589600D02*
X207010000Y-94589600D01*
X188925200Y-101752400D02*
X188925200Y-99060000D01*
X193344800Y-92710000D02*
X194056000Y-91998800D01*
X193344800Y-99060000D02*
X193344800Y-92710000D01*
X180289200Y-101626238D02*
X180289200Y-105359200D01*
X180289200Y-100279200D02*
X180289200Y-101626238D01*
X195935600Y-103124000D02*
X195935600Y-110032800D01*
X222605600Y-110896400D02*
X222605600Y-119176800D01*
X189733347Y-113482547D02*
X189636400Y-113385600D01*
X189733347Y-117606653D02*
X189733347Y-113482547D01*
X211524799Y-98189999D02*
X211429600Y-98094800D01*
X211524799Y-110547201D02*
X211524799Y-98189999D01*
X211124800Y-110947200D02*
X211524799Y-110547201D01*
X205587600Y-106781600D02*
X205587600Y-110540800D01*
X212547200Y-110032800D02*
X212547200Y-105918000D01*
X219608400Y-98704400D02*
X221640400Y-98704400D01*
X227025200Y-98704400D02*
X227025200Y-95402400D01*
X227177600Y-95250000D02*
X229717600Y-95250000D01*
X227025200Y-95402400D02*
X227177600Y-95250000D01*
X209397600Y-108458000D02*
X207264000Y-110591600D01*
X209397600Y-99757400D02*
X209397600Y-108458000D01*
X229717600Y-108133002D02*
X227177600Y-110673002D01*
X229717600Y-105511600D02*
X229717600Y-108133002D01*
X227177600Y-110673002D02*
X227177600Y-113284000D01*
X210058000Y-112877600D02*
X209600800Y-113334800D01*
X211923800Y-112877600D02*
X210058000Y-112877600D01*
X202742800Y-108508800D02*
X202692000Y-108559600D01*
X202742800Y-105359200D02*
X202742800Y-108508800D01*
X193751200Y-108661200D02*
X193751200Y-110896400D01*
X194208400Y-108204000D02*
X193751200Y-108661200D01*
X186791600Y-116890800D02*
X185115200Y-116890800D01*
X180035200Y-116890800D02*
X185115200Y-116890800D01*
X186791600Y-116890800D02*
X187502800Y-116890800D01*
X187502800Y-116890800D02*
X189839600Y-119227600D01*
X189839600Y-119227600D02*
X189839600Y-119227600D01*
X191160400Y-117906800D02*
X191160400Y-116078000D01*
X189839600Y-119227600D02*
X191160400Y-117906800D01*
X203860400Y-107696000D02*
X203809600Y-107746800D01*
X203860400Y-105410000D02*
X203860400Y-107696000D01*
X215138000Y-102209600D02*
X215188800Y-102260400D01*
X215138000Y-93218000D02*
X215138000Y-102209600D01*
X215588799Y-102660399D02*
X215188800Y-102260400D01*
X218179599Y-113442801D02*
X218179599Y-105251199D01*
X218179599Y-105251199D02*
X215588799Y-102660399D01*
X217779600Y-113842800D02*
X218179599Y-113442801D01*
X196748400Y-102311200D02*
X196748400Y-110947200D01*
X209397600Y-114350800D02*
X199999600Y-114350800D01*
X212648800Y-111099600D02*
X212648800Y-114350800D01*
X212648800Y-114350800D02*
X209397600Y-114350800D01*
X194462400Y-105257600D02*
X194462400Y-98755200D01*
X198170800Y-107340400D02*
X198221600Y-107391200D01*
X198170800Y-99923600D02*
X198170800Y-107340400D01*
X192278000Y-118821200D02*
X192227200Y-118770400D01*
X206095600Y-118821200D02*
X192278000Y-118821200D01*
X208635600Y-103530400D02*
X208635600Y-101346000D01*
X213461600Y-105410000D02*
X212852000Y-104800400D01*
X213461600Y-109321600D02*
X213461600Y-105410000D01*
X207772000Y-102717600D02*
X207772000Y-100482400D01*
X216865200Y-97942400D02*
X225856800Y-97942400D01*
X216458800Y-98348800D02*
X216865200Y-97942400D01*
X191719200Y-109778800D02*
X192836800Y-108661200D01*
X183134000Y-109778800D02*
X191719200Y-109778800D01*
X210566000Y-99720400D02*
X210566000Y-104902000D01*
X210566000Y-104902000D02*
X210566000Y-105308400D01*
X205015000Y-105308400D02*
X204862600Y-105460800D01*
X206705200Y-105308400D02*
X205015000Y-105308400D01*
X205282800Y-101041200D02*
X205333600Y-101092000D01*
X203352400Y-117195600D02*
X198272400Y-117195600D01*
X180289200Y-96266000D02*
X180289200Y-91186000D01*
X191160400Y-96266000D02*
X191516000Y-95910400D01*
X180289200Y-96266000D02*
X191160400Y-96266000D01*
X204114400Y-95707200D02*
X204165200Y-95707200D01*
X200456800Y-92049600D02*
X204114400Y-95707200D01*
X198983600Y-92049600D02*
X200456800Y-92049600D01*
X195122800Y-95910400D02*
X198983600Y-92049600D01*
D17*
X204368400Y-102057200D02*
X204317600Y-102108000D01*
X204368400Y-101041200D02*
X204368400Y-102057200D01*
X205282800Y-101142800D02*
X205333600Y-101092000D01*
X205282800Y-102108000D02*
X205282800Y-101142800D01*
D18*
G36*
X235180492Y-119659011D02*
G01*
X223534520Y-119638775D01*
X223600826Y-119478698D01*
X223640600Y-119278739D01*
X223640600Y-119074861D01*
X223600826Y-118874902D01*
X223522805Y-118686544D01*
X223409537Y-118517026D01*
X223365600Y-118473089D01*
X223365600Y-117162613D01*
X224037392Y-117162613D01*
X224133156Y-117427014D01*
X224422771Y-117567904D01*
X224734308Y-117649584D01*
X225055795Y-117668918D01*
X225374875Y-117625161D01*
X225679288Y-117519995D01*
X225853244Y-117427014D01*
X225875410Y-117365813D01*
X228914192Y-117365813D01*
X229009956Y-117630214D01*
X229299571Y-117771104D01*
X229611108Y-117852784D01*
X229932595Y-117872118D01*
X230251675Y-117828361D01*
X230556088Y-117723195D01*
X230730044Y-117630214D01*
X230825808Y-117365813D01*
X229870000Y-116410005D01*
X228914192Y-117365813D01*
X225875410Y-117365813D01*
X225949008Y-117162613D01*
X224993200Y-116206805D01*
X224037392Y-117162613D01*
X223365600Y-117162613D01*
X223365600Y-116192745D01*
X223395239Y-116408875D01*
X223500405Y-116713288D01*
X223593386Y-116887244D01*
X223857787Y-116983008D01*
X224813595Y-116027200D01*
X225172805Y-116027200D01*
X226128613Y-116983008D01*
X226393014Y-116887244D01*
X226533904Y-116597629D01*
X226613774Y-116292995D01*
X228228282Y-116292995D01*
X228272039Y-116612075D01*
X228377205Y-116916488D01*
X228470186Y-117090444D01*
X228734587Y-117186208D01*
X229690395Y-116230400D01*
X230049605Y-116230400D01*
X231005413Y-117186208D01*
X231269814Y-117090444D01*
X231410704Y-116800829D01*
X231492384Y-116489292D01*
X231511718Y-116167805D01*
X231467961Y-115848725D01*
X231362795Y-115544312D01*
X231269814Y-115370356D01*
X231005413Y-115274592D01*
X230049605Y-116230400D01*
X229690395Y-116230400D01*
X228734587Y-115274592D01*
X228470186Y-115370356D01*
X228329296Y-115659971D01*
X228247616Y-115971508D01*
X228228282Y-116292995D01*
X226613774Y-116292995D01*
X226615584Y-116286092D01*
X226634918Y-115964605D01*
X226591161Y-115645525D01*
X226485995Y-115341112D01*
X226393014Y-115167156D01*
X226193758Y-115094987D01*
X228914192Y-115094987D01*
X229870000Y-116050795D01*
X230825808Y-115094987D01*
X230730044Y-114830586D01*
X230440429Y-114689696D01*
X230128892Y-114608016D01*
X229807405Y-114588682D01*
X229488325Y-114632439D01*
X229183912Y-114737605D01*
X229009956Y-114830586D01*
X228914192Y-115094987D01*
X226193758Y-115094987D01*
X226128613Y-115071392D01*
X225172805Y-116027200D01*
X224813595Y-116027200D01*
X223857787Y-115071392D01*
X223593386Y-115167156D01*
X223452496Y-115456771D01*
X223370816Y-115768308D01*
X223365600Y-115855040D01*
X223365600Y-114891787D01*
X224037392Y-114891787D01*
X224993200Y-115847595D01*
X225949008Y-114891787D01*
X225853244Y-114627386D01*
X225563629Y-114486496D01*
X225252092Y-114404816D01*
X224930605Y-114385482D01*
X224611525Y-114429239D01*
X224307112Y-114534405D01*
X224133156Y-114627386D01*
X224037392Y-114891787D01*
X223365600Y-114891787D01*
X223365600Y-111600111D01*
X223409537Y-111556174D01*
X223463391Y-111475576D01*
X223544282Y-111670863D01*
X223723213Y-111938652D01*
X223950948Y-112166387D01*
X224218737Y-112345318D01*
X224516288Y-112468568D01*
X224832167Y-112531400D01*
X225154233Y-112531400D01*
X225470112Y-112468568D01*
X225767663Y-112345318D01*
X226035452Y-112166387D01*
X226263187Y-111938652D01*
X226417600Y-111707556D01*
X226417601Y-112580288D01*
X226373663Y-112624226D01*
X226260395Y-112793744D01*
X226182374Y-112982102D01*
X226142600Y-113182061D01*
X226142600Y-113385939D01*
X226182374Y-113585898D01*
X226260395Y-113774256D01*
X226373663Y-113943774D01*
X226517826Y-114087937D01*
X226687344Y-114201205D01*
X226875702Y-114279226D01*
X227075661Y-114319000D01*
X227279539Y-114319000D01*
X227479498Y-114279226D01*
X227667856Y-114201205D01*
X227837374Y-114087937D01*
X227981537Y-113943774D01*
X228094805Y-113774256D01*
X228172826Y-113585898D01*
X228212600Y-113385939D01*
X228212600Y-113182061D01*
X228172826Y-112982102D01*
X228094805Y-112793744D01*
X227981537Y-112624226D01*
X227937600Y-112580289D01*
X227937600Y-110987803D01*
X228133400Y-110792003D01*
X228133400Y-111057433D01*
X228196232Y-111373312D01*
X228319482Y-111670863D01*
X228498413Y-111938652D01*
X228726148Y-112166387D01*
X228993937Y-112345318D01*
X229291488Y-112468568D01*
X229607367Y-112531400D01*
X229929433Y-112531400D01*
X230245312Y-112468568D01*
X230542863Y-112345318D01*
X230810652Y-112166387D01*
X231038387Y-111938652D01*
X231217318Y-111670863D01*
X231340568Y-111373312D01*
X231403400Y-111057433D01*
X231403400Y-110735367D01*
X231340568Y-110419488D01*
X231217318Y-110121937D01*
X231038387Y-109854148D01*
X230810652Y-109626413D01*
X230542863Y-109447482D01*
X230245312Y-109324232D01*
X229929433Y-109261400D01*
X229664005Y-109261400D01*
X230228608Y-108696797D01*
X230257601Y-108673003D01*
X230281395Y-108644010D01*
X230281399Y-108644006D01*
X230339411Y-108573317D01*
X230352574Y-108557278D01*
X230423146Y-108425249D01*
X230466603Y-108281988D01*
X230477600Y-108170335D01*
X230477600Y-108170326D01*
X230481276Y-108133003D01*
X230477600Y-108095680D01*
X230477600Y-106966509D01*
X230492063Y-106960518D01*
X230759852Y-106781587D01*
X230987587Y-106553852D01*
X231166518Y-106286063D01*
X231289768Y-105988512D01*
X231345200Y-105709835D01*
X231345200Y-107703489D01*
X231301263Y-107747426D01*
X231187995Y-107916944D01*
X231109974Y-108105302D01*
X231070200Y-108305261D01*
X231070200Y-108509139D01*
X231109974Y-108709098D01*
X231187995Y-108897456D01*
X231301263Y-109066974D01*
X231445426Y-109211137D01*
X231614944Y-109324405D01*
X231803302Y-109402426D01*
X232003261Y-109442200D01*
X232207139Y-109442200D01*
X232407098Y-109402426D01*
X232595456Y-109324405D01*
X232764974Y-109211137D01*
X232909137Y-109066974D01*
X233022405Y-108897456D01*
X233100426Y-108709098D01*
X233140200Y-108509139D01*
X233140200Y-108305261D01*
X233100426Y-108105302D01*
X233022405Y-107916944D01*
X232909137Y-107747426D01*
X232865200Y-107703489D01*
X232865200Y-93486675D01*
X232920805Y-93403456D01*
X232998826Y-93215098D01*
X233038600Y-93015139D01*
X233038600Y-92811261D01*
X232998826Y-92611302D01*
X232920805Y-92422944D01*
X232807537Y-92253426D01*
X232663374Y-92109263D01*
X232493856Y-91995995D01*
X232305498Y-91917974D01*
X232105539Y-91878200D01*
X231901661Y-91878200D01*
X231701702Y-91917974D01*
X231513344Y-91995995D01*
X231343826Y-92109263D01*
X231199663Y-92253426D01*
X231086395Y-92422944D01*
X231008374Y-92611302D01*
X230968600Y-92811261D01*
X230968600Y-93015139D01*
X231008374Y-93215098D01*
X231086395Y-93403456D01*
X231199663Y-93572974D01*
X231343826Y-93717137D01*
X231345201Y-93718056D01*
X231345201Y-95051769D01*
X231289768Y-94773088D01*
X231166518Y-94475537D01*
X230987587Y-94207748D01*
X230759852Y-93980013D01*
X230492063Y-93801082D01*
X230194512Y-93677832D01*
X229878633Y-93615000D01*
X229556567Y-93615000D01*
X229240688Y-93677832D01*
X228943137Y-93801082D01*
X228675348Y-93980013D01*
X228447613Y-94207748D01*
X228268682Y-94475537D01*
X228262691Y-94490000D01*
X227214922Y-94490000D01*
X227177599Y-94486324D01*
X227140276Y-94490000D01*
X227140267Y-94490000D01*
X227028614Y-94500997D01*
X226885353Y-94544454D01*
X226753324Y-94615026D01*
X226637599Y-94709999D01*
X226613796Y-94739003D01*
X226514198Y-94838601D01*
X226485200Y-94862399D01*
X226461402Y-94891397D01*
X226461401Y-94891398D01*
X226390226Y-94978124D01*
X226319654Y-95110154D01*
X226293554Y-95196197D01*
X226276198Y-95253414D01*
X226272088Y-95295146D01*
X226261524Y-95402400D01*
X226265201Y-95439732D01*
X226265201Y-96991289D01*
X226158698Y-96947174D01*
X225958739Y-96907400D01*
X225754861Y-96907400D01*
X225554902Y-96947174D01*
X225366544Y-97025195D01*
X225197026Y-97138463D01*
X225153089Y-97182400D01*
X216902522Y-97182400D01*
X216865199Y-97178724D01*
X216827876Y-97182400D01*
X216827867Y-97182400D01*
X216716214Y-97193397D01*
X216572953Y-97236854D01*
X216440924Y-97307426D01*
X216433157Y-97313800D01*
X216356861Y-97313800D01*
X216156902Y-97353574D01*
X215968544Y-97431595D01*
X215898000Y-97478731D01*
X215898000Y-95088967D01*
X217313000Y-95088967D01*
X217313000Y-95411033D01*
X217375832Y-95726912D01*
X217499082Y-96024463D01*
X217678013Y-96292252D01*
X217905748Y-96519987D01*
X218173537Y-96698918D01*
X218471088Y-96822168D01*
X218786967Y-96885000D01*
X219109033Y-96885000D01*
X219424912Y-96822168D01*
X219722463Y-96698918D01*
X219990252Y-96519987D01*
X220217987Y-96292252D01*
X220396918Y-96024463D01*
X220520168Y-95726912D01*
X220583000Y-95411033D01*
X220583000Y-95088967D01*
X220542582Y-94885767D01*
X222697800Y-94885767D01*
X222697800Y-95207833D01*
X222760632Y-95523712D01*
X222883882Y-95821263D01*
X223062813Y-96089052D01*
X223290548Y-96316787D01*
X223558337Y-96495718D01*
X223855888Y-96618968D01*
X224171767Y-96681800D01*
X224493833Y-96681800D01*
X224809712Y-96618968D01*
X225107263Y-96495718D01*
X225375052Y-96316787D01*
X225602787Y-96089052D01*
X225781718Y-95821263D01*
X225904968Y-95523712D01*
X225967800Y-95207833D01*
X225967800Y-94885767D01*
X225904968Y-94569888D01*
X225781718Y-94272337D01*
X225602787Y-94004548D01*
X225375052Y-93776813D01*
X225107263Y-93597882D01*
X224809712Y-93474632D01*
X224493833Y-93411800D01*
X224171767Y-93411800D01*
X223855888Y-93474632D01*
X223558337Y-93597882D01*
X223290548Y-93776813D01*
X223062813Y-94004548D01*
X222883882Y-94272337D01*
X222760632Y-94569888D01*
X222697800Y-94885767D01*
X220542582Y-94885767D01*
X220520168Y-94773088D01*
X220396918Y-94475537D01*
X220217987Y-94207748D01*
X219990252Y-93980013D01*
X219722463Y-93801082D01*
X219424912Y-93677832D01*
X219109033Y-93615000D01*
X218786967Y-93615000D01*
X218471088Y-93677832D01*
X218173537Y-93801082D01*
X217905748Y-93980013D01*
X217678013Y-94207748D01*
X217499082Y-94475537D01*
X217375832Y-94773088D01*
X217313000Y-95088967D01*
X215898000Y-95088967D01*
X215898000Y-93921711D01*
X215941937Y-93877774D01*
X216055205Y-93708256D01*
X216133226Y-93519898D01*
X216173000Y-93319939D01*
X216173000Y-93116061D01*
X216133226Y-92916102D01*
X216055205Y-92727744D01*
X215941937Y-92558226D01*
X215797774Y-92414063D01*
X215628256Y-92300795D01*
X215439898Y-92222774D01*
X215239939Y-92183000D01*
X215036061Y-92183000D01*
X214836102Y-92222774D01*
X214647744Y-92300795D01*
X214478226Y-92414063D01*
X214334063Y-92558226D01*
X214220795Y-92727744D01*
X214142774Y-92916102D01*
X214103000Y-93116061D01*
X214103000Y-93319939D01*
X214142774Y-93519898D01*
X214220795Y-93708256D01*
X214334063Y-93877774D01*
X214378000Y-93921711D01*
X214378001Y-101610896D01*
X214271595Y-101770144D01*
X214193574Y-101958502D01*
X214153800Y-102158461D01*
X214153800Y-102362339D01*
X214193574Y-102562298D01*
X214271595Y-102750656D01*
X214384863Y-102920174D01*
X214529026Y-103064337D01*
X214698544Y-103177605D01*
X214886902Y-103255626D01*
X215086861Y-103295400D01*
X215148999Y-103295400D01*
X217419600Y-105566003D01*
X217419599Y-112871641D01*
X217289344Y-112925595D01*
X217119826Y-113038863D01*
X216975663Y-113183026D01*
X216862395Y-113352544D01*
X216784374Y-113540902D01*
X216744600Y-113740861D01*
X216744600Y-113944739D01*
X216784374Y-114144698D01*
X216862395Y-114333056D01*
X216975663Y-114502574D01*
X217119826Y-114646737D01*
X217289344Y-114760005D01*
X217477702Y-114838026D01*
X217677661Y-114877800D01*
X217881539Y-114877800D01*
X218081498Y-114838026D01*
X218269856Y-114760005D01*
X218439374Y-114646737D01*
X218583537Y-114502574D01*
X218696805Y-114333056D01*
X218774826Y-114144698D01*
X218814600Y-113944739D01*
X218814600Y-113867026D01*
X218885145Y-113735048D01*
X218928602Y-113591787D01*
X218939599Y-113480134D01*
X218939599Y-113480124D01*
X218943275Y-113442802D01*
X218939599Y-113405479D01*
X218939599Y-112031838D01*
X219023348Y-112115587D01*
X219291137Y-112294518D01*
X219588688Y-112417768D01*
X219904567Y-112480600D01*
X220226633Y-112480600D01*
X220542512Y-112417768D01*
X220840063Y-112294518D01*
X221107852Y-112115587D01*
X221335587Y-111887852D01*
X221514518Y-111620063D01*
X221637768Y-111322512D01*
X221645573Y-111283275D01*
X221688395Y-111386656D01*
X221801663Y-111556174D01*
X221845600Y-111600111D01*
X221845601Y-115879768D01*
X221790168Y-115601088D01*
X221666918Y-115303537D01*
X221487987Y-115035748D01*
X221260252Y-114808013D01*
X220992463Y-114629082D01*
X220694912Y-114505832D01*
X220379033Y-114443000D01*
X220056967Y-114443000D01*
X219741088Y-114505832D01*
X219443537Y-114629082D01*
X219175748Y-114808013D01*
X218948013Y-115035748D01*
X218769082Y-115303537D01*
X218645832Y-115601088D01*
X218583000Y-115916967D01*
X218583000Y-116239033D01*
X218645832Y-116554912D01*
X218769082Y-116852463D01*
X218948013Y-117120252D01*
X219175748Y-117347987D01*
X219443537Y-117526918D01*
X219741088Y-117650168D01*
X220056967Y-117713000D01*
X220379033Y-117713000D01*
X220694912Y-117650168D01*
X220992463Y-117526918D01*
X221260252Y-117347987D01*
X221487987Y-117120252D01*
X221666918Y-116852463D01*
X221790168Y-116554912D01*
X221845601Y-116276232D01*
X221845601Y-118473088D01*
X221801663Y-118517026D01*
X221688395Y-118686544D01*
X221610374Y-118874902D01*
X221570600Y-119074861D01*
X221570600Y-119278739D01*
X221610374Y-119478698D01*
X221675342Y-119635544D01*
X206770865Y-119609646D01*
X206899537Y-119480974D01*
X207012805Y-119311456D01*
X207090826Y-119123098D01*
X207130600Y-118923139D01*
X207130600Y-118719261D01*
X207090826Y-118519302D01*
X207012805Y-118330944D01*
X206899537Y-118161426D01*
X206755374Y-118017263D01*
X206585856Y-117903995D01*
X206397498Y-117825974D01*
X206197539Y-117786200D01*
X205993661Y-117786200D01*
X205793702Y-117825974D01*
X205605344Y-117903995D01*
X205435826Y-118017263D01*
X205391889Y-118061200D01*
X204616331Y-118061200D01*
X204713481Y-118027502D01*
X204849624Y-117745984D01*
X204928229Y-117443314D01*
X204946277Y-117131126D01*
X204903072Y-116821415D01*
X204800277Y-116526084D01*
X204713481Y-116363698D01*
X204453935Y-116273670D01*
X203532005Y-117195600D01*
X203546148Y-117209743D01*
X203366543Y-117389348D01*
X203352400Y-117375205D01*
X203338258Y-117389348D01*
X203158653Y-117209743D01*
X203172795Y-117195600D01*
X202250865Y-116273670D01*
X201991319Y-116363698D01*
X201855176Y-116645216D01*
X201776571Y-116947886D01*
X201758523Y-117260074D01*
X201801728Y-117569785D01*
X201904523Y-117865116D01*
X201991319Y-118027502D01*
X202088469Y-118061200D01*
X199536331Y-118061200D01*
X199633481Y-118027502D01*
X199769624Y-117745984D01*
X199848229Y-117443314D01*
X199866277Y-117131126D01*
X199823072Y-116821415D01*
X199720277Y-116526084D01*
X199633481Y-116363698D01*
X199373935Y-116273670D01*
X198452005Y-117195600D01*
X198466148Y-117209743D01*
X198286543Y-117389348D01*
X198272400Y-117375205D01*
X198258258Y-117389348D01*
X198078653Y-117209743D01*
X198092795Y-117195600D01*
X197170865Y-116273670D01*
X196911319Y-116363698D01*
X196775176Y-116645216D01*
X196696571Y-116947886D01*
X196678523Y-117260074D01*
X196721728Y-117569785D01*
X196824523Y-117865116D01*
X196911319Y-118027502D01*
X197008469Y-118061200D01*
X192981711Y-118061200D01*
X192886974Y-117966463D01*
X192717456Y-117853195D01*
X192529098Y-117775174D01*
X192329139Y-117735400D01*
X192125261Y-117735400D01*
X191925302Y-117775174D01*
X191920400Y-117777204D01*
X191920400Y-117055506D01*
X191947667Y-117037287D01*
X192119687Y-116865267D01*
X192254843Y-116662992D01*
X192347940Y-116438236D01*
X192395400Y-116199637D01*
X192395400Y-116094065D01*
X197350470Y-116094065D01*
X198272400Y-117015995D01*
X199194330Y-116094065D01*
X202430470Y-116094065D01*
X203352400Y-117015995D01*
X204274330Y-116094065D01*
X204184302Y-115834519D01*
X203902784Y-115698376D01*
X203600114Y-115619771D01*
X203287926Y-115601723D01*
X202978215Y-115644928D01*
X202682884Y-115747723D01*
X202520498Y-115834519D01*
X202430470Y-116094065D01*
X199194330Y-116094065D01*
X199104302Y-115834519D01*
X198822784Y-115698376D01*
X198520114Y-115619771D01*
X198207926Y-115601723D01*
X197898215Y-115644928D01*
X197602884Y-115747723D01*
X197440498Y-115834519D01*
X197350470Y-116094065D01*
X192395400Y-116094065D01*
X192395400Y-115956363D01*
X192347940Y-115717764D01*
X192254843Y-115493008D01*
X192119687Y-115290733D01*
X191947667Y-115118713D01*
X191745392Y-114983557D01*
X191520636Y-114890460D01*
X191282037Y-114843000D01*
X191038763Y-114843000D01*
X190800164Y-114890460D01*
X190575408Y-114983557D01*
X190493347Y-115038388D01*
X190493347Y-114248861D01*
X198964600Y-114248861D01*
X198964600Y-114452739D01*
X199004374Y-114652698D01*
X199082395Y-114841056D01*
X199195663Y-115010574D01*
X199339826Y-115154737D01*
X199509344Y-115268005D01*
X199697702Y-115346026D01*
X199897661Y-115385800D01*
X200101539Y-115385800D01*
X200301498Y-115346026D01*
X200489856Y-115268005D01*
X200659374Y-115154737D01*
X200703311Y-115110800D01*
X209127408Y-115110800D01*
X208964682Y-115354337D01*
X208841432Y-115651888D01*
X208778600Y-115967767D01*
X208778600Y-116289833D01*
X208841432Y-116605712D01*
X208964682Y-116903263D01*
X209143613Y-117171052D01*
X209371348Y-117398787D01*
X209639137Y-117577718D01*
X209936688Y-117700968D01*
X210252567Y-117763800D01*
X210574633Y-117763800D01*
X210890512Y-117700968D01*
X211188063Y-117577718D01*
X211455852Y-117398787D01*
X211683587Y-117171052D01*
X211862518Y-116903263D01*
X211985768Y-116605712D01*
X212048600Y-116289833D01*
X212048600Y-115967767D01*
X212028391Y-115866167D01*
X213706200Y-115866167D01*
X213706200Y-116188233D01*
X213769032Y-116504112D01*
X213892282Y-116801663D01*
X214071213Y-117069452D01*
X214298948Y-117297187D01*
X214566737Y-117476118D01*
X214864288Y-117599368D01*
X215180167Y-117662200D01*
X215502233Y-117662200D01*
X215818112Y-117599368D01*
X216115663Y-117476118D01*
X216383452Y-117297187D01*
X216611187Y-117069452D01*
X216790118Y-116801663D01*
X216913368Y-116504112D01*
X216976200Y-116188233D01*
X216976200Y-115866167D01*
X216913368Y-115550288D01*
X216790118Y-115252737D01*
X216611187Y-114984948D01*
X216383452Y-114757213D01*
X216115663Y-114578282D01*
X215818112Y-114455032D01*
X215502233Y-114392200D01*
X215180167Y-114392200D01*
X214864288Y-114455032D01*
X214566737Y-114578282D01*
X214298948Y-114757213D01*
X214071213Y-114984948D01*
X213892282Y-115252737D01*
X213769032Y-115550288D01*
X213706200Y-115866167D01*
X212028391Y-115866167D01*
X211985768Y-115651888D01*
X211862518Y-115354337D01*
X211699792Y-115110800D01*
X212611467Y-115110800D01*
X212648800Y-115114477D01*
X212797786Y-115099803D01*
X212941047Y-115056346D01*
X213073076Y-114985774D01*
X213188801Y-114890801D01*
X213283774Y-114775076D01*
X213354346Y-114643047D01*
X213397803Y-114499786D01*
X213408800Y-114388133D01*
X213412477Y-114350800D01*
X213408800Y-114313467D01*
X213408800Y-111803311D01*
X213452737Y-111759374D01*
X213566005Y-111589856D01*
X213644026Y-111401498D01*
X213683800Y-111201539D01*
X213683800Y-110997661D01*
X213644026Y-110797702D01*
X213566005Y-110609344D01*
X213481222Y-110482457D01*
X213533354Y-110356600D01*
X213563539Y-110356600D01*
X213763498Y-110316826D01*
X213872310Y-110271754D01*
X213769032Y-110521088D01*
X213706200Y-110836967D01*
X213706200Y-111159033D01*
X213769032Y-111474912D01*
X213892282Y-111772463D01*
X214071213Y-112040252D01*
X214298948Y-112267987D01*
X214566737Y-112446918D01*
X214864288Y-112570168D01*
X215180167Y-112633000D01*
X215502233Y-112633000D01*
X215818112Y-112570168D01*
X216115663Y-112446918D01*
X216383452Y-112267987D01*
X216611187Y-112040252D01*
X216790118Y-111772463D01*
X216913368Y-111474912D01*
X216976200Y-111159033D01*
X216976200Y-110836967D01*
X216913368Y-110521088D01*
X216790118Y-110223537D01*
X216611187Y-109955748D01*
X216383452Y-109728013D01*
X216115663Y-109549082D01*
X215818112Y-109425832D01*
X215502233Y-109363000D01*
X215180167Y-109363000D01*
X214864288Y-109425832D01*
X214566737Y-109549082D01*
X214457050Y-109622373D01*
X214496600Y-109423539D01*
X214496600Y-109219661D01*
X214456826Y-109019702D01*
X214378805Y-108831344D01*
X214265537Y-108661826D01*
X214221600Y-108617889D01*
X214221600Y-105447333D01*
X214225277Y-105410000D01*
X214210603Y-105261014D01*
X214167146Y-105117753D01*
X214096574Y-104985724D01*
X214025399Y-104898997D01*
X214001601Y-104869999D01*
X213972602Y-104846200D01*
X213887000Y-104760598D01*
X213887000Y-104698461D01*
X213847226Y-104498502D01*
X213769205Y-104310144D01*
X213655937Y-104140626D01*
X213511774Y-103996463D01*
X213342256Y-103883195D01*
X213153898Y-103805174D01*
X212953939Y-103765400D01*
X212750061Y-103765400D01*
X212550102Y-103805174D01*
X212361744Y-103883195D01*
X212284799Y-103934608D01*
X212284799Y-98677855D01*
X212346805Y-98585056D01*
X212424826Y-98396698D01*
X212464600Y-98196739D01*
X212464600Y-97992861D01*
X212424826Y-97792902D01*
X212346805Y-97604544D01*
X212233537Y-97435026D01*
X212089374Y-97290863D01*
X211919856Y-97177595D01*
X211731498Y-97099574D01*
X211531539Y-97059800D01*
X211327661Y-97059800D01*
X211127702Y-97099574D01*
X210939344Y-97177595D01*
X210769826Y-97290863D01*
X210625663Y-97435026D01*
X210512395Y-97604544D01*
X210434374Y-97792902D01*
X210394600Y-97992861D01*
X210394600Y-98196739D01*
X210434374Y-98396698D01*
X210512395Y-98585056D01*
X210579443Y-98685400D01*
X210464061Y-98685400D01*
X210264102Y-98725174D01*
X210075744Y-98803195D01*
X209954113Y-98884466D01*
X209887856Y-98840195D01*
X209699498Y-98762174D01*
X209499539Y-98722400D01*
X209295661Y-98722400D01*
X209095702Y-98762174D01*
X208907344Y-98840195D01*
X208737826Y-98953463D01*
X208593663Y-99097626D01*
X208480395Y-99267144D01*
X208402374Y-99455502D01*
X208366677Y-99634966D01*
X208262256Y-99565195D01*
X208073898Y-99487174D01*
X207873939Y-99447400D01*
X207670061Y-99447400D01*
X207470102Y-99487174D01*
X207281744Y-99565195D01*
X207112226Y-99678463D01*
X206968063Y-99822626D01*
X206854795Y-99992144D01*
X206776774Y-100180502D01*
X206737000Y-100380461D01*
X206737000Y-100584339D01*
X206776774Y-100784298D01*
X206854795Y-100972656D01*
X206968063Y-101142174D01*
X207012001Y-101186112D01*
X207012000Y-102013889D01*
X206968063Y-102057826D01*
X206854795Y-102227344D01*
X206776774Y-102415702D01*
X206737000Y-102615661D01*
X206737000Y-102819539D01*
X206776774Y-103019498D01*
X206854795Y-103207856D01*
X206968063Y-103377374D01*
X207112226Y-103521537D01*
X207281744Y-103634805D01*
X207470102Y-103712826D01*
X207622645Y-103743168D01*
X207640374Y-103832298D01*
X207718395Y-104020656D01*
X207831663Y-104190174D01*
X207975826Y-104334337D01*
X208145344Y-104447605D01*
X208333702Y-104525626D01*
X208533661Y-104565400D01*
X208637601Y-104565400D01*
X208637601Y-108143197D01*
X207224199Y-109556600D01*
X207162061Y-109556600D01*
X206962102Y-109596374D01*
X206773744Y-109674395D01*
X206604226Y-109787663D01*
X206460063Y-109931826D01*
X206442772Y-109957704D01*
X206391537Y-109881026D01*
X206347600Y-109837089D01*
X206347600Y-107485311D01*
X206391537Y-107441374D01*
X206504805Y-107271856D01*
X206582826Y-107083498D01*
X206622600Y-106883539D01*
X206622600Y-106679661D01*
X206582826Y-106479702D01*
X206519463Y-106326732D01*
X206603261Y-106343400D01*
X206807139Y-106343400D01*
X207007098Y-106303626D01*
X207195456Y-106225605D01*
X207364974Y-106112337D01*
X207509137Y-105968174D01*
X207622405Y-105798656D01*
X207700426Y-105610298D01*
X207740200Y-105410339D01*
X207740200Y-105206461D01*
X207700426Y-105006502D01*
X207622405Y-104818144D01*
X207509137Y-104648626D01*
X207364974Y-104504463D01*
X207195456Y-104391195D01*
X207007098Y-104313174D01*
X206807139Y-104273400D01*
X206603261Y-104273400D01*
X206403302Y-104313174D01*
X206214944Y-104391195D01*
X206045426Y-104504463D01*
X206001489Y-104548400D01*
X205360047Y-104548400D01*
X205352856Y-104543595D01*
X205164498Y-104465574D01*
X204964539Y-104425800D01*
X204760661Y-104425800D01*
X204560702Y-104465574D01*
X204405889Y-104529700D01*
X204350656Y-104492795D01*
X204162298Y-104414774D01*
X203962339Y-104375000D01*
X203758461Y-104375000D01*
X203558502Y-104414774D01*
X203370144Y-104492795D01*
X203339614Y-104513195D01*
X203233056Y-104441995D01*
X203044698Y-104363974D01*
X202844739Y-104324200D01*
X202640861Y-104324200D01*
X202440902Y-104363974D01*
X202252544Y-104441995D01*
X202083026Y-104555263D01*
X201938863Y-104699426D01*
X201825595Y-104868944D01*
X201747574Y-105057302D01*
X201707800Y-105257261D01*
X201707800Y-105461139D01*
X201747574Y-105661098D01*
X201825595Y-105849456D01*
X201938863Y-106018974D01*
X201982800Y-106062911D01*
X201982801Y-107805088D01*
X201888063Y-107899826D01*
X201774795Y-108069344D01*
X201696774Y-108257702D01*
X201657000Y-108457661D01*
X201657000Y-108661539D01*
X201696774Y-108861498D01*
X201774795Y-109049856D01*
X201888063Y-109219374D01*
X202032226Y-109363537D01*
X202201744Y-109476805D01*
X202390102Y-109554826D01*
X202590061Y-109594600D01*
X202793939Y-109594600D01*
X202993898Y-109554826D01*
X203182256Y-109476805D01*
X203351774Y-109363537D01*
X203495937Y-109219374D01*
X203609205Y-109049856D01*
X203687226Y-108861498D01*
X203703253Y-108780923D01*
X203707661Y-108781800D01*
X203911539Y-108781800D01*
X204111498Y-108742026D01*
X204299856Y-108664005D01*
X204469374Y-108550737D01*
X204613537Y-108406574D01*
X204726805Y-108237056D01*
X204804826Y-108048698D01*
X204827600Y-107934203D01*
X204827601Y-109837088D01*
X204783663Y-109881026D01*
X204670395Y-110050544D01*
X204592374Y-110238902D01*
X204552600Y-110438861D01*
X204552600Y-110642739D01*
X204592374Y-110842698D01*
X204670395Y-111031056D01*
X204783663Y-111200574D01*
X204927826Y-111344737D01*
X205097344Y-111458005D01*
X205285702Y-111536026D01*
X205485661Y-111575800D01*
X205689539Y-111575800D01*
X205889498Y-111536026D01*
X206077856Y-111458005D01*
X206247374Y-111344737D01*
X206391537Y-111200574D01*
X206408828Y-111174696D01*
X206460063Y-111251374D01*
X206604226Y-111395537D01*
X206773744Y-111508805D01*
X206962102Y-111586826D01*
X207162061Y-111626600D01*
X207365939Y-111626600D01*
X207565898Y-111586826D01*
X207754256Y-111508805D01*
X207923774Y-111395537D01*
X208067937Y-111251374D01*
X208181205Y-111081856D01*
X208259226Y-110893498D01*
X208299000Y-110693539D01*
X208299000Y-110631401D01*
X209908603Y-109021799D01*
X209937601Y-108998001D01*
X209974166Y-108953446D01*
X210032574Y-108882277D01*
X210103146Y-108750247D01*
X210115783Y-108708587D01*
X210146603Y-108606986D01*
X210157600Y-108495333D01*
X210157600Y-108495324D01*
X210161276Y-108458001D01*
X210157600Y-108420678D01*
X210157600Y-106259511D01*
X210264102Y-106303626D01*
X210464061Y-106343400D01*
X210667939Y-106343400D01*
X210764799Y-106324133D01*
X210764799Y-109976041D01*
X210634544Y-110029995D01*
X210465026Y-110143263D01*
X210320863Y-110287426D01*
X210207595Y-110456944D01*
X210129574Y-110645302D01*
X210089800Y-110845261D01*
X210089800Y-111049139D01*
X210129574Y-111249098D01*
X210207595Y-111437456D01*
X210320863Y-111606974D01*
X210465026Y-111751137D01*
X210634544Y-111864405D01*
X210822902Y-111942426D01*
X211022861Y-111982200D01*
X211226739Y-111982200D01*
X211426698Y-111942426D01*
X211615056Y-111864405D01*
X211784574Y-111751137D01*
X211817415Y-111718296D01*
X211844863Y-111759374D01*
X211888800Y-111803311D01*
X211888800Y-111842600D01*
X211821861Y-111842600D01*
X211621902Y-111882374D01*
X211433544Y-111960395D01*
X211264026Y-112073663D01*
X211220089Y-112117600D01*
X210095322Y-112117600D01*
X210057999Y-112113924D01*
X210020676Y-112117600D01*
X210020667Y-112117600D01*
X209909014Y-112128597D01*
X209765753Y-112172054D01*
X209633724Y-112242626D01*
X209564057Y-112299800D01*
X209498861Y-112299800D01*
X209298902Y-112339574D01*
X209110544Y-112417595D01*
X208941026Y-112530863D01*
X208796863Y-112675026D01*
X208683595Y-112844544D01*
X208605574Y-113032902D01*
X208565800Y-113232861D01*
X208565800Y-113436739D01*
X208596444Y-113590800D01*
X200703311Y-113590800D01*
X200659374Y-113546863D01*
X200489856Y-113433595D01*
X200301498Y-113355574D01*
X200101539Y-113315800D01*
X199897661Y-113315800D01*
X199697702Y-113355574D01*
X199509344Y-113433595D01*
X199339826Y-113546863D01*
X199195663Y-113691026D01*
X199082395Y-113860544D01*
X199004374Y-114048902D01*
X198964600Y-114248861D01*
X190493347Y-114248861D01*
X190493347Y-113966039D01*
X190553605Y-113875856D01*
X190631626Y-113687498D01*
X190671400Y-113487539D01*
X190671400Y-113283661D01*
X190631626Y-113083702D01*
X190553605Y-112895344D01*
X190440337Y-112725826D01*
X190296174Y-112581663D01*
X190126656Y-112468395D01*
X189938298Y-112390374D01*
X189738339Y-112350600D01*
X189534461Y-112350600D01*
X189334502Y-112390374D01*
X189146144Y-112468395D01*
X188976626Y-112581663D01*
X188832463Y-112725826D01*
X188719195Y-112895344D01*
X188641174Y-113083702D01*
X188601400Y-113283661D01*
X188601400Y-113487539D01*
X188641174Y-113687498D01*
X188719195Y-113875856D01*
X188832463Y-114045374D01*
X188973348Y-114186259D01*
X188973347Y-116902942D01*
X188929410Y-116946879D01*
X188816142Y-117116397D01*
X188812351Y-117125550D01*
X188066604Y-116379803D01*
X188042801Y-116350799D01*
X187927076Y-116255826D01*
X187795047Y-116185254D01*
X187651786Y-116141797D01*
X187540133Y-116130800D01*
X187540122Y-116130800D01*
X187502800Y-116127124D01*
X187465478Y-116130800D01*
X186516654Y-116130800D01*
X186348292Y-115878828D01*
X186127172Y-115657708D01*
X185867163Y-115483976D01*
X185578257Y-115364307D01*
X185271555Y-115303300D01*
X184958845Y-115303300D01*
X184652143Y-115364307D01*
X184363237Y-115483976D01*
X184103228Y-115657708D01*
X183882108Y-115878828D01*
X183713746Y-116130800D01*
X181436654Y-116130800D01*
X181268292Y-115878828D01*
X181047172Y-115657708D01*
X180787163Y-115483976D01*
X180498257Y-115364307D01*
X180191555Y-115303300D01*
X179878845Y-115303300D01*
X179572143Y-115364307D01*
X179283237Y-115483976D01*
X179023228Y-115657708D01*
X178802108Y-115878828D01*
X178628376Y-116138837D01*
X178508707Y-116427743D01*
X178447700Y-116734445D01*
X178447700Y-117047155D01*
X178508707Y-117353857D01*
X178628376Y-117642763D01*
X178802108Y-117902772D01*
X179023228Y-118123892D01*
X179283237Y-118297624D01*
X179572143Y-118417293D01*
X179878845Y-118478300D01*
X180191555Y-118478300D01*
X180498257Y-118417293D01*
X180787163Y-118297624D01*
X181047172Y-118123892D01*
X181268292Y-117902772D01*
X181436654Y-117650800D01*
X183713746Y-117650800D01*
X183882108Y-117902772D01*
X184103228Y-118123892D01*
X184363237Y-118297624D01*
X184652143Y-118417293D01*
X184958845Y-118478300D01*
X185271555Y-118478300D01*
X185578257Y-118417293D01*
X185867163Y-118297624D01*
X186127172Y-118123892D01*
X186348292Y-117902772D01*
X186516654Y-117650800D01*
X187187999Y-117650800D01*
X188610998Y-119073799D01*
X188604600Y-119105963D01*
X188604600Y-119349237D01*
X188650135Y-119578159D01*
X178078600Y-119559790D01*
X178078600Y-110628800D01*
X181645928Y-110628800D01*
X181658188Y-110753282D01*
X181694498Y-110872980D01*
X181753463Y-110983294D01*
X181832815Y-111079985D01*
X181929506Y-111159337D01*
X182039820Y-111218302D01*
X182112380Y-111240313D01*
X181980525Y-111372168D01*
X181818010Y-111615389D01*
X181706068Y-111885642D01*
X181649000Y-112172540D01*
X181649000Y-112465060D01*
X181706068Y-112751958D01*
X181818010Y-113022211D01*
X181980525Y-113265432D01*
X182187368Y-113472275D01*
X182430589Y-113634790D01*
X182700842Y-113746732D01*
X182987740Y-113803800D01*
X183280260Y-113803800D01*
X183567158Y-113746732D01*
X183837411Y-113634790D01*
X184080632Y-113472275D01*
X184287475Y-113265432D01*
X184449990Y-113022211D01*
X184561932Y-112751958D01*
X184619000Y-112465060D01*
X184619000Y-112172540D01*
X184561932Y-111885642D01*
X184449990Y-111615389D01*
X184287475Y-111372168D01*
X184155620Y-111240313D01*
X184228180Y-111218302D01*
X184338494Y-111159337D01*
X184435185Y-111079985D01*
X184514537Y-110983294D01*
X184573502Y-110872980D01*
X184609812Y-110753282D01*
X184622072Y-110628800D01*
X184619000Y-110064550D01*
X184460250Y-109905800D01*
X183261000Y-109905800D01*
X183261000Y-109925800D01*
X183007000Y-109925800D01*
X183007000Y-109905800D01*
X181807750Y-109905800D01*
X181649000Y-110064550D01*
X181645928Y-110628800D01*
X178078600Y-110628800D01*
X178078600Y-108928800D01*
X181645928Y-108928800D01*
X181649000Y-109493050D01*
X181807750Y-109651800D01*
X183007000Y-109651800D01*
X183007000Y-108452550D01*
X183261000Y-108452550D01*
X183261000Y-109651800D01*
X184460250Y-109651800D01*
X184619000Y-109493050D01*
X184622072Y-108928800D01*
X184609812Y-108804318D01*
X184573502Y-108684620D01*
X184514537Y-108574306D01*
X184435185Y-108477615D01*
X184338494Y-108398263D01*
X184228180Y-108339298D01*
X184108482Y-108302988D01*
X183984000Y-108290728D01*
X183419750Y-108293800D01*
X183261000Y-108452550D01*
X183007000Y-108452550D01*
X182848250Y-108293800D01*
X182284000Y-108290728D01*
X182159518Y-108302988D01*
X182039820Y-108339298D01*
X181929506Y-108398263D01*
X181832815Y-108477615D01*
X181753463Y-108574306D01*
X181694498Y-108684620D01*
X181658188Y-108804318D01*
X181645928Y-108928800D01*
X178078600Y-108928800D01*
X178078600Y-100122845D01*
X178701700Y-100122845D01*
X178701700Y-100435555D01*
X178762707Y-100742257D01*
X178882376Y-101031163D01*
X179056108Y-101291172D01*
X179277228Y-101512292D01*
X179529200Y-101680654D01*
X179529201Y-103957746D01*
X179277228Y-104126108D01*
X179056108Y-104347228D01*
X178882376Y-104607237D01*
X178762707Y-104896143D01*
X178701700Y-105202845D01*
X178701700Y-105515555D01*
X178762707Y-105822257D01*
X178882376Y-106111163D01*
X179056108Y-106371172D01*
X179277228Y-106592292D01*
X179537237Y-106766024D01*
X179826143Y-106885693D01*
X180132845Y-106946700D01*
X180445555Y-106946700D01*
X180752257Y-106885693D01*
X181041163Y-106766024D01*
X181301172Y-106592292D01*
X181522292Y-106371172D01*
X181696024Y-106111163D01*
X181815693Y-105822257D01*
X181876700Y-105515555D01*
X181876700Y-105202845D01*
X181815693Y-104896143D01*
X181696024Y-104607237D01*
X181522292Y-104347228D01*
X181301172Y-104126108D01*
X181049200Y-103957746D01*
X181049200Y-101680654D01*
X181301172Y-101512292D01*
X181522292Y-101291172D01*
X181696024Y-101031163D01*
X181815693Y-100742257D01*
X181876700Y-100435555D01*
X181876700Y-100122845D01*
X181815693Y-99816143D01*
X181696024Y-99527237D01*
X181522292Y-99267228D01*
X181301172Y-99046108D01*
X181169401Y-98958061D01*
X187890200Y-98958061D01*
X187890200Y-99161939D01*
X187929974Y-99361898D01*
X188007995Y-99550256D01*
X188121263Y-99719774D01*
X188165201Y-99763712D01*
X188165200Y-101048689D01*
X188121263Y-101092626D01*
X188007995Y-101262144D01*
X187929974Y-101450502D01*
X187890200Y-101650461D01*
X187890200Y-101854339D01*
X187929974Y-102054298D01*
X188007995Y-102242656D01*
X188121263Y-102412174D01*
X188265426Y-102556337D01*
X188434944Y-102669605D01*
X188623302Y-102747626D01*
X188823261Y-102787400D01*
X189027139Y-102787400D01*
X189227098Y-102747626D01*
X189415456Y-102669605D01*
X189584974Y-102556337D01*
X189729137Y-102412174D01*
X189842405Y-102242656D01*
X189920426Y-102054298D01*
X189960200Y-101854339D01*
X189960200Y-101650461D01*
X189920426Y-101450502D01*
X189842405Y-101262144D01*
X189729137Y-101092626D01*
X189685200Y-101048689D01*
X189685200Y-99763711D01*
X189729137Y-99719774D01*
X189842405Y-99550256D01*
X189920426Y-99361898D01*
X189960200Y-99161939D01*
X189960200Y-98958061D01*
X189920426Y-98758102D01*
X189842405Y-98569744D01*
X189729137Y-98400226D01*
X189584974Y-98256063D01*
X189415456Y-98142795D01*
X189227098Y-98064774D01*
X189027139Y-98025000D01*
X188823261Y-98025000D01*
X188623302Y-98064774D01*
X188434944Y-98142795D01*
X188265426Y-98256063D01*
X188121263Y-98400226D01*
X188007995Y-98569744D01*
X187929974Y-98758102D01*
X187890200Y-98958061D01*
X181169401Y-98958061D01*
X181041163Y-98872376D01*
X180752257Y-98752707D01*
X180445555Y-98691700D01*
X180132845Y-98691700D01*
X179826143Y-98752707D01*
X179537237Y-98872376D01*
X179277228Y-99046108D01*
X179056108Y-99267228D01*
X178882376Y-99527237D01*
X178762707Y-99816143D01*
X178701700Y-100122845D01*
X178078600Y-100122845D01*
X178078600Y-97367535D01*
X179367270Y-97367535D01*
X179457298Y-97627081D01*
X179738816Y-97763224D01*
X180041486Y-97841829D01*
X180353674Y-97859877D01*
X180663385Y-97816672D01*
X180958716Y-97713877D01*
X181121102Y-97627081D01*
X181211130Y-97367535D01*
X180289200Y-96445605D01*
X179367270Y-97367535D01*
X178078600Y-97367535D01*
X178078600Y-96330474D01*
X178695323Y-96330474D01*
X178738528Y-96640185D01*
X178841323Y-96935516D01*
X178928119Y-97097902D01*
X179187665Y-97187930D01*
X180109595Y-96266000D01*
X180468805Y-96266000D01*
X181390735Y-97187930D01*
X181650281Y-97097902D01*
X181786424Y-96816384D01*
X181800963Y-96760400D01*
X190027928Y-96760400D01*
X190040188Y-96884882D01*
X190076498Y-97004580D01*
X190135463Y-97114894D01*
X190214815Y-97211585D01*
X190311506Y-97290937D01*
X190421820Y-97349902D01*
X190541518Y-97386212D01*
X190666000Y-97398472D01*
X191230250Y-97395400D01*
X191389000Y-97236650D01*
X191389000Y-96037400D01*
X190189750Y-96037400D01*
X190031000Y-96196150D01*
X190027928Y-96760400D01*
X181800963Y-96760400D01*
X181865029Y-96513714D01*
X181883077Y-96201526D01*
X181839872Y-95891815D01*
X181737077Y-95596484D01*
X181650281Y-95434098D01*
X181390735Y-95344070D01*
X180468805Y-96266000D01*
X180109595Y-96266000D01*
X179187665Y-95344070D01*
X178928119Y-95434098D01*
X178791976Y-95715616D01*
X178713371Y-96018286D01*
X178695323Y-96330474D01*
X178078600Y-96330474D01*
X178078600Y-95164465D01*
X179367270Y-95164465D01*
X180289200Y-96086395D01*
X181211130Y-95164465D01*
X181175034Y-95060400D01*
X190027928Y-95060400D01*
X190031000Y-95624650D01*
X190189750Y-95783400D01*
X191389000Y-95783400D01*
X191389000Y-95763400D01*
X191643000Y-95763400D01*
X191643000Y-95783400D01*
X191663000Y-95783400D01*
X191663000Y-96037400D01*
X191643000Y-96037400D01*
X191643000Y-97236650D01*
X191801750Y-97395400D01*
X192366000Y-97398472D01*
X192490482Y-97386212D01*
X192584800Y-97357601D01*
X192584800Y-98356289D01*
X192540863Y-98400226D01*
X192427595Y-98569744D01*
X192349574Y-98758102D01*
X192309800Y-98958061D01*
X192309800Y-99161939D01*
X192349574Y-99361898D01*
X192427595Y-99550256D01*
X192540863Y-99719774D01*
X192685026Y-99863937D01*
X192854544Y-99977205D01*
X193042902Y-100055226D01*
X193242861Y-100095000D01*
X193446739Y-100095000D01*
X193646698Y-100055226D01*
X193702401Y-100032153D01*
X193702400Y-104553889D01*
X193658463Y-104597826D01*
X193545195Y-104767344D01*
X193467174Y-104955702D01*
X193427400Y-105155661D01*
X193427400Y-105359539D01*
X193467174Y-105559498D01*
X193545195Y-105747856D01*
X193658463Y-105917374D01*
X193802626Y-106061537D01*
X193972144Y-106174805D01*
X194160502Y-106252826D01*
X194360461Y-106292600D01*
X194564339Y-106292600D01*
X194764298Y-106252826D01*
X194952656Y-106174805D01*
X195122174Y-106061537D01*
X195175600Y-106008111D01*
X195175601Y-107834443D01*
X195125605Y-107713744D01*
X195012337Y-107544226D01*
X194868174Y-107400063D01*
X194698656Y-107286795D01*
X194510298Y-107208774D01*
X194310339Y-107169000D01*
X194106461Y-107169000D01*
X193906502Y-107208774D01*
X193718144Y-107286795D01*
X193548626Y-107400063D01*
X193404463Y-107544226D01*
X193291195Y-107713744D01*
X193213174Y-107902102D01*
X193173400Y-108102061D01*
X193173400Y-108167258D01*
X193156071Y-108188374D01*
X193116226Y-108236924D01*
X193076846Y-108310599D01*
X193045654Y-108368954D01*
X193002197Y-108512215D01*
X192991200Y-108623868D01*
X192991200Y-108623878D01*
X192987524Y-108661200D01*
X192991200Y-108698523D01*
X192991201Y-110192688D01*
X192947263Y-110236626D01*
X192833995Y-110406144D01*
X192755974Y-110594502D01*
X192716200Y-110794461D01*
X192716200Y-110998339D01*
X192755974Y-111198298D01*
X192833995Y-111386656D01*
X192947263Y-111556174D01*
X193091426Y-111700337D01*
X193260944Y-111813605D01*
X193449302Y-111891626D01*
X193649261Y-111931400D01*
X193853139Y-111931400D01*
X194053098Y-111891626D01*
X194241456Y-111813605D01*
X194410974Y-111700337D01*
X194555137Y-111556174D01*
X194668405Y-111386656D01*
X194746426Y-111198298D01*
X194786200Y-110998339D01*
X194786200Y-110794461D01*
X194746426Y-110594502D01*
X194668405Y-110406144D01*
X194555137Y-110236626D01*
X194511200Y-110192689D01*
X194511200Y-109198852D01*
X194698656Y-109121205D01*
X194868174Y-109007937D01*
X195012337Y-108863774D01*
X195125605Y-108694256D01*
X195175601Y-108573556D01*
X195175601Y-109329088D01*
X195131663Y-109373026D01*
X195018395Y-109542544D01*
X194940374Y-109730902D01*
X194900600Y-109930861D01*
X194900600Y-110134739D01*
X194940374Y-110334698D01*
X195018395Y-110523056D01*
X195131663Y-110692574D01*
X195275826Y-110836737D01*
X195445344Y-110950005D01*
X195633702Y-111028026D01*
X195713400Y-111043879D01*
X195713400Y-111049139D01*
X195753174Y-111249098D01*
X195831195Y-111437456D01*
X195944463Y-111606974D01*
X196088626Y-111751137D01*
X196258144Y-111864405D01*
X196446502Y-111942426D01*
X196646461Y-111982200D01*
X196850339Y-111982200D01*
X197050298Y-111942426D01*
X197238656Y-111864405D01*
X197408174Y-111751137D01*
X197552337Y-111606974D01*
X197665605Y-111437456D01*
X197743626Y-111249098D01*
X197783400Y-111049139D01*
X197783400Y-110845261D01*
X197743626Y-110645302D01*
X197665605Y-110456944D01*
X197552337Y-110287426D01*
X197508400Y-110243489D01*
X197508400Y-108141711D01*
X197561826Y-108195137D01*
X197731344Y-108308405D01*
X197919702Y-108386426D01*
X198119661Y-108426200D01*
X198323539Y-108426200D01*
X198523498Y-108386426D01*
X198711856Y-108308405D01*
X198881374Y-108195137D01*
X199025537Y-108050974D01*
X199138805Y-107881456D01*
X199216826Y-107693098D01*
X199256600Y-107493139D01*
X199256600Y-107289261D01*
X199216826Y-107089302D01*
X199138805Y-106900944D01*
X199025537Y-106731426D01*
X198930800Y-106636689D01*
X198930800Y-102006061D01*
X203282600Y-102006061D01*
X203282600Y-102209939D01*
X203322374Y-102409898D01*
X203400395Y-102598256D01*
X203513663Y-102767774D01*
X203657826Y-102911937D01*
X203827344Y-103025205D01*
X204015702Y-103103226D01*
X204215661Y-103143000D01*
X204419539Y-103143000D01*
X204619498Y-103103226D01*
X204800200Y-103028376D01*
X204980902Y-103103226D01*
X205180861Y-103143000D01*
X205384739Y-103143000D01*
X205584698Y-103103226D01*
X205773056Y-103025205D01*
X205942574Y-102911937D01*
X206086737Y-102767774D01*
X206200005Y-102598256D01*
X206278026Y-102409898D01*
X206317800Y-102209939D01*
X206317800Y-102006061D01*
X206278026Y-101806102D01*
X206210371Y-101642770D01*
X206250805Y-101582256D01*
X206328826Y-101393898D01*
X206368600Y-101193939D01*
X206368600Y-100990061D01*
X206328826Y-100790102D01*
X206250805Y-100601744D01*
X206137537Y-100432226D01*
X205993374Y-100288063D01*
X205823856Y-100174795D01*
X205635498Y-100096774D01*
X205435539Y-100057000D01*
X205231661Y-100057000D01*
X205031702Y-100096774D01*
X204899729Y-100151439D01*
X204858656Y-100123995D01*
X204670298Y-100045974D01*
X204470339Y-100006200D01*
X204266461Y-100006200D01*
X204066502Y-100045974D01*
X203878144Y-100123995D01*
X203708626Y-100237263D01*
X203564463Y-100381426D01*
X203451195Y-100550944D01*
X203373174Y-100739302D01*
X203333400Y-100939261D01*
X203333400Y-101143139D01*
X203373174Y-101343098D01*
X203451195Y-101531456D01*
X203454623Y-101536586D01*
X203400395Y-101617744D01*
X203322374Y-101806102D01*
X203282600Y-102006061D01*
X198930800Y-102006061D01*
X198930800Y-100627311D01*
X198974737Y-100583374D01*
X199088005Y-100413856D01*
X199166026Y-100225498D01*
X199205800Y-100025539D01*
X199205800Y-99821661D01*
X199166026Y-99621702D01*
X199088005Y-99433344D01*
X198974737Y-99263826D01*
X198830574Y-99119663D01*
X198661056Y-99006395D01*
X198472698Y-98928374D01*
X198272739Y-98888600D01*
X198068861Y-98888600D01*
X197868902Y-98928374D01*
X197680544Y-99006395D01*
X197511026Y-99119663D01*
X197366863Y-99263826D01*
X197253595Y-99433344D01*
X197175574Y-99621702D01*
X197135800Y-99821661D01*
X197135800Y-100025539D01*
X197175574Y-100225498D01*
X197253595Y-100413856D01*
X197366863Y-100583374D01*
X197410800Y-100627311D01*
X197410800Y-101509889D01*
X197408174Y-101507263D01*
X197238656Y-101393995D01*
X197050298Y-101315974D01*
X196850339Y-101276200D01*
X196646461Y-101276200D01*
X196446502Y-101315974D01*
X196258144Y-101393995D01*
X196088626Y-101507263D01*
X195944463Y-101651426D01*
X195831195Y-101820944D01*
X195753174Y-102009302D01*
X195733352Y-102108952D01*
X195633702Y-102128774D01*
X195445344Y-102206795D01*
X195275826Y-102320063D01*
X195222400Y-102373489D01*
X195222400Y-99458911D01*
X195266337Y-99414974D01*
X195379605Y-99245456D01*
X195457626Y-99057098D01*
X195497400Y-98857139D01*
X195497400Y-98653261D01*
X195457626Y-98453302D01*
X195379605Y-98264944D01*
X195266337Y-98095426D01*
X195122174Y-97951263D01*
X194952656Y-97837995D01*
X194764298Y-97759974D01*
X194564339Y-97720200D01*
X194360461Y-97720200D01*
X194160502Y-97759974D01*
X194104800Y-97783047D01*
X194104800Y-93033800D01*
X194157939Y-93033800D01*
X194357898Y-92994026D01*
X194546256Y-92916005D01*
X194715774Y-92802737D01*
X194859937Y-92658574D01*
X194973205Y-92489056D01*
X195051226Y-92300698D01*
X195091000Y-92100739D01*
X195091000Y-92049600D01*
X199693124Y-92049600D01*
X199707798Y-92198585D01*
X199751254Y-92341846D01*
X199821826Y-92473876D01*
X199893001Y-92560602D01*
X203550601Y-96218203D01*
X203574399Y-96247201D01*
X203603397Y-96270999D01*
X203690124Y-96342174D01*
X203800286Y-96401058D01*
X203728774Y-96573702D01*
X203689000Y-96773661D01*
X203689000Y-96977539D01*
X203728774Y-97177498D01*
X203806795Y-97365856D01*
X203920063Y-97535374D01*
X204064226Y-97679537D01*
X204233744Y-97792805D01*
X204422102Y-97870826D01*
X204622061Y-97910600D01*
X204825939Y-97910600D01*
X205025898Y-97870826D01*
X205214256Y-97792805D01*
X205383774Y-97679537D01*
X205527937Y-97535374D01*
X205641205Y-97365856D01*
X205719226Y-97177498D01*
X205759000Y-96977539D01*
X205759000Y-96915401D01*
X207324802Y-95349600D01*
X209571289Y-95349600D01*
X209615226Y-95393537D01*
X209784744Y-95506805D01*
X209973102Y-95584826D01*
X210173061Y-95624600D01*
X210376939Y-95624600D01*
X210576898Y-95584826D01*
X210765256Y-95506805D01*
X210934774Y-95393537D01*
X211078937Y-95249374D01*
X211192205Y-95079856D01*
X211270226Y-94891498D01*
X211310000Y-94691539D01*
X211310000Y-94487661D01*
X211270226Y-94287702D01*
X211192205Y-94099344D01*
X211078937Y-93929826D01*
X210934774Y-93785663D01*
X210765256Y-93672395D01*
X210576898Y-93594374D01*
X210376939Y-93554600D01*
X210173061Y-93554600D01*
X209973102Y-93594374D01*
X209784744Y-93672395D01*
X209615226Y-93785663D01*
X209571289Y-93829600D01*
X207047322Y-93829600D01*
X207009999Y-93825924D01*
X206972676Y-93829600D01*
X206972667Y-93829600D01*
X206861014Y-93840597D01*
X206717753Y-93884054D01*
X206585724Y-93954626D01*
X206469999Y-94049599D01*
X206446201Y-94078597D01*
X204918900Y-95605899D01*
X204914203Y-95558214D01*
X204870746Y-95414953D01*
X204800174Y-95282924D01*
X204705201Y-95167199D01*
X204589476Y-95072226D01*
X204513752Y-95031750D01*
X200967802Y-91485801D01*
X200881076Y-91414626D01*
X200749046Y-91344054D01*
X200605785Y-91300598D01*
X200456800Y-91285924D01*
X200307815Y-91300598D01*
X200164554Y-91344054D01*
X200032524Y-91414626D01*
X199916799Y-91509599D01*
X199821826Y-91625324D01*
X199751254Y-91757354D01*
X199707798Y-91900615D01*
X199693124Y-92049600D01*
X195091000Y-92049600D01*
X195091000Y-91896861D01*
X195051226Y-91696902D01*
X194973205Y-91508544D01*
X194859937Y-91339026D01*
X194715774Y-91194863D01*
X194546256Y-91081595D01*
X194357898Y-91003574D01*
X194157939Y-90963800D01*
X193954061Y-90963800D01*
X193754102Y-91003574D01*
X193565744Y-91081595D01*
X193396226Y-91194863D01*
X193252063Y-91339026D01*
X193138795Y-91508544D01*
X193060774Y-91696902D01*
X193021000Y-91896861D01*
X193021000Y-91958999D01*
X192833798Y-92146201D01*
X192804800Y-92169999D01*
X192781002Y-92198997D01*
X192781001Y-92198998D01*
X192709826Y-92285724D01*
X192647686Y-92401979D01*
X192462632Y-92216925D01*
X192219411Y-92054410D01*
X191949158Y-91942468D01*
X191662260Y-91885400D01*
X191369740Y-91885400D01*
X191082842Y-91942468D01*
X190812589Y-92054410D01*
X190569368Y-92216925D01*
X190362525Y-92423768D01*
X190200010Y-92666989D01*
X190088068Y-92937242D01*
X190031000Y-93224140D01*
X190031000Y-93516660D01*
X190088068Y-93803558D01*
X190200010Y-94073811D01*
X190362525Y-94317032D01*
X190494380Y-94448887D01*
X190421820Y-94470898D01*
X190311506Y-94529863D01*
X190214815Y-94609215D01*
X190135463Y-94705906D01*
X190076498Y-94816220D01*
X190040188Y-94935918D01*
X190027928Y-95060400D01*
X181175034Y-95060400D01*
X181121102Y-94904919D01*
X180839584Y-94768776D01*
X180536914Y-94690171D01*
X180224726Y-94672123D01*
X179915015Y-94715328D01*
X179619684Y-94818123D01*
X179457298Y-94904919D01*
X179367270Y-95164465D01*
X178078600Y-95164465D01*
X178078600Y-92287535D01*
X179367270Y-92287535D01*
X179457298Y-92547081D01*
X179738816Y-92683224D01*
X180041486Y-92761829D01*
X180353674Y-92779877D01*
X180663385Y-92736672D01*
X180958716Y-92633877D01*
X181121102Y-92547081D01*
X181211130Y-92287535D01*
X180289200Y-91365605D01*
X179367270Y-92287535D01*
X178078600Y-92287535D01*
X178078600Y-91250474D01*
X178695323Y-91250474D01*
X178738528Y-91560185D01*
X178841323Y-91855516D01*
X178928119Y-92017902D01*
X179187665Y-92107930D01*
X180109595Y-91186000D01*
X180468805Y-91186000D01*
X181390735Y-92107930D01*
X181650281Y-92017902D01*
X181786424Y-91736384D01*
X181865029Y-91433714D01*
X181883077Y-91121526D01*
X181839872Y-90811815D01*
X181737077Y-90516484D01*
X181650281Y-90354098D01*
X181390735Y-90264070D01*
X180468805Y-91186000D01*
X180109595Y-91186000D01*
X179187665Y-90264070D01*
X178928119Y-90354098D01*
X178791976Y-90635616D01*
X178713371Y-90938286D01*
X178695323Y-91250474D01*
X178078600Y-91250474D01*
X178078600Y-90084465D01*
X179367270Y-90084465D01*
X180289200Y-91006395D01*
X181211130Y-90084465D01*
X181121102Y-89824919D01*
X180839584Y-89688776D01*
X180536914Y-89610171D01*
X180224726Y-89592123D01*
X179915015Y-89635328D01*
X179619684Y-89738123D01*
X179457298Y-89824919D01*
X179367270Y-90084465D01*
X178078600Y-90084465D01*
X178078600Y-89127800D01*
X235229109Y-89127800D01*
X235180492Y-119659011D01*
G37*
X235180492Y-119659011D02*
X223534520Y-119638775D01*
X223600826Y-119478698D01*
X223640600Y-119278739D01*
X223640600Y-119074861D01*
X223600826Y-118874902D01*
X223522805Y-118686544D01*
X223409537Y-118517026D01*
X223365600Y-118473089D01*
X223365600Y-117162613D01*
X224037392Y-117162613D01*
X224133156Y-117427014D01*
X224422771Y-117567904D01*
X224734308Y-117649584D01*
X225055795Y-117668918D01*
X225374875Y-117625161D01*
X225679288Y-117519995D01*
X225853244Y-117427014D01*
X225875410Y-117365813D01*
X228914192Y-117365813D01*
X229009956Y-117630214D01*
X229299571Y-117771104D01*
X229611108Y-117852784D01*
X229932595Y-117872118D01*
X230251675Y-117828361D01*
X230556088Y-117723195D01*
X230730044Y-117630214D01*
X230825808Y-117365813D01*
X229870000Y-116410005D01*
X228914192Y-117365813D01*
X225875410Y-117365813D01*
X225949008Y-117162613D01*
X224993200Y-116206805D01*
X224037392Y-117162613D01*
X223365600Y-117162613D01*
X223365600Y-116192745D01*
X223395239Y-116408875D01*
X223500405Y-116713288D01*
X223593386Y-116887244D01*
X223857787Y-116983008D01*
X224813595Y-116027200D01*
X225172805Y-116027200D01*
X226128613Y-116983008D01*
X226393014Y-116887244D01*
X226533904Y-116597629D01*
X226613774Y-116292995D01*
X228228282Y-116292995D01*
X228272039Y-116612075D01*
X228377205Y-116916488D01*
X228470186Y-117090444D01*
X228734587Y-117186208D01*
X229690395Y-116230400D01*
X230049605Y-116230400D01*
X231005413Y-117186208D01*
X231269814Y-117090444D01*
X231410704Y-116800829D01*
X231492384Y-116489292D01*
X231511718Y-116167805D01*
X231467961Y-115848725D01*
X231362795Y-115544312D01*
X231269814Y-115370356D01*
X231005413Y-115274592D01*
X230049605Y-116230400D01*
X229690395Y-116230400D01*
X228734587Y-115274592D01*
X228470186Y-115370356D01*
X228329296Y-115659971D01*
X228247616Y-115971508D01*
X228228282Y-116292995D01*
X226613774Y-116292995D01*
X226615584Y-116286092D01*
X226634918Y-115964605D01*
X226591161Y-115645525D01*
X226485995Y-115341112D01*
X226393014Y-115167156D01*
X226193758Y-115094987D01*
X228914192Y-115094987D01*
X229870000Y-116050795D01*
X230825808Y-115094987D01*
X230730044Y-114830586D01*
X230440429Y-114689696D01*
X230128892Y-114608016D01*
X229807405Y-114588682D01*
X229488325Y-114632439D01*
X229183912Y-114737605D01*
X229009956Y-114830586D01*
X228914192Y-115094987D01*
X226193758Y-115094987D01*
X226128613Y-115071392D01*
X225172805Y-116027200D01*
X224813595Y-116027200D01*
X223857787Y-115071392D01*
X223593386Y-115167156D01*
X223452496Y-115456771D01*
X223370816Y-115768308D01*
X223365600Y-115855040D01*
X223365600Y-114891787D01*
X224037392Y-114891787D01*
X224993200Y-115847595D01*
X225949008Y-114891787D01*
X225853244Y-114627386D01*
X225563629Y-114486496D01*
X225252092Y-114404816D01*
X224930605Y-114385482D01*
X224611525Y-114429239D01*
X224307112Y-114534405D01*
X224133156Y-114627386D01*
X224037392Y-114891787D01*
X223365600Y-114891787D01*
X223365600Y-111600111D01*
X223409537Y-111556174D01*
X223463391Y-111475576D01*
X223544282Y-111670863D01*
X223723213Y-111938652D01*
X223950948Y-112166387D01*
X224218737Y-112345318D01*
X224516288Y-112468568D01*
X224832167Y-112531400D01*
X225154233Y-112531400D01*
X225470112Y-112468568D01*
X225767663Y-112345318D01*
X226035452Y-112166387D01*
X226263187Y-111938652D01*
X226417600Y-111707556D01*
X226417601Y-112580288D01*
X226373663Y-112624226D01*
X226260395Y-112793744D01*
X226182374Y-112982102D01*
X226142600Y-113182061D01*
X226142600Y-113385939D01*
X226182374Y-113585898D01*
X226260395Y-113774256D01*
X226373663Y-113943774D01*
X226517826Y-114087937D01*
X226687344Y-114201205D01*
X226875702Y-114279226D01*
X227075661Y-114319000D01*
X227279539Y-114319000D01*
X227479498Y-114279226D01*
X227667856Y-114201205D01*
X227837374Y-114087937D01*
X227981537Y-113943774D01*
X228094805Y-113774256D01*
X228172826Y-113585898D01*
X228212600Y-113385939D01*
X228212600Y-113182061D01*
X228172826Y-112982102D01*
X228094805Y-112793744D01*
X227981537Y-112624226D01*
X227937600Y-112580289D01*
X227937600Y-110987803D01*
X228133400Y-110792003D01*
X228133400Y-111057433D01*
X228196232Y-111373312D01*
X228319482Y-111670863D01*
X228498413Y-111938652D01*
X228726148Y-112166387D01*
X228993937Y-112345318D01*
X229291488Y-112468568D01*
X229607367Y-112531400D01*
X229929433Y-112531400D01*
X230245312Y-112468568D01*
X230542863Y-112345318D01*
X230810652Y-112166387D01*
X231038387Y-111938652D01*
X231217318Y-111670863D01*
X231340568Y-111373312D01*
X231403400Y-111057433D01*
X231403400Y-110735367D01*
X231340568Y-110419488D01*
X231217318Y-110121937D01*
X231038387Y-109854148D01*
X230810652Y-109626413D01*
X230542863Y-109447482D01*
X230245312Y-109324232D01*
X229929433Y-109261400D01*
X229664005Y-109261400D01*
X230228608Y-108696797D01*
X230257601Y-108673003D01*
X230281395Y-108644010D01*
X230281399Y-108644006D01*
X230339411Y-108573317D01*
X230352574Y-108557278D01*
X230423146Y-108425249D01*
X230466603Y-108281988D01*
X230477600Y-108170335D01*
X230477600Y-108170326D01*
X230481276Y-108133003D01*
X230477600Y-108095680D01*
X230477600Y-106966509D01*
X230492063Y-106960518D01*
X230759852Y-106781587D01*
X230987587Y-106553852D01*
X231166518Y-106286063D01*
X231289768Y-105988512D01*
X231345200Y-105709835D01*
X231345200Y-107703489D01*
X231301263Y-107747426D01*
X231187995Y-107916944D01*
X231109974Y-108105302D01*
X231070200Y-108305261D01*
X231070200Y-108509139D01*
X231109974Y-108709098D01*
X231187995Y-108897456D01*
X231301263Y-109066974D01*
X231445426Y-109211137D01*
X231614944Y-109324405D01*
X231803302Y-109402426D01*
X232003261Y-109442200D01*
X232207139Y-109442200D01*
X232407098Y-109402426D01*
X232595456Y-109324405D01*
X232764974Y-109211137D01*
X232909137Y-109066974D01*
X233022405Y-108897456D01*
X233100426Y-108709098D01*
X233140200Y-108509139D01*
X233140200Y-108305261D01*
X233100426Y-108105302D01*
X233022405Y-107916944D01*
X232909137Y-107747426D01*
X232865200Y-107703489D01*
X232865200Y-93486675D01*
X232920805Y-93403456D01*
X232998826Y-93215098D01*
X233038600Y-93015139D01*
X233038600Y-92811261D01*
X232998826Y-92611302D01*
X232920805Y-92422944D01*
X232807537Y-92253426D01*
X232663374Y-92109263D01*
X232493856Y-91995995D01*
X232305498Y-91917974D01*
X232105539Y-91878200D01*
X231901661Y-91878200D01*
X231701702Y-91917974D01*
X231513344Y-91995995D01*
X231343826Y-92109263D01*
X231199663Y-92253426D01*
X231086395Y-92422944D01*
X231008374Y-92611302D01*
X230968600Y-92811261D01*
X230968600Y-93015139D01*
X231008374Y-93215098D01*
X231086395Y-93403456D01*
X231199663Y-93572974D01*
X231343826Y-93717137D01*
X231345201Y-93718056D01*
X231345201Y-95051769D01*
X231289768Y-94773088D01*
X231166518Y-94475537D01*
X230987587Y-94207748D01*
X230759852Y-93980013D01*
X230492063Y-93801082D01*
X230194512Y-93677832D01*
X229878633Y-93615000D01*
X229556567Y-93615000D01*
X229240688Y-93677832D01*
X228943137Y-93801082D01*
X228675348Y-93980013D01*
X228447613Y-94207748D01*
X228268682Y-94475537D01*
X228262691Y-94490000D01*
X227214922Y-94490000D01*
X227177599Y-94486324D01*
X227140276Y-94490000D01*
X227140267Y-94490000D01*
X227028614Y-94500997D01*
X226885353Y-94544454D01*
X226753324Y-94615026D01*
X226637599Y-94709999D01*
X226613796Y-94739003D01*
X226514198Y-94838601D01*
X226485200Y-94862399D01*
X226461402Y-94891397D01*
X226461401Y-94891398D01*
X226390226Y-94978124D01*
X226319654Y-95110154D01*
X226293554Y-95196197D01*
X226276198Y-95253414D01*
X226272088Y-95295146D01*
X226261524Y-95402400D01*
X226265201Y-95439732D01*
X226265201Y-96991289D01*
X226158698Y-96947174D01*
X225958739Y-96907400D01*
X225754861Y-96907400D01*
X225554902Y-96947174D01*
X225366544Y-97025195D01*
X225197026Y-97138463D01*
X225153089Y-97182400D01*
X216902522Y-97182400D01*
X216865199Y-97178724D01*
X216827876Y-97182400D01*
X216827867Y-97182400D01*
X216716214Y-97193397D01*
X216572953Y-97236854D01*
X216440924Y-97307426D01*
X216433157Y-97313800D01*
X216356861Y-97313800D01*
X216156902Y-97353574D01*
X215968544Y-97431595D01*
X215898000Y-97478731D01*
X215898000Y-95088967D01*
X217313000Y-95088967D01*
X217313000Y-95411033D01*
X217375832Y-95726912D01*
X217499082Y-96024463D01*
X217678013Y-96292252D01*
X217905748Y-96519987D01*
X218173537Y-96698918D01*
X218471088Y-96822168D01*
X218786967Y-96885000D01*
X219109033Y-96885000D01*
X219424912Y-96822168D01*
X219722463Y-96698918D01*
X219990252Y-96519987D01*
X220217987Y-96292252D01*
X220396918Y-96024463D01*
X220520168Y-95726912D01*
X220583000Y-95411033D01*
X220583000Y-95088967D01*
X220542582Y-94885767D01*
X222697800Y-94885767D01*
X222697800Y-95207833D01*
X222760632Y-95523712D01*
X222883882Y-95821263D01*
X223062813Y-96089052D01*
X223290548Y-96316787D01*
X223558337Y-96495718D01*
X223855888Y-96618968D01*
X224171767Y-96681800D01*
X224493833Y-96681800D01*
X224809712Y-96618968D01*
X225107263Y-96495718D01*
X225375052Y-96316787D01*
X225602787Y-96089052D01*
X225781718Y-95821263D01*
X225904968Y-95523712D01*
X225967800Y-95207833D01*
X225967800Y-94885767D01*
X225904968Y-94569888D01*
X225781718Y-94272337D01*
X225602787Y-94004548D01*
X225375052Y-93776813D01*
X225107263Y-93597882D01*
X224809712Y-93474632D01*
X224493833Y-93411800D01*
X224171767Y-93411800D01*
X223855888Y-93474632D01*
X223558337Y-93597882D01*
X223290548Y-93776813D01*
X223062813Y-94004548D01*
X222883882Y-94272337D01*
X222760632Y-94569888D01*
X222697800Y-94885767D01*
X220542582Y-94885767D01*
X220520168Y-94773088D01*
X220396918Y-94475537D01*
X220217987Y-94207748D01*
X219990252Y-93980013D01*
X219722463Y-93801082D01*
X219424912Y-93677832D01*
X219109033Y-93615000D01*
X218786967Y-93615000D01*
X218471088Y-93677832D01*
X218173537Y-93801082D01*
X217905748Y-93980013D01*
X217678013Y-94207748D01*
X217499082Y-94475537D01*
X217375832Y-94773088D01*
X217313000Y-95088967D01*
X215898000Y-95088967D01*
X215898000Y-93921711D01*
X215941937Y-93877774D01*
X216055205Y-93708256D01*
X216133226Y-93519898D01*
X216173000Y-93319939D01*
X216173000Y-93116061D01*
X216133226Y-92916102D01*
X216055205Y-92727744D01*
X215941937Y-92558226D01*
X215797774Y-92414063D01*
X215628256Y-92300795D01*
X215439898Y-92222774D01*
X215239939Y-92183000D01*
X215036061Y-92183000D01*
X214836102Y-92222774D01*
X214647744Y-92300795D01*
X214478226Y-92414063D01*
X214334063Y-92558226D01*
X214220795Y-92727744D01*
X214142774Y-92916102D01*
X214103000Y-93116061D01*
X214103000Y-93319939D01*
X214142774Y-93519898D01*
X214220795Y-93708256D01*
X214334063Y-93877774D01*
X214378000Y-93921711D01*
X214378001Y-101610896D01*
X214271595Y-101770144D01*
X214193574Y-101958502D01*
X214153800Y-102158461D01*
X214153800Y-102362339D01*
X214193574Y-102562298D01*
X214271595Y-102750656D01*
X214384863Y-102920174D01*
X214529026Y-103064337D01*
X214698544Y-103177605D01*
X214886902Y-103255626D01*
X215086861Y-103295400D01*
X215148999Y-103295400D01*
X217419600Y-105566003D01*
X217419599Y-112871641D01*
X217289344Y-112925595D01*
X217119826Y-113038863D01*
X216975663Y-113183026D01*
X216862395Y-113352544D01*
X216784374Y-113540902D01*
X216744600Y-113740861D01*
X216744600Y-113944739D01*
X216784374Y-114144698D01*
X216862395Y-114333056D01*
X216975663Y-114502574D01*
X217119826Y-114646737D01*
X217289344Y-114760005D01*
X217477702Y-114838026D01*
X217677661Y-114877800D01*
X217881539Y-114877800D01*
X218081498Y-114838026D01*
X218269856Y-114760005D01*
X218439374Y-114646737D01*
X218583537Y-114502574D01*
X218696805Y-114333056D01*
X218774826Y-114144698D01*
X218814600Y-113944739D01*
X218814600Y-113867026D01*
X218885145Y-113735048D01*
X218928602Y-113591787D01*
X218939599Y-113480134D01*
X218939599Y-113480124D01*
X218943275Y-113442802D01*
X218939599Y-113405479D01*
X218939599Y-112031838D01*
X219023348Y-112115587D01*
X219291137Y-112294518D01*
X219588688Y-112417768D01*
X219904567Y-112480600D01*
X220226633Y-112480600D01*
X220542512Y-112417768D01*
X220840063Y-112294518D01*
X221107852Y-112115587D01*
X221335587Y-111887852D01*
X221514518Y-111620063D01*
X221637768Y-111322512D01*
X221645573Y-111283275D01*
X221688395Y-111386656D01*
X221801663Y-111556174D01*
X221845600Y-111600111D01*
X221845601Y-115879768D01*
X221790168Y-115601088D01*
X221666918Y-115303537D01*
X221487987Y-115035748D01*
X221260252Y-114808013D01*
X220992463Y-114629082D01*
X220694912Y-114505832D01*
X220379033Y-114443000D01*
X220056967Y-114443000D01*
X219741088Y-114505832D01*
X219443537Y-114629082D01*
X219175748Y-114808013D01*
X218948013Y-115035748D01*
X218769082Y-115303537D01*
X218645832Y-115601088D01*
X218583000Y-115916967D01*
X218583000Y-116239033D01*
X218645832Y-116554912D01*
X218769082Y-116852463D01*
X218948013Y-117120252D01*
X219175748Y-117347987D01*
X219443537Y-117526918D01*
X219741088Y-117650168D01*
X220056967Y-117713000D01*
X220379033Y-117713000D01*
X220694912Y-117650168D01*
X220992463Y-117526918D01*
X221260252Y-117347987D01*
X221487987Y-117120252D01*
X221666918Y-116852463D01*
X221790168Y-116554912D01*
X221845601Y-116276232D01*
X221845601Y-118473088D01*
X221801663Y-118517026D01*
X221688395Y-118686544D01*
X221610374Y-118874902D01*
X221570600Y-119074861D01*
X221570600Y-119278739D01*
X221610374Y-119478698D01*
X221675342Y-119635544D01*
X206770865Y-119609646D01*
X206899537Y-119480974D01*
X207012805Y-119311456D01*
X207090826Y-119123098D01*
X207130600Y-118923139D01*
X207130600Y-118719261D01*
X207090826Y-118519302D01*
X207012805Y-118330944D01*
X206899537Y-118161426D01*
X206755374Y-118017263D01*
X206585856Y-117903995D01*
X206397498Y-117825974D01*
X206197539Y-117786200D01*
X205993661Y-117786200D01*
X205793702Y-117825974D01*
X205605344Y-117903995D01*
X205435826Y-118017263D01*
X205391889Y-118061200D01*
X204616331Y-118061200D01*
X204713481Y-118027502D01*
X204849624Y-117745984D01*
X204928229Y-117443314D01*
X204946277Y-117131126D01*
X204903072Y-116821415D01*
X204800277Y-116526084D01*
X204713481Y-116363698D01*
X204453935Y-116273670D01*
X203532005Y-117195600D01*
X203546148Y-117209743D01*
X203366543Y-117389348D01*
X203352400Y-117375205D01*
X203338258Y-117389348D01*
X203158653Y-117209743D01*
X203172795Y-117195600D01*
X202250865Y-116273670D01*
X201991319Y-116363698D01*
X201855176Y-116645216D01*
X201776571Y-116947886D01*
X201758523Y-117260074D01*
X201801728Y-117569785D01*
X201904523Y-117865116D01*
X201991319Y-118027502D01*
X202088469Y-118061200D01*
X199536331Y-118061200D01*
X199633481Y-118027502D01*
X199769624Y-117745984D01*
X199848229Y-117443314D01*
X199866277Y-117131126D01*
X199823072Y-116821415D01*
X199720277Y-116526084D01*
X199633481Y-116363698D01*
X199373935Y-116273670D01*
X198452005Y-117195600D01*
X198466148Y-117209743D01*
X198286543Y-117389348D01*
X198272400Y-117375205D01*
X198258258Y-117389348D01*
X198078653Y-117209743D01*
X198092795Y-117195600D01*
X197170865Y-116273670D01*
X196911319Y-116363698D01*
X196775176Y-116645216D01*
X196696571Y-116947886D01*
X196678523Y-117260074D01*
X196721728Y-117569785D01*
X196824523Y-117865116D01*
X196911319Y-118027502D01*
X197008469Y-118061200D01*
X192981711Y-118061200D01*
X192886974Y-117966463D01*
X192717456Y-117853195D01*
X192529098Y-117775174D01*
X192329139Y-117735400D01*
X192125261Y-117735400D01*
X191925302Y-117775174D01*
X191920400Y-117777204D01*
X191920400Y-117055506D01*
X191947667Y-117037287D01*
X192119687Y-116865267D01*
X192254843Y-116662992D01*
X192347940Y-116438236D01*
X192395400Y-116199637D01*
X192395400Y-116094065D01*
X197350470Y-116094065D01*
X198272400Y-117015995D01*
X199194330Y-116094065D01*
X202430470Y-116094065D01*
X203352400Y-117015995D01*
X204274330Y-116094065D01*
X204184302Y-115834519D01*
X203902784Y-115698376D01*
X203600114Y-115619771D01*
X203287926Y-115601723D01*
X202978215Y-115644928D01*
X202682884Y-115747723D01*
X202520498Y-115834519D01*
X202430470Y-116094065D01*
X199194330Y-116094065D01*
X199104302Y-115834519D01*
X198822784Y-115698376D01*
X198520114Y-115619771D01*
X198207926Y-115601723D01*
X197898215Y-115644928D01*
X197602884Y-115747723D01*
X197440498Y-115834519D01*
X197350470Y-116094065D01*
X192395400Y-116094065D01*
X192395400Y-115956363D01*
X192347940Y-115717764D01*
X192254843Y-115493008D01*
X192119687Y-115290733D01*
X191947667Y-115118713D01*
X191745392Y-114983557D01*
X191520636Y-114890460D01*
X191282037Y-114843000D01*
X191038763Y-114843000D01*
X190800164Y-114890460D01*
X190575408Y-114983557D01*
X190493347Y-115038388D01*
X190493347Y-114248861D01*
X198964600Y-114248861D01*
X198964600Y-114452739D01*
X199004374Y-114652698D01*
X199082395Y-114841056D01*
X199195663Y-115010574D01*
X199339826Y-115154737D01*
X199509344Y-115268005D01*
X199697702Y-115346026D01*
X199897661Y-115385800D01*
X200101539Y-115385800D01*
X200301498Y-115346026D01*
X200489856Y-115268005D01*
X200659374Y-115154737D01*
X200703311Y-115110800D01*
X209127408Y-115110800D01*
X208964682Y-115354337D01*
X208841432Y-115651888D01*
X208778600Y-115967767D01*
X208778600Y-116289833D01*
X208841432Y-116605712D01*
X208964682Y-116903263D01*
X209143613Y-117171052D01*
X209371348Y-117398787D01*
X209639137Y-117577718D01*
X209936688Y-117700968D01*
X210252567Y-117763800D01*
X210574633Y-117763800D01*
X210890512Y-117700968D01*
X211188063Y-117577718D01*
X211455852Y-117398787D01*
X211683587Y-117171052D01*
X211862518Y-116903263D01*
X211985768Y-116605712D01*
X212048600Y-116289833D01*
X212048600Y-115967767D01*
X212028391Y-115866167D01*
X213706200Y-115866167D01*
X213706200Y-116188233D01*
X213769032Y-116504112D01*
X213892282Y-116801663D01*
X214071213Y-117069452D01*
X214298948Y-117297187D01*
X214566737Y-117476118D01*
X214864288Y-117599368D01*
X215180167Y-117662200D01*
X215502233Y-117662200D01*
X215818112Y-117599368D01*
X216115663Y-117476118D01*
X216383452Y-117297187D01*
X216611187Y-117069452D01*
X216790118Y-116801663D01*
X216913368Y-116504112D01*
X216976200Y-116188233D01*
X216976200Y-115866167D01*
X216913368Y-115550288D01*
X216790118Y-115252737D01*
X216611187Y-114984948D01*
X216383452Y-114757213D01*
X216115663Y-114578282D01*
X215818112Y-114455032D01*
X215502233Y-114392200D01*
X215180167Y-114392200D01*
X214864288Y-114455032D01*
X214566737Y-114578282D01*
X214298948Y-114757213D01*
X214071213Y-114984948D01*
X213892282Y-115252737D01*
X213769032Y-115550288D01*
X213706200Y-115866167D01*
X212028391Y-115866167D01*
X211985768Y-115651888D01*
X211862518Y-115354337D01*
X211699792Y-115110800D01*
X212611467Y-115110800D01*
X212648800Y-115114477D01*
X212797786Y-115099803D01*
X212941047Y-115056346D01*
X213073076Y-114985774D01*
X213188801Y-114890801D01*
X213283774Y-114775076D01*
X213354346Y-114643047D01*
X213397803Y-114499786D01*
X213408800Y-114388133D01*
X213412477Y-114350800D01*
X213408800Y-114313467D01*
X213408800Y-111803311D01*
X213452737Y-111759374D01*
X213566005Y-111589856D01*
X213644026Y-111401498D01*
X213683800Y-111201539D01*
X213683800Y-110997661D01*
X213644026Y-110797702D01*
X213566005Y-110609344D01*
X213481222Y-110482457D01*
X213533354Y-110356600D01*
X213563539Y-110356600D01*
X213763498Y-110316826D01*
X213872310Y-110271754D01*
X213769032Y-110521088D01*
X213706200Y-110836967D01*
X213706200Y-111159033D01*
X213769032Y-111474912D01*
X213892282Y-111772463D01*
X214071213Y-112040252D01*
X214298948Y-112267987D01*
X214566737Y-112446918D01*
X214864288Y-112570168D01*
X215180167Y-112633000D01*
X215502233Y-112633000D01*
X215818112Y-112570168D01*
X216115663Y-112446918D01*
X216383452Y-112267987D01*
X216611187Y-112040252D01*
X216790118Y-111772463D01*
X216913368Y-111474912D01*
X216976200Y-111159033D01*
X216976200Y-110836967D01*
X216913368Y-110521088D01*
X216790118Y-110223537D01*
X216611187Y-109955748D01*
X216383452Y-109728013D01*
X216115663Y-109549082D01*
X215818112Y-109425832D01*
X215502233Y-109363000D01*
X215180167Y-109363000D01*
X214864288Y-109425832D01*
X214566737Y-109549082D01*
X214457050Y-109622373D01*
X214496600Y-109423539D01*
X214496600Y-109219661D01*
X214456826Y-109019702D01*
X214378805Y-108831344D01*
X214265537Y-108661826D01*
X214221600Y-108617889D01*
X214221600Y-105447333D01*
X214225277Y-105410000D01*
X214210603Y-105261014D01*
X214167146Y-105117753D01*
X214096574Y-104985724D01*
X214025399Y-104898997D01*
X214001601Y-104869999D01*
X213972602Y-104846200D01*
X213887000Y-104760598D01*
X213887000Y-104698461D01*
X213847226Y-104498502D01*
X213769205Y-104310144D01*
X213655937Y-104140626D01*
X213511774Y-103996463D01*
X213342256Y-103883195D01*
X213153898Y-103805174D01*
X212953939Y-103765400D01*
X212750061Y-103765400D01*
X212550102Y-103805174D01*
X212361744Y-103883195D01*
X212284799Y-103934608D01*
X212284799Y-98677855D01*
X212346805Y-98585056D01*
X212424826Y-98396698D01*
X212464600Y-98196739D01*
X212464600Y-97992861D01*
X212424826Y-97792902D01*
X212346805Y-97604544D01*
X212233537Y-97435026D01*
X212089374Y-97290863D01*
X211919856Y-97177595D01*
X211731498Y-97099574D01*
X211531539Y-97059800D01*
X211327661Y-97059800D01*
X211127702Y-97099574D01*
X210939344Y-97177595D01*
X210769826Y-97290863D01*
X210625663Y-97435026D01*
X210512395Y-97604544D01*
X210434374Y-97792902D01*
X210394600Y-97992861D01*
X210394600Y-98196739D01*
X210434374Y-98396698D01*
X210512395Y-98585056D01*
X210579443Y-98685400D01*
X210464061Y-98685400D01*
X210264102Y-98725174D01*
X210075744Y-98803195D01*
X209954113Y-98884466D01*
X209887856Y-98840195D01*
X209699498Y-98762174D01*
X209499539Y-98722400D01*
X209295661Y-98722400D01*
X209095702Y-98762174D01*
X208907344Y-98840195D01*
X208737826Y-98953463D01*
X208593663Y-99097626D01*
X208480395Y-99267144D01*
X208402374Y-99455502D01*
X208366677Y-99634966D01*
X208262256Y-99565195D01*
X208073898Y-99487174D01*
X207873939Y-99447400D01*
X207670061Y-99447400D01*
X207470102Y-99487174D01*
X207281744Y-99565195D01*
X207112226Y-99678463D01*
X206968063Y-99822626D01*
X206854795Y-99992144D01*
X206776774Y-100180502D01*
X206737000Y-100380461D01*
X206737000Y-100584339D01*
X206776774Y-100784298D01*
X206854795Y-100972656D01*
X206968063Y-101142174D01*
X207012001Y-101186112D01*
X207012000Y-102013889D01*
X206968063Y-102057826D01*
X206854795Y-102227344D01*
X206776774Y-102415702D01*
X206737000Y-102615661D01*
X206737000Y-102819539D01*
X206776774Y-103019498D01*
X206854795Y-103207856D01*
X206968063Y-103377374D01*
X207112226Y-103521537D01*
X207281744Y-103634805D01*
X207470102Y-103712826D01*
X207622645Y-103743168D01*
X207640374Y-103832298D01*
X207718395Y-104020656D01*
X207831663Y-104190174D01*
X207975826Y-104334337D01*
X208145344Y-104447605D01*
X208333702Y-104525626D01*
X208533661Y-104565400D01*
X208637601Y-104565400D01*
X208637601Y-108143197D01*
X207224199Y-109556600D01*
X207162061Y-109556600D01*
X206962102Y-109596374D01*
X206773744Y-109674395D01*
X206604226Y-109787663D01*
X206460063Y-109931826D01*
X206442772Y-109957704D01*
X206391537Y-109881026D01*
X206347600Y-109837089D01*
X206347600Y-107485311D01*
X206391537Y-107441374D01*
X206504805Y-107271856D01*
X206582826Y-107083498D01*
X206622600Y-106883539D01*
X206622600Y-106679661D01*
X206582826Y-106479702D01*
X206519463Y-106326732D01*
X206603261Y-106343400D01*
X206807139Y-106343400D01*
X207007098Y-106303626D01*
X207195456Y-106225605D01*
X207364974Y-106112337D01*
X207509137Y-105968174D01*
X207622405Y-105798656D01*
X207700426Y-105610298D01*
X207740200Y-105410339D01*
X207740200Y-105206461D01*
X207700426Y-105006502D01*
X207622405Y-104818144D01*
X207509137Y-104648626D01*
X207364974Y-104504463D01*
X207195456Y-104391195D01*
X207007098Y-104313174D01*
X206807139Y-104273400D01*
X206603261Y-104273400D01*
X206403302Y-104313174D01*
X206214944Y-104391195D01*
X206045426Y-104504463D01*
X206001489Y-104548400D01*
X205360047Y-104548400D01*
X205352856Y-104543595D01*
X205164498Y-104465574D01*
X204964539Y-104425800D01*
X204760661Y-104425800D01*
X204560702Y-104465574D01*
X204405889Y-104529700D01*
X204350656Y-104492795D01*
X204162298Y-104414774D01*
X203962339Y-104375000D01*
X203758461Y-104375000D01*
X203558502Y-104414774D01*
X203370144Y-104492795D01*
X203339614Y-104513195D01*
X203233056Y-104441995D01*
X203044698Y-104363974D01*
X202844739Y-104324200D01*
X202640861Y-104324200D01*
X202440902Y-104363974D01*
X202252544Y-104441995D01*
X202083026Y-104555263D01*
X201938863Y-104699426D01*
X201825595Y-104868944D01*
X201747574Y-105057302D01*
X201707800Y-105257261D01*
X201707800Y-105461139D01*
X201747574Y-105661098D01*
X201825595Y-105849456D01*
X201938863Y-106018974D01*
X201982800Y-106062911D01*
X201982801Y-107805088D01*
X201888063Y-107899826D01*
X201774795Y-108069344D01*
X201696774Y-108257702D01*
X201657000Y-108457661D01*
X201657000Y-108661539D01*
X201696774Y-108861498D01*
X201774795Y-109049856D01*
X201888063Y-109219374D01*
X202032226Y-109363537D01*
X202201744Y-109476805D01*
X202390102Y-109554826D01*
X202590061Y-109594600D01*
X202793939Y-109594600D01*
X202993898Y-109554826D01*
X203182256Y-109476805D01*
X203351774Y-109363537D01*
X203495937Y-109219374D01*
X203609205Y-109049856D01*
X203687226Y-108861498D01*
X203703253Y-108780923D01*
X203707661Y-108781800D01*
X203911539Y-108781800D01*
X204111498Y-108742026D01*
X204299856Y-108664005D01*
X204469374Y-108550737D01*
X204613537Y-108406574D01*
X204726805Y-108237056D01*
X204804826Y-108048698D01*
X204827600Y-107934203D01*
X204827601Y-109837088D01*
X204783663Y-109881026D01*
X204670395Y-110050544D01*
X204592374Y-110238902D01*
X204552600Y-110438861D01*
X204552600Y-110642739D01*
X204592374Y-110842698D01*
X204670395Y-111031056D01*
X204783663Y-111200574D01*
X204927826Y-111344737D01*
X205097344Y-111458005D01*
X205285702Y-111536026D01*
X205485661Y-111575800D01*
X205689539Y-111575800D01*
X205889498Y-111536026D01*
X206077856Y-111458005D01*
X206247374Y-111344737D01*
X206391537Y-111200574D01*
X206408828Y-111174696D01*
X206460063Y-111251374D01*
X206604226Y-111395537D01*
X206773744Y-111508805D01*
X206962102Y-111586826D01*
X207162061Y-111626600D01*
X207365939Y-111626600D01*
X207565898Y-111586826D01*
X207754256Y-111508805D01*
X207923774Y-111395537D01*
X208067937Y-111251374D01*
X208181205Y-111081856D01*
X208259226Y-110893498D01*
X208299000Y-110693539D01*
X208299000Y-110631401D01*
X209908603Y-109021799D01*
X209937601Y-108998001D01*
X209974166Y-108953446D01*
X210032574Y-108882277D01*
X210103146Y-108750247D01*
X210115783Y-108708587D01*
X210146603Y-108606986D01*
X210157600Y-108495333D01*
X210157600Y-108495324D01*
X210161276Y-108458001D01*
X210157600Y-108420678D01*
X210157600Y-106259511D01*
X210264102Y-106303626D01*
X210464061Y-106343400D01*
X210667939Y-106343400D01*
X210764799Y-106324133D01*
X210764799Y-109976041D01*
X210634544Y-110029995D01*
X210465026Y-110143263D01*
X210320863Y-110287426D01*
X210207595Y-110456944D01*
X210129574Y-110645302D01*
X210089800Y-110845261D01*
X210089800Y-111049139D01*
X210129574Y-111249098D01*
X210207595Y-111437456D01*
X210320863Y-111606974D01*
X210465026Y-111751137D01*
X210634544Y-111864405D01*
X210822902Y-111942426D01*
X211022861Y-111982200D01*
X211226739Y-111982200D01*
X211426698Y-111942426D01*
X211615056Y-111864405D01*
X211784574Y-111751137D01*
X211817415Y-111718296D01*
X211844863Y-111759374D01*
X211888800Y-111803311D01*
X211888800Y-111842600D01*
X211821861Y-111842600D01*
X211621902Y-111882374D01*
X211433544Y-111960395D01*
X211264026Y-112073663D01*
X211220089Y-112117600D01*
X210095322Y-112117600D01*
X210057999Y-112113924D01*
X210020676Y-112117600D01*
X210020667Y-112117600D01*
X209909014Y-112128597D01*
X209765753Y-112172054D01*
X209633724Y-112242626D01*
X209564057Y-112299800D01*
X209498861Y-112299800D01*
X209298902Y-112339574D01*
X209110544Y-112417595D01*
X208941026Y-112530863D01*
X208796863Y-112675026D01*
X208683595Y-112844544D01*
X208605574Y-113032902D01*
X208565800Y-113232861D01*
X208565800Y-113436739D01*
X208596444Y-113590800D01*
X200703311Y-113590800D01*
X200659374Y-113546863D01*
X200489856Y-113433595D01*
X200301498Y-113355574D01*
X200101539Y-113315800D01*
X199897661Y-113315800D01*
X199697702Y-113355574D01*
X199509344Y-113433595D01*
X199339826Y-113546863D01*
X199195663Y-113691026D01*
X199082395Y-113860544D01*
X199004374Y-114048902D01*
X198964600Y-114248861D01*
X190493347Y-114248861D01*
X190493347Y-113966039D01*
X190553605Y-113875856D01*
X190631626Y-113687498D01*
X190671400Y-113487539D01*
X190671400Y-113283661D01*
X190631626Y-113083702D01*
X190553605Y-112895344D01*
X190440337Y-112725826D01*
X190296174Y-112581663D01*
X190126656Y-112468395D01*
X189938298Y-112390374D01*
X189738339Y-112350600D01*
X189534461Y-112350600D01*
X189334502Y-112390374D01*
X189146144Y-112468395D01*
X188976626Y-112581663D01*
X188832463Y-112725826D01*
X188719195Y-112895344D01*
X188641174Y-113083702D01*
X188601400Y-113283661D01*
X188601400Y-113487539D01*
X188641174Y-113687498D01*
X188719195Y-113875856D01*
X188832463Y-114045374D01*
X188973348Y-114186259D01*
X188973347Y-116902942D01*
X188929410Y-116946879D01*
X188816142Y-117116397D01*
X188812351Y-117125550D01*
X188066604Y-116379803D01*
X188042801Y-116350799D01*
X187927076Y-116255826D01*
X187795047Y-116185254D01*
X187651786Y-116141797D01*
X187540133Y-116130800D01*
X187540122Y-116130800D01*
X187502800Y-116127124D01*
X187465478Y-116130800D01*
X186516654Y-116130800D01*
X186348292Y-115878828D01*
X186127172Y-115657708D01*
X185867163Y-115483976D01*
X185578257Y-115364307D01*
X185271555Y-115303300D01*
X184958845Y-115303300D01*
X184652143Y-115364307D01*
X184363237Y-115483976D01*
X184103228Y-115657708D01*
X183882108Y-115878828D01*
X183713746Y-116130800D01*
X181436654Y-116130800D01*
X181268292Y-115878828D01*
X181047172Y-115657708D01*
X180787163Y-115483976D01*
X180498257Y-115364307D01*
X180191555Y-115303300D01*
X179878845Y-115303300D01*
X179572143Y-115364307D01*
X179283237Y-115483976D01*
X179023228Y-115657708D01*
X178802108Y-115878828D01*
X178628376Y-116138837D01*
X178508707Y-116427743D01*
X178447700Y-116734445D01*
X178447700Y-117047155D01*
X178508707Y-117353857D01*
X178628376Y-117642763D01*
X178802108Y-117902772D01*
X179023228Y-118123892D01*
X179283237Y-118297624D01*
X179572143Y-118417293D01*
X179878845Y-118478300D01*
X180191555Y-118478300D01*
X180498257Y-118417293D01*
X180787163Y-118297624D01*
X181047172Y-118123892D01*
X181268292Y-117902772D01*
X181436654Y-117650800D01*
X183713746Y-117650800D01*
X183882108Y-117902772D01*
X184103228Y-118123892D01*
X184363237Y-118297624D01*
X184652143Y-118417293D01*
X184958845Y-118478300D01*
X185271555Y-118478300D01*
X185578257Y-118417293D01*
X185867163Y-118297624D01*
X186127172Y-118123892D01*
X186348292Y-117902772D01*
X186516654Y-117650800D01*
X187187999Y-117650800D01*
X188610998Y-119073799D01*
X188604600Y-119105963D01*
X188604600Y-119349237D01*
X188650135Y-119578159D01*
X178078600Y-119559790D01*
X178078600Y-110628800D01*
X181645928Y-110628800D01*
X181658188Y-110753282D01*
X181694498Y-110872980D01*
X181753463Y-110983294D01*
X181832815Y-111079985D01*
X181929506Y-111159337D01*
X182039820Y-111218302D01*
X182112380Y-111240313D01*
X181980525Y-111372168D01*
X181818010Y-111615389D01*
X181706068Y-111885642D01*
X181649000Y-112172540D01*
X181649000Y-112465060D01*
X181706068Y-112751958D01*
X181818010Y-113022211D01*
X181980525Y-113265432D01*
X182187368Y-113472275D01*
X182430589Y-113634790D01*
X182700842Y-113746732D01*
X182987740Y-113803800D01*
X183280260Y-113803800D01*
X183567158Y-113746732D01*
X183837411Y-113634790D01*
X184080632Y-113472275D01*
X184287475Y-113265432D01*
X184449990Y-113022211D01*
X184561932Y-112751958D01*
X184619000Y-112465060D01*
X184619000Y-112172540D01*
X184561932Y-111885642D01*
X184449990Y-111615389D01*
X184287475Y-111372168D01*
X184155620Y-111240313D01*
X184228180Y-111218302D01*
X184338494Y-111159337D01*
X184435185Y-111079985D01*
X184514537Y-110983294D01*
X184573502Y-110872980D01*
X184609812Y-110753282D01*
X184622072Y-110628800D01*
X184619000Y-110064550D01*
X184460250Y-109905800D01*
X183261000Y-109905800D01*
X183261000Y-109925800D01*
X183007000Y-109925800D01*
X183007000Y-109905800D01*
X181807750Y-109905800D01*
X181649000Y-110064550D01*
X181645928Y-110628800D01*
X178078600Y-110628800D01*
X178078600Y-108928800D01*
X181645928Y-108928800D01*
X181649000Y-109493050D01*
X181807750Y-109651800D01*
X183007000Y-109651800D01*
X183007000Y-108452550D01*
X183261000Y-108452550D01*
X183261000Y-109651800D01*
X184460250Y-109651800D01*
X184619000Y-109493050D01*
X184622072Y-108928800D01*
X184609812Y-108804318D01*
X184573502Y-108684620D01*
X184514537Y-108574306D01*
X184435185Y-108477615D01*
X184338494Y-108398263D01*
X184228180Y-108339298D01*
X184108482Y-108302988D01*
X183984000Y-108290728D01*
X183419750Y-108293800D01*
X183261000Y-108452550D01*
X183007000Y-108452550D01*
X182848250Y-108293800D01*
X182284000Y-108290728D01*
X182159518Y-108302988D01*
X182039820Y-108339298D01*
X181929506Y-108398263D01*
X181832815Y-108477615D01*
X181753463Y-108574306D01*
X181694498Y-108684620D01*
X181658188Y-108804318D01*
X181645928Y-108928800D01*
X178078600Y-108928800D01*
X178078600Y-100122845D01*
X178701700Y-100122845D01*
X178701700Y-100435555D01*
X178762707Y-100742257D01*
X178882376Y-101031163D01*
X179056108Y-101291172D01*
X179277228Y-101512292D01*
X179529200Y-101680654D01*
X179529201Y-103957746D01*
X179277228Y-104126108D01*
X179056108Y-104347228D01*
X178882376Y-104607237D01*
X178762707Y-104896143D01*
X178701700Y-105202845D01*
X178701700Y-105515555D01*
X178762707Y-105822257D01*
X178882376Y-106111163D01*
X179056108Y-106371172D01*
X179277228Y-106592292D01*
X179537237Y-106766024D01*
X179826143Y-106885693D01*
X180132845Y-106946700D01*
X180445555Y-106946700D01*
X180752257Y-106885693D01*
X181041163Y-106766024D01*
X181301172Y-106592292D01*
X181522292Y-106371172D01*
X181696024Y-106111163D01*
X181815693Y-105822257D01*
X181876700Y-105515555D01*
X181876700Y-105202845D01*
X181815693Y-104896143D01*
X181696024Y-104607237D01*
X181522292Y-104347228D01*
X181301172Y-104126108D01*
X181049200Y-103957746D01*
X181049200Y-101680654D01*
X181301172Y-101512292D01*
X181522292Y-101291172D01*
X181696024Y-101031163D01*
X181815693Y-100742257D01*
X181876700Y-100435555D01*
X181876700Y-100122845D01*
X181815693Y-99816143D01*
X181696024Y-99527237D01*
X181522292Y-99267228D01*
X181301172Y-99046108D01*
X181169401Y-98958061D01*
X187890200Y-98958061D01*
X187890200Y-99161939D01*
X187929974Y-99361898D01*
X188007995Y-99550256D01*
X188121263Y-99719774D01*
X188165201Y-99763712D01*
X188165200Y-101048689D01*
X188121263Y-101092626D01*
X188007995Y-101262144D01*
X187929974Y-101450502D01*
X187890200Y-101650461D01*
X187890200Y-101854339D01*
X187929974Y-102054298D01*
X188007995Y-102242656D01*
X188121263Y-102412174D01*
X188265426Y-102556337D01*
X188434944Y-102669605D01*
X188623302Y-102747626D01*
X188823261Y-102787400D01*
X189027139Y-102787400D01*
X189227098Y-102747626D01*
X189415456Y-102669605D01*
X189584974Y-102556337D01*
X189729137Y-102412174D01*
X189842405Y-102242656D01*
X189920426Y-102054298D01*
X189960200Y-101854339D01*
X189960200Y-101650461D01*
X189920426Y-101450502D01*
X189842405Y-101262144D01*
X189729137Y-101092626D01*
X189685200Y-101048689D01*
X189685200Y-99763711D01*
X189729137Y-99719774D01*
X189842405Y-99550256D01*
X189920426Y-99361898D01*
X189960200Y-99161939D01*
X189960200Y-98958061D01*
X189920426Y-98758102D01*
X189842405Y-98569744D01*
X189729137Y-98400226D01*
X189584974Y-98256063D01*
X189415456Y-98142795D01*
X189227098Y-98064774D01*
X189027139Y-98025000D01*
X188823261Y-98025000D01*
X188623302Y-98064774D01*
X188434944Y-98142795D01*
X188265426Y-98256063D01*
X188121263Y-98400226D01*
X188007995Y-98569744D01*
X187929974Y-98758102D01*
X187890200Y-98958061D01*
X181169401Y-98958061D01*
X181041163Y-98872376D01*
X180752257Y-98752707D01*
X180445555Y-98691700D01*
X180132845Y-98691700D01*
X179826143Y-98752707D01*
X179537237Y-98872376D01*
X179277228Y-99046108D01*
X179056108Y-99267228D01*
X178882376Y-99527237D01*
X178762707Y-99816143D01*
X178701700Y-100122845D01*
X178078600Y-100122845D01*
X178078600Y-97367535D01*
X179367270Y-97367535D01*
X179457298Y-97627081D01*
X179738816Y-97763224D01*
X180041486Y-97841829D01*
X180353674Y-97859877D01*
X180663385Y-97816672D01*
X180958716Y-97713877D01*
X181121102Y-97627081D01*
X181211130Y-97367535D01*
X180289200Y-96445605D01*
X179367270Y-97367535D01*
X178078600Y-97367535D01*
X178078600Y-96330474D01*
X178695323Y-96330474D01*
X178738528Y-96640185D01*
X178841323Y-96935516D01*
X178928119Y-97097902D01*
X179187665Y-97187930D01*
X180109595Y-96266000D01*
X180468805Y-96266000D01*
X181390735Y-97187930D01*
X181650281Y-97097902D01*
X181786424Y-96816384D01*
X181800963Y-96760400D01*
X190027928Y-96760400D01*
X190040188Y-96884882D01*
X190076498Y-97004580D01*
X190135463Y-97114894D01*
X190214815Y-97211585D01*
X190311506Y-97290937D01*
X190421820Y-97349902D01*
X190541518Y-97386212D01*
X190666000Y-97398472D01*
X191230250Y-97395400D01*
X191389000Y-97236650D01*
X191389000Y-96037400D01*
X190189750Y-96037400D01*
X190031000Y-96196150D01*
X190027928Y-96760400D01*
X181800963Y-96760400D01*
X181865029Y-96513714D01*
X181883077Y-96201526D01*
X181839872Y-95891815D01*
X181737077Y-95596484D01*
X181650281Y-95434098D01*
X181390735Y-95344070D01*
X180468805Y-96266000D01*
X180109595Y-96266000D01*
X179187665Y-95344070D01*
X178928119Y-95434098D01*
X178791976Y-95715616D01*
X178713371Y-96018286D01*
X178695323Y-96330474D01*
X178078600Y-96330474D01*
X178078600Y-95164465D01*
X179367270Y-95164465D01*
X180289200Y-96086395D01*
X181211130Y-95164465D01*
X181175034Y-95060400D01*
X190027928Y-95060400D01*
X190031000Y-95624650D01*
X190189750Y-95783400D01*
X191389000Y-95783400D01*
X191389000Y-95763400D01*
X191643000Y-95763400D01*
X191643000Y-95783400D01*
X191663000Y-95783400D01*
X191663000Y-96037400D01*
X191643000Y-96037400D01*
X191643000Y-97236650D01*
X191801750Y-97395400D01*
X192366000Y-97398472D01*
X192490482Y-97386212D01*
X192584800Y-97357601D01*
X192584800Y-98356289D01*
X192540863Y-98400226D01*
X192427595Y-98569744D01*
X192349574Y-98758102D01*
X192309800Y-98958061D01*
X192309800Y-99161939D01*
X192349574Y-99361898D01*
X192427595Y-99550256D01*
X192540863Y-99719774D01*
X192685026Y-99863937D01*
X192854544Y-99977205D01*
X193042902Y-100055226D01*
X193242861Y-100095000D01*
X193446739Y-100095000D01*
X193646698Y-100055226D01*
X193702401Y-100032153D01*
X193702400Y-104553889D01*
X193658463Y-104597826D01*
X193545195Y-104767344D01*
X193467174Y-104955702D01*
X193427400Y-105155661D01*
X193427400Y-105359539D01*
X193467174Y-105559498D01*
X193545195Y-105747856D01*
X193658463Y-105917374D01*
X193802626Y-106061537D01*
X193972144Y-106174805D01*
X194160502Y-106252826D01*
X194360461Y-106292600D01*
X194564339Y-106292600D01*
X194764298Y-106252826D01*
X194952656Y-106174805D01*
X195122174Y-106061537D01*
X195175600Y-106008111D01*
X195175601Y-107834443D01*
X195125605Y-107713744D01*
X195012337Y-107544226D01*
X194868174Y-107400063D01*
X194698656Y-107286795D01*
X194510298Y-107208774D01*
X194310339Y-107169000D01*
X194106461Y-107169000D01*
X193906502Y-107208774D01*
X193718144Y-107286795D01*
X193548626Y-107400063D01*
X193404463Y-107544226D01*
X193291195Y-107713744D01*
X193213174Y-107902102D01*
X193173400Y-108102061D01*
X193173400Y-108167258D01*
X193156071Y-108188374D01*
X193116226Y-108236924D01*
X193076846Y-108310599D01*
X193045654Y-108368954D01*
X193002197Y-108512215D01*
X192991200Y-108623868D01*
X192991200Y-108623878D01*
X192987524Y-108661200D01*
X192991200Y-108698523D01*
X192991201Y-110192688D01*
X192947263Y-110236626D01*
X192833995Y-110406144D01*
X192755974Y-110594502D01*
X192716200Y-110794461D01*
X192716200Y-110998339D01*
X192755974Y-111198298D01*
X192833995Y-111386656D01*
X192947263Y-111556174D01*
X193091426Y-111700337D01*
X193260944Y-111813605D01*
X193449302Y-111891626D01*
X193649261Y-111931400D01*
X193853139Y-111931400D01*
X194053098Y-111891626D01*
X194241456Y-111813605D01*
X194410974Y-111700337D01*
X194555137Y-111556174D01*
X194668405Y-111386656D01*
X194746426Y-111198298D01*
X194786200Y-110998339D01*
X194786200Y-110794461D01*
X194746426Y-110594502D01*
X194668405Y-110406144D01*
X194555137Y-110236626D01*
X194511200Y-110192689D01*
X194511200Y-109198852D01*
X194698656Y-109121205D01*
X194868174Y-109007937D01*
X195012337Y-108863774D01*
X195125605Y-108694256D01*
X195175601Y-108573556D01*
X195175601Y-109329088D01*
X195131663Y-109373026D01*
X195018395Y-109542544D01*
X194940374Y-109730902D01*
X194900600Y-109930861D01*
X194900600Y-110134739D01*
X194940374Y-110334698D01*
X195018395Y-110523056D01*
X195131663Y-110692574D01*
X195275826Y-110836737D01*
X195445344Y-110950005D01*
X195633702Y-111028026D01*
X195713400Y-111043879D01*
X195713400Y-111049139D01*
X195753174Y-111249098D01*
X195831195Y-111437456D01*
X195944463Y-111606974D01*
X196088626Y-111751137D01*
X196258144Y-111864405D01*
X196446502Y-111942426D01*
X196646461Y-111982200D01*
X196850339Y-111982200D01*
X197050298Y-111942426D01*
X197238656Y-111864405D01*
X197408174Y-111751137D01*
X197552337Y-111606974D01*
X197665605Y-111437456D01*
X197743626Y-111249098D01*
X197783400Y-111049139D01*
X197783400Y-110845261D01*
X197743626Y-110645302D01*
X197665605Y-110456944D01*
X197552337Y-110287426D01*
X197508400Y-110243489D01*
X197508400Y-108141711D01*
X197561826Y-108195137D01*
X197731344Y-108308405D01*
X197919702Y-108386426D01*
X198119661Y-108426200D01*
X198323539Y-108426200D01*
X198523498Y-108386426D01*
X198711856Y-108308405D01*
X198881374Y-108195137D01*
X199025537Y-108050974D01*
X199138805Y-107881456D01*
X199216826Y-107693098D01*
X199256600Y-107493139D01*
X199256600Y-107289261D01*
X199216826Y-107089302D01*
X199138805Y-106900944D01*
X199025537Y-106731426D01*
X198930800Y-106636689D01*
X198930800Y-102006061D01*
X203282600Y-102006061D01*
X203282600Y-102209939D01*
X203322374Y-102409898D01*
X203400395Y-102598256D01*
X203513663Y-102767774D01*
X203657826Y-102911937D01*
X203827344Y-103025205D01*
X204015702Y-103103226D01*
X204215661Y-103143000D01*
X204419539Y-103143000D01*
X204619498Y-103103226D01*
X204800200Y-103028376D01*
X204980902Y-103103226D01*
X205180861Y-103143000D01*
X205384739Y-103143000D01*
X205584698Y-103103226D01*
X205773056Y-103025205D01*
X205942574Y-102911937D01*
X206086737Y-102767774D01*
X206200005Y-102598256D01*
X206278026Y-102409898D01*
X206317800Y-102209939D01*
X206317800Y-102006061D01*
X206278026Y-101806102D01*
X206210371Y-101642770D01*
X206250805Y-101582256D01*
X206328826Y-101393898D01*
X206368600Y-101193939D01*
X206368600Y-100990061D01*
X206328826Y-100790102D01*
X206250805Y-100601744D01*
X206137537Y-100432226D01*
X205993374Y-100288063D01*
X205823856Y-100174795D01*
X205635498Y-100096774D01*
X205435539Y-100057000D01*
X205231661Y-100057000D01*
X205031702Y-100096774D01*
X204899729Y-100151439D01*
X204858656Y-100123995D01*
X204670298Y-100045974D01*
X204470339Y-100006200D01*
X204266461Y-100006200D01*
X204066502Y-100045974D01*
X203878144Y-100123995D01*
X203708626Y-100237263D01*
X203564463Y-100381426D01*
X203451195Y-100550944D01*
X203373174Y-100739302D01*
X203333400Y-100939261D01*
X203333400Y-101143139D01*
X203373174Y-101343098D01*
X203451195Y-101531456D01*
X203454623Y-101536586D01*
X203400395Y-101617744D01*
X203322374Y-101806102D01*
X203282600Y-102006061D01*
X198930800Y-102006061D01*
X198930800Y-100627311D01*
X198974737Y-100583374D01*
X199088005Y-100413856D01*
X199166026Y-100225498D01*
X199205800Y-100025539D01*
X199205800Y-99821661D01*
X199166026Y-99621702D01*
X199088005Y-99433344D01*
X198974737Y-99263826D01*
X198830574Y-99119663D01*
X198661056Y-99006395D01*
X198472698Y-98928374D01*
X198272739Y-98888600D01*
X198068861Y-98888600D01*
X197868902Y-98928374D01*
X197680544Y-99006395D01*
X197511026Y-99119663D01*
X197366863Y-99263826D01*
X197253595Y-99433344D01*
X197175574Y-99621702D01*
X197135800Y-99821661D01*
X197135800Y-100025539D01*
X197175574Y-100225498D01*
X197253595Y-100413856D01*
X197366863Y-100583374D01*
X197410800Y-100627311D01*
X197410800Y-101509889D01*
X197408174Y-101507263D01*
X197238656Y-101393995D01*
X197050298Y-101315974D01*
X196850339Y-101276200D01*
X196646461Y-101276200D01*
X196446502Y-101315974D01*
X196258144Y-101393995D01*
X196088626Y-101507263D01*
X195944463Y-101651426D01*
X195831195Y-101820944D01*
X195753174Y-102009302D01*
X195733352Y-102108952D01*
X195633702Y-102128774D01*
X195445344Y-102206795D01*
X195275826Y-102320063D01*
X195222400Y-102373489D01*
X195222400Y-99458911D01*
X195266337Y-99414974D01*
X195379605Y-99245456D01*
X195457626Y-99057098D01*
X195497400Y-98857139D01*
X195497400Y-98653261D01*
X195457626Y-98453302D01*
X195379605Y-98264944D01*
X195266337Y-98095426D01*
X195122174Y-97951263D01*
X194952656Y-97837995D01*
X194764298Y-97759974D01*
X194564339Y-97720200D01*
X194360461Y-97720200D01*
X194160502Y-97759974D01*
X194104800Y-97783047D01*
X194104800Y-93033800D01*
X194157939Y-93033800D01*
X194357898Y-92994026D01*
X194546256Y-92916005D01*
X194715774Y-92802737D01*
X194859937Y-92658574D01*
X194973205Y-92489056D01*
X195051226Y-92300698D01*
X195091000Y-92100739D01*
X195091000Y-92049600D01*
X199693124Y-92049600D01*
X199707798Y-92198585D01*
X199751254Y-92341846D01*
X199821826Y-92473876D01*
X199893001Y-92560602D01*
X203550601Y-96218203D01*
X203574399Y-96247201D01*
X203603397Y-96270999D01*
X203690124Y-96342174D01*
X203800286Y-96401058D01*
X203728774Y-96573702D01*
X203689000Y-96773661D01*
X203689000Y-96977539D01*
X203728774Y-97177498D01*
X203806795Y-97365856D01*
X203920063Y-97535374D01*
X204064226Y-97679537D01*
X204233744Y-97792805D01*
X204422102Y-97870826D01*
X204622061Y-97910600D01*
X204825939Y-97910600D01*
X205025898Y-97870826D01*
X205214256Y-97792805D01*
X205383774Y-97679537D01*
X205527937Y-97535374D01*
X205641205Y-97365856D01*
X205719226Y-97177498D01*
X205759000Y-96977539D01*
X205759000Y-96915401D01*
X207324802Y-95349600D01*
X209571289Y-95349600D01*
X209615226Y-95393537D01*
X209784744Y-95506805D01*
X209973102Y-95584826D01*
X210173061Y-95624600D01*
X210376939Y-95624600D01*
X210576898Y-95584826D01*
X210765256Y-95506805D01*
X210934774Y-95393537D01*
X211078937Y-95249374D01*
X211192205Y-95079856D01*
X211270226Y-94891498D01*
X211310000Y-94691539D01*
X211310000Y-94487661D01*
X211270226Y-94287702D01*
X211192205Y-94099344D01*
X211078937Y-93929826D01*
X210934774Y-93785663D01*
X210765256Y-93672395D01*
X210576898Y-93594374D01*
X210376939Y-93554600D01*
X210173061Y-93554600D01*
X209973102Y-93594374D01*
X209784744Y-93672395D01*
X209615226Y-93785663D01*
X209571289Y-93829600D01*
X207047322Y-93829600D01*
X207009999Y-93825924D01*
X206972676Y-93829600D01*
X206972667Y-93829600D01*
X206861014Y-93840597D01*
X206717753Y-93884054D01*
X206585724Y-93954626D01*
X206469999Y-94049599D01*
X206446201Y-94078597D01*
X204918900Y-95605899D01*
X204914203Y-95558214D01*
X204870746Y-95414953D01*
X204800174Y-95282924D01*
X204705201Y-95167199D01*
X204589476Y-95072226D01*
X204513752Y-95031750D01*
X200967802Y-91485801D01*
X200881076Y-91414626D01*
X200749046Y-91344054D01*
X200605785Y-91300598D01*
X200456800Y-91285924D01*
X200307815Y-91300598D01*
X200164554Y-91344054D01*
X200032524Y-91414626D01*
X199916799Y-91509599D01*
X199821826Y-91625324D01*
X199751254Y-91757354D01*
X199707798Y-91900615D01*
X199693124Y-92049600D01*
X195091000Y-92049600D01*
X195091000Y-91896861D01*
X195051226Y-91696902D01*
X194973205Y-91508544D01*
X194859937Y-91339026D01*
X194715774Y-91194863D01*
X194546256Y-91081595D01*
X194357898Y-91003574D01*
X194157939Y-90963800D01*
X193954061Y-90963800D01*
X193754102Y-91003574D01*
X193565744Y-91081595D01*
X193396226Y-91194863D01*
X193252063Y-91339026D01*
X193138795Y-91508544D01*
X193060774Y-91696902D01*
X193021000Y-91896861D01*
X193021000Y-91958999D01*
X192833798Y-92146201D01*
X192804800Y-92169999D01*
X192781002Y-92198997D01*
X192781001Y-92198998D01*
X192709826Y-92285724D01*
X192647686Y-92401979D01*
X192462632Y-92216925D01*
X192219411Y-92054410D01*
X191949158Y-91942468D01*
X191662260Y-91885400D01*
X191369740Y-91885400D01*
X191082842Y-91942468D01*
X190812589Y-92054410D01*
X190569368Y-92216925D01*
X190362525Y-92423768D01*
X190200010Y-92666989D01*
X190088068Y-92937242D01*
X190031000Y-93224140D01*
X190031000Y-93516660D01*
X190088068Y-93803558D01*
X190200010Y-94073811D01*
X190362525Y-94317032D01*
X190494380Y-94448887D01*
X190421820Y-94470898D01*
X190311506Y-94529863D01*
X190214815Y-94609215D01*
X190135463Y-94705906D01*
X190076498Y-94816220D01*
X190040188Y-94935918D01*
X190027928Y-95060400D01*
X181175034Y-95060400D01*
X181121102Y-94904919D01*
X180839584Y-94768776D01*
X180536914Y-94690171D01*
X180224726Y-94672123D01*
X179915015Y-94715328D01*
X179619684Y-94818123D01*
X179457298Y-94904919D01*
X179367270Y-95164465D01*
X178078600Y-95164465D01*
X178078600Y-92287535D01*
X179367270Y-92287535D01*
X179457298Y-92547081D01*
X179738816Y-92683224D01*
X180041486Y-92761829D01*
X180353674Y-92779877D01*
X180663385Y-92736672D01*
X180958716Y-92633877D01*
X181121102Y-92547081D01*
X181211130Y-92287535D01*
X180289200Y-91365605D01*
X179367270Y-92287535D01*
X178078600Y-92287535D01*
X178078600Y-91250474D01*
X178695323Y-91250474D01*
X178738528Y-91560185D01*
X178841323Y-91855516D01*
X178928119Y-92017902D01*
X179187665Y-92107930D01*
X180109595Y-91186000D01*
X180468805Y-91186000D01*
X181390735Y-92107930D01*
X181650281Y-92017902D01*
X181786424Y-91736384D01*
X181865029Y-91433714D01*
X181883077Y-91121526D01*
X181839872Y-90811815D01*
X181737077Y-90516484D01*
X181650281Y-90354098D01*
X181390735Y-90264070D01*
X180468805Y-91186000D01*
X180109595Y-91186000D01*
X179187665Y-90264070D01*
X178928119Y-90354098D01*
X178791976Y-90635616D01*
X178713371Y-90938286D01*
X178695323Y-91250474D01*
X178078600Y-91250474D01*
X178078600Y-90084465D01*
X179367270Y-90084465D01*
X180289200Y-91006395D01*
X181211130Y-90084465D01*
X181121102Y-89824919D01*
X180839584Y-89688776D01*
X180536914Y-89610171D01*
X180224726Y-89592123D01*
X179915015Y-89635328D01*
X179619684Y-89738123D01*
X179457298Y-89824919D01*
X179367270Y-90084465D01*
X178078600Y-90084465D01*
X178078600Y-89127800D01*
X235229109Y-89127800D01*
X235180492Y-119659011D01*
M02*
